<svg width="243" height="43" style="" viewBox="0 0 243 43" fill="none" xmlns="http://www.w3.org/2000/svg">
	<g clip-path="url(#Frame_clip0-17-66)">
		<path
			d="M81.443 11.2302H86.429L93.106 27.5273H93.37L100.047 11.2302H105.033V33.7211H101.123V18.2696H100.914L94.699 33.6552H91.777L85.562 18.2366H85.353V33.7211H81.443V11.2302ZM114.148 34.0615C113.079 34.0615 112.116 33.8712 111.259 33.4905C110.41 33.1025 109.736 32.5314 109.239 31.7773C108.748 31.0232 108.503 30.0934 108.503 28.9879C108.503 28.0361 108.679 27.2491 109.03 26.6268C109.381 26.0045 109.861 25.5066 110.469 25.1333C111.076 24.7599 111.761 24.478 112.522 24.2876C113.291 24.09 114.085 23.9472 114.905 23.8594C115.894 23.7569 116.695 23.6653 117.31 23.5848C117.925 23.497 118.372 23.3652 118.65 23.1895C118.936 23.0064 119.078 22.7246 119.078 22.3439V22.278C119.078 21.4507 118.833 20.81 118.343 20.3561C117.852 19.9022 117.146 19.6752 116.223 19.6752C115.249 19.6752 114.477 19.8876 113.906 20.3122C113.342 20.7368 112.961 21.2383 112.764 21.8167L109.052 21.2896C109.345 20.2646 109.828 19.408 110.502 18.7198C111.175 18.0243 111.999 17.5045 112.972 17.1604C113.946 16.809 115.022 16.6333 116.201 16.6333C117.014 16.6333 117.823 16.7284 118.628 16.9188C119.433 17.1091 120.169 17.424 120.836 17.8632C121.502 18.2952 122.036 18.8846 122.439 19.6313C122.849 20.3781 123.054 21.3116 123.054 22.4317V33.7211H119.232V31.4039H119.1C118.859 31.8725 118.518 32.3118 118.079 32.7217C117.647 33.1244 117.102 33.4502 116.443 33.6991C115.791 33.9407 115.026 34.0615 114.148 34.0615ZM115.18 31.1404C115.978 31.1404 116.67 30.9829 117.255 30.6681C117.841 30.346 118.291 29.9214 118.606 29.3942C118.928 28.8671 119.089 28.2924 119.089 27.6701V25.6823C118.965 25.7848 118.753 25.88 118.452 25.9679C118.16 26.0557 117.83 26.1326 117.464 26.1985C117.098 26.2644 116.736 26.323 116.377 26.3742C116.018 26.4255 115.707 26.4694 115.443 26.506C114.85 26.5865 114.32 26.7183 113.851 26.9013C113.382 27.0844 113.013 27.3406 112.742 27.6701C112.471 27.9922 112.336 28.4095 112.336 28.922C112.336 29.6541 112.603 30.2069 113.137 30.5803C113.672 30.9537 114.353 31.1404 115.18 31.1404ZM135.474 16.8529V19.9278H125.777V16.8529H135.474ZM128.171 12.8116H132.147V28.6475C132.147 29.1819 132.227 29.5919 132.388 29.8774C132.557 30.1556 132.777 30.346 133.047 30.4485C133.318 30.551 133.618 30.6022 133.948 30.6022C134.197 30.6022 134.424 30.5839 134.629 30.5473C134.841 30.5107 135.002 30.4778 135.112 30.4485L135.782 33.5564C135.57 33.6296 135.266 33.7101 134.87 33.798C134.482 33.8858 134.006 33.9371 133.443 33.9517C132.447 33.981 131.55 33.8309 130.752 33.5015C129.954 33.1647 129.321 32.6449 128.852 31.942C128.391 31.2392 128.164 30.3606 128.171 29.3064V12.8116ZM146.086 34.0506C144.394 34.0506 142.934 33.6991 141.704 32.9963C140.481 32.2861 139.54 31.2831 138.882 29.9873C138.223 28.6841 137.893 27.1503 137.893 25.3858C137.893 23.6507 138.223 22.1279 138.882 20.8174C139.548 19.4995 140.478 18.4746 141.671 17.7424C142.864 17.003 144.266 16.6333 145.877 16.6333C146.917 16.6333 147.898 16.8017 148.82 17.1384C149.75 17.4679 150.57 17.9804 151.28 18.6759C151.998 19.3714 152.561 20.2573 152.971 21.3335C153.381 22.4024 153.586 23.6763 153.586 25.1552V26.3742H139.76V23.6946H149.776C149.768 22.9332 149.604 22.256 149.281 21.663C148.959 21.0626 148.509 20.5904 147.931 20.2463C147.36 19.9022 146.693 19.7302 145.932 19.7302C145.119 19.7302 144.405 19.9278 143.79 20.3232C143.175 20.7112 142.696 21.2237 142.352 21.8606C142.015 22.4903 141.843 23.1821 141.836 23.9362V26.2754C141.836 27.2564 142.015 28.0984 142.374 28.8012C142.733 29.4967 143.234 30.0312 143.878 30.4046C144.523 30.7706 145.277 30.9537 146.141 30.9537C146.719 30.9537 147.242 30.8731 147.711 30.7121C148.18 30.5437 148.586 30.2984 148.93 29.9763C149.274 29.6541 149.534 29.2551 149.71 28.7792L153.422 29.1966C153.187 30.1776 152.741 31.0342 152.082 31.7663C151.43 32.4911 150.596 33.0549 149.578 33.4575C148.56 33.8529 147.396 34.0506 146.086 34.0506ZM156.949 33.7211V16.8529H160.804V19.6643H160.98C161.287 18.6905 161.814 17.9401 162.561 17.413C163.315 16.8785 164.176 16.6113 165.142 16.6113C165.362 16.6113 165.607 16.6223 165.878 16.6442C166.156 16.6589 166.387 16.6845 166.57 16.7211V20.3781C166.401 20.3195 166.134 20.2683 165.768 20.2243C165.409 20.1731 165.061 20.1475 164.725 20.1475C164 20.1475 163.348 20.3049 162.77 20.6197C162.199 20.9272 161.749 21.3555 161.419 21.9046C161.09 22.4537 160.925 23.087 160.925 23.8044V33.7211H156.949ZM169.211 33.7211V16.8529H173.186V33.7211H169.211ZM171.209 14.4588C170.58 14.4588 170.038 14.2502 169.584 13.8329C169.13 13.4082 168.903 12.8994 168.903 12.3064C168.903 11.7061 169.13 11.1972 169.584 10.7799C170.038 10.3553 170.58 10.143 171.209 10.143C171.846 10.143 172.388 10.3553 172.835 10.7799C173.289 11.1972 173.516 11.7061 173.516 12.3064C173.516 12.8994 173.289 13.4082 172.835 13.8329C172.388 14.2502 171.846 14.4588 171.209 14.4588ZM182.128 34.0615C181.059 34.0615 180.097 33.8712 179.24 33.4905C178.391 33.1025 177.717 32.5314 177.219 31.7773C176.729 31.0232 176.484 30.0934 176.484 28.9879C176.484 28.0361 176.659 27.2491 177.011 26.6268C177.362 26.0045 177.842 25.5066 178.449 25.1333C179.057 24.7599 179.742 24.478 180.503 24.2876C181.272 24.09 182.066 23.9472 182.886 23.8594C183.874 23.7569 184.676 23.6653 185.291 23.5848C185.906 23.497 186.353 23.3652 186.631 23.1895C186.916 23.0064 187.059 22.7246 187.059 22.3439V22.278C187.059 21.4507 186.814 20.81 186.323 20.3561C185.833 19.9022 185.126 19.6752 184.204 19.6752C183.23 19.6752 182.458 19.8876 181.887 20.3122C181.323 20.7368 180.942 21.2383 180.745 21.8167L177.033 21.2896C177.325 20.2646 177.809 19.408 178.482 18.7198C179.156 18.0243 179.979 17.5045 180.953 17.1604C181.927 16.809 183.003 16.6333 184.182 16.6333C184.995 16.6333 185.804 16.7284 186.609 16.9188C187.414 17.1091 188.15 17.424 188.816 17.8632C189.482 18.2952 190.017 18.8846 190.42 19.6313C190.83 20.3781 191.035 21.3116 191.035 22.4317V33.7211H187.213V31.4039H187.081C186.839 31.8725 186.499 32.3118 186.06 32.7217C185.628 33.1244 185.082 33.4502 184.423 33.6991C183.772 33.9407 183.007 34.0615 182.128 34.0615ZM183.161 31.1404C183.959 31.1404 184.65 30.9829 185.236 30.6681C185.822 30.346 186.272 29.9214 186.587 29.3942C186.909 28.8671 187.07 28.2924 187.07 27.6701V25.6823C186.946 25.7848 186.733 25.88 186.433 25.9679C186.14 26.0557 185.811 26.1326 185.445 26.1985C185.079 26.2644 184.716 26.323 184.358 26.3742C183.999 26.4255 183.688 26.4694 183.424 26.506C182.831 26.5865 182.3 26.7183 181.832 26.9013C181.363 27.0844 180.993 27.3406 180.723 27.6701C180.452 27.9922 180.316 28.4095 180.316 28.922C180.316 29.6541 180.583 30.2069 181.118 30.5803C181.652 30.9537 182.333 31.1404 183.161 31.1404ZM199.007 11.2302V33.7211H195.032V11.2302H199.007ZM203.095 33.7211V16.8529H207.071V33.7211H203.095ZM205.094 14.4588C204.465 14.4588 203.923 14.2502 203.469 13.8329C203.015 13.4082 202.788 12.8994 202.788 12.3064C202.788 11.7061 203.015 11.1972 203.469 10.7799C203.923 10.3553 204.465 10.143 205.094 10.143C205.731 10.143 206.273 10.3553 206.719 10.7799C207.173 11.1972 207.4 11.7061 207.4 12.3064C207.4 12.8994 207.173 13.4082 206.719 13.8329C206.273 14.2502 205.731 14.4588 205.094 14.4588ZM210.939 33.7211V31.1953L219.637 20.2902V20.1475H211.225V16.8529H224.502V19.5654L216.222 30.2838V30.4265H224.787V33.7211H210.939ZM235.509 34.0506C233.817 34.0506 232.357 33.6991 231.127 32.9963C229.904 32.2861 228.963 31.2831 228.304 29.9873C227.645 28.6841 227.316 27.1503 227.316 25.3858C227.316 23.6507 227.645 22.1279 228.304 20.8174C228.971 19.4995 229.9 18.4746 231.094 17.7424C232.287 17.003 233.689 16.6333 235.3 16.6333C236.339 16.6333 237.321 16.8017 238.243 17.1384C239.173 17.4679 239.993 17.9804 240.703 18.6759C241.42 19.3714 241.984 20.2573 242.394 21.3335C242.804 22.4024 243.009 23.6763 243.009 25.1552V26.3742H229.183V23.6946H239.198C239.191 22.9332 239.026 22.256 238.704 21.663C238.382 21.0626 237.932 20.5904 237.353 20.2463C236.782 19.9022 236.116 19.7302 235.355 19.7302C234.542 19.7302 233.828 19.9278 233.213 20.3232C232.598 20.7112 232.119 21.2237 231.775 21.8606C231.438 22.4903 231.266 23.1821 231.259 23.9362V26.2754C231.259 27.2564 231.438 28.0984 231.797 28.8012C232.155 29.4967 232.657 30.0312 233.301 30.4046C233.945 30.7706 234.7 30.9537 235.563 30.9537C236.142 30.9537 236.665 30.8731 237.134 30.7121C237.602 30.5437 238.009 30.2984 238.353 29.9763C238.697 29.6541 238.957 29.2551 239.133 28.7792L242.844 29.1966C242.61 30.1776 242.164 31.0342 241.505 31.7663C240.853 32.4911 240.018 33.0549 239.001 33.4575C237.983 33.8529 236.819 34.0506 235.509 34.0506Z"
			fill="white" />
		<path opacity="0.7"
			d="M51.691 -0.457805V5.769L51.681 42.6337H41.6797V3.1678L44.8143 -0.0241044C44.9467 -0.167204 45.1084 -0.280003 45.2883 -0.354903C45.4683 -0.429703 45.6622 -0.464805 45.857 -0.457805H51.691Z"
			fill="white" />
		<path opacity="0.7" fill-rule="evenodd" clip-rule="evenodd"
			d="M36.3939 28.6088C35.6882 27.704 34.9844 26.8015 34.2936 26.1107C33.0157 24.8373 31.7468 23.5549 30.4789 22.2735C29.8462 21.634 29.2138 20.9948 28.5806 20.3571V15.9218L28.5826 15.9127C28.577 15.718 28.6134 15.5243 28.6894 15.3449C28.74 15.2257 28.8072 15.1146 28.8889 15.015L38.5851 5.7261V6.222V29.9623C38.5845 29.9957 38.5857 30.1112 38.5872 30.2594C38.5908 30.6035 38.5963 31.1235 38.5851 31.2003C37.861 30.49 37.1265 29.5481 36.3939 28.6088Z"
			fill="white" />
		<path d="M0.367699 11.0498V25.0412L18.0211 42.6337H32.0599L0.367699 11.0498Z" fill="white" />
		<path d="M0.367699 42.6337H13.3438L0.367699 29.705V42.6337Z" fill="white" />
		<path
			d="M36.7927 42.6337H50.694L8.7684 -0.0236959C8.636 -0.166696 8.4744 -0.279394 8.2945 -0.354194C8.1146 -0.428894 7.9207 -0.463997 7.726 -0.456897H0.381699V5.76331L36.7927 42.6337Z"
			fill="white" />
	</g>
	<defs>
		<clipPath id="Frame_clip0-17-66">
			<rect width="243" height="43" fill="white" />
		</clipPath>
	</defs>
</svg>
