<svg width="67" height="56" style="" viewBox="0 0 67 56" fill="none" xmlns="http://www.w3.org/2000/svg">
	<g clip-path="url(#Frame_clip0-17-53)">
		<path opacity="0.7"
			d="M67.5576 -0.391989V7.81111L67.5453 56.3767H54.369V4.38441L58.4986 0.179307C58.673 -0.0091926 58.886 -0.157792 59.123 -0.256392C59.3601 -0.354992 59.6156 -0.401289 59.8722 -0.391989H67.5576Z"
			fill="white" />
		<path opacity="0.7" fill-rule="evenodd" clip-rule="evenodd"
			d="M47.4055 37.9003C46.4758 36.7083 45.5486 35.5194 44.6385 34.6093C42.9551 32.9318 41.2835 31.2424 39.6133 29.5543C38.7797 28.7118 37.9465 27.8697 37.1122 27.0295V21.1866L37.115 21.1745C37.1075 20.9179 37.1555 20.6628 37.2557 20.4265C37.3223 20.2693 37.411 20.1229 37.5187 19.9916L50.2922 7.7547V8.408V39.6833C50.2914 39.7274 50.293 39.8796 50.295 40.0749C50.2998 40.5281 50.3069 41.2131 50.2922 41.3143C49.3383 40.3786 48.3706 39.1378 47.4055 37.9003Z"
			fill="white" />
		<path d="M-0.0554008 14.7681V33.2004L23.2013 56.3767H41.696L-0.0554008 14.7681Z" fill="white" />
		<path d="M-0.0554008 56.3767H17.0393L-0.0554008 39.3445V56.3767Z" fill="white" />
		<path
			d="M47.9309 56.3767H66.2442L11.0117 0.179794C10.8374 -0.0085061 10.6244 -0.157005 10.3874 -0.255505C10.1504 -0.354005 9.895 -0.400204 9.6385 -0.390904H-0.0368996V7.8037L47.9309 56.3767Z"
			fill="white" />
	</g>
	<defs>
		<clipPath id="Frame_clip0-17-53">
			<rect width="67" height="56" fill="white" />
		</clipPath>
	</defs>
</svg>
