<svg width="422" height="201" viewBox="0 0 422 201" fill="none" xmlns="http://www.w3.org/2000/svg">
	<g clip-path="url(#clip0_2_3)">
		<mask id="mask0_2_3" style="mask-type:luminance" maskUnits="userSpaceOnUse" x="-37" y="0" width="508"
			height="211">
			<path d="M471 0H-37V211H471V0Z" fill="white" />
		</mask>
		<g mask="url(#mask0_2_3)">
			<g filter="url(#filter0_d_2_3)">
				<path d="M238 -6H4V194H238V-6Z" fill="#39D7E1" fill-opacity="0.1" />
			</g>
			<g filter="url(#filter1_d_2_3)">
				<path d="M177 88H108" stroke="url(#paint0_linear_2_3)" stroke-width="12" />
			</g>
			<g filter="url(#filter2_d_2_3)">
				<path d="M252 86H326" stroke="url(#paint1_linear_2_3)" stroke-width="20" />
			</g>
			<g filter="url(#filter3_d_2_3)">
				<path d="M252 86H326" stroke="white" stroke-width="16" />
			</g>
			<g filter="url(#filter4_d_2_3)">
				<path d="M252 86H326" stroke="url(#paint2_linear_2_3)" stroke-width="12" />
			</g>
			<g filter="url(#filter5_dddddd_2_3)">
				<path
					d="M236 49H193C184.163 49 177 56.1634 177 65V108C177 116.837 184.163 124 193 124H236C244.837 124 252 116.837 252 108V65C252 56.1634 244.837 49 236 49Z"
					fill="black" />
				<path
					d="M236 50.5H193C184.992 50.5 178.5 56.9919 178.5 65V108C178.5 116.008 184.992 122.5 193 122.5H236C244.008 122.5 250.5 116.008 250.5 108V65C250.5 56.9919 244.008 50.5 236 50.5Z"
					stroke="url(#paint3_linear_2_3)" stroke-width="3" />
			</g>
			<path
				d="M212.115 91.4979L213.647 92.7939C213.893 93.0019 214.197 93.1059 214.5 93.1059C214.803 93.1059 215.106 93.0019 215.353 92.7939L216.886 91.4979C220.512 88.4289 222.428 84.4159 222.428 79.8919C222.428 79.4279 222.185 78.9979 221.787 78.7589L215.18 74.7949C214.762 74.5439 214.238 74.5439 213.82 74.7949L207.213 78.7589C206.816 78.9979 206.571 79.4279 206.571 79.8919C206.571 84.4159 208.488 88.4279 212.115 91.4979ZM212.244 81.6009C212.761 81.0849 213.597 81.0849 214.113 81.6009L214.5 81.9879L216.209 80.2789C216.725 79.7629 217.561 79.7629 218.077 80.2789C218.593 80.7959 218.593 81.6319 218.077 82.1479L215.434 84.7909C215.176 85.0489 214.838 85.1779 214.5 85.1779C214.162 85.1779 213.824 85.0489 213.565 84.7909L212.244 83.4689C211.728 82.9529 211.728 82.1169 212.244 81.6009Z"
				fill="#D9D9D9" />
			<path
				d="M232.663 68.44C232.413 68.16 232.054 68 231.678 68H225.072C224.341 68 223.75 68.591 223.75 69.321V73.285H219.786V69.321C219.786 68.591 219.195 68 218.464 68H210.536C209.805 68 209.214 68.591 209.214 69.321V73.285H205.25V69.321C205.25 68.591 204.659 68 203.929 68H197.322C196.946 68 196.588 68.16 196.337 68.44C196.087 68.72 195.967 69.093 196.008 69.467L197.329 81.36C197.404 82.029 197.97 82.535 198.643 82.535H205.483C205.344 81.673 205.25 80.796 205.25 79.893C205.25 78.97 205.742 78.102 206.533 77.627L213.14 73.662C213.549 73.416 214.02 73.285 214.5 73.285C214.98 73.285 215.451 73.416 215.861 73.663L222.467 77.627C223.258 78.102 223.75 78.97 223.75 79.893C223.75 80.796 223.656 81.673 223.518 82.535H230.357C231.03 82.535 231.596 82.029 231.67 81.36L232.992 69.467C233.033 69.093 232.913 68.72 232.663 68.44Z"
				fill="#D9D9D9" />
			<path
				d="M201.286 101.035C201.286 103.221 203.065 104.999 205.251 104.999H223.75C225.936 104.999 227.714 103.221 227.714 101.035V97.0701L201.286 97.0711V101.035ZM222.429 100.374C222.429 100.009 222.724 99.7131 223.09 99.7131C223.455 99.7131 223.75 100.009 223.75 100.374V101.695C223.75 102.061 223.455 102.356 223.09 102.356C222.725 102.356 222.429 102.061 222.429 101.695V100.374ZM219.786 100.374C219.786 100.009 220.082 99.7131 220.447 99.7131C220.812 99.7131 221.107 100.009 221.107 100.374V101.695C221.107 102.061 220.812 102.356 220.447 102.356C220.082 102.356 219.786 102.061 219.786 101.695V100.374ZM217.143 100.374C217.143 100.009 217.439 99.7131 217.804 99.7131C218.169 99.7131 218.465 100.009 218.465 100.374V101.695C218.465 102.061 218.169 102.356 217.804 102.356C217.439 102.356 217.143 102.061 217.143 101.695V100.374ZM214.5 100.374C214.5 100.009 214.796 99.7131 215.161 99.7131C215.526 99.7131 215.822 100.009 215.822 100.374V101.695C215.822 102.061 215.526 102.356 215.161 102.356C214.796 102.356 214.5 102.061 214.5 101.695V100.374Z"
				fill="#D9D9D9" />
			<path
				d="M223.75 87.821H221.66C220.68 89.537 219.382 91.116 217.74 92.506L216.207 93.803C215.73 94.206 215.124 94.428 214.5 94.428C213.877 94.428 213.271 94.206 212.795 93.803L211.263 92.507C209.62 91.117 208.321 89.538 207.341 87.821H205.251C203.065 87.821 201.287 89.599 201.287 91.785V95.749H227.715V91.785C227.715 89.599 225.936 87.821 223.751 87.821H223.75ZM221.108 92.446C221.108 92.811 220.812 93.106 220.447 93.106C220.082 93.107 219.786 92.811 219.786 92.446V91.124C219.786 90.759 220.082 90.4641 220.447 90.4641C220.812 90.4641 221.107 90.759 221.107 91.124L221.108 92.446ZM223.75 92.446C223.75 92.811 223.455 93.106 223.09 93.106C222.725 93.107 222.429 92.811 222.429 92.446V91.124C222.429 90.759 222.724 90.4641 223.089 90.4641C223.455 90.4641 223.75 90.759 223.75 91.124V92.446Z"
				fill="#D9D9D9" />
			<path
				d="M194.692 146.678C194.692 146.262 194.61 145.942 194.446 145.718C194.286 145.49 194.072 145.332 193.804 145.244C193.536 145.156 193.242 145.112 192.922 145.112H191.512V148.142H192.874C193.078 148.142 193.286 148.122 193.498 148.082C193.71 148.042 193.906 147.97 194.086 147.866C194.27 147.762 194.416 147.616 194.524 147.428C194.636 147.236 194.692 146.986 194.692 146.678ZM194.362 142.874C194.362 142.406 194.216 142.074 193.924 141.878C193.636 141.678 193.242 141.578 192.742 141.578H191.512V144.254H192.844C193.332 144.254 193.706 144.146 193.966 143.93C194.23 143.71 194.362 143.358 194.362 142.874ZM195.79 146.642C195.79 147.09 195.7 147.466 195.52 147.77C195.344 148.074 195.106 148.316 194.806 148.496C194.51 148.676 194.178 148.806 193.81 148.886C193.446 148.962 193.074 149 192.694 149H190.474V140.738H192.508C192.872 140.738 193.226 140.772 193.57 140.84C193.918 140.904 194.23 141.016 194.506 141.176C194.786 141.332 195.01 141.544 195.178 141.812C195.346 142.08 195.43 142.416 195.43 142.82C195.43 143.176 195.356 143.478 195.208 143.726C195.064 143.97 194.874 144.166 194.638 144.314C194.406 144.462 194.158 144.566 193.894 144.626C194.202 144.674 194.5 144.768 194.788 144.908C195.08 145.044 195.32 145.252 195.508 145.532C195.696 145.808 195.79 146.178 195.79 146.642ZM202.242 147.62C202.242 147.872 202.284 148.056 202.368 148.172C202.452 148.288 202.582 148.374 202.758 148.43L202.512 149.138C202.24 149.102 202.002 149.016 201.798 148.88C201.594 148.74 201.446 148.53 201.354 148.25C201.126 148.542 200.842 148.764 200.502 148.916C200.162 149.064 199.786 149.138 199.374 149.138C198.742 149.138 198.244 148.96 197.88 148.604C197.516 148.248 197.334 147.776 197.334 147.188C197.334 146.536 197.588 146.036 198.096 145.688C198.604 145.34 199.338 145.166 200.298 145.166H201.228V144.638C201.228 144.182 201.094 143.86 200.826 143.672C200.562 143.48 200.194 143.384 199.722 143.384C199.514 143.384 199.27 143.41 198.99 143.462C198.71 143.51 198.406 143.592 198.078 143.708L197.814 142.946C198.202 142.802 198.566 142.7 198.906 142.64C199.246 142.58 199.57 142.55 199.878 142.55C200.666 142.55 201.256 142.734 201.648 143.102C202.044 143.466 202.242 143.962 202.242 144.59V147.62ZM199.632 148.37C199.944 148.37 200.242 148.292 200.526 148.136C200.81 147.976 201.044 147.756 201.228 147.476V145.85H200.316C199.62 145.85 199.128 145.97 198.84 146.21C198.556 146.45 198.414 146.772 198.414 147.176C198.414 147.568 198.514 147.866 198.714 148.07C198.918 148.27 199.224 148.37 199.632 148.37ZM207.061 148.304C207.545 148.304 207.927 148.214 208.207 148.034C208.491 147.85 208.633 147.606 208.633 147.302C208.633 147.11 208.597 146.944 208.525 146.804C208.457 146.664 208.315 146.538 208.099 146.426C207.883 146.314 207.551 146.202 207.103 146.09C206.667 145.982 206.287 145.858 205.963 145.718C205.643 145.574 205.393 145.388 205.213 145.16C205.037 144.932 204.949 144.636 204.949 144.272C204.949 143.916 205.049 143.61 205.249 143.354C205.453 143.094 205.735 142.896 206.095 142.76C206.455 142.62 206.873 142.55 207.349 142.55C207.857 142.55 208.299 142.618 208.675 142.754C209.055 142.886 209.377 143.05 209.641 143.246L209.197 143.93C208.957 143.766 208.693 143.632 208.405 143.528C208.117 143.42 207.769 143.366 207.361 143.366C206.865 143.366 206.513 143.444 206.305 143.6C206.097 143.752 205.993 143.95 205.993 144.194C205.993 144.378 206.043 144.532 206.143 144.656C206.247 144.776 206.421 144.886 206.665 144.986C206.909 145.082 207.245 145.188 207.673 145.304C208.085 145.412 208.443 145.542 208.747 145.694C209.055 145.846 209.295 146.046 209.467 146.294C209.639 146.542 209.725 146.862 209.725 147.254C209.725 147.702 209.597 148.066 209.341 148.346C209.085 148.622 208.753 148.824 208.345 148.952C207.941 149.076 207.513 149.138 207.061 149.138C206.489 149.138 206.001 149.056 205.597 148.892C205.197 148.724 204.861 148.522 204.589 148.286L205.165 147.62C205.413 147.824 205.697 147.99 206.017 148.118C206.341 148.242 206.689 148.304 207.061 148.304ZM217.124 148.682C216.908 148.826 216.646 148.938 216.338 149.018C216.03 149.098 215.728 149.138 215.432 149.138C214.752 149.138 214.228 148.96 213.86 148.604C213.492 148.248 213.308 147.79 213.308 147.23V143.462H211.856V142.682H213.308V141.248L214.316 141.128V142.682H216.5L216.38 143.462H214.316V147.218C214.316 147.57 214.408 147.838 214.592 148.022C214.78 148.206 215.09 148.298 215.522 148.298C215.758 148.298 215.976 148.27 216.176 148.214C216.376 148.158 216.562 148.086 216.734 147.998L217.124 148.682ZM222.502 142.682V148.202H224.284V149H219.544V148.202H221.494V143.48H219.604V142.682H222.502ZM221.698 139.724C221.922 139.724 222.1 139.792 222.232 139.928C222.368 140.064 222.436 140.23 222.436 140.426C222.436 140.63 222.368 140.802 222.232 140.942C222.1 141.078 221.922 141.146 221.698 141.146C221.486 141.146 221.312 141.078 221.176 140.942C221.04 140.802 220.972 140.63 220.972 140.426C220.972 140.23 221.04 140.064 221.176 139.928C221.312 139.792 221.486 139.724 221.698 139.724ZM228.905 142.55C229.501 142.55 229.999 142.686 230.399 142.958C230.803 143.226 231.105 143.606 231.305 144.098C231.509 144.59 231.611 145.17 231.611 145.838C231.611 146.482 231.507 147.052 231.299 147.548C231.091 148.044 230.785 148.434 230.381 148.718C229.981 148.998 229.485 149.138 228.893 149.138C228.301 149.138 227.803 149.002 227.399 148.73C226.995 148.458 226.689 148.076 226.481 147.584C226.277 147.088 226.175 146.51 226.175 145.85C226.175 145.198 226.279 144.624 226.487 144.128C226.695 143.632 227.001 143.246 227.405 142.97C227.813 142.69 228.313 142.55 228.905 142.55ZM228.905 143.372C228.361 143.372 227.949 143.574 227.669 143.978C227.393 144.378 227.255 145.002 227.255 145.85C227.255 146.682 227.391 147.3 227.663 147.704C227.939 148.108 228.349 148.31 228.893 148.31C229.437 148.31 229.845 148.108 230.117 147.704C230.393 147.3 230.531 146.678 230.531 145.838C230.531 144.998 230.395 144.378 230.123 143.978C229.851 143.574 229.445 143.372 228.905 143.372ZM233.694 149V142.682H234.552L234.63 143.558C234.886 143.234 235.206 142.986 235.59 142.814C235.978 142.638 236.354 142.55 236.718 142.55C237.338 142.55 237.788 142.714 238.068 143.042C238.352 143.37 238.494 143.826 238.494 144.41V149H237.486V145.154C237.486 144.722 237.462 144.374 237.414 144.11C237.366 143.842 237.266 143.648 237.114 143.528C236.962 143.404 236.726 143.342 236.406 143.342C236.158 143.342 235.924 143.396 235.704 143.504C235.488 143.612 235.294 143.748 235.122 143.912C234.954 144.072 234.814 144.234 234.702 144.398V149H233.694ZM205.269 165V161.082H202.149V165H201.111V156.738H202.149V160.23H205.269V156.738H206.307V165H205.269ZM210.917 158.55C211.513 158.55 212.011 158.686 212.411 158.958C212.815 159.226 213.117 159.606 213.317 160.098C213.521 160.59 213.623 161.17 213.623 161.838C213.623 162.482 213.519 163.052 213.311 163.548C213.103 164.044 212.797 164.434 212.393 164.718C211.993 164.998 211.497 165.138 210.905 165.138C210.313 165.138 209.815 165.002 209.411 164.73C209.007 164.458 208.701 164.076 208.493 163.584C208.289 163.088 208.187 162.51 208.187 161.85C208.187 161.198 208.291 160.624 208.499 160.128C208.707 159.632 209.013 159.246 209.417 158.97C209.825 158.69 210.325 158.55 210.917 158.55ZM210.917 159.372C210.373 159.372 209.961 159.574 209.681 159.978C209.405 160.378 209.267 161.002 209.267 161.85C209.267 162.682 209.403 163.3 209.675 163.704C209.951 164.108 210.361 164.31 210.905 164.31C211.449 164.31 211.857 164.108 212.129 163.704C212.405 163.3 212.543 162.678 212.543 161.838C212.543 160.998 212.407 160.378 212.135 159.978C211.863 159.574 211.457 159.372 210.917 159.372ZM217.854 164.304C218.338 164.304 218.72 164.214 219 164.034C219.284 163.85 219.426 163.606 219.426 163.302C219.426 163.11 219.39 162.944 219.318 162.804C219.25 162.664 219.108 162.538 218.892 162.426C218.676 162.314 218.344 162.202 217.896 162.09C217.46 161.982 217.08 161.858 216.756 161.718C216.436 161.574 216.186 161.388 216.006 161.16C215.83 160.932 215.742 160.636 215.742 160.272C215.742 159.916 215.842 159.61 216.042 159.354C216.246 159.094 216.528 158.896 216.888 158.76C217.248 158.62 217.666 158.55 218.142 158.55C218.65 158.55 219.092 158.618 219.468 158.754C219.848 158.886 220.17 159.05 220.434 159.246L219.99 159.93C219.75 159.766 219.486 159.632 219.198 159.528C218.91 159.42 218.562 159.366 218.154 159.366C217.658 159.366 217.306 159.444 217.098 159.6C216.89 159.752 216.786 159.95 216.786 160.194C216.786 160.378 216.836 160.532 216.936 160.656C217.04 160.776 217.214 160.886 217.458 160.986C217.702 161.082 218.038 161.188 218.466 161.304C218.878 161.412 219.236 161.542 219.54 161.694C219.848 161.846 220.088 162.046 220.26 162.294C220.432 162.542 220.518 162.862 220.518 163.254C220.518 163.702 220.39 164.066 220.134 164.346C219.878 164.622 219.546 164.824 219.138 164.952C218.734 165.076 218.306 165.138 217.854 165.138C217.282 165.138 216.794 165.056 216.39 164.892C215.99 164.724 215.654 164.522 215.382 164.286L215.958 163.62C216.206 163.824 216.49 163.99 216.81 164.118C217.134 164.242 217.482 164.304 217.854 164.304ZM227.917 164.682C227.701 164.826 227.439 164.938 227.131 165.018C226.823 165.098 226.521 165.138 226.225 165.138C225.545 165.138 225.021 164.96 224.653 164.604C224.285 164.248 224.101 163.79 224.101 163.23V159.462H222.649V158.682H224.101V157.248L225.109 157.128V158.682H227.293L227.173 159.462H225.109V163.218C225.109 163.57 225.201 163.838 225.385 164.022C225.573 164.206 225.883 164.298 226.315 164.298C226.551 164.298 226.769 164.27 226.969 164.214C227.169 164.158 227.355 164.086 227.527 163.998L227.917 164.682Z"
				fill="white" />
			<g filter="url(#filter6_dddddd_2_3)">
				<path
					d="M326 62C326 53.163 333.163 46 342 46H390C398.837 46 406 53.163 406 62V110C406 118.837 398.837 126 390 126H342C333.163 126 326 118.837 326 110V62Z"
					fill="black" />
				<path
					d="M342 47.5H390C398.008 47.5 404.5 53.992 404.5 62V110C404.5 118.008 398.008 124.5 390 124.5H342C333.992 124.5 327.5 118.008 327.5 110V62C327.5 53.992 333.992 47.5 342 47.5Z"
					stroke="url(#paint4_linear_2_3)" stroke-width="3" />
			</g>
			<path
				d="M376.122 93.546C376.966 94.473 377.854 95.35 378.775 96.194C378.891 96.327 379.002 96.47 379.128 96.597C380.701 98.169 382.284 99.725 383.85 101.302C384.595 102.058 385.4 102.758 386.057 103.586H374.638C374.522 103.448 374.412 103.305 374.285 103.178C372.413 101.317 370.54 99.451 368.664 97.579C362.276 91.209 355.887 84.84 349.495 78.471C348.006 76.987 346.561 75.464 345.011 74.058V69.054C347.002 69.054 348.999 69.054 350.996 69.054C351.154 69.049 351.313 69.077 351.459 69.138C351.606 69.199 351.737 69.291 351.845 69.407C357.115 74.659 362.389 79.91 367.666 85.162C367.769 85.263 367.878 85.359 367.991 85.449C369.541 87.01 371.086 88.582 372.647 90.137C373.794 91.285 374.964 92.41 376.122 93.546Z"
				fill="white" />
			<path
				d="M386.074 103.585C385.401 102.757 384.595 102.057 383.867 101.301C382.301 99.7239 380.718 98.1679 379.145 96.5959C379.019 96.4689 378.908 96.3259 378.792 96.1929C378.792 95.9559 378.792 95.7239 378.792 95.4869C378.792 87.4409 378.792 79.3909 378.792 71.3369C378.785 70.9099 378.943 70.4969 379.234 70.1839C379.542 69.7639 379.958 69.4349 380.437 69.2309C380.917 69.0269 381.442 68.9559 381.959 69.0259C383.42 69.1359 384.899 69.0699 386.372 69.0259C386.824 69.0259 386.923 69.1469 386.923 69.5769C386.923 77.6529 386.923 85.7159 386.923 93.7659C386.923 96.8219 386.923 99.8799 386.923 102.939C386.923 103.155 386.923 103.37 386.956 103.585H386.074Z"
				fill="white" fill-opacity="0.5" />
			<path
				d="M386.074 103.585C385.401 102.757 384.595 102.057 383.867 101.301C382.301 99.7239 380.718 98.1679 379.145 96.5959C379.019 96.4689 378.908 96.3259 378.792 96.1929C378.792 95.9559 378.792 95.7239 378.792 95.4869C378.792 87.4409 378.792 79.3909 378.792 71.3369C378.785 70.9099 378.943 70.4969 379.234 70.1839C379.542 69.7639 379.958 69.4349 380.437 69.2309C380.917 69.0269 381.442 68.9559 381.959 69.0259C383.42 69.1359 384.899 69.0699 386.372 69.0259C386.824 69.0259 386.923 69.1469 386.923 69.5769C386.923 77.6529 386.923 85.7159 386.923 93.7659C386.923 96.8219 386.923 99.8799 386.923 102.939C386.923 103.155 386.923 103.37 386.956 103.585H386.074Z"
				fill="white" fill-opacity="0.5" />
			<path
				d="M345 89.248V77.8459C345.171 77.8839 345.259 78.033 345.37 78.149L348.894 81.63C355.389 88.106 361.883 94.582 368.378 101.058C369.205 101.885 370.082 102.674 370.827 103.584H359.386C359.386 103.419 359.226 103.347 359.127 103.248C355.13 99.254 351.125 95.264 347.113 91.278C346.447 90.562 345.742 89.884 345 89.248Z"
				fill="white" />
			<path
				d="M355.575 103.584C352.171 103.584 348.768 103.584 345.364 103.584C345.061 103.584 345 103.524 345 103.226C345 99.839 345 96.446 345 93.048C345.226 93.048 345.32 93.263 345.458 93.396C348.72 96.636 351.976 99.885 355.227 103.143C355.359 103.259 355.564 103.353 355.575 103.584Z"
				fill="white" />
			<path
				d="M376.123 93.545C374.965 92.409 373.795 91.284 372.648 90.136C371.087 88.581 369.542 87.008 367.992 85.447C367.992 84.234 367.992 83.026 367.992 81.812C367.98 81.688 367.996 81.563 368.038 81.446C368.08 81.328 368.147 81.222 368.235 81.134L375.831 73.576C375.892 73.516 375.969 73.466 376.024 73.417C376.195 73.477 376.145 73.604 376.145 73.698C376.145 80.225 376.145 86.751 376.145 93.275C376.144 93.365 376.136 93.456 376.123 93.545Z"
				fill="white" fill-opacity="0.5" />
			<path
				d="M376.123 93.545C374.965 92.409 373.795 91.284 372.648 90.136C371.087 88.581 369.542 87.008 367.992 85.447C367.992 84.234 367.992 83.026 367.992 81.812C367.98 81.688 367.996 81.563 368.038 81.446C368.08 81.328 368.147 81.222 368.235 81.134L375.831 73.576C375.892 73.516 375.969 73.466 376.024 73.417C376.195 73.477 376.145 73.604 376.145 73.698C376.145 80.225 376.145 86.751 376.145 93.275C376.144 93.365 376.136 93.456 376.123 93.545Z"
				fill="white" fill-opacity="0.5" />
			<path
				d="M321.722 147.984L322.346 159H321.01L320.666 153.248C320.65 152.859 320.634 152.464 320.618 152.064C320.602 151.664 320.592 151.28 320.586 150.912C320.581 150.544 320.578 150.216 320.578 149.928C320.578 149.64 320.578 149.416 320.578 149.256L318.722 157.024H317.33L315.338 149.256C315.344 149.411 315.349 149.64 315.354 149.944C315.36 150.243 315.362 150.581 315.362 150.96C315.368 151.339 315.365 151.728 315.354 152.128C315.349 152.523 315.338 152.891 315.322 153.232L315.026 159H313.722L314.346 147.984H316.282L318.066 155.528L319.77 147.984H321.722ZM330.468 157.16C330.468 157.496 330.524 157.741 330.636 157.896C330.748 158.051 330.921 158.165 331.156 158.24L330.828 159.184C330.465 159.136 330.148 159.021 329.876 158.84C329.604 158.653 329.407 158.373 329.284 158C328.98 158.389 328.601 158.685 328.148 158.888C327.695 159.085 327.193 159.184 326.644 159.184C325.801 159.184 325.137 158.947 324.652 158.472C324.167 157.997 323.924 157.368 323.924 156.584C323.924 155.715 324.263 155.048 324.94 154.584C325.617 154.12 326.596 153.888 327.876 153.888H329.116V153.184C329.116 152.576 328.937 152.147 328.58 151.896C328.228 151.64 327.737 151.512 327.108 151.512C326.831 151.512 326.505 151.547 326.132 151.616C325.759 151.68 325.353 151.789 324.916 151.944L324.564 150.928C325.081 150.736 325.567 150.6 326.02 150.52C326.473 150.44 326.905 150.4 327.316 150.4C328.367 150.4 329.153 150.645 329.676 151.136C330.204 151.621 330.468 152.283 330.468 153.12V157.16ZM326.988 158.16C327.404 158.16 327.801 158.056 328.18 157.848C328.559 157.635 328.871 157.341 329.116 156.968V154.8H327.9C326.972 154.8 326.316 154.96 325.932 155.28C325.553 155.6 325.364 156.029 325.364 156.568C325.364 157.091 325.497 157.488 325.764 157.76C326.036 158.027 326.444 158.16 326.988 158.16ZM340.718 158.576C340.43 158.768 340.081 158.917 339.67 159.024C339.259 159.131 338.857 159.184 338.462 159.184C337.555 159.184 336.857 158.947 336.366 158.472C335.875 157.997 335.63 157.387 335.63 156.64V151.616H333.694V150.576H335.63V148.664L336.974 148.504V150.576H339.886L339.726 151.616H336.974V156.624C336.974 157.093 337.097 157.451 337.342 157.696C337.593 157.941 338.006 158.064 338.582 158.064C338.897 158.064 339.187 158.027 339.454 157.952C339.721 157.877 339.969 157.781 340.198 157.664L340.718 158.576ZM344.68 155.264C344.706 155.915 344.832 156.448 345.056 156.864C345.28 157.275 345.576 157.579 345.944 157.776C346.312 157.968 346.712 158.064 347.144 158.064C347.576 158.064 347.965 158 348.312 157.872C348.664 157.744 349.024 157.555 349.392 157.304L350.024 158.192C349.629 158.501 349.178 158.744 348.672 158.92C348.17 159.096 347.656 159.184 347.128 159.184C346.312 159.184 345.616 159 345.04 158.632C344.464 158.264 344.024 157.752 343.72 157.096C343.421 156.435 343.272 155.669 343.272 154.8C343.272 153.947 343.424 153.189 343.728 152.528C344.032 151.867 344.458 151.347 345.008 150.968C345.557 150.589 346.205 150.4 346.952 150.4C347.661 150.4 348.272 150.568 348.784 150.904C349.296 151.235 349.688 151.709 349.96 152.328C350.237 152.941 350.376 153.675 350.376 154.528C350.376 154.672 350.373 154.808 350.368 154.936C350.362 155.059 350.354 155.168 350.344 155.264H344.68ZM346.968 151.504C346.344 151.504 345.821 151.725 345.4 152.168C344.984 152.611 344.746 153.296 344.688 154.224H349.08C349.064 153.323 348.866 152.645 348.488 152.192C348.109 151.733 347.602 151.504 346.968 151.504ZM353.297 159V157.968H354.609V151.608H353.297V150.576H355.633L355.881 152.568C356.207 151.875 356.601 151.339 357.065 150.96C357.529 150.581 358.143 150.392 358.905 150.392C359.14 150.392 359.348 150.411 359.529 150.448C359.716 150.48 359.905 150.523 360.097 150.576L359.705 151.776C359.529 151.728 359.369 151.693 359.225 151.672C359.081 151.645 358.916 151.632 358.729 151.632C358.084 151.632 357.529 151.861 357.065 152.32C356.601 152.779 356.231 153.472 355.953 154.4V157.968H357.665V159H353.297ZM358.801 153.424V151.592L358.937 150.576H360.097L359.905 153.424H358.801ZM367.075 150.576V157.936H369.451V159H363.131V157.936H365.731V151.64H363.211V150.576H367.075ZM366.003 146.632C366.302 146.632 366.539 146.723 366.715 146.904C366.896 147.085 366.987 147.307 366.987 147.568C366.987 147.84 366.896 148.069 366.715 148.256C366.539 148.437 366.302 148.528 366.003 148.528C365.72 148.528 365.488 148.437 365.307 148.256C365.126 148.069 365.035 147.84 365.035 147.568C365.035 147.307 365.126 147.085 365.307 146.904C365.488 146.723 365.72 146.632 366.003 146.632ZM378.437 157.16C378.437 157.496 378.493 157.741 378.605 157.896C378.717 158.051 378.89 158.165 379.125 158.24L378.797 159.184C378.434 159.136 378.117 159.021 377.845 158.84C377.573 158.653 377.376 158.373 377.253 158C376.949 158.389 376.57 158.685 376.117 158.888C375.664 159.085 375.162 159.184 374.613 159.184C373.77 159.184 373.106 158.947 372.621 158.472C372.136 157.997 371.893 157.368 371.893 156.584C371.893 155.715 372.232 155.048 372.909 154.584C373.586 154.12 374.565 153.888 375.845 153.888H377.085V153.184C377.085 152.576 376.906 152.147 376.549 151.896C376.197 151.64 375.706 151.512 375.077 151.512C374.8 151.512 374.474 151.547 374.101 151.616C373.728 151.68 373.322 151.789 372.885 151.944L372.533 150.928C373.05 150.736 373.536 150.6 373.989 150.52C374.442 150.44 374.874 150.4 375.285 150.4C376.336 150.4 377.122 150.645 377.645 151.136C378.173 151.621 378.437 152.283 378.437 153.12V157.16ZM374.957 158.16C375.373 158.16 375.77 158.056 376.149 157.848C376.528 157.635 376.84 157.341 377.085 156.968V154.8H375.869C374.941 154.8 374.285 154.96 373.901 155.28C373.522 155.6 373.333 156.029 373.333 156.568C373.333 157.091 373.466 157.488 373.733 157.76C374.005 158.027 374.413 158.16 374.957 158.16ZM385.279 147.184V156.92C385.279 157.336 385.407 157.632 385.663 157.808C385.924 157.979 386.26 158.064 386.671 158.064C386.927 158.064 387.169 158.037 387.399 157.984C387.628 157.931 387.857 157.859 388.087 157.768L388.447 158.752C388.217 158.864 387.932 158.963 387.591 159.048C387.255 159.139 386.873 159.184 386.447 159.184C385.7 159.184 385.095 158.979 384.631 158.568C384.167 158.152 383.935 157.579 383.935 156.848V148.248H381.351V147.184H385.279ZM395.856 150.576V157.936H398.232V159H391.912V157.936H394.512V151.64H391.992V150.576H395.856ZM394.784 146.632C395.083 146.632 395.32 146.723 395.496 146.904C395.678 147.085 395.768 147.307 395.768 147.568C395.768 147.84 395.678 148.069 395.496 148.256C395.32 148.437 395.083 148.528 394.784 148.528C394.502 148.528 394.27 148.437 394.088 148.256C393.907 148.069 393.816 147.84 393.816 147.568C393.816 147.307 393.907 147.085 394.088 146.904C394.27 146.723 394.502 146.632 394.784 146.632ZM402.866 157.856H407.554L407.378 159H401.218V157.984L405.89 151.744H401.586V150.576H407.506V151.616L402.866 157.856ZM411.836 155.264C411.863 155.915 411.988 156.448 412.212 156.864C412.436 157.275 412.732 157.579 413.1 157.776C413.468 157.968 413.868 158.064 414.3 158.064C414.732 158.064 415.121 158 415.468 157.872C415.82 157.744 416.18 157.555 416.548 157.304L417.18 158.192C416.785 158.501 416.335 158.744 415.828 158.92C415.327 159.096 414.812 159.184 414.284 159.184C413.468 159.184 412.772 159 412.196 158.632C411.62 158.264 411.18 157.752 410.876 157.096C410.577 156.435 410.428 155.669 410.428 154.8C410.428 153.947 410.58 153.189 410.884 152.528C411.188 151.867 411.615 151.347 412.164 150.968C412.713 150.589 413.361 150.4 414.108 150.4C414.817 150.4 415.428 150.568 415.94 150.904C416.452 151.235 416.844 151.709 417.116 152.328C417.393 152.941 417.532 153.675 417.532 154.528C417.532 154.672 417.529 154.808 417.524 154.936C417.519 155.059 417.511 155.168 417.5 155.264H411.836ZM414.124 151.504C413.5 151.504 412.977 151.725 412.556 152.168C412.14 152.611 411.903 153.296 411.844 154.224H416.236C416.22 153.323 416.023 152.645 415.644 152.192C415.265 151.733 414.759 151.504 414.124 151.504Z"
				fill="white" />
			<g filter="url(#filter7_dddddd_2_3)">
				<path
					d="M28 61C28 52.163 35.163 45 44 45H92C100.837 45 108 52.163 108 61V109C108 117.837 100.837 125 92 125H44C35.163 125 28 117.837 28 109V61Z"
					fill="black" />
				<path
					d="M44 46.5H92C100.008 46.5 106.5 52.992 106.5 61V109C106.5 117.008 100.008 123.5 92 123.5H44C35.992 123.5 29.5 117.008 29.5 109V61C29.5 52.992 35.992 46.5 44 46.5Z"
					stroke="url(#paint5_linear_2_3)" stroke-width="3" />
			</g>
			<path
				d="M77.174 63C75.492 63.013 73.819 63.261 72.204 63.739L72.09 63.776C71.072 63.593 70.04 63.491 69.006 63.473C66.881 63.436 65.055 63.961 63.583 64.833C62.133 64.322 59.124 63.44 55.953 63.616C53.745 63.739 51.335 64.421 49.55 66.337C47.769 68.253 46.828 71.217 47.026 75.25C47.08 76.363 47.392 78.178 47.91 80.529C48.428 82.879 49.155 85.631 50.062 88.141C50.969 90.652 51.963 92.907 53.516 94.44C54.292 95.208 55.36 95.854 56.619 95.8C57.503 95.764 58.302 95.37 58.991 94.788C59.326 95.238 59.685 95.434 60.012 95.615C60.423 95.844 60.824 96 61.239 96.103C61.983 96.292 63.259 96.545 64.752 96.286C65.261 96.2 65.797 96.031 66.331 95.791C66.351 96.396 66.374 96.988 66.397 97.588C66.471 99.487 66.518 101.242 67.079 102.78C67.17 103.031 67.417 104.326 68.391 105.468C69.365 106.612 71.273 107.325 73.447 106.852C74.98 106.518 76.93 105.917 78.225 104.043C79.506 102.192 80.083 99.535 80.197 95.227C80.226 94.994 80.26 94.796 80.296 94.611L80.601 94.638H80.637C82.273 94.713 84.048 94.477 85.531 93.776C86.844 93.159 87.838 92.533 88.561 91.424C88.742 91.149 88.94 90.817 88.994 90.245C89.048 89.673 88.725 88.779 88.19 88.366C87.116 87.538 86.442 87.853 85.718 88.005C85.006 88.165 84.28 88.255 83.55 88.273C85.635 84.703 87.131 80.912 87.984 77.557C88.489 75.577 88.772 73.751 88.796 72.154C88.819 70.557 88.691 69.144 87.749 67.921C84.807 64.1 80.671 63.044 77.471 63.007C77.372 63.006 77.273 63.004 77.174 63.006V63ZM77.089 64.173C80.116 64.144 83.983 65.008 86.759 68.614C87.383 69.424 87.569 70.608 87.547 72.068C87.524 73.525 87.259 75.271 86.774 77.183C85.832 80.886 84.053 85.204 81.548 89.078C81.636 89.141 81.732 89.194 81.833 89.235C82.356 89.455 83.548 89.644 85.928 89.147C86.526 89.019 86.965 88.933 87.419 89.285C87.53 89.38 87.617 89.5 87.674 89.635C87.732 89.77 87.757 89.917 87.749 90.064C87.725 90.286 87.644 90.499 87.515 90.68C87.055 91.382 86.148 92.048 84.984 92.596C83.954 93.083 82.477 93.338 81.167 93.353C80.511 93.36 79.905 93.309 79.391 93.146L79.358 93.133C79.16 95.076 78.703 98.913 78.406 100.664C78.168 102.076 77.751 103.198 76.955 104.038C76.162 104.877 75.038 105.383 73.526 105.713C71.654 106.122 70.288 105.682 69.408 104.929C68.53 104.177 68.127 103.18 67.886 102.569C67.72 102.148 67.633 101.601 67.55 100.872C67.467 100.142 67.406 99.249 67.364 98.242C67.309 96.701 67.291 95.159 67.31 93.617C66.528 94.345 65.556 94.829 64.511 95.01C63.268 95.225 62.158 95.014 61.496 94.845C61.17 94.762 60.855 94.638 60.558 94.477C60.252 94.31 59.96 94.121 59.765 93.749C59.65 93.536 59.614 93.288 59.662 93.05C59.723 92.809 59.861 92.596 60.055 92.444C60.412 92.148 60.885 91.983 61.597 91.833C62.894 91.562 63.347 91.377 63.623 91.155C63.858 90.964 64.123 90.579 64.592 90.014C64.59 89.989 64.588 89.964 64.586 89.939C63.747 89.915 62.925 89.69 62.187 89.283C61.917 89.573 60.535 91.058 58.85 93.118C58.141 93.98 57.358 94.475 56.532 94.51C55.706 94.546 54.959 94.123 54.324 93.498C53.056 92.246 52.044 90.091 51.162 87.657C50.282 85.222 49.566 82.511 49.057 80.2C48.547 77.89 48.245 76.028 48.202 75.129C48.013 71.312 48.891 68.74 50.397 67.118C51.905 65.495 53.973 64.881 55.988 64.764C59.604 64.553 63.039 65.834 63.733 66.109C65.072 65.185 66.796 64.61 68.95 64.646C69.972 64.661 70.99 64.795 71.982 65.046L72.018 65.03C72.455 64.873 72.9 64.742 73.351 64.637C74.576 64.347 75.829 64.192 77.087 64.177L77.089 64.173ZM77.363 65.402H77.1C76.066 65.416 75.037 65.534 74.026 65.754C76.273 66.766 77.971 68.324 79.167 69.879C79.998 70.955 80.684 72.139 81.209 73.399C81.407 73.883 81.541 74.292 81.616 74.609C81.654 74.768 81.68 74.902 81.689 75.041C81.692 75.111 81.696 75.183 81.667 75.305C81.667 75.311 81.658 75.324 81.656 75.329C81.71 76.935 81.319 78.024 81.272 79.557C81.236 80.668 81.515 81.973 81.584 83.398C81.649 84.736 81.49 86.207 80.635 87.649C80.707 87.737 80.772 87.825 80.841 87.913C83.103 84.293 84.733 80.287 85.603 76.871C86.068 75.032 86.315 73.366 86.337 72.046C86.355 70.726 86.113 69.769 85.805 69.369C83.384 66.223 80.108 65.422 77.363 65.4V65.402ZM68.723 65.871C66.59 65.877 65.061 66.531 63.901 67.512C62.705 68.526 61.902 69.914 61.376 71.334C60.75 73.021 60.535 74.653 60.45 75.76L60.474 75.745C61.118 75.379 61.964 75.012 62.869 74.799C63.775 74.589 64.751 74.523 65.634 74.871C66.518 75.219 67.249 76.039 67.514 77.282C68.784 83.253 67.119 85.473 66.506 87.149C66.273 87.756 66.074 88.376 65.909 89.006C65.986 88.988 66.064 88.966 66.141 88.958C66.574 88.922 66.913 89.068 67.115 89.156C67.732 89.417 68.156 89.963 68.385 90.586C68.445 90.75 68.488 90.926 68.513 91.107C68.54 91.182 68.552 91.261 68.549 91.34C68.481 93.624 68.489 95.91 68.573 98.193C68.614 99.179 68.676 100.048 68.753 100.734C68.831 101.418 68.941 101.939 69.011 102.115C69.242 102.701 69.579 103.469 70.189 103.992C70.799 104.513 71.674 104.861 73.272 104.513C74.657 104.21 75.512 103.79 76.084 103.187C76.654 102.584 76.995 101.744 77.213 100.459C77.54 98.534 78.196 92.951 78.276 91.901C78.24 91.109 78.355 90.5 78.604 90.036C78.86 89.56 79.257 89.268 79.6 89.111C79.771 89.032 79.932 88.979 80.063 88.94C79.924 88.736 79.778 88.538 79.625 88.344C79.131 87.735 78.726 87.056 78.424 86.329C78.279 86.029 78.124 85.734 77.96 85.444C77.72 85.004 77.417 84.454 77.1 83.836C76.465 82.599 75.774 81.099 75.415 79.638C75.058 78.178 75.005 76.668 75.922 75.602C76.733 74.656 78.158 74.264 80.298 74.484C80.235 74.292 80.197 74.132 80.09 73.875C79.607 72.718 78.975 71.631 78.213 70.641C76.4 68.286 73.465 65.95 68.93 65.875H68.723V65.871ZM56.742 65.966C56.512 65.966 56.283 65.974 56.056 65.987C54.234 66.093 52.512 66.63 51.28 67.957C50.046 69.285 49.234 71.461 49.411 75.063C49.445 75.745 49.737 77.656 50.239 79.925C50.738 82.195 51.447 84.866 52.299 87.226C53.152 89.585 54.186 91.639 55.167 92.61C55.661 93.096 56.09 93.292 56.48 93.276C56.871 93.258 57.342 93.028 57.918 92.326C58.967 91.04 60.056 89.788 61.183 88.572C60.383 87.866 59.771 86.967 59.403 85.958C59.035 84.948 58.923 83.861 59.078 82.797C59.263 81.442 59.289 80.175 59.267 79.174C59.245 78.198 59.177 77.549 59.177 77.144C59.176 77.133 59.176 77.121 59.177 77.109V77.1L59.175 77.089V77.087C59.174 74.977 59.535 72.882 60.243 70.898C60.748 69.534 61.5 68.148 62.627 67.026C61.52 66.656 59.554 66.091 57.425 65.985C57.197 65.973 56.968 65.967 56.74 65.966H56.742ZM79.105 75.65C77.881 75.667 77.193 75.987 76.833 76.407C76.322 77.003 76.273 78.048 76.591 79.335C76.907 80.624 77.56 82.065 78.173 83.262C78.48 83.862 78.777 84.401 79.017 84.839C79.259 85.279 79.436 85.591 79.544 85.856C79.643 86.102 79.753 86.318 79.865 86.52C80.339 85.503 80.424 84.503 80.375 83.462C80.312 82.173 80.018 80.855 80.062 79.52C80.11 77.96 80.413 76.944 80.44 75.738C79.998 75.68 79.552 75.65 79.105 75.65ZM64.253 75.861C63.879 75.864 63.506 75.91 63.142 75.997C62.415 76.176 61.716 76.453 61.062 76.82C60.84 76.94 60.63 77.08 60.432 77.238L60.393 77.274C60.403 77.542 60.456 78.191 60.477 79.146C60.499 80.191 60.474 81.524 60.275 82.967C59.844 86.102 62.083 88.698 64.713 88.702C64.866 88.058 65.119 87.406 65.371 86.718C66.103 84.712 67.545 83.249 66.331 77.54C66.132 76.605 65.739 76.228 65.198 76.015C64.895 75.906 64.574 75.854 64.253 75.861ZM78.534 76.235H78.624C78.743 76.239 78.853 76.251 78.949 76.275C79.046 76.297 79.129 76.33 79.197 76.376C79.233 76.398 79.263 76.428 79.286 76.462C79.309 76.497 79.325 76.536 79.333 76.578L79.331 76.592C79.334 76.679 79.313 76.766 79.268 76.84C79.215 76.941 79.148 77.033 79.069 77.115C78.886 77.32 78.641 77.457 78.373 77.504C78.112 77.536 77.849 77.468 77.634 77.315C77.546 77.255 77.467 77.182 77.399 77.098C77.341 77.033 77.301 76.952 77.285 76.866C77.282 76.823 77.286 76.781 77.299 76.74C77.312 76.7 77.333 76.663 77.361 76.631C77.42 76.563 77.492 76.507 77.572 76.466C77.745 76.367 77.98 76.294 78.245 76.253C78.344 76.239 78.442 76.231 78.534 76.229V76.235ZM64.428 76.543C64.523 76.543 64.624 76.552 64.727 76.567C65.003 76.605 65.248 76.68 65.436 76.79C65.528 76.839 65.609 76.905 65.676 76.985C65.712 77.027 65.74 77.077 65.757 77.13C65.773 77.184 65.779 77.24 65.773 77.296C65.756 77.402 65.709 77.5 65.638 77.579C65.564 77.671 65.477 77.751 65.38 77.817C65.146 77.986 64.857 78.06 64.572 78.024C64.28 77.976 64.013 77.828 63.814 77.606C63.73 77.517 63.658 77.416 63.602 77.306C63.542 77.209 63.516 77.095 63.528 76.981C63.555 76.783 63.715 76.68 63.872 76.624C64.051 76.566 64.238 76.541 64.426 76.55L64.428 76.543ZM80.77 90.005L80.765 90.007C80.5 90.104 80.282 90.145 80.098 90.227C79.912 90.3 79.758 90.439 79.666 90.619C79.553 90.83 79.455 91.204 79.484 91.84C79.566 91.898 79.656 91.941 79.751 91.969C80.06 92.064 80.577 92.126 81.155 92.117C82.305 92.104 83.722 91.831 84.474 91.476C85.091 91.184 85.664 90.805 86.175 90.348H86.173C83.66 90.876 82.241 90.735 81.369 90.37C81.153 90.279 80.951 90.155 80.77 90.003V90.005ZM66.284 90.178H66.246C66.15 90.187 66.011 90.22 65.743 90.522C65.115 91.237 64.895 91.686 64.377 92.106C63.859 92.524 63.187 92.748 61.843 93.028C61.417 93.116 61.174 93.214 61.011 93.292C61.064 93.336 61.058 93.347 61.137 93.39C61.334 93.5 61.587 93.597 61.79 93.65C62.368 93.797 63.317 93.967 64.307 93.797C65.297 93.624 66.327 93.142 67.206 91.89C67.357 91.674 67.373 91.355 67.249 91.012C67.123 90.669 66.847 90.374 66.652 90.291C66.536 90.234 66.412 90.197 66.284 90.181V90.178Z"
				fill="#EEEEEE" />
			<path
				d="M27.455 150.384C27.455 149.813 27.343 149.363 27.119 149.032C26.895 148.696 26.589 148.456 26.199 148.312C25.81 148.163 25.365 148.088 24.863 148.088H23.271V152.792H24.807C25.325 152.792 25.781 152.723 26.175 152.584C26.57 152.44 26.882 152.195 27.111 151.848C27.341 151.496 27.455 151.008 27.455 150.384ZM28.943 150.368C28.943 151.227 28.759 151.915 28.391 152.432C28.029 152.949 27.527 153.325 26.887 153.56C26.247 153.795 25.511 153.912 24.679 153.912H23.271V158H21.879V146.984H24.695C26.007 146.984 27.042 147.261 27.799 147.816C28.562 148.365 28.943 149.216 28.943 150.368ZM34.441 149.4C35.236 149.4 35.9 149.581 36.433 149.944C36.972 150.301 37.374 150.808 37.641 151.464C37.913 152.12 38.049 152.893 38.049 153.784C38.049 154.643 37.91 155.403 37.633 156.064C37.356 156.725 36.948 157.245 36.409 157.624C35.876 157.997 35.214 158.184 34.425 158.184C33.636 158.184 32.972 158.003 32.433 157.64C31.894 157.277 31.486 156.768 31.209 156.112C30.937 155.451 30.801 154.68 30.801 153.8C30.801 152.931 30.94 152.165 31.217 151.504C31.494 150.843 31.902 150.328 32.441 149.96C32.985 149.587 33.652 149.4 34.441 149.4ZM34.441 150.496C33.716 150.496 33.166 150.765 32.793 151.304C32.425 151.837 32.241 152.669 32.241 153.8C32.241 154.909 32.422 155.733 32.785 156.272C33.153 156.811 33.7 157.08 34.425 157.08C35.15 157.08 35.694 156.811 36.057 156.272C36.425 155.733 36.609 154.904 36.609 153.784C36.609 152.664 36.428 151.837 36.065 151.304C35.702 150.765 35.161 150.496 34.441 150.496ZM43.691 157.072C44.336 157.072 44.845 156.952 45.219 156.712C45.597 156.467 45.787 156.141 45.787 155.736C45.787 155.48 45.739 155.259 45.643 155.072C45.552 154.885 45.363 154.717 45.075 154.568C44.787 154.419 44.344 154.269 43.747 154.12C43.165 153.976 42.659 153.811 42.227 153.624C41.8 153.432 41.467 153.184 41.227 152.88C40.992 152.576 40.875 152.181 40.875 151.696C40.875 151.221 41.008 150.813 41.275 150.472C41.547 150.125 41.923 149.861 42.403 149.68C42.883 149.493 43.44 149.4 44.075 149.4C44.752 149.4 45.341 149.491 45.843 149.672C46.349 149.848 46.779 150.067 47.131 150.328L46.539 151.24C46.219 151.021 45.867 150.843 45.483 150.704C45.099 150.56 44.635 150.488 44.091 150.488C43.429 150.488 42.96 150.592 42.683 150.8C42.405 151.003 42.267 151.267 42.267 151.592C42.267 151.837 42.333 152.043 42.467 152.208C42.605 152.368 42.837 152.515 43.163 152.648C43.488 152.776 43.936 152.917 44.507 153.072C45.056 153.216 45.533 153.389 45.939 153.592C46.349 153.795 46.669 154.061 46.899 154.392C47.128 154.723 47.243 155.149 47.243 155.672C47.243 156.269 47.072 156.755 46.731 157.128C46.389 157.496 45.947 157.765 45.403 157.936C44.864 158.101 44.293 158.184 43.691 158.184C42.928 158.184 42.277 158.075 41.739 157.856C41.205 157.632 40.757 157.363 40.395 157.048L41.163 156.16C41.493 156.432 41.872 156.653 42.299 156.824C42.731 156.989 43.195 157.072 43.691 157.072ZM57.109 157.576C56.821 157.768 56.471 157.917 56.061 158.024C55.65 158.131 55.247 158.184 54.853 158.184C53.946 158.184 53.247 157.947 52.757 157.472C52.266 156.997 52.021 156.387 52.021 155.64V150.616H50.085V149.576H52.021V147.664L53.365 147.504V149.576H56.277L56.117 150.616H53.365V155.624C53.365 156.093 53.487 156.451 53.733 156.696C53.983 156.941 54.397 157.064 54.973 157.064C55.287 157.064 55.578 157.027 55.845 156.952C56.111 156.877 56.359 156.781 56.589 156.664L57.109 157.576ZM66.862 148.68L67.278 149.944C66.921 150.056 66.54 150.125 66.134 150.152C65.729 150.179 65.289 150.192 64.814 150.192C65.3 150.416 65.665 150.707 65.91 151.064C66.156 151.416 66.278 151.832 66.278 152.312C66.278 152.867 66.153 153.36 65.902 153.792C65.652 154.224 65.289 154.563 64.814 154.808C64.345 155.053 63.777 155.176 63.11 155.176C62.828 155.176 62.59 155.163 62.398 155.136C62.212 155.109 62.03 155.069 61.854 155.016C61.726 155.101 61.62 155.219 61.534 155.368C61.454 155.517 61.414 155.672 61.414 155.832C61.414 156.035 61.494 156.203 61.654 156.336C61.814 156.469 62.11 156.536 62.542 156.536H64.062C64.628 156.536 65.134 156.637 65.582 156.84C66.036 157.043 66.39 157.315 66.646 157.656C66.908 157.997 67.038 158.387 67.038 158.824C67.038 159.651 66.686 160.285 65.982 160.728C65.284 161.171 64.294 161.392 63.014 161.392C62.118 161.392 61.412 161.299 60.894 161.112C60.377 160.931 60.006 160.651 59.782 160.272C59.564 159.899 59.454 159.427 59.454 158.856H60.67C60.67 159.181 60.734 159.451 60.862 159.664C60.99 159.877 61.222 160.035 61.558 160.136C61.894 160.243 62.377 160.296 63.006 160.296C63.625 160.296 64.129 160.243 64.518 160.136C64.913 160.035 65.204 159.88 65.39 159.672C65.582 159.469 65.678 159.216 65.678 158.912C65.678 158.512 65.497 158.211 65.134 158.008C64.772 157.805 64.318 157.704 63.774 157.704H62.27C61.545 157.704 61.009 157.544 60.662 157.224C60.321 156.904 60.15 156.536 60.15 156.12C60.15 155.848 60.228 155.584 60.382 155.328C60.542 155.072 60.774 154.845 61.078 154.648C60.593 154.392 60.236 154.075 60.006 153.696C59.777 153.317 59.662 152.859 59.662 152.32C59.662 151.749 59.804 151.245 60.086 150.808C60.369 150.365 60.764 150.019 61.27 149.768C61.777 149.517 62.361 149.392 63.022 149.392C63.732 149.387 64.308 149.357 64.75 149.304C65.193 149.245 65.572 149.163 65.886 149.056C66.206 148.949 66.532 148.824 66.862 148.68ZM63.022 150.376C62.345 150.376 61.844 150.56 61.518 150.928C61.198 151.291 61.038 151.755 61.038 152.32C61.038 152.891 61.204 153.36 61.534 153.728C61.865 154.096 62.372 154.28 63.054 154.28C63.652 154.28 64.105 154.107 64.414 153.76C64.729 153.413 64.886 152.931 64.886 152.312C64.886 151.677 64.729 151.197 64.414 150.872C64.105 150.541 63.641 150.376 63.022 150.376ZM69.688 158V156.968H71V150.608H69.688V149.576H72.024L72.272 151.568C72.597 150.875 72.992 150.339 73.456 149.96C73.92 149.581 74.533 149.392 75.296 149.392C75.531 149.392 75.739 149.411 75.92 149.448C76.107 149.48 76.296 149.523 76.488 149.576L76.096 150.776C75.92 150.728 75.76 150.693 75.616 150.672C75.472 150.645 75.307 150.632 75.12 150.632C74.475 150.632 73.92 150.861 73.456 151.32C72.992 151.779 72.621 152.472 72.344 153.4V156.968H74.056V158H69.688ZM75.192 152.424V150.592L75.328 149.576H76.488L76.296 152.424H75.192ZM80.258 154.264C80.284 154.915 80.41 155.448 80.634 155.864C80.858 156.275 81.154 156.579 81.522 156.776C81.89 156.968 82.29 157.064 82.722 157.064C83.154 157.064 83.543 157 83.89 156.872C84.242 156.744 84.602 156.555 84.97 156.304L85.602 157.192C85.207 157.501 84.756 157.744 84.25 157.92C83.748 158.096 83.234 158.184 82.706 158.184C81.89 158.184 81.194 158 80.618 157.632C80.042 157.264 79.602 156.752 79.298 156.096C78.999 155.435 78.85 154.669 78.85 153.8C78.85 152.947 79.002 152.189 79.306 151.528C79.61 150.867 80.036 150.347 80.586 149.968C81.135 149.589 81.783 149.4 82.53 149.4C83.239 149.4 83.85 149.568 84.362 149.904C84.874 150.235 85.266 150.709 85.538 151.328C85.815 151.941 85.954 152.675 85.954 153.528C85.954 153.672 85.951 153.808 85.946 153.936C85.94 154.059 85.932 154.168 85.922 154.264H80.258ZM82.546 150.504C81.922 150.504 81.399 150.725 80.978 151.168C80.562 151.611 80.324 152.296 80.266 153.224H84.658C84.642 152.323 84.444 151.645 84.066 151.192C83.687 150.733 83.18 150.504 82.546 150.504ZM95.772 154.952C95.772 155.581 95.614 156.141 95.3 156.632C94.985 157.117 94.529 157.499 93.932 157.776C93.334 158.048 92.606 158.184 91.748 158.184C90.942 158.184 90.212 158.061 89.556 157.816C88.905 157.571 88.348 157.224 87.884 156.776L88.708 155.848C89.092 156.205 89.532 156.491 90.028 156.704C90.524 156.912 91.105 157.016 91.772 157.016C92.22 157.016 92.638 156.944 93.028 156.8C93.417 156.651 93.732 156.427 93.972 156.128C94.212 155.824 94.332 155.44 94.332 154.976C94.332 154.619 94.262 154.315 94.124 154.064C93.985 153.813 93.74 153.592 93.388 153.4C93.036 153.203 92.545 153.011 91.916 152.824C91.19 152.611 90.561 152.371 90.028 152.104C89.5 151.832 89.089 151.499 88.796 151.104C88.508 150.709 88.363 150.221 88.363 149.64C88.363 149.091 88.516 148.603 88.82 148.176C89.124 147.749 89.542 147.416 90.076 147.176C90.614 146.931 91.233 146.808 91.932 146.808C92.694 146.808 93.356 146.917 93.916 147.136C94.481 147.349 94.993 147.659 95.451 148.064L94.636 148.968C94.241 148.616 93.817 148.363 93.364 148.208C92.91 148.048 92.449 147.968 91.98 147.968C91.58 147.968 91.212 148.029 90.876 148.152C90.545 148.269 90.278 148.448 90.076 148.688C89.878 148.923 89.78 149.224 89.78 149.592C89.78 149.907 89.865 150.179 90.036 150.408C90.206 150.637 90.494 150.848 90.9 151.04C91.305 151.227 91.857 151.424 92.556 151.632C93.126 151.797 93.654 152.005 94.14 152.256C94.63 152.501 95.025 152.837 95.324 153.264C95.622 153.685 95.772 154.248 95.772 154.952ZM105.637 152.504C105.637 153.283 105.565 153.997 105.421 154.648C105.277 155.299 105.037 155.872 104.701 156.368C104.371 156.864 103.923 157.267 103.357 157.576C103.875 157.677 104.315 157.829 104.677 158.032C105.045 158.235 105.355 158.509 105.605 158.856C105.861 159.208 106.08 159.653 106.261 160.192L104.797 160.768C104.579 160.203 104.328 159.725 104.045 159.336C103.768 158.947 103.419 158.651 102.997 158.448C102.581 158.251 102.056 158.152 101.421 158.152C100.579 158.152 99.864 157.92 99.277 157.456C98.696 156.987 98.256 156.331 97.957 155.488C97.659 154.645 97.509 153.656 97.509 152.52C97.509 151.405 97.661 150.419 97.965 149.56C98.275 148.701 98.731 148.029 99.333 147.544C99.936 147.053 100.683 146.808 101.573 146.808C102.469 146.808 103.219 147.045 103.821 147.52C104.424 147.995 104.877 148.659 105.181 149.512C105.485 150.365 105.637 151.363 105.637 152.504ZM104.197 152.504C104.197 151.032 103.992 149.909 103.581 149.136C103.176 148.357 102.507 147.968 101.573 147.968C100.645 147.968 99.976 148.36 99.565 149.144C99.155 149.923 98.949 151.048 98.949 152.52C98.949 153.987 99.16 155.104 99.581 155.872C100.008 156.635 100.672 157.016 101.573 157.016C102.501 157.016 103.171 156.632 103.581 155.864C103.992 155.091 104.197 153.971 104.197 152.504ZM108.543 158V146.984H109.935V156.76H114.959L114.799 158H108.543Z"
				fill="white" />
			<path
				d="M19.534 8.686C20.074 8.686 20.526 8.754 20.89 8.89C21.254 9.026 21.6 9.22601 21.928 9.49001L21.346 10.168C21.086 9.948 20.81 9.792 20.518 9.7C20.23 9.604 19.928 9.556 19.612 9.556C19.16 9.556 18.742 9.664 18.358 9.88C17.974 10.092 17.664 10.446 17.428 10.942C17.196 11.434 17.08 12.102 17.08 12.946C17.08 13.766 17.19 14.424 17.41 14.92C17.634 15.416 17.936 15.774 18.316 15.994C18.696 16.214 19.12 16.324 19.588 16.324C20.052 16.324 20.432 16.254 20.728 16.114C21.028 15.974 21.288 15.814 21.508 15.634L22.048 16.318C21.796 16.562 21.468 16.774 21.064 16.954C20.66 17.13 20.164 17.218 19.576 17.218C18.908 17.218 18.302 17.054 17.758 16.726C17.218 16.398 16.79 15.918 16.474 15.286C16.158 14.65 16 13.87 16 12.946C16 12.018 16.16 11.238 16.48 10.606C16.804 9.974 17.234 9.496 17.77 9.172C18.31 8.848 18.898 8.686 19.534 8.686ZM24.648 10.762V15.238C24.648 15.654 24.734 15.954 24.906 16.138C25.078 16.322 25.346 16.414 25.71 16.414C26.058 16.414 26.386 16.316 26.694 16.12C27.006 15.92 27.248 15.684 27.42 15.412V10.762H28.428V17.08H27.57L27.486 16.228C27.238 16.548 26.932 16.794 26.568 16.966C26.204 17.134 25.836 17.218 25.464 17.218C24.852 17.218 24.394 17.056 24.09 16.732C23.79 16.404 23.64 15.946 23.64 15.358V10.762H24.648ZM32.983 16.384C33.467 16.384 33.849 16.294 34.129 16.114C34.413 15.93 34.555 15.686 34.555 15.382C34.555 15.19 34.519 15.024 34.447 14.884C34.379 14.744 34.237 14.618 34.021 14.506C33.805 14.394 33.473 14.282 33.025 14.17C32.589 14.062 32.209 13.938 31.885 13.798C31.565 13.654 31.315 13.468 31.135 13.24C30.959 13.012 30.871 12.716 30.871 12.352C30.871 11.996 30.971 11.69 31.171 11.434C31.375 11.174 31.657 10.976 32.017 10.84C32.377 10.7 32.795 10.63 33.271 10.63C33.779 10.63 34.221 10.698 34.597 10.834C34.977 10.966 35.299 11.13 35.563 11.326L35.119 12.01C34.879 11.846 34.615 11.712 34.327 11.608C34.039 11.5 33.691 11.446 33.283 11.446C32.787 11.446 32.435 11.524 32.227 11.68C32.019 11.832 31.915 12.03 31.915 12.274C31.915 12.458 31.965 12.612 32.065 12.736C32.169 12.856 32.343 12.966 32.587 13.066C32.831 13.162 33.167 13.268 33.595 13.384C34.007 13.492 34.365 13.622 34.669 13.774C34.977 13.926 35.217 14.126 35.389 14.374C35.561 14.622 35.647 14.942 35.647 15.334C35.647 15.782 35.519 16.146 35.263 16.426C35.007 16.702 34.675 16.904 34.267 17.032C33.863 17.156 33.435 17.218 32.983 17.218C32.411 17.218 31.923 17.136 31.519 16.972C31.119 16.804 30.783 16.602 30.511 16.366L31.087 15.7C31.335 15.904 31.619 16.07 31.939 16.198C32.263 16.322 32.611 16.384 32.983 16.384ZM43.046 16.762C42.83 16.906 42.568 17.018 42.26 17.098C41.952 17.178 41.65 17.218 41.354 17.218C40.674 17.218 40.15 17.04 39.782 16.684C39.414 16.328 39.23 15.87 39.23 15.31V11.542H37.778V10.762H39.23V9.328L40.238 9.208V10.762H42.422L42.302 11.542H40.238V15.298C40.238 15.65 40.33 15.918 40.514 16.102C40.702 16.286 41.012 16.378 41.444 16.378C41.68 16.378 41.898 16.35 42.098 16.294C42.298 16.238 42.484 16.166 42.656 16.078L43.046 16.762ZM47.632 10.63C48.228 10.63 48.726 10.766 49.126 11.038C49.53 11.306 49.832 11.686 50.032 12.178C50.236 12.67 50.338 13.25 50.338 13.918C50.338 14.562 50.234 15.132 50.026 15.628C49.818 16.124 49.512 16.514 49.108 16.798C48.708 17.078 48.212 17.218 47.62 17.218C47.028 17.218 46.53 17.082 46.126 16.81C45.722 16.538 45.416 16.156 45.208 15.664C45.004 15.168 44.902 14.59 44.902 13.93C44.902 13.278 45.006 12.704 45.214 12.208C45.422 11.712 45.728 11.326 46.132 11.05C46.54 10.77 47.04 10.63 47.632 10.63ZM47.632 11.452C47.088 11.452 46.676 11.654 46.396 12.058C46.12 12.458 45.982 13.082 45.982 13.93C45.982 14.762 46.118 15.38 46.39 15.784C46.666 16.188 47.076 16.39 47.62 16.39C48.164 16.39 48.572 16.188 48.844 15.784C49.12 15.38 49.258 14.758 49.258 13.918C49.258 13.078 49.122 12.458 48.85 12.058C48.578 11.654 48.172 11.452 47.632 11.452ZM56.585 10.63C56.789 10.63 56.983 10.674 57.167 10.762C57.355 10.85 57.509 11.02 57.629 11.272C57.749 11.524 57.809 11.892 57.809 12.376V17.08H56.873V12.538C56.873 12.142 56.849 11.856 56.801 11.68C56.753 11.504 56.615 11.416 56.387 11.416C56.199 11.416 56.011 11.476 55.823 11.596C55.639 11.712 55.459 11.904 55.283 12.172V17.08H54.341V12.538C54.341 12.142 54.317 11.856 54.269 11.68C54.221 11.504 54.083 11.416 53.855 11.416C53.659 11.416 53.469 11.476 53.285 11.596C53.105 11.712 52.927 11.904 52.751 12.172V17.08H51.821V10.762H52.613L52.673 11.494C52.845 11.25 53.037 11.046 53.249 10.882C53.465 10.714 53.731 10.63 54.047 10.63C54.287 10.63 54.513 10.688 54.725 10.804C54.937 10.916 55.093 11.136 55.193 11.464C55.365 11.216 55.559 11.016 55.775 10.864C55.991 10.708 56.261 10.63 56.585 10.63ZM60.408 14.278C60.428 14.766 60.522 15.166 60.69 15.478C60.858 15.786 61.08 16.014 61.356 16.162C61.632 16.306 61.932 16.378 62.256 16.378C62.58 16.378 62.872 16.33 63.132 16.234C63.396 16.138 63.666 15.996 63.942 15.808L64.416 16.474C64.12 16.706 63.782 16.888 63.402 17.02C63.026 17.152 62.64 17.218 62.244 17.218C61.632 17.218 61.11 17.08 60.678 16.804C60.246 16.528 59.916 16.144 59.688 15.652C59.464 15.156 59.352 14.582 59.352 13.93C59.352 13.29 59.466 12.722 59.694 12.226C59.922 11.73 60.242 11.34 60.654 11.056C61.066 10.772 61.552 10.63 62.112 10.63C62.644 10.63 63.102 10.756 63.486 11.008C63.87 11.256 64.164 11.612 64.368 12.076C64.576 12.536 64.68 13.086 64.68 13.726C64.68 13.834 64.678 13.936 64.674 14.032C64.67 14.124 64.664 14.206 64.656 14.278H60.408ZM62.124 11.458C61.656 11.458 61.264 11.624 60.948 11.956C60.636 12.288 60.458 12.802 60.414 13.498H63.708C63.696 12.822 63.548 12.314 63.264 11.974C62.98 11.63 62.6 11.458 62.124 11.458ZM66.872 17.08V16.306H67.856V11.536H66.872V10.762H68.624L68.81 12.256C69.054 11.736 69.35 11.334 69.698 11.05C70.046 10.766 70.506 10.624 71.078 10.624C71.254 10.624 71.41 10.638 71.546 10.666C71.686 10.69 71.828 10.722 71.972 10.762L71.678 11.662C71.546 11.626 71.426 11.6 71.318 11.584C71.21 11.564 71.086 11.554 70.946 11.554C70.462 11.554 70.046 11.726 69.698 12.07C69.35 12.414 69.072 12.934 68.864 13.63V16.306H70.148V17.08H66.872ZM71 12.898V11.524L71.102 10.762H71.972L71.828 12.898H71ZM85.564 11.368C85.564 10.94 85.48 10.602 85.312 10.354C85.144 10.102 84.914 9.922 84.622 9.814C84.33 9.702 83.996 9.646 83.62 9.646H82.426V13.174H83.578C83.966 13.174 84.308 13.122 84.604 13.018C84.9 12.91 85.134 12.726 85.306 12.466C85.478 12.202 85.564 11.836 85.564 11.368ZM86.68 11.356C86.68 12 86.542 12.516 86.266 12.904C85.994 13.292 85.618 13.574 85.138 13.75C84.658 13.926 84.106 14.014 83.482 14.014H82.426V17.08H81.382V8.818H83.494C84.478 8.818 85.254 9.026 85.822 9.442C86.394 9.854 86.68 10.492 86.68 11.356ZM88.457 17.08V16.306H89.441V11.536H88.457V10.762H90.209L90.395 12.256C90.639 11.736 90.935 11.334 91.283 11.05C91.631 10.766 92.091 10.624 92.663 10.624C92.839 10.624 92.995 10.638 93.131 10.666C93.271 10.69 93.413 10.722 93.557 10.762L93.263 11.662C93.131 11.626 93.011 11.6 92.903 11.584C92.795 11.564 92.671 11.554 92.531 11.554C92.047 11.554 91.631 11.726 91.283 12.07C90.935 12.414 90.657 12.934 90.449 13.63V16.306H91.733V17.08H88.457ZM92.585 12.898V11.524L92.687 10.762H93.557L93.413 12.898H92.585ZM98.791 10.762V16.282H100.573V17.08H95.833V16.282H97.783V11.56H95.893V10.762H98.791ZM97.987 7.804C98.211 7.804 98.389 7.872 98.521 8.008C98.657 8.144 98.725 8.31 98.725 8.506C98.725 8.71 98.657 8.882 98.521 9.022C98.389 9.158 98.211 9.22601 97.987 9.22601C97.775 9.22601 97.601 9.158 97.465 9.022C97.329 8.882 97.261 8.71 97.261 8.506C97.261 8.31 97.329 8.144 97.465 8.008C97.601 7.872 97.775 7.804 97.987 7.804ZM108.056 10.762L105.758 17.08H104.588L102.308 10.762H103.376L105.206 16.162L107.012 10.762H108.056ZM114.507 15.7C114.507 15.952 114.549 16.136 114.633 16.252C114.717 16.368 114.847 16.454 115.023 16.51L114.777 17.218C114.505 17.182 114.267 17.096 114.063 16.96C113.859 16.82 113.711 16.61 113.619 16.33C113.391 16.622 113.107 16.844 112.767 16.996C112.427 17.144 112.051 17.218 111.639 17.218C111.007 17.218 110.509 17.04 110.145 16.684C109.781 16.328 109.599 15.856 109.599 15.268C109.599 14.616 109.853 14.116 110.361 13.768C110.869 13.42 111.603 13.246 112.563 13.246H113.493V12.718C113.493 12.262 113.359 11.94 113.091 11.752C112.827 11.56 112.459 11.464 111.987 11.464C111.779 11.464 111.535 11.49 111.255 11.542C110.975 11.59 110.671 11.672 110.343 11.788L110.079 11.026C110.467 10.882 110.831 10.78 111.171 10.72C111.511 10.66 111.835 10.63 112.143 10.63C112.931 10.63 113.521 10.814 113.913 11.182C114.309 11.546 114.507 12.042 114.507 12.67V15.7ZM111.897 16.45C112.209 16.45 112.507 16.372 112.791 16.216C113.075 16.056 113.309 15.836 113.493 15.556V13.93H112.581C111.885 13.93 111.393 14.05 111.105 14.29C110.821 14.53 110.679 14.852 110.679 15.256C110.679 15.648 110.779 15.946 110.979 16.15C111.183 16.35 111.489 16.45 111.897 16.45ZM122.195 16.762C121.979 16.906 121.717 17.018 121.409 17.098C121.101 17.178 120.799 17.218 120.503 17.218C119.823 17.218 119.299 17.04 118.931 16.684C118.563 16.328 118.379 15.87 118.379 15.31V11.542H116.927V10.762H118.379V9.328L119.387 9.208V10.762H121.571L121.451 11.542H119.387V15.298C119.387 15.65 119.479 15.918 119.663 16.102C119.851 16.286 120.161 16.378 120.593 16.378C120.829 16.378 121.047 16.35 121.247 16.294C121.447 16.238 121.633 16.166 121.805 16.078L122.195 16.762ZM125.166 14.278C125.186 14.766 125.28 15.166 125.448 15.478C125.616 15.786 125.838 16.014 126.114 16.162C126.39 16.306 126.69 16.378 127.014 16.378C127.338 16.378 127.63 16.33 127.89 16.234C128.154 16.138 128.424 15.996 128.7 15.808L129.174 16.474C128.878 16.706 128.54 16.888 128.16 17.02C127.784 17.152 127.398 17.218 127.002 17.218C126.39 17.218 125.868 17.08 125.436 16.804C125.004 16.528 124.674 16.144 124.446 15.652C124.222 15.156 124.11 14.582 124.11 13.93C124.11 13.29 124.224 12.722 124.452 12.226C124.68 11.73 125 11.34 125.412 11.056C125.824 10.772 126.31 10.63 126.87 10.63C127.402 10.63 127.86 10.756 128.244 11.008C128.628 11.256 128.922 11.612 129.126 12.076C129.334 12.536 129.438 13.086 129.438 13.726C129.438 13.834 129.436 13.936 129.432 14.032C129.428 14.124 129.422 14.206 129.414 14.278H125.166ZM126.882 11.458C126.414 11.458 126.022 11.624 125.706 11.956C125.394 12.288 125.216 12.802 125.172 13.498H128.466C128.454 12.822 128.306 12.314 128.022 11.974C127.738 11.63 127.358 11.458 126.882 11.458ZM142.299 17.08L139.389 9.814C139.393 9.906 139.401 10.06 139.413 10.276C139.429 10.488 139.445 10.742 139.461 11.038C139.481 11.33 139.497 11.64 139.509 11.968C139.521 12.296 139.527 12.62 139.527 12.94V17.08H138.561V8.818H139.971L142.929 16.114C142.925 15.998 142.911 15.786 142.887 15.478C142.863 15.166 142.841 14.79 142.821 14.35C142.801 13.91 142.791 13.444 142.791 12.952V8.818H143.757V17.08H142.299ZM146.752 14.278C146.772 14.766 146.866 15.166 147.034 15.478C147.202 15.786 147.424 16.014 147.7 16.162C147.976 16.306 148.276 16.378 148.6 16.378C148.924 16.378 149.216 16.33 149.476 16.234C149.74 16.138 150.01 15.996 150.286 15.808L150.76 16.474C150.464 16.706 150.126 16.888 149.746 17.02C149.37 17.152 148.984 17.218 148.588 17.218C147.976 17.218 147.454 17.08 147.022 16.804C146.59 16.528 146.26 16.144 146.032 15.652C145.808 15.156 145.696 14.582 145.696 13.93C145.696 13.29 145.81 12.722 146.038 12.226C146.266 11.73 146.586 11.34 146.998 11.056C147.41 10.772 147.896 10.63 148.456 10.63C148.988 10.63 149.446 10.756 149.83 11.008C150.214 11.256 150.508 11.612 150.712 12.076C150.92 12.536 151.024 13.086 151.024 13.726C151.024 13.834 151.022 13.936 151.018 14.032C151.014 14.124 151.008 14.206 151 14.278H146.752ZM148.468 11.458C148 11.458 147.608 11.624 147.292 11.956C146.98 12.288 146.802 12.802 146.758 13.498H150.052C150.04 12.822 149.892 12.314 149.608 11.974C149.324 11.63 148.944 11.458 148.468 11.458ZM158.171 16.762C157.955 16.906 157.693 17.018 157.385 17.098C157.077 17.178 156.775 17.218 156.479 17.218C155.799 17.218 155.275 17.04 154.907 16.684C154.539 16.328 154.355 15.87 154.355 15.31V11.542H152.903V10.762H154.355V9.328L155.363 9.208V10.762H157.547L157.427 11.542H155.363V15.298C155.363 15.65 155.455 15.918 155.639 16.102C155.827 16.286 156.137 16.378 156.569 16.378C156.805 16.378 157.023 16.35 157.223 16.294C157.423 16.238 157.609 16.166 157.781 16.078L158.171 16.762ZM165.031 17.08H163.603L162.787 12.442L161.899 17.08H160.507L159.355 10.762H160.387L161.191 16.456L162.199 11.566H163.393L164.347 16.456L165.151 10.762H166.135L165.031 17.08ZM169.952 10.63C170.548 10.63 171.046 10.766 171.446 11.038C171.85 11.306 172.152 11.686 172.352 12.178C172.556 12.67 172.658 13.25 172.658 13.918C172.658 14.562 172.554 15.132 172.346 15.628C172.138 16.124 171.832 16.514 171.428 16.798C171.028 17.078 170.532 17.218 169.94 17.218C169.348 17.218 168.85 17.082 168.446 16.81C168.042 16.538 167.736 16.156 167.528 15.664C167.324 15.168 167.222 14.59 167.222 13.93C167.222 13.278 167.326 12.704 167.534 12.208C167.742 11.712 168.048 11.326 168.452 11.05C168.86 10.77 169.36 10.63 169.952 10.63ZM169.952 11.452C169.408 11.452 168.996 11.654 168.716 12.058C168.44 12.458 168.302 13.082 168.302 13.93C168.302 14.762 168.438 15.38 168.71 15.784C168.986 16.188 169.396 16.39 169.94 16.39C170.484 16.39 170.892 16.188 171.164 15.784C171.44 15.38 171.578 14.758 171.578 13.918C171.578 13.078 171.442 12.458 171.17 12.058C170.898 11.654 170.492 11.452 169.952 11.452ZM174.801 17.08V16.306H175.785V11.536H174.801V10.762H176.553L176.739 12.256C176.983 11.736 177.279 11.334 177.627 11.05C177.975 10.766 178.435 10.624 179.007 10.624C179.183 10.624 179.339 10.638 179.475 10.666C179.615 10.69 179.757 10.722 179.901 10.762L179.607 11.662C179.475 11.626 179.355 11.6 179.247 11.584C179.139 11.564 179.015 11.554 178.875 11.554C178.391 11.554 177.975 11.726 177.627 12.07C177.279 12.414 177.001 12.934 176.793 13.63V16.306H178.077V17.08H174.801ZM178.929 12.898V11.524L179.031 10.762H179.901L179.757 12.898H178.929ZM187.229 10.762L184.385 13.606L187.559 17.08H186.233L183.125 13.63L185.921 10.762H187.229ZM183.011 8.092V17.08H182.003V8.218L183.011 8.092ZM197.671 12.88C197.671 13.504 197.725 14.064 197.833 14.56C197.941 15.052 198.101 15.504 198.313 15.916C198.525 16.324 198.791 16.712 199.111 17.08C199.435 17.452 199.811 17.828 200.239 18.208L199.711 18.76C199.063 18.228 198.507 17.684 198.043 17.128C197.583 16.572 197.229 15.952 196.981 15.268C196.737 14.584 196.615 13.788 196.615 12.88C196.615 11.968 196.737 11.17 196.981 10.486C197.229 9.802 197.583 9.182 198.043 8.626C198.507 8.07 199.063 7.528 199.711 7L200.239 7.552C199.807 7.936 199.429 8.314 199.105 8.686C198.785 9.054 198.519 9.442 198.307 9.85C198.095 10.254 197.935 10.704 197.827 11.2C197.723 11.692 197.671 12.252 197.671 12.88ZM205.94 15.898L208.172 8.818H209.222L206.456 17.08H205.376L202.61 8.818H203.732L205.94 15.898ZM215.08 11.368C215.08 10.94 214.996 10.602 214.828 10.354C214.66 10.102 214.43 9.922 214.138 9.814C213.846 9.702 213.512 9.646 213.136 9.646H211.942V13.174H213.094C213.482 13.174 213.824 13.122 214.12 13.018C214.416 12.91 214.65 12.726 214.822 12.466C214.994 12.202 215.08 11.836 215.08 11.368ZM216.196 11.356C216.196 12 216.058 12.516 215.782 12.904C215.51 13.292 215.134 13.574 214.654 13.75C214.174 13.926 213.622 14.014 212.998 14.014H211.942V17.08H210.898V8.818H213.01C213.994 8.818 214.77 9.026 215.338 9.442C215.91 9.854 216.196 10.492 216.196 11.356ZM221.003 8.686C221.543 8.686 221.995 8.754 222.359 8.89C222.723 9.026 223.069 9.22601 223.397 9.49001L222.815 10.168C222.555 9.948 222.279 9.792 221.987 9.7C221.699 9.604 221.397 9.556 221.081 9.556C220.629 9.556 220.211 9.664 219.827 9.88C219.443 10.092 219.133 10.446 218.897 10.942C218.665 11.434 218.549 12.102 218.549 12.946C218.549 13.766 218.659 14.424 218.879 14.92C219.103 15.416 219.405 15.774 219.785 15.994C220.165 16.214 220.589 16.324 221.057 16.324C221.521 16.324 221.901 16.254 222.197 16.114C222.497 15.974 222.757 15.814 222.977 15.634L223.517 16.318C223.265 16.562 222.937 16.774 222.533 16.954C222.129 17.13 221.633 17.218 221.045 17.218C220.377 17.218 219.771 17.054 219.227 16.726C218.687 16.398 218.259 15.918 217.943 15.286C217.627 14.65 217.469 13.87 217.469 12.946C217.469 12.018 217.629 11.238 217.949 10.606C218.273 9.974 218.703 9.496 219.239 9.172C219.779 8.848 220.367 8.686 221.003 8.686ZM228.552 12.88C228.552 12.252 228.498 11.692 228.39 11.2C228.286 10.704 228.128 10.254 227.916 9.85C227.704 9.442 227.436 9.054 227.112 8.686C226.792 8.314 226.416 7.936 225.984 7.552L226.512 7C227.164 7.528 227.72 8.07 228.18 8.626C228.64 9.182 228.992 9.802 229.236 10.486C229.484 11.17 229.608 11.968 229.608 12.88C229.608 13.788 229.484 14.584 229.236 15.268C228.992 15.952 228.64 16.572 228.18 17.128C227.72 17.684 227.164 18.228 226.512 18.76L225.984 18.208C226.412 17.828 226.786 17.452 227.106 17.08C227.43 16.712 227.698 16.324 227.91 15.916C228.122 15.504 228.282 15.052 228.39 14.56C228.498 14.064 228.552 13.504 228.552 12.88Z"
				fill="white" />
			<path
				d="M284.645 49.714C284.645 50.186 284.527 50.606 284.291 50.974C284.055 51.338 283.713 51.624 283.265 51.832C282.817 52.036 282.271 52.138 281.627 52.138C281.023 52.138 280.475 52.046 279.983 51.862C279.495 51.678 279.077 51.418 278.729 51.082L279.347 50.386C279.635 50.654 279.965 50.868 280.337 51.028C280.709 51.184 281.145 51.2619 281.645 51.2619C281.981 51.2619 282.295 51.208 282.587 51.1C282.879 50.988 283.115 50.8199 283.295 50.5959C283.475 50.3679 283.565 50.0799 283.565 49.7319C283.565 49.4639 283.513 49.236 283.409 49.048C283.305 48.86 283.121 48.694 282.857 48.55C282.593 48.402 282.225 48.258 281.753 48.118C281.209 47.958 280.737 47.778 280.337 47.578C279.941 47.374 279.633 47.124 279.413 46.828C279.197 46.532 279.089 46.1659 279.089 45.7299C279.089 45.3179 279.203 44.952 279.431 44.632C279.659 44.312 279.973 44.062 280.373 43.882C280.777 43.698 281.241 43.606 281.765 43.606C282.337 43.606 282.833 43.688 283.253 43.852C283.677 44.012 284.061 44.244 284.405 44.548L283.793 45.226C283.497 44.962 283.179 44.772 282.839 44.656C282.499 44.536 282.153 44.476 281.801 44.476C281.501 44.476 281.225 44.522 280.973 44.614C280.725 44.702 280.525 44.836 280.373 45.016C280.225 45.192 280.151 45.418 280.151 45.694C280.151 45.93 280.215 46.134 280.343 46.306C280.471 46.478 280.687 46.636 280.991 46.78C281.295 46.92 281.709 47.068 282.233 47.224C282.661 47.348 283.057 47.504 283.421 47.692C283.789 47.876 284.085 48.128 284.309 48.448C284.533 48.764 284.645 49.186 284.645 49.714ZM291.84 49.714C291.84 50.186 291.722 50.606 291.486 50.974C291.25 51.338 290.908 51.624 290.46 51.832C290.012 52.036 289.466 52.138 288.822 52.138C288.218 52.138 287.67 52.046 287.178 51.862C286.69 51.678 286.272 51.418 285.924 51.082L286.542 50.386C286.83 50.654 287.16 50.868 287.532 51.028C287.904 51.184 288.34 51.2619 288.84 51.2619C289.176 51.2619 289.49 51.208 289.782 51.1C290.074 50.988 290.31 50.8199 290.49 50.5959C290.67 50.3679 290.76 50.0799 290.76 49.7319C290.76 49.4639 290.708 49.236 290.604 49.048C290.5 48.86 290.316 48.694 290.052 48.55C289.788 48.402 289.42 48.258 288.948 48.118C288.404 47.958 287.932 47.778 287.532 47.578C287.136 47.374 286.828 47.124 286.608 46.828C286.392 46.532 286.284 46.1659 286.284 45.7299C286.284 45.3179 286.398 44.952 286.626 44.632C286.854 44.312 287.168 44.062 287.568 43.882C287.972 43.698 288.436 43.606 288.96 43.606C289.532 43.606 290.028 43.688 290.448 43.852C290.872 44.012 291.256 44.244 291.6 44.548L290.988 45.226C290.692 44.962 290.374 44.772 290.034 44.656C289.694 44.536 289.348 44.476 288.996 44.476C288.696 44.476 288.42 44.522 288.168 44.614C287.92 44.702 287.72 44.836 287.568 45.016C287.42 45.192 287.346 45.418 287.346 45.694C287.346 45.93 287.41 46.134 287.538 46.306C287.666 46.478 287.882 46.636 288.186 46.78C288.49 46.92 288.904 47.068 289.428 47.224C289.856 47.348 290.252 47.504 290.616 47.692C290.984 47.876 291.28 48.128 291.504 48.448C291.728 48.764 291.84 49.186 291.84 49.714ZM297.758 52V48.082H294.638V52H293.6V43.738H294.638V47.2299H297.758V43.738H298.796V52H297.758Z"
				fill="white" />
			<path
				d="M139.618 121.026V128.394H138.58V121.026H136V120.132H142.234L142.126 121.026H139.618ZM144.341 128.394V120.132H145.385V127.464H149.153L149.033 128.394H144.341ZM156.349 126.108C156.349 126.58 156.231 127 155.995 127.368C155.759 127.732 155.417 128.018 154.969 128.226C154.521 128.43 153.975 128.532 153.331 128.532C152.727 128.532 152.179 128.44 151.687 128.256C151.199 128.072 150.781 127.812 150.433 127.476L151.051 126.78C151.339 127.048 151.669 127.262 152.041 127.422C152.413 127.578 152.849 127.656 153.349 127.656C153.685 127.656 153.999 127.602 154.291 127.494C154.583 127.382 154.819 127.214 154.999 126.99C155.179 126.762 155.269 126.474 155.269 126.126C155.269 125.858 155.217 125.63 155.113 125.442C155.009 125.254 154.825 125.088 154.561 124.944C154.297 124.796 153.929 124.652 153.457 124.512C152.913 124.352 152.441 124.172 152.041 123.972C151.645 123.768 151.337 123.518 151.117 123.222C150.901 122.926 150.793 122.56 150.793 122.124C150.793 121.712 150.907 121.346 151.135 121.026C151.363 120.706 151.677 120.456 152.077 120.276C152.481 120.092 152.945 120 153.469 120C154.041 120 154.537 120.082 154.957 120.246C155.381 120.406 155.765 120.638 156.109 120.942L155.497 121.62C155.201 121.356 154.883 121.166 154.543 121.05C154.203 120.93 153.857 120.87 153.505 120.87C153.205 120.87 152.929 120.916 152.677 121.008C152.429 121.096 152.229 121.23 152.077 121.41C151.929 121.586 151.855 121.812 151.855 122.088C151.855 122.324 151.919 122.528 152.047 122.7C152.175 122.872 152.391 123.03 152.695 123.174C152.999 123.314 153.413 123.462 153.937 123.618C154.365 123.742 154.761 123.898 155.125 124.086C155.493 124.27 155.789 124.522 156.013 124.842C156.237 125.158 156.349 125.58 156.349 126.108Z"
				fill="white" />
			<path
				d="M282.618 121.026V128.394H281.58V121.026H279V120.132H285.234L285.126 121.026H282.618ZM287.341 128.394V120.132H288.385V127.464H292.153L292.033 128.394H287.341ZM299.349 126.108C299.349 126.58 299.231 127 298.995 127.368C298.759 127.732 298.417 128.018 297.969 128.226C297.521 128.43 296.975 128.532 296.331 128.532C295.727 128.532 295.179 128.44 294.687 128.256C294.199 128.072 293.781 127.812 293.433 127.476L294.051 126.78C294.339 127.048 294.669 127.262 295.041 127.422C295.413 127.578 295.849 127.656 296.349 127.656C296.685 127.656 296.999 127.602 297.291 127.494C297.583 127.382 297.819 127.214 297.999 126.99C298.179 126.762 298.269 126.474 298.269 126.126C298.269 125.858 298.217 125.63 298.113 125.442C298.009 125.254 297.825 125.088 297.561 124.944C297.297 124.796 296.929 124.652 296.457 124.512C295.913 124.352 295.441 124.172 295.041 123.972C294.645 123.768 294.337 123.518 294.117 123.222C293.901 122.926 293.793 122.56 293.793 122.124C293.793 121.712 293.907 121.346 294.135 121.026C294.363 120.706 294.677 120.456 295.077 120.276C295.481 120.092 295.945 120 296.469 120C297.041 120 297.537 120.082 297.957 120.246C298.381 120.406 298.765 120.638 299.109 120.942L298.497 121.62C298.201 121.356 297.883 121.166 297.543 121.05C297.203 120.93 296.857 120.87 296.505 120.87C296.205 120.87 295.929 120.916 295.677 121.008C295.429 121.096 295.229 121.23 295.077 121.41C294.929 121.586 294.855 121.812 294.855 122.088C294.855 122.324 294.919 122.528 295.047 122.7C295.175 122.872 295.391 123.03 295.695 123.174C295.999 123.314 296.413 123.462 296.937 123.618C297.365 123.742 297.761 123.898 298.125 124.086C298.493 124.27 298.789 124.522 299.013 124.842C299.237 125.158 299.349 125.58 299.349 126.108Z"
				fill="white" />
			<g filter="url(#filter8_d_2_3)">
				<path
					d="M289.036 98.1462C288.84 97.9513 288.524 97.9513 288.328 98.1462L285.146 101.328C284.951 101.524 284.951 101.84 285.146 102.036C285.342 102.231 285.658 102.231 285.854 102.036L288.682 99.2073L291.51 102.036C291.706 102.231 292.022 102.231 292.218 102.036C292.413 101.84 292.413 101.524 292.218 101.328L289.036 98.1462ZM289.182 116.5V98.5003H288.182V116.5H289.182Z"
					fill="white" />
			</g>
			<g filter="url(#filter9_d_2_3)">
				<path
					d="M146.036 96.1462C145.84 95.9513 145.524 95.9513 145.328 96.1462L142.146 99.3283C141.951 99.5243 141.951 99.8402 142.146 100.036C142.342 100.231 142.658 100.231 142.854 100.036L145.682 97.2073L148.51 100.036C148.706 100.231 149.022 100.231 149.218 100.036C149.413 99.8402 149.413 99.5243 149.218 99.3283L146.036 96.1462ZM146.182 114.5V96.5003H145.182V114.5H146.182Z"
					fill="white" />
			</g>
			<path
				d="M288.646 74.354C288.842 74.549 289.158 74.549 289.354 74.354L292.536 71.172C292.731 70.976 292.731 70.66 292.536 70.464C292.34 70.269 292.024 70.269 291.828 70.464L289 73.293L286.172 70.464C285.976 70.269 285.66 70.269 285.464 70.464C285.269 70.66 285.269 70.976 285.464 71.172L288.646 74.354ZM289.5 74V56H288.5V74H289.5Z"
				fill="white" />
		</g>
	</g>
	<defs>
		<filter id="filter0_d_2_3" x="0" y="-6" width="242" height="208" filterUnits="userSpaceOnUse"
			color-interpolation-filters="sRGB">
			<feFlood flood-opacity="0" result="BackgroundImageFix" />
			<feColorMatrix in="SourceAlpha" type="matrix" values="0 0 0 0 0 0 0 0 0 0 0 0 0 0 0 0 0 0 127 0"
				result="hardAlpha" />
			<feOffset dy="4" />
			<feGaussianBlur stdDeviation="2" />
			<feComposite in2="hardAlpha" operator="out" />
			<feColorMatrix type="matrix" values="0 0 0 0 0.223529 0 0 0 0 0.843137 0 0 0 0 0.882353 0 0 0 1 0" />
			<feBlend mode="normal" in2="BackgroundImageFix" result="effect1_dropShadow_2_3" />
			<feBlend mode="normal" in="SourceGraphic" in2="effect1_dropShadow_2_3" result="shape" />
		</filter>
		<filter id="filter1_d_2_3" x="104" y="78" width="77" height="20" filterUnits="userSpaceOnUse"
			color-interpolation-filters="sRGB">
			<feFlood flood-opacity="0" result="BackgroundImageFix" />
			<feColorMatrix in="SourceAlpha" type="matrix" values="0 0 0 0 0 0 0 0 0 0 0 0 0 0 0 0 0 0 127 0"
				result="hardAlpha" />
			<feOffset />
			<feGaussianBlur stdDeviation="2" />
			<feComposite in2="hardAlpha" operator="out" />
			<feColorMatrix type="matrix" values="0 0 0 0 0.34902 0 0 0 0 0.764706 0 0 0 0 1 0 0 0 0.5 0" />
			<feBlend mode="normal" in2="BackgroundImageFix" result="effect1_dropShadow_2_3" />
			<feBlend mode="normal" in="SourceGraphic" in2="effect1_dropShadow_2_3" result="shape" />
		</filter>
		<filter id="filter2_d_2_3" x="248" y="72" width="82" height="28" filterUnits="userSpaceOnUse"
			color-interpolation-filters="sRGB">
			<feFlood flood-opacity="0" result="BackgroundImageFix" />
			<feColorMatrix in="SourceAlpha" type="matrix" values="0 0 0 0 0 0 0 0 0 0 0 0 0 0 0 0 0 0 127 0"
				result="hardAlpha" />
			<feOffset />
			<feGaussianBlur stdDeviation="2" />
			<feComposite in2="hardAlpha" operator="out" />
			<feColorMatrix type="matrix" values="0 0 0 0 0.34902 0 0 0 0 0.764706 0 0 0 0 1 0 0 0 0.5 0" />
			<feBlend mode="normal" in2="BackgroundImageFix" result="effect1_dropShadow_2_3" />
			<feBlend mode="normal" in="SourceGraphic" in2="effect1_dropShadow_2_3" result="shape" />
		</filter>
		<filter id="filter3_d_2_3" x="248" y="74" width="82" height="24" filterUnits="userSpaceOnUse"
			color-interpolation-filters="sRGB">
			<feFlood flood-opacity="0" result="BackgroundImageFix" />
			<feColorMatrix in="SourceAlpha" type="matrix" values="0 0 0 0 0 0 0 0 0 0 0 0 0 0 0 0 0 0 127 0"
				result="hardAlpha" />
			<feOffset />
			<feGaussianBlur stdDeviation="2" />
			<feComposite in2="hardAlpha" operator="out" />
			<feColorMatrix type="matrix" values="0 0 0 0 0.34902 0 0 0 0 0.764706 0 0 0 0 1 0 0 0 0.5 0" />
			<feBlend mode="normal" in2="BackgroundImageFix" result="effect1_dropShadow_2_3" />
			<feBlend mode="normal" in="SourceGraphic" in2="effect1_dropShadow_2_3" result="shape" />
		</filter>
		<filter id="filter4_d_2_3" x="248" y="76" width="82" height="20" filterUnits="userSpaceOnUse"
			color-interpolation-filters="sRGB">
			<feFlood flood-opacity="0" result="BackgroundImageFix" />
			<feColorMatrix in="SourceAlpha" type="matrix" values="0 0 0 0 0 0 0 0 0 0 0 0 0 0 0 0 0 0 127 0"
				result="hardAlpha" />
			<feOffset />
			<feGaussianBlur stdDeviation="2" />
			<feComposite in2="hardAlpha" operator="out" />
			<feColorMatrix type="matrix" values="0 0 0 0 0.34902 0 0 0 0 0.764706 0 0 0 0 1 0 0 0 0.5 0" />
			<feBlend mode="normal" in2="BackgroundImageFix" result="effect1_dropShadow_2_3" />
			<feBlend mode="normal" in="SourceGraphic" in2="effect1_dropShadow_2_3" result="shape" />
		</filter>
		<filter id="filter5_dddddd_2_3" x="12.3906" y="-95.6094" width="404.219" height="404.219"
			filterUnits="userSpaceOnUse" color-interpolation-filters="sRGB">
			<feFlood flood-opacity="0" result="BackgroundImageFix" />
			<feColorMatrix in="SourceAlpha" type="matrix" values="0 0 0 0 0 0 0 0 0 0 0 0 0 0 0 0 0 0 127 0"
				result="hardAlpha" />
			<feOffset dy="3.86104" />
			<feGaussianBlur stdDeviation="2.27758" />
			<feColorMatrix type="matrix" values="0 0 0 0 0.34902 0 0 0 0 0.764706 0 0 0 0 1 0 0 0 0.0449833 0" />
			<feBlend mode="normal" in2="BackgroundImageFix" result="effect1_dropShadow_2_3" />
			<feColorMatrix in="SourceAlpha" type="matrix" values="0 0 0 0 0 0 0 0 0 0 0 0 0 0 0 0 0 0 127 0"
				result="hardAlpha" />
			<feOffset dy="9.27862" />
			<feGaussianBlur stdDeviation="5.47335" />
			<feColorMatrix type="matrix" values="0 0 0 0 0.34902 0 0 0 0 0.764706 0 0 0 0 1 0 0 0 0.0646228 0" />
			<feBlend mode="normal" in2="effect1_dropShadow_2_3" result="effect2_dropShadow_2_3" />
			<feColorMatrix in="SourceAlpha" type="matrix" values="0 0 0 0 0 0 0 0 0 0 0 0 0 0 0 0 0 0 127 0"
				result="hardAlpha" />
			<feOffset dy="17.4708" />
			<feGaussianBlur stdDeviation="10.3058" />
			<feColorMatrix type="matrix" values="0 0 0 0 0.34902 0 0 0 0 0.764706 0 0 0 0 1 0 0 0 0.08 0" />
			<feBlend mode="normal" in2="effect2_dropShadow_2_3" result="effect3_dropShadow_2_3" />
			<feColorMatrix in="SourceAlpha" type="matrix" values="0 0 0 0 0 0 0 0 0 0 0 0 0 0 0 0 0 0 127 0"
				result="hardAlpha" />
			<feOffset dy="10" />
			<feGaussianBlur stdDeviation="18.3838" />
			<feColorMatrix type="matrix" values="0 0 0 0 0.34902 0 0 0 0 0.764706 0 0 0 0 1 0 0 0 0.0953772 0" />
			<feBlend mode="normal" in2="effect3_dropShadow_2_3" result="effect4_dropShadow_2_3" />
			<feColorMatrix in="SourceAlpha" type="matrix" values="0 0 0 0 0 0 0 0 0 0 0 0 0 0 0 0 0 0 127 0"
				result="hardAlpha" />
			<feOffset dy="10" />
			<feGaussianBlur stdDeviation="34.3849" />
			<feColorMatrix type="matrix" values="0 0 0 0 0.34902 0 0 0 0 0.764706 0 0 0 0 1 0 0 0 0.115 0" />
			<feBlend mode="normal" in2="effect4_dropShadow_2_3" result="effect5_dropShadow_2_3" />
			<feColorMatrix in="SourceAlpha" type="matrix" values="0 0 0 0 0 0 0 0 0 0 0 0 0 0 0 0 0 0 127 0"
				result="hardAlpha" />
			<feOffset dy="20" />
			<feGaussianBlur stdDeviation="82.3047" />
			<feColorMatrix type="matrix" values="0 0 0 0 0.34902 0 0 0 0 0.764706 0 0 0 0 1 0 0 0 0.16 0" />
			<feBlend mode="normal" in2="effect5_dropShadow_2_3" result="effect6_dropShadow_2_3" />
			<feBlend mode="normal" in="SourceGraphic" in2="effect6_dropShadow_2_3" result="shape" />
		</filter>
		<filter id="filter6_dddddd_2_3" x="161.391" y="-98.6094" width="409.219" height="409.219"
			filterUnits="userSpaceOnUse" color-interpolation-filters="sRGB">
			<feFlood flood-opacity="0" result="BackgroundImageFix" />
			<feColorMatrix in="SourceAlpha" type="matrix" values="0 0 0 0 0 0 0 0 0 0 0 0 0 0 0 0 0 0 127 0"
				result="hardAlpha" />
			<feOffset dy="3.86104" />
			<feGaussianBlur stdDeviation="2.27758" />
			<feColorMatrix type="matrix"
				values="0 0 0 0 0.313726 0 0 0 0 0.101961 0 0 0 0 0.984314 0 0 0 0.0449833 0" />
			<feBlend mode="normal" in2="BackgroundImageFix" result="effect1_dropShadow_2_3" />
			<feColorMatrix in="SourceAlpha" type="matrix" values="0 0 0 0 0 0 0 0 0 0 0 0 0 0 0 0 0 0 127 0"
				result="hardAlpha" />
			<feOffset dy="9.27862" />
			<feGaussianBlur stdDeviation="5.47335" />
			<feColorMatrix type="matrix"
				values="0 0 0 0 0.313726 0 0 0 0 0.101961 0 0 0 0 0.984314 0 0 0 0.0646228 0" />
			<feBlend mode="normal" in2="effect1_dropShadow_2_3" result="effect2_dropShadow_2_3" />
			<feColorMatrix in="SourceAlpha" type="matrix" values="0 0 0 0 0 0 0 0 0 0 0 0 0 0 0 0 0 0 127 0"
				result="hardAlpha" />
			<feOffset dy="17.4708" />
			<feGaussianBlur stdDeviation="10.3058" />
			<feColorMatrix type="matrix" values="0 0 0 0 0.313726 0 0 0 0 0.101961 0 0 0 0 0.984314 0 0 0 0.08 0" />
			<feBlend mode="normal" in2="effect2_dropShadow_2_3" result="effect3_dropShadow_2_3" />
			<feColorMatrix in="SourceAlpha" type="matrix" values="0 0 0 0 0 0 0 0 0 0 0 0 0 0 0 0 0 0 127 0"
				result="hardAlpha" />
			<feOffset dy="10" />
			<feGaussianBlur stdDeviation="18.3838" />
			<feColorMatrix type="matrix"
				values="0 0 0 0 0.313726 0 0 0 0 0.101961 0 0 0 0 0.984314 0 0 0 0.0953772 0" />
			<feBlend mode="normal" in2="effect3_dropShadow_2_3" result="effect4_dropShadow_2_3" />
			<feColorMatrix in="SourceAlpha" type="matrix" values="0 0 0 0 0 0 0 0 0 0 0 0 0 0 0 0 0 0 127 0"
				result="hardAlpha" />
			<feOffset dy="10" />
			<feGaussianBlur stdDeviation="34.3849" />
			<feColorMatrix type="matrix" values="0 0 0 0 0.313726 0 0 0 0 0.101961 0 0 0 0 0.984314 0 0 0 0.115017 0" />
			<feBlend mode="normal" in2="effect4_dropShadow_2_3" result="effect5_dropShadow_2_3" />
			<feColorMatrix in="SourceAlpha" type="matrix" values="0 0 0 0 0 0 0 0 0 0 0 0 0 0 0 0 0 0 127 0"
				result="hardAlpha" />
			<feOffset dy="20" />
			<feGaussianBlur stdDeviation="82.3047" />
			<feColorMatrix type="matrix" values="0 0 0 0 0.313726 0 0 0 0 0.101961 0 0 0 0 0.984314 0 0 0 0.16 0" />
			<feBlend mode="normal" in2="effect5_dropShadow_2_3" result="effect6_dropShadow_2_3" />
			<feBlend mode="normal" in="SourceGraphic" in2="effect6_dropShadow_2_3" result="shape" />
		</filter>
		<filter id="filter7_dddddd_2_3" x="-136.609" y="-99.6094" width="409.219" height="409.219"
			filterUnits="userSpaceOnUse" color-interpolation-filters="sRGB">
			<feFlood flood-opacity="0" result="BackgroundImageFix" />
			<feColorMatrix in="SourceAlpha" type="matrix" values="0 0 0 0 0 0 0 0 0 0 0 0 0 0 0 0 0 0 127 0"
				result="hardAlpha" />
			<feOffset dy="3.86104" />
			<feGaussianBlur stdDeviation="2.27758" />
			<feColorMatrix type="matrix"
				values="0 0 0 0 0.313726 0 0 0 0 0.101961 0 0 0 0 0.984314 0 0 0 0.0449833 0" />
			<feBlend mode="normal" in2="BackgroundImageFix" result="effect1_dropShadow_2_3" />
			<feColorMatrix in="SourceAlpha" type="matrix" values="0 0 0 0 0 0 0 0 0 0 0 0 0 0 0 0 0 0 127 0"
				result="hardAlpha" />
			<feOffset dy="9.27862" />
			<feGaussianBlur stdDeviation="5.47335" />
			<feColorMatrix type="matrix"
				values="0 0 0 0 0.313726 0 0 0 0 0.101961 0 0 0 0 0.984314 0 0 0 0.0646228 0" />
			<feBlend mode="normal" in2="effect1_dropShadow_2_3" result="effect2_dropShadow_2_3" />
			<feColorMatrix in="SourceAlpha" type="matrix" values="0 0 0 0 0 0 0 0 0 0 0 0 0 0 0 0 0 0 127 0"
				result="hardAlpha" />
			<feOffset dy="17.4708" />
			<feGaussianBlur stdDeviation="10.3058" />
			<feColorMatrix type="matrix" values="0 0 0 0 0.313726 0 0 0 0 0.101961 0 0 0 0 0.984314 0 0 0 0.08 0" />
			<feBlend mode="normal" in2="effect2_dropShadow_2_3" result="effect3_dropShadow_2_3" />
			<feColorMatrix in="SourceAlpha" type="matrix" values="0 0 0 0 0 0 0 0 0 0 0 0 0 0 0 0 0 0 127 0"
				result="hardAlpha" />
			<feOffset dy="10" />
			<feGaussianBlur stdDeviation="18.3838" />
			<feColorMatrix type="matrix"
				values="0 0 0 0 0.313726 0 0 0 0 0.101961 0 0 0 0 0.984314 0 0 0 0.0953772 0" />
			<feBlend mode="normal" in2="effect3_dropShadow_2_3" result="effect4_dropShadow_2_3" />
			<feColorMatrix in="SourceAlpha" type="matrix" values="0 0 0 0 0 0 0 0 0 0 0 0 0 0 0 0 0 0 127 0"
				result="hardAlpha" />
			<feOffset dy="10" />
			<feGaussianBlur stdDeviation="34.3849" />
			<feColorMatrix type="matrix" values="0 0 0 0 0.313726 0 0 0 0 0.101961 0 0 0 0 0.984314 0 0 0 0.115017 0" />
			<feBlend mode="normal" in2="effect4_dropShadow_2_3" result="effect5_dropShadow_2_3" />
			<feColorMatrix in="SourceAlpha" type="matrix" values="0 0 0 0 0 0 0 0 0 0 0 0 0 0 0 0 0 0 127 0"
				result="hardAlpha" />
			<feOffset dy="20" />
			<feGaussianBlur stdDeviation="82.3047" />
			<feColorMatrix type="matrix" values="0 0 0 0 0.313726 0 0 0 0 0.101961 0 0 0 0 0.984314 0 0 0 0.16 0" />
			<feBlend mode="normal" in2="effect5_dropShadow_2_3" result="effect6_dropShadow_2_3" />
			<feBlend mode="normal" in="SourceGraphic" in2="effect6_dropShadow_2_3" result="shape" />
		</filter>
		<filter id="filter8_d_2_3" x="281" y="98" width="15.3645" height="26.5" filterUnits="userSpaceOnUse"
			color-interpolation-filters="sRGB">
			<feFlood flood-opacity="0" result="BackgroundImageFix" />
			<feColorMatrix in="SourceAlpha" type="matrix" values="0 0 0 0 0 0 0 0 0 0 0 0 0 0 0 0 0 0 127 0"
				result="hardAlpha" />
			<feOffset dy="4" />
			<feGaussianBlur stdDeviation="2" />
			<feComposite in2="hardAlpha" operator="out" />
			<feColorMatrix type="matrix" values="0 0 0 0 0 0 0 0 0 0 0 0 0 0 0 0 0 0 0.25 0" />
			<feBlend mode="normal" in2="BackgroundImageFix" result="effect1_dropShadow_2_3" />
			<feBlend mode="normal" in="SourceGraphic" in2="effect1_dropShadow_2_3" result="shape" />
		</filter>
		<filter id="filter9_d_2_3" x="138" y="96" width="15.3645" height="26.5" filterUnits="userSpaceOnUse"
			color-interpolation-filters="sRGB">
			<feFlood flood-opacity="0" result="BackgroundImageFix" />
			<feColorMatrix in="SourceAlpha" type="matrix" values="0 0 0 0 0 0 0 0 0 0 0 0 0 0 0 0 0 0 127 0"
				result="hardAlpha" />
			<feOffset dy="4" />
			<feGaussianBlur stdDeviation="2" />
			<feComposite in2="hardAlpha" operator="out" />
			<feColorMatrix type="matrix" values="0 0 0 0 0 0 0 0 0 0 0 0 0 0 0 0 0 0 0.25 0" />
			<feBlend mode="normal" in2="BackgroundImageFix" result="effect1_dropShadow_2_3" />
			<feBlend mode="normal" in="SourceGraphic" in2="effect1_dropShadow_2_3" result="shape" />
		</filter>
		<linearGradient id="paint0_linear_2_3" x1="nan" y1="nan" x2="nan" y2="nan" gradientUnits="userSpaceOnUse">
			<stop stop-color="#3A01E2" />
			<stop offset="1" stop-color="#6DEBAC" />
		</linearGradient>
		<linearGradient id="paint1_linear_2_3" x1="nan" y1="nan" x2="nan" y2="nan" gradientUnits="userSpaceOnUse">
			<stop stop-color="#8E01F8" />
			<stop offset="1" stop-color="#5AC2FF" />
		</linearGradient>
		<linearGradient id="paint2_linear_2_3" x1="nan" y1="nan" x2="nan" y2="nan" gradientUnits="userSpaceOnUse">
			<stop stop-color="#8E01F8" />
			<stop offset="1" stop-color="#5AC2FF" />
		</linearGradient>
		<linearGradient id="paint3_linear_2_3" x1="156.474" y1="77.693" x2="226.684" y2="92.613"
			gradientUnits="userSpaceOnUse">
			<stop stop-color="#75FF86" />
			<stop offset="1" stop-color="#59C3FF" />
		</linearGradient>
		<linearGradient id="paint4_linear_2_3" x1="304.106" y1="76.606" x2="378.996" y2="92.52"
			gradientUnits="userSpaceOnUse">
			<stop stop-color="#AD00FF" />
			<stop offset="1" stop-color="#3901E1" />
		</linearGradient>
		<linearGradient id="paint5_linear_2_3" x1="6.106" y1="75.606" x2="80.996" y2="91.52"
			gradientUnits="userSpaceOnUse">
			<stop stop-color="#AD00FF" />
			<stop offset="1" stop-color="#3901E1" />
		</linearGradient>
		<clipPath id="clip0_2_3">
			<rect width="422" height="201" fill="white" />
		</clipPath>
	</defs>
</svg>
