<svg xmlns="http://www.w3.org/2000/svg" width="403" height="193" fill="none" viewBox="0 0 403 193"><g clip-path="url(#clip0_3_51)"><mask id="mask0_3_51" style="mask-type:luminance" width="453" height="211" x="0" y="0" maskUnits="userSpaceOnUse"><path fill="#fff" d="M453 0H0V211H453V0Z"/></mask><g mask="url(#mask0_3_51)"><g filter="url(#filter0_d_3_51)"><path fill="#39D7E1" fill-opacity=".1" d="M222 -7H-14L-10.5221 187H222V-7Z"/></g><g filter="url(#filter1_d_3_51)"><path stroke="url(#paint0_linear_3_51)" stroke-width="12" d="M89.99 89.5H308.01"/></g><g filter="url(#filter2_dddddd_3_51)"><path fill="#000" d="M308 62C308 53.163 315.163 46 324 46H372C380.837 46 388 53.163 388 62V110C388 118.837 380.837 126 372 126H324C315.163 126 308 118.837 308 110V62Z"/><path stroke="url(#paint1_linear_3_51)" stroke-width="3" d="M324 47.5H372C380.008 47.5 386.5 53.992 386.5 62V110C386.5 118.008 380.008 124.5 372 124.5H324C315.992 124.5 309.5 118.008 309.5 110V62C309.5 53.992 315.992 47.5 324 47.5Z"/></g><path fill="#fff" d="M358.122 93.546C358.966 94.473 359.854 95.35 360.775 96.194C360.891 96.327 361.002 96.47 361.128 96.597C362.701 98.169 364.284 99.725 365.85 101.302C366.595 102.058 367.4 102.758 368.057 103.586H356.638C356.522 103.448 356.412 103.305 356.285 103.178C354.413 101.317 352.54 99.451 350.664 97.579C344.276 91.209 337.887 84.84 331.495 78.471C330.006 76.987 328.561 75.464 327.011 74.058V69.054C329.002 69.054 330.999 69.054 332.996 69.054C333.154 69.049 333.313 69.077 333.459 69.138C333.606 69.199 333.737 69.291 333.845 69.407C339.115 74.659 344.389 79.91 349.666 85.162C349.769 85.263 349.878 85.359 349.991 85.449C351.541 87.01 353.086 88.582 354.647 90.137C355.794 91.285 356.964 92.41 358.122 93.546Z"/><path fill="#fff" fill-opacity=".5" d="M368.074 103.585C367.401 102.757 366.595 102.057 365.867 101.301C364.301 99.7239 362.718 98.1679 361.145 96.5959C361.019 96.4689 360.908 96.3259 360.792 96.1929C360.792 95.9559 360.792 95.7239 360.792 95.4869C360.792 87.4409 360.792 79.3909 360.792 71.3369C360.785 70.9099 360.943 70.4969 361.234 70.1839C361.542 69.7639 361.958 69.4349 362.437 69.2309C362.917 69.0269 363.442 68.9559 363.959 69.0259C365.42 69.1359 366.899 69.0699 368.372 69.0259C368.824 69.0259 368.923 69.1469 368.923 69.5769C368.923 77.6529 368.923 85.7159 368.923 93.7659C368.923 96.8219 368.923 99.8799 368.923 102.939C368.923 103.155 368.923 103.37 368.956 103.585H368.074Z"/><path fill="#fff" fill-opacity=".5" d="M368.074 103.585C367.401 102.757 366.595 102.057 365.867 101.301C364.301 99.7239 362.718 98.1679 361.145 96.5959C361.019 96.4689 360.908 96.3259 360.792 96.1929C360.792 95.9559 360.792 95.7239 360.792 95.4869C360.792 87.4409 360.792 79.3909 360.792 71.3369C360.785 70.9099 360.943 70.4969 361.234 70.1839C361.542 69.7639 361.958 69.4349 362.437 69.2309C362.917 69.0269 363.442 68.9559 363.959 69.0259C365.42 69.1359 366.899 69.0699 368.372 69.0259C368.824 69.0259 368.923 69.1469 368.923 69.5769C368.923 77.6529 368.923 85.7159 368.923 93.7659C368.923 96.8219 368.923 99.8799 368.923 102.939C368.923 103.155 368.923 103.37 368.956 103.585H368.074Z"/><path fill="#fff" d="M327 89.248V77.8459C327.171 77.8839 327.259 78.033 327.37 78.149L330.894 81.63C337.389 88.106 343.883 94.582 350.378 101.058C351.205 101.885 352.082 102.674 352.827 103.584H341.386C341.386 103.419 341.226 103.347 341.127 103.248C337.13 99.254 333.125 95.264 329.113 91.278C328.447 90.562 327.742 89.884 327 89.248Z"/><path fill="#fff" d="M337.575 103.584C334.171 103.584 330.768 103.584 327.364 103.584C327.061 103.584 327 103.524 327 103.226C327 99.8391 327 96.4461 327 93.0481C327.226 93.0481 327.32 93.2631 327.458 93.3961C330.72 96.6361 333.976 99.8851 337.227 103.143C337.359 103.259 337.564 103.353 337.575 103.584Z"/><path fill="#fff" fill-opacity=".5" d="M358.123 93.545C356.965 92.409 355.795 91.284 354.648 90.136C353.087 88.581 351.542 87.008 349.992 85.447C349.992 84.234 349.992 83.026 349.992 81.812C349.98 81.688 349.996 81.563 350.038 81.446C350.08 81.328 350.147 81.222 350.235 81.134L357.831 73.576C357.892 73.516 357.969 73.466 358.024 73.417C358.195 73.477 358.145 73.604 358.145 73.698C358.145 80.225 358.145 86.751 358.145 93.275C358.144 93.365 358.136 93.456 358.123 93.545Z"/><path fill="#fff" fill-opacity=".5" d="M358.123 93.545C356.965 92.409 355.795 91.284 354.648 90.136C353.087 88.581 351.542 87.008 349.992 85.447C349.992 84.234 349.992 83.026 349.992 81.812C349.98 81.688 349.996 81.563 350.038 81.446C350.08 81.328 350.147 81.222 350.235 81.134L357.831 73.576C357.892 73.516 357.969 73.466 358.024 73.417C358.195 73.477 358.145 73.604 358.145 73.698C358.145 80.225 358.145 86.751 358.145 93.275C358.144 93.365 358.136 93.456 358.123 93.545Z"/><path fill="#fff" d="M303.722 147.984L304.346 159H303.01L302.666 153.248C302.65 152.859 302.634 152.464 302.618 152.064C302.602 151.664 302.592 151.28 302.586 150.912C302.581 150.544 302.578 150.216 302.578 149.928C302.578 149.64 302.578 149.416 302.578 149.256L300.722 157.024H299.33L297.338 149.256C297.344 149.411 297.349 149.64 297.354 149.944C297.36 150.243 297.362 150.581 297.362 150.96C297.368 151.339 297.365 151.728 297.354 152.128C297.349 152.523 297.338 152.891 297.322 153.232L297.026 159H295.722L296.346 147.984H298.282L300.066 155.528L301.77 147.984H303.722ZM312.468 157.16C312.468 157.496 312.524 157.741 312.636 157.896C312.748 158.051 312.921 158.165 313.156 158.24L312.828 159.184C312.465 159.136 312.148 159.021 311.876 158.84C311.604 158.653 311.407 158.373 311.284 158C310.98 158.389 310.601 158.685 310.148 158.888C309.695 159.085 309.193 159.184 308.644 159.184C307.801 159.184 307.137 158.947 306.652 158.472C306.167 157.997 305.924 157.368 305.924 156.584C305.924 155.715 306.263 155.048 306.94 154.584C307.617 154.12 308.596 153.888 309.876 153.888H311.116V153.184C311.116 152.576 310.937 152.147 310.58 151.896C310.228 151.64 309.737 151.512 309.108 151.512C308.831 151.512 308.505 151.547 308.132 151.616C307.759 151.68 307.353 151.789 306.916 151.944L306.564 150.928C307.081 150.736 307.567 150.6 308.02 150.52C308.473 150.44 308.905 150.4 309.316 150.4C310.367 150.4 311.153 150.645 311.676 151.136C312.204 151.621 312.468 152.283 312.468 153.12V157.16ZM308.988 158.16C309.404 158.16 309.801 158.056 310.18 157.848C310.559 157.635 310.871 157.341 311.116 156.968V154.8H309.9C308.972 154.8 308.316 154.96 307.932 155.28C307.553 155.6 307.364 156.029 307.364 156.568C307.364 157.091 307.497 157.488 307.764 157.76C308.036 158.027 308.444 158.16 308.988 158.16ZM322.718 158.576C322.43 158.768 322.081 158.917 321.67 159.024C321.259 159.131 320.857 159.184 320.462 159.184C319.555 159.184 318.857 158.947 318.366 158.472C317.875 157.997 317.63 157.387 317.63 156.64V151.616H315.694V150.576H317.63V148.664L318.974 148.504V150.576H321.886L321.726 151.616H318.974V156.624C318.974 157.093 319.097 157.451 319.342 157.696C319.593 157.941 320.006 158.064 320.582 158.064C320.897 158.064 321.187 158.027 321.454 157.952C321.721 157.877 321.969 157.781 322.198 157.664L322.718 158.576ZM326.68 155.264C326.706 155.915 326.832 156.448 327.056 156.864C327.28 157.275 327.576 157.579 327.944 157.776C328.312 157.968 328.712 158.064 329.144 158.064C329.576 158.064 329.965 158 330.312 157.872C330.664 157.744 331.024 157.555 331.392 157.304L332.024 158.192C331.629 158.501 331.178 158.744 330.672 158.92C330.17 159.096 329.656 159.184 329.128 159.184C328.312 159.184 327.616 159 327.04 158.632C326.464 158.264 326.024 157.752 325.72 157.096C325.421 156.435 325.272 155.669 325.272 154.8C325.272 153.947 325.424 153.189 325.728 152.528C326.032 151.867 326.458 151.347 327.008 150.968C327.557 150.589 328.205 150.4 328.952 150.4C329.661 150.4 330.272 150.568 330.784 150.904C331.296 151.235 331.688 151.709 331.96 152.328C332.237 152.941 332.376 153.675 332.376 154.528C332.376 154.672 332.373 154.808 332.368 154.936C332.362 155.059 332.354 155.168 332.344 155.264H326.68ZM328.968 151.504C328.344 151.504 327.821 151.725 327.4 152.168C326.984 152.611 326.746 153.296 326.688 154.224H331.08C331.064 153.323 330.866 152.645 330.488 152.192C330.109 151.733 329.602 151.504 328.968 151.504ZM335.297 159V157.968H336.609V151.608H335.297V150.576H337.633L337.881 152.568C338.207 151.875 338.601 151.339 339.065 150.96C339.529 150.581 340.143 150.392 340.905 150.392C341.14 150.392 341.348 150.411 341.529 150.448C341.716 150.48 341.905 150.523 342.097 150.576L341.705 151.776C341.529 151.728 341.369 151.693 341.225 151.672C341.081 151.645 340.916 151.632 340.729 151.632C340.084 151.632 339.529 151.861 339.065 152.32C338.601 152.779 338.231 153.472 337.953 154.4V157.968H339.665V159H335.297ZM340.801 153.424V151.592L340.937 150.576H342.097L341.905 153.424H340.801ZM349.075 150.576V157.936H351.451V159H345.131V157.936H347.731V151.64H345.211V150.576H349.075ZM348.003 146.632C348.302 146.632 348.539 146.723 348.715 146.904C348.896 147.085 348.987 147.307 348.987 147.568C348.987 147.84 348.896 148.069 348.715 148.256C348.539 148.437 348.302 148.528 348.003 148.528C347.72 148.528 347.488 148.437 347.307 148.256C347.126 148.069 347.035 147.84 347.035 147.568C347.035 147.307 347.126 147.085 347.307 146.904C347.488 146.723 347.72 146.632 348.003 146.632ZM360.437 157.16C360.437 157.496 360.493 157.741 360.605 157.896C360.717 158.051 360.89 158.165 361.125 158.24L360.797 159.184C360.434 159.136 360.117 159.021 359.845 158.84C359.573 158.653 359.376 158.373 359.253 158C358.949 158.389 358.57 158.685 358.117 158.888C357.664 159.085 357.162 159.184 356.613 159.184C355.77 159.184 355.106 158.947 354.621 158.472C354.136 157.997 353.893 157.368 353.893 156.584C353.893 155.715 354.232 155.048 354.909 154.584C355.586 154.12 356.565 153.888 357.845 153.888H359.085V153.184C359.085 152.576 358.906 152.147 358.549 151.896C358.197 151.64 357.706 151.512 357.077 151.512C356.8 151.512 356.474 151.547 356.101 151.616C355.728 151.68 355.322 151.789 354.885 151.944L354.533 150.928C355.05 150.736 355.536 150.6 355.989 150.52C356.442 150.44 356.874 150.4 357.285 150.4C358.336 150.4 359.122 150.645 359.645 151.136C360.173 151.621 360.437 152.283 360.437 153.12V157.16ZM356.957 158.16C357.373 158.16 357.77 158.056 358.149 157.848C358.528 157.635 358.84 157.341 359.085 156.968V154.8H357.869C356.941 154.8 356.285 154.96 355.901 155.28C355.522 155.6 355.333 156.029 355.333 156.568C355.333 157.091 355.466 157.488 355.733 157.76C356.005 158.027 356.413 158.16 356.957 158.16ZM367.279 147.184V156.92C367.279 157.336 367.407 157.632 367.663 157.808C367.924 157.979 368.26 158.064 368.671 158.064C368.927 158.064 369.169 158.037 369.399 157.984C369.628 157.931 369.857 157.859 370.087 157.768L370.447 158.752C370.217 158.864 369.932 158.963 369.591 159.048C369.255 159.139 368.873 159.184 368.447 159.184C367.7 159.184 367.095 158.979 366.631 158.568C366.167 158.152 365.935 157.579 365.935 156.848V148.248H363.351V147.184H367.279ZM377.856 150.576V157.936H380.232V159H373.912V157.936H376.512V151.64H373.992V150.576H377.856ZM376.784 146.632C377.083 146.632 377.32 146.723 377.496 146.904C377.678 147.085 377.768 147.307 377.768 147.568C377.768 147.84 377.678 148.069 377.496 148.256C377.32 148.437 377.083 148.528 376.784 148.528C376.502 148.528 376.27 148.437 376.088 148.256C375.907 148.069 375.816 147.84 375.816 147.568C375.816 147.307 375.907 147.085 376.088 146.904C376.27 146.723 376.502 146.632 376.784 146.632ZM384.866 157.856H389.554L389.378 159H383.218V157.984L387.89 151.744H383.586V150.576H389.506V151.616L384.866 157.856ZM393.836 155.264C393.863 155.915 393.988 156.448 394.212 156.864C394.436 157.275 394.732 157.579 395.1 157.776C395.468 157.968 395.868 158.064 396.3 158.064C396.732 158.064 397.121 158 397.468 157.872C397.82 157.744 398.18 157.555 398.548 157.304L399.18 158.192C398.785 158.501 398.335 158.744 397.828 158.92C397.327 159.096 396.812 159.184 396.284 159.184C395.468 159.184 394.772 159 394.196 158.632C393.62 158.264 393.18 157.752 392.876 157.096C392.577 156.435 392.428 155.669 392.428 154.8C392.428 153.947 392.58 153.189 392.884 152.528C393.188 151.867 393.615 151.347 394.164 150.968C394.713 150.589 395.361 150.4 396.108 150.4C396.817 150.4 397.428 150.568 397.94 150.904C398.452 151.235 398.844 151.709 399.116 152.328C399.393 152.941 399.532 153.675 399.532 154.528C399.532 154.672 399.529 154.808 399.524 154.936C399.519 155.059 399.511 155.168 399.5 155.264H393.836ZM396.124 151.504C395.5 151.504 394.977 151.725 394.556 152.168C394.14 152.611 393.903 153.296 393.844 154.224H398.236C398.22 153.323 398.023 152.645 397.644 152.192C397.265 151.733 396.759 151.504 396.124 151.504Z"/><g filter="url(#filter3_dddddd_3_51)"><path fill="#000" d="M65 61C65 52.163 72.163 45 81 45H129C137.837 45 145 52.163 145 61V109C145 117.837 137.837 125 129 125H81C72.163 125 65 117.837 65 109V61Z"/><path stroke="url(#paint2_linear_3_51)" stroke-width="3" d="M81 46.5H129C137.008 46.5 143.5 52.992 143.5 61V109C143.5 117.008 137.008 123.5 129 123.5H81C72.992 123.5 66.5 117.008 66.5 109V61C66.5 52.992 72.992 46.5 81 46.5Z"/></g><path fill="#EEE" d="M113.316 87.478C111.526 87.478 109.922 88.272 108.823 89.521L106.007 87.526C106.306 86.703 106.478 85.818 106.478 84.893C106.478 83.983 106.312 83.114 106.023 82.302L108.833 80.328C109.931 81.572 111.532 82.361 113.316 82.361C116.62 82.361 119.308 79.671 119.308 76.364C119.308 73.057 116.62 70.368 113.316 70.368C110.013 70.368 107.325 73.057 107.325 76.364C107.325 76.956 107.414 77.527 107.574 78.067L104.763 80.042C103.589 78.584 101.898 77.566 99.972 77.255V73.864C102.686 73.294 104.73 70.88 104.73 67.997C104.73 64.69 102.042 62 98.739 62C95.435 62 92.747 64.69 92.747 67.997C92.747 70.842 94.739 73.225 97.399 73.837V77.272C93.769 77.909 91 81.08 91 84.893C91 88.724 93.797 91.906 97.453 92.522V96.15C94.766 96.741 92.747 99.139 92.747 102.003C92.747 105.31 95.435 108 98.739 108C102.042 108 104.73 105.31 104.73 102.003C104.73 99.139 102.712 96.741 100.025 96.15V92.522C101.876 92.21 103.55 91.236 104.736 89.78L107.57 91.788C107.413 92.324 107.325 92.889 107.325 93.475C107.325 96.782 110.013 99.471 113.316 99.471C116.62 99.471 119.308 96.782 119.308 93.475C119.308 90.168 116.62 87.478 113.316 87.478ZM113.316 73.457C114.918 73.457 116.221 74.761 116.221 76.364C116.221 77.967 114.918 79.272 113.316 79.272C111.714 79.272 110.411 77.967 110.411 76.364C110.411 74.761 111.714 73.457 113.316 73.457ZM95.834 67.997C95.834 66.394 97.137 65.089 98.739 65.089C100.341 65.089 101.644 66.394 101.644 67.997C101.644 69.599 100.341 70.904 98.739 70.904C97.137 70.904 95.834 69.599 95.834 67.997ZM101.644 102.003C101.644 103.606 100.341 104.911 98.739 104.911C97.137 104.911 95.834 103.606 95.834 102.003C95.834 100.401 97.137 99.096 98.739 99.096C100.341 99.096 101.644 100.401 101.644 102.003ZM98.739 88.948C96.505 88.948 94.687 87.129 94.687 84.893C94.687 82.657 96.505 80.838 98.739 80.838C100.973 80.838 102.79 82.657 102.79 84.893C102.79 87.129 100.973 88.948 98.739 88.948ZM113.316 96.382C111.714 96.382 110.411 95.078 110.411 93.475C110.411 91.872 111.714 90.568 113.316 90.568C114.918 90.568 116.221 91.872 116.221 93.475C116.221 95.078 114.918 96.382 113.316 96.382Z"/><path fill="#fff" d="M84.08 158H82.696V146.984H84.08V158ZM84.16 152.12L88.496 146.984H90.096L85.792 152.032L90.4 158H88.672L84.16 152.12ZM98.249 156.16C98.249 156.496 98.305 156.741 98.417 156.896C98.529 157.051 98.703 157.165 98.937 157.24L98.609 158.184C98.247 158.136 97.929 158.021 97.657 157.84C97.385 157.653 97.188 157.373 97.065 157C96.761 157.389 96.383 157.685 95.929 157.888C95.476 158.085 94.975 158.184 94.425 158.184C93.583 158.184 92.919 157.947 92.433 157.472C91.948 156.997 91.705 156.368 91.705 155.584C91.705 154.715 92.044 154.048 92.721 153.584C93.399 153.12 94.377 152.888 95.657 152.888H96.897V152.184C96.897 151.576 96.719 151.147 96.361 150.896C96.009 150.64 95.519 150.512 94.889 150.512C94.612 150.512 94.287 150.547 93.913 150.616C93.54 150.68 93.135 150.789 92.697 150.944L92.345 149.928C92.863 149.736 93.348 149.6 93.801 149.52C94.255 149.44 94.687 149.4 95.097 149.4C96.148 149.4 96.935 149.645 97.457 150.136C97.985 150.621 98.249 151.283 98.249 152.12V156.16ZM94.769 157.16C95.185 157.16 95.583 157.056 95.961 156.848C96.34 156.635 96.652 156.341 96.897 155.968V153.8H95.681C94.753 153.8 94.097 153.96 93.713 154.28C93.335 154.6 93.145 155.029 93.145 155.568C93.145 156.091 93.279 156.488 93.545 156.76C93.817 157.027 94.225 157.16 94.769 157.16ZM106.787 146.016C107.24 146.016 107.651 146.056 108.019 146.136C108.387 146.216 108.736 146.328 109.067 146.472L108.635 147.472C108.363 147.355 108.075 147.267 107.771 147.208C107.467 147.149 107.152 147.12 106.827 147.12C106.24 147.12 105.798 147.235 105.499 147.464C105.206 147.693 105.059 148.045 105.059 148.52V150.232H107.915L107.771 151.288H105.059V158H103.715V151.288H101.707V150.232H103.715V148.552C103.715 148.029 103.848 147.579 104.115 147.2C104.387 146.821 104.755 146.531 105.219 146.328C105.683 146.12 106.206 146.016 106.787 146.016ZM118.461 149.576L114.669 153.368L118.901 158H117.133L112.989 153.4L116.717 149.576H118.461ZM112.837 146.016V158H111.493V146.184L112.837 146.016ZM127.031 156.16C127.031 156.496 127.087 156.741 127.199 156.896C127.311 157.051 127.484 157.165 127.719 157.24L127.391 158.184C127.028 158.136 126.711 158.021 126.439 157.84C126.167 157.653 125.969 157.373 125.847 157C125.543 157.389 125.164 157.685 124.711 157.888C124.257 158.085 123.756 158.184 123.207 158.184C122.364 158.184 121.7 157.947 121.215 157.472C120.729 156.997 120.487 156.368 120.487 155.584C120.487 154.715 120.825 154.048 121.503 153.584C122.18 153.12 123.159 152.888 124.439 152.888H125.679V152.184C125.679 151.576 125.5 151.147 125.143 150.896C124.791 150.64 124.3 150.512 123.671 150.512C123.393 150.512 123.068 150.547 122.695 150.616C122.321 150.68 121.916 150.789 121.479 150.944L121.127 149.928C121.644 149.736 122.129 149.6 122.583 149.52C123.036 149.44 123.468 149.4 123.879 149.4C124.929 149.4 125.716 149.645 126.239 150.136C126.767 150.621 127.031 151.283 127.031 152.12V156.16ZM123.551 157.16C123.967 157.16 124.364 157.056 124.743 156.848C125.121 156.635 125.433 156.341 125.679 155.968V153.8H124.463C123.535 153.8 122.879 153.96 122.495 154.28C122.116 154.6 121.927 155.029 121.927 155.568C121.927 156.091 122.06 156.488 122.327 156.76C122.599 157.027 123.007 157.16 123.551 157.16Z"/><path fill="#fff" d="M227.618 123.346V130.714H226.58V123.346H224V122.452H230.234L230.126 123.346H227.618ZM232.341 130.714V122.452H233.385V129.784H237.153L237.033 130.714H232.341ZM244.348 128.428C244.348 128.9 244.23 129.32 243.994 129.688C243.758 130.052 243.416 130.338 242.968 130.546C242.52 130.75 241.974 130.852 241.33 130.852C240.726 130.852 240.178 130.76 239.686 130.576C239.198 130.392 238.78 130.132 238.432 129.796L239.05 129.1C239.338 129.368 239.668 129.582 240.04 129.742C240.412 129.898 240.848 129.976 241.348 129.976C241.684 129.976 241.998 129.922 242.29 129.814C242.582 129.702 242.818 129.534 242.998 129.31C243.178 129.082 243.268 128.794 243.268 128.446C243.268 128.178 243.216 127.95 243.112 127.762C243.008 127.574 242.824 127.408 242.56 127.264C242.296 127.116 241.928 126.972 241.456 126.832C240.912 126.672 240.44 126.492 240.04 126.292C239.644 126.088 239.336 125.838 239.116 125.542C238.9 125.246 238.792 124.88 238.792 124.444C238.792 124.032 238.906 123.666 239.134 123.346C239.362 123.026 239.676 122.776 240.076 122.596C240.48 122.412 240.944 122.32 241.468 122.32C242.04 122.32 242.536 122.402 242.956 122.566C243.38 122.726 243.764 122.958 244.108 123.262L243.496 123.94C243.2 123.676 242.882 123.486 242.542 123.37C242.202 123.25 241.856 123.19 241.504 123.19C241.204 123.19 240.928 123.236 240.676 123.328C240.428 123.416 240.228 123.55 240.076 123.73C239.928 123.906 239.854 124.132 239.854 124.408C239.854 124.644 239.918 124.848 240.046 125.02C240.174 125.192 240.39 125.35 240.694 125.494C240.998 125.634 241.412 125.782 241.936 125.938C242.364 126.062 242.76 126.218 243.124 126.406C243.492 126.59 243.788 126.842 244.012 127.162C244.236 127.478 244.348 127.9 244.348 128.428ZM246.552 131.95L245.736 131.59L250.872 121L251.676 121.396L246.552 131.95ZM258.739 128.428C258.739 128.9 258.621 129.32 258.385 129.688C258.149 130.052 257.807 130.338 257.359 130.546C256.911 130.75 256.365 130.852 255.721 130.852C255.117 130.852 254.569 130.76 254.077 130.576C253.589 130.392 253.171 130.132 252.823 129.796L253.441 129.1C253.729 129.368 254.059 129.582 254.431 129.742C254.803 129.898 255.239 129.976 255.739 129.976C256.075 129.976 256.389 129.922 256.681 129.814C256.973 129.702 257.209 129.534 257.389 129.31C257.569 129.082 257.659 128.794 257.659 128.446C257.659 128.178 257.607 127.95 257.503 127.762C257.399 127.574 257.215 127.408 256.951 127.264C256.687 127.116 256.319 126.972 255.847 126.832C255.303 126.672 254.831 126.492 254.431 126.292C254.035 126.088 253.727 125.838 253.507 125.542C253.291 125.246 253.183 124.88 253.183 124.444C253.183 124.032 253.297 123.666 253.525 123.346C253.753 123.026 254.067 122.776 254.467 122.596C254.871 122.412 255.335 122.32 255.859 122.32C256.431 122.32 256.927 122.402 257.347 122.566C257.771 122.726 258.155 122.958 258.499 123.262L257.887 123.94C257.591 123.676 257.273 123.486 256.933 123.37C256.593 123.25 256.247 123.19 255.895 123.19C255.595 123.19 255.319 123.236 255.067 123.328C254.819 123.416 254.619 123.55 254.467 123.73C254.319 123.906 254.245 124.132 254.245 124.408C254.245 124.644 254.309 124.848 254.437 125.02C254.565 125.192 254.781 125.35 255.085 125.494C255.389 125.634 255.803 125.782 256.327 125.938C256.755 126.062 257.151 126.218 257.515 126.406C257.883 126.59 258.179 126.842 258.403 127.162C258.627 127.478 258.739 127.9 258.739 128.428ZM264.698 128.608H261.428L260.768 130.714H259.742L262.43 122.452H263.762L266.45 130.714H265.358L264.698 128.608ZM261.698 127.744H264.428L263.072 123.328L261.698 127.744ZM273.13 128.428C273.13 128.9 273.012 129.32 272.776 129.688C272.54 130.052 272.198 130.338 271.75 130.546C271.302 130.75 270.756 130.852 270.112 130.852C269.508 130.852 268.96 130.76 268.468 130.576C267.98 130.392 267.562 130.132 267.214 129.796L267.832 129.1C268.12 129.368 268.45 129.582 268.822 129.742C269.194 129.898 269.63 129.976 270.13 129.976C270.466 129.976 270.78 129.922 271.072 129.814C271.364 129.702 271.6 129.534 271.78 129.31C271.96 129.082 272.05 128.794 272.05 128.446C272.05 128.178 271.998 127.95 271.894 127.762C271.79 127.574 271.606 127.408 271.342 127.264C271.078 127.116 270.71 126.972 270.238 126.832C269.694 126.672 269.222 126.492 268.822 126.292C268.426 126.088 268.118 125.838 267.898 125.542C267.682 125.246 267.574 124.88 267.574 124.444C267.574 124.032 267.688 123.666 267.916 123.346C268.144 123.026 268.458 122.776 268.858 122.596C269.262 122.412 269.726 122.32 270.25 122.32C270.822 122.32 271.318 122.402 271.738 122.566C272.162 122.726 272.546 122.958 272.89 123.262L272.278 123.94C271.982 123.676 271.664 123.486 271.324 123.37C270.984 123.25 270.638 123.19 270.286 123.19C269.986 123.19 269.71 123.236 269.458 123.328C269.21 123.416 269.01 123.55 268.858 123.73C268.71 123.906 268.636 124.132 268.636 124.408C268.636 124.644 268.7 124.848 268.828 125.02C268.956 125.192 269.172 125.35 269.476 125.494C269.78 125.634 270.194 125.782 270.718 125.938C271.146 126.062 271.542 126.218 271.906 126.406C272.274 126.59 272.57 126.842 272.794 127.162C273.018 127.478 273.13 127.9 273.13 128.428ZM275.513 130.714V122.452H276.557V129.784H280.325L280.205 130.714H275.513Z"/><g filter="url(#filter4_d_3_51)"><path fill="#fff" d="M252.036 98.1462C251.84 97.9513 251.524 97.9513 251.328 98.1462L248.146 101.328C247.951 101.524 247.951 101.84 248.146 102.036C248.342 102.231 248.658 102.231 248.854 102.036L251.682 99.2073L254.51 102.036C254.706 102.231 255.022 102.231 255.218 102.036C255.413 101.84 255.413 101.524 255.218 101.328L252.036 98.1462ZM252.182 116.5V98.5003H251.182V116.5H252.182Z"/></g><path fill="#fff" d="M51.534 15.594C52.074 15.594 52.526 15.662 52.89 15.798C53.254 15.934 53.599 16.134 53.928 16.398L53.346 17.076C53.086 16.856 52.81 16.7 52.518 16.608C52.23 16.512 51.928 16.464 51.612 16.464C51.16 16.464 50.742 16.572 50.358 16.788C49.974 17 49.664 17.354 49.428 17.85C49.196 18.342 49.08 19.01 49.08 19.854C49.08 20.674 49.19 21.332 49.41 21.828C49.634 22.324 49.936 22.682 50.316 22.902C50.696 23.122 51.12 23.232 51.588 23.232C52.052 23.232 52.432 23.162 52.728 23.022C53.028 22.882 53.288 22.722 53.508 22.542L54.048 23.226C53.796 23.47 53.468 23.682 53.064 23.862C52.66 24.038 52.164 24.126 51.576 24.126C50.908 24.126 50.302 23.962 49.758 23.634C49.218 23.306 48.79 22.826 48.474 22.194C48.158 21.558 48 20.778 48 19.854C48 18.926 48.16 18.146 48.48 17.514C48.804 16.882 49.234 16.404 49.77 16.08C50.31 15.756 50.898 15.594 51.534 15.594ZM56.647 17.67V22.146C56.647 22.562 56.733 22.862 56.905 23.046C57.077 23.23 57.345 23.322 57.709 23.322C58.057 23.322 58.385 23.224 58.693 23.028C59.005 22.828 59.247 22.592 59.419 22.32V17.67H60.427V23.988H59.569L59.485 23.136C59.237 23.456 58.931 23.702 58.567 23.874C58.203 24.042 57.835 24.126 57.463 24.126C56.851 24.126 56.393 23.964 56.089 23.64C55.789 23.312 55.639 22.854 55.639 22.266V17.67H56.647ZM64.982 23.292C65.466 23.292 65.848 23.202 66.128 23.022C66.412 22.838 66.554 22.594 66.554 22.29C66.554 22.098 66.518 21.932 66.446 21.792C66.378 21.652 66.236 21.526 66.02 21.414C65.804 21.302 65.472 21.19 65.024 21.078C64.588 20.97 64.208 20.846 63.884 20.706C63.564 20.562 63.314 20.376 63.134 20.148C62.958 19.92 62.87 19.624 62.87 19.26C62.87 18.904 62.97 18.598 63.17 18.342C63.374 18.082 63.656 17.884 64.016 17.748C64.376 17.608 64.794 17.538 65.27 17.538C65.778 17.538 66.22 17.606 66.596 17.742C66.976 17.874 67.298 18.038 67.562 18.234L67.118 18.918C66.878 18.754 66.614 18.62 66.326 18.516C66.038 18.408 65.69 18.354 65.282 18.354C64.786 18.354 64.434 18.432 64.226 18.588C64.018 18.74 63.914 18.938 63.914 19.182C63.914 19.366 63.964 19.52 64.064 19.644C64.168 19.764 64.342 19.874 64.586 19.974C64.83 20.07 65.166 20.176 65.594 20.292C66.006 20.4 66.364 20.53 66.668 20.682C66.976 20.834 67.216 21.034 67.388 21.282C67.56 21.53 67.646 21.85 67.646 22.242C67.646 22.69 67.518 23.054 67.262 23.334C67.006 23.61 66.674 23.812 66.266 23.94C65.862 24.064 65.434 24.126 64.982 24.126C64.41 24.126 63.922 24.044 63.518 23.88C63.118 23.712 62.782 23.51 62.51 23.274L63.086 22.608C63.334 22.812 63.618 22.978 63.938 23.106C64.262 23.23 64.61 23.292 64.982 23.292ZM75.045 23.67C74.829 23.814 74.567 23.926 74.259 24.006C73.951 24.086 73.649 24.126 73.353 24.126C72.673 24.126 72.149 23.948 71.781 23.592C71.413 23.236 71.229 22.778 71.229 22.218V18.45H69.777V17.67H71.229V16.236L72.237 16.116V17.67H74.421L74.301 18.45H72.237V22.206C72.237 22.558 72.329 22.826 72.513 23.01C72.701 23.194 73.011 23.286 73.443 23.286C73.679 23.286 73.897 23.258 74.097 23.202C74.297 23.146 74.483 23.074 74.655 22.986L75.045 23.67ZM79.631 17.538C80.227 17.538 80.725 17.674 81.125 17.946C81.529 18.214 81.831 18.594 82.031 19.086C82.235 19.578 82.337 20.158 82.337 20.826C82.337 21.47 82.233 22.04 82.025 22.536C81.817 23.032 81.511 23.422 81.107 23.706C80.707 23.986 80.211 24.126 79.619 24.126C79.027 24.126 78.529 23.99 78.125 23.718C77.721 23.446 77.415 23.064 77.207 22.572C77.003 22.076 76.901 21.498 76.901 20.838C76.901 20.186 77.005 19.612 77.213 19.116C77.421 18.62 77.727 18.234 78.131 17.958C78.539 17.678 79.039 17.538 79.631 17.538ZM79.631 18.36C79.087 18.36 78.675 18.562 78.395 18.966C78.119 19.366 77.981 19.99 77.981 20.838C77.981 21.67 78.117 22.288 78.389 22.692C78.665 23.096 79.075 23.298 79.619 23.298C80.163 23.298 80.571 23.096 80.843 22.692C81.119 22.288 81.257 21.666 81.257 20.826C81.257 19.986 81.121 19.366 80.849 18.966C80.577 18.562 80.171 18.36 79.631 18.36ZM88.584 17.538C88.788 17.538 88.982 17.582 89.166 17.67C89.354 17.758 89.508 17.928 89.628 18.18C89.748 18.432 89.808 18.8 89.808 19.284V23.988H88.872V19.446C88.872 19.05 88.848 18.764 88.8 18.588C88.752 18.412 88.614 18.324 88.386 18.324C88.198 18.324 88.01 18.384 87.822 18.504C87.638 18.62 87.458 18.812 87.282 19.08V23.988H86.34V19.446C86.34 19.05 86.316 18.764 86.268 18.588C86.22 18.412 86.082 18.324 85.854 18.324C85.658 18.324 85.468 18.384 85.284 18.504C85.104 18.62 84.926 18.812 84.75 19.08V23.988H83.82V17.67H84.612L84.672 18.402C84.844 18.158 85.036 17.954 85.248 17.79C85.464 17.622 85.73 17.538 86.046 17.538C86.286 17.538 86.512 17.596 86.724 17.712C86.936 17.824 87.092 18.044 87.192 18.372C87.364 18.124 87.558 17.924 87.774 17.772C87.99 17.616 88.26 17.538 88.584 17.538ZM92.407 21.186C92.427 21.674 92.521 22.074 92.689 22.386C92.857 22.694 93.079 22.922 93.355 23.07C93.631 23.214 93.931 23.286 94.255 23.286C94.579 23.286 94.871 23.238 95.131 23.142C95.395 23.046 95.665 22.904 95.941 22.716L96.415 23.382C96.119 23.614 95.781 23.796 95.401 23.928C95.025 24.06 94.639 24.126 94.243 24.126C93.631 24.126 93.109 23.988 92.677 23.712C92.245 23.436 91.915 23.052 91.687 22.56C91.463 22.064 91.351 21.49 91.351 20.838C91.351 20.198 91.465 19.63 91.693 19.134C91.921 18.638 92.241 18.248 92.653 17.964C93.065 17.68 93.551 17.538 94.111 17.538C94.643 17.538 95.101 17.664 95.485 17.916C95.869 18.164 96.163 18.52 96.367 18.984C96.575 19.444 96.679 19.994 96.679 20.634C96.679 20.742 96.677 20.844 96.673 20.94C96.669 21.032 96.663 21.114 96.655 21.186H92.407ZM94.123 18.366C93.655 18.366 93.263 18.532 92.947 18.864C92.635 19.196 92.457 19.71 92.413 20.406H95.707C95.695 19.73 95.547 19.222 95.263 18.882C94.979 18.538 94.599 18.366 94.123 18.366ZM98.871 23.988V23.214H99.855V18.444H98.871V17.67H100.623L100.809 19.164C101.053 18.644 101.349 18.242 101.697 17.958C102.045 17.674 102.505 17.532 103.077 17.532C103.253 17.532 103.409 17.546 103.545 17.574C103.685 17.598 103.827 17.63 103.971 17.67L103.677 18.57C103.545 18.534 103.425 18.508 103.317 18.492C103.209 18.472 103.085 18.462 102.945 18.462C102.461 18.462 102.045 18.634 101.697 18.978C101.349 19.322 101.071 19.842 100.863 20.538V23.214H102.147V23.988H98.871ZM102.999 19.806V18.432L103.101 17.67H103.971L103.827 19.806H102.999ZM116.735 23.988L113.825 16.722C113.829 16.814 113.837 16.968 113.849 17.184C113.865 17.396 113.881 17.65 113.897 17.946C113.917 18.238 113.933 18.548 113.945 18.876C113.957 19.204 113.963 19.528 113.963 19.848V23.988H112.997V15.726H114.407L117.365 23.022C117.361 22.906 117.347 22.694 117.323 22.386C117.299 22.074 117.277 21.698 117.257 21.258C117.237 20.818 117.227 20.352 117.227 19.86V15.726H118.193V23.988H116.735ZM121.189 21.186C121.209 21.674 121.303 22.074 121.471 22.386C121.639 22.694 121.861 22.922 122.137 23.07C122.413 23.214 122.713 23.286 123.037 23.286C123.361 23.286 123.653 23.238 123.913 23.142C124.177 23.046 124.447 22.904 124.723 22.716L125.197 23.382C124.901 23.614 124.563 23.796 124.183 23.928C123.807 24.06 123.421 24.126 123.025 24.126C122.413 24.126 121.891 23.988 121.459 23.712C121.027 23.436 120.697 23.052 120.469 22.56C120.245 22.064 120.133 21.49 120.133 20.838C120.133 20.198 120.247 19.63 120.475 19.134C120.703 18.638 121.023 18.248 121.435 17.964C121.847 17.68 122.333 17.538 122.893 17.538C123.425 17.538 123.883 17.664 124.267 17.916C124.651 18.164 124.945 18.52 125.149 18.984C125.357 19.444 125.461 19.994 125.461 20.634C125.461 20.742 125.459 20.844 125.455 20.94C125.451 21.032 125.445 21.114 125.437 21.186H121.189ZM122.905 18.366C122.437 18.366 122.045 18.532 121.729 18.864C121.417 19.196 121.239 19.71 121.195 20.406H124.489C124.477 19.73 124.329 19.222 124.045 18.882C123.761 18.538 123.381 18.366 122.905 18.366ZM132.608 23.67C132.392 23.814 132.13 23.926 131.822 24.006C131.514 24.086 131.212 24.126 130.916 24.126C130.236 24.126 129.712 23.948 129.344 23.592C128.976 23.236 128.792 22.778 128.792 22.218V18.45H127.34V17.67H128.792V16.236L129.8 16.116V17.67H131.984L131.864 18.45H129.8V22.206C129.8 22.558 129.892 22.826 130.076 23.01C130.264 23.194 130.574 23.286 131.006 23.286C131.242 23.286 131.46 23.258 131.66 23.202C131.86 23.146 132.046 23.074 132.218 22.986L132.608 23.67ZM139.467 23.988H138.039L137.223 19.35L136.335 23.988H134.943L133.791 17.67H134.823L135.627 23.364L136.635 18.474H137.829L138.783 23.364L139.587 17.67H140.571L139.467 23.988ZM144.389 17.538C144.985 17.538 145.483 17.674 145.883 17.946C146.287 18.214 146.589 18.594 146.789 19.086C146.993 19.578 147.095 20.158 147.095 20.826C147.095 21.47 146.991 22.04 146.783 22.536C146.575 23.032 146.269 23.422 145.865 23.706C145.465 23.986 144.969 24.126 144.377 24.126C143.785 24.126 143.287 23.99 142.883 23.718C142.479 23.446 142.173 23.064 141.965 22.572C141.761 22.076 141.659 21.498 141.659 20.838C141.659 20.186 141.763 19.612 141.971 19.116C142.179 18.62 142.485 18.234 142.889 17.958C143.297 17.678 143.797 17.538 144.389 17.538ZM144.389 18.36C143.845 18.36 143.433 18.562 143.153 18.966C142.877 19.366 142.739 19.99 142.739 20.838C142.739 21.67 142.875 22.288 143.147 22.692C143.423 23.096 143.833 23.298 144.377 23.298C144.921 23.298 145.329 23.096 145.601 22.692C145.877 22.288 146.015 21.666 146.015 20.826C146.015 19.986 145.879 19.366 145.607 18.966C145.335 18.562 144.929 18.36 144.389 18.36ZM149.238 23.988V23.214H150.222V18.444H149.238V17.67H150.99L151.176 19.164C151.42 18.644 151.716 18.242 152.064 17.958C152.412 17.674 152.872 17.532 153.444 17.532C153.62 17.532 153.776 17.546 153.912 17.574C154.052 17.598 154.194 17.63 154.338 17.67L154.044 18.57C153.912 18.534 153.792 18.508 153.684 18.492C153.576 18.472 153.452 18.462 153.312 18.462C152.828 18.462 152.412 18.634 152.064 18.978C151.716 19.322 151.438 19.842 151.23 20.538V23.214H152.514V23.988H149.238ZM153.366 19.806V18.432L153.468 17.67H154.338L154.194 19.806H153.366ZM161.665 17.67L158.821 20.514L161.995 23.988H160.669L157.561 20.538L160.357 17.67H161.665ZM157.447 15V23.988H156.439V15.126L157.447 15Z"/><path fill="#000" d="M121.305 109.632V117H120.267V109.632H117.687V108.738H123.921L123.813 109.632H121.305ZM126.028 117V108.738H127.072V116.07H130.84L130.72 117H126.028ZM138.036 114.714C138.036 115.186 137.918 115.606 137.682 115.974C137.446 116.338 137.104 116.624 136.656 116.832C136.208 117.036 135.662 117.138 135.018 117.138C134.414 117.138 133.866 117.046 133.374 116.862C132.886 116.678 132.468 116.418 132.12 116.082L132.738 115.386C133.026 115.654 133.356 115.868 133.728 116.028C134.1 116.184 134.536 116.262 135.036 116.262C135.372 116.262 135.686 116.208 135.978 116.1C136.27 115.988 136.506 115.82 136.686 115.596C136.866 115.368 136.956 115.08 136.956 114.732C136.956 114.464 136.904 114.236 136.8 114.048C136.696 113.86 136.512 113.694 136.248 113.55C135.984 113.402 135.616 113.258 135.144 113.118C134.6 112.958 134.128 112.778 133.728 112.578C133.332 112.374 133.024 112.124 132.804 111.828C132.588 111.532 132.48 111.166 132.48 110.73C132.48 110.318 132.594 109.952 132.822 109.632C133.05 109.312 133.364 109.062 133.764 108.882C134.168 108.698 134.632 108.606 135.156 108.606C135.728 108.606 136.224 108.688 136.644 108.852C137.068 109.012 137.452 109.244 137.796 109.548L137.184 110.226C136.888 109.962 136.57 109.772 136.23 109.656C135.89 109.536 135.544 109.476 135.192 109.476C134.892 109.476 134.616 109.522 134.364 109.614C134.116 109.702 133.916 109.836 133.764 110.016C133.616 110.192 133.542 110.418 133.542 110.694C133.542 110.93 133.606 111.134 133.734 111.306C133.862 111.478 134.078 111.636 134.382 111.78C134.686 111.92 135.1 112.068 135.624 112.224C136.052 112.348 136.448 112.504 136.812 112.692C137.18 112.876 137.476 113.128 137.7 113.448C137.924 113.764 138.036 114.186 138.036 114.714Z"/><g filter="url(#filter5_d_3_51)"><path fill="#000" d="M128.354 87.646C128.158 87.451 127.842 87.451 127.646 87.646L124.464 90.828C124.269 91.024 124.269 91.34 124.464 91.536C124.66 91.731 124.976 91.731 125.172 91.536L128 88.707L130.828 91.536C131.024 91.731 131.34 91.731 131.536 91.536C131.731 91.34 131.731 91.024 131.536 90.828L128.354 87.646ZM128.5 106V88H127.5V106H128.5Z"/></g></g></g><defs><filter id="filter0_d_3_51" width="244" height="202" x="-18" y="-7" color-interpolation-filters="sRGB" filterUnits="userSpaceOnUse"><feFlood flood-opacity="0" result="BackgroundImageFix"/><feColorMatrix in="SourceAlpha" result="hardAlpha" type="matrix" values="0 0 0 0 0 0 0 0 0 0 0 0 0 0 0 0 0 0 127 0"/><feOffset dy="4"/><feGaussianBlur stdDeviation="2"/><feComposite in2="hardAlpha" operator="out"/><feColorMatrix type="matrix" values="0 0 0 0 0.223529 0 0 0 0 0.843137 0 0 0 0 0.882353 0 0 0 1 0"/><feBlend in2="BackgroundImageFix" mode="normal" result="effect1_dropShadow_3_51"/><feBlend in="SourceGraphic" in2="effect1_dropShadow_3_51" mode="normal" result="shape"/></filter><filter id="filter1_d_3_51" width="226.02" height="20" x="85.99" y="79.5" color-interpolation-filters="sRGB" filterUnits="userSpaceOnUse"><feFlood flood-opacity="0" result="BackgroundImageFix"/><feColorMatrix in="SourceAlpha" result="hardAlpha" type="matrix" values="0 0 0 0 0 0 0 0 0 0 0 0 0 0 0 0 0 0 127 0"/><feOffset/><feGaussianBlur stdDeviation="2"/><feComposite in2="hardAlpha" operator="out"/><feColorMatrix type="matrix" values="0 0 0 0 0.34902 0 0 0 0 0.764706 0 0 0 0 1 0 0 0 0.5 0"/><feBlend in2="BackgroundImageFix" mode="normal" result="effect1_dropShadow_3_51"/><feBlend in="SourceGraphic" in2="effect1_dropShadow_3_51" mode="normal" result="shape"/></filter><filter id="filter2_dddddd_3_51" width="409.219" height="409.219" x="143.391" y="-98.609" color-interpolation-filters="sRGB" filterUnits="userSpaceOnUse"><feFlood flood-opacity="0" result="BackgroundImageFix"/><feColorMatrix in="SourceAlpha" result="hardAlpha" type="matrix" values="0 0 0 0 0 0 0 0 0 0 0 0 0 0 0 0 0 0 127 0"/><feOffset dy="3.861"/><feGaussianBlur stdDeviation="2.278"/><feColorMatrix type="matrix" values="0 0 0 0 0.313726 0 0 0 0 0.101961 0 0 0 0 0.984314 0 0 0 0.0449833 0"/><feBlend in2="BackgroundImageFix" mode="normal" result="effect1_dropShadow_3_51"/><feColorMatrix in="SourceAlpha" result="hardAlpha" type="matrix" values="0 0 0 0 0 0 0 0 0 0 0 0 0 0 0 0 0 0 127 0"/><feOffset dy="9.279"/><feGaussianBlur stdDeviation="5.473"/><feColorMatrix type="matrix" values="0 0 0 0 0.313726 0 0 0 0 0.101961 0 0 0 0 0.984314 0 0 0 0.0646228 0"/><feBlend in2="effect1_dropShadow_3_51" mode="normal" result="effect2_dropShadow_3_51"/><feColorMatrix in="SourceAlpha" result="hardAlpha" type="matrix" values="0 0 0 0 0 0 0 0 0 0 0 0 0 0 0 0 0 0 127 0"/><feOffset dy="17.471"/><feGaussianBlur stdDeviation="10.306"/><feColorMatrix type="matrix" values="0 0 0 0 0.313726 0 0 0 0 0.101961 0 0 0 0 0.984314 0 0 0 0.08 0"/><feBlend in2="effect2_dropShadow_3_51" mode="normal" result="effect3_dropShadow_3_51"/><feColorMatrix in="SourceAlpha" result="hardAlpha" type="matrix" values="0 0 0 0 0 0 0 0 0 0 0 0 0 0 0 0 0 0 127 0"/><feOffset dy="10"/><feGaussianBlur stdDeviation="18.384"/><feColorMatrix type="matrix" values="0 0 0 0 0.313726 0 0 0 0 0.101961 0 0 0 0 0.984314 0 0 0 0.0953772 0"/><feBlend in2="effect3_dropShadow_3_51" mode="normal" result="effect4_dropShadow_3_51"/><feColorMatrix in="SourceAlpha" result="hardAlpha" type="matrix" values="0 0 0 0 0 0 0 0 0 0 0 0 0 0 0 0 0 0 127 0"/><feOffset dy="10"/><feGaussianBlur stdDeviation="34.385"/><feColorMatrix type="matrix" values="0 0 0 0 0.313726 0 0 0 0 0.101961 0 0 0 0 0.984314 0 0 0 0.115017 0"/><feBlend in2="effect4_dropShadow_3_51" mode="normal" result="effect5_dropShadow_3_51"/><feColorMatrix in="SourceAlpha" result="hardAlpha" type="matrix" values="0 0 0 0 0 0 0 0 0 0 0 0 0 0 0 0 0 0 127 0"/><feOffset dy="20"/><feGaussianBlur stdDeviation="82.305"/><feColorMatrix type="matrix" values="0 0 0 0 0.313726 0 0 0 0 0.101961 0 0 0 0 0.984314 0 0 0 0.16 0"/><feBlend in2="effect5_dropShadow_3_51" mode="normal" result="effect6_dropShadow_3_51"/><feBlend in="SourceGraphic" in2="effect6_dropShadow_3_51" mode="normal" result="shape"/></filter><filter id="filter3_dddddd_3_51" width="409.219" height="409.219" x="-99.609" y="-99.609" color-interpolation-filters="sRGB" filterUnits="userSpaceOnUse"><feFlood flood-opacity="0" result="BackgroundImageFix"/><feColorMatrix in="SourceAlpha" result="hardAlpha" type="matrix" values="0 0 0 0 0 0 0 0 0 0 0 0 0 0 0 0 0 0 127 0"/><feOffset dy="3.861"/><feGaussianBlur stdDeviation="2.278"/><feColorMatrix type="matrix" values="0 0 0 0 0.313726 0 0 0 0 0.101961 0 0 0 0 0.984314 0 0 0 0.0449833 0"/><feBlend in2="BackgroundImageFix" mode="normal" result="effect1_dropShadow_3_51"/><feColorMatrix in="SourceAlpha" result="hardAlpha" type="matrix" values="0 0 0 0 0 0 0 0 0 0 0 0 0 0 0 0 0 0 127 0"/><feOffset dy="9.279"/><feGaussianBlur stdDeviation="5.473"/><feColorMatrix type="matrix" values="0 0 0 0 0.313726 0 0 0 0 0.101961 0 0 0 0 0.984314 0 0 0 0.0646228 0"/><feBlend in2="effect1_dropShadow_3_51" mode="normal" result="effect2_dropShadow_3_51"/><feColorMatrix in="SourceAlpha" result="hardAlpha" type="matrix" values="0 0 0 0 0 0 0 0 0 0 0 0 0 0 0 0 0 0 127 0"/><feOffset dy="17.471"/><feGaussianBlur stdDeviation="10.306"/><feColorMatrix type="matrix" values="0 0 0 0 0.313726 0 0 0 0 0.101961 0 0 0 0 0.984314 0 0 0 0.08 0"/><feBlend in2="effect2_dropShadow_3_51" mode="normal" result="effect3_dropShadow_3_51"/><feColorMatrix in="SourceAlpha" result="hardAlpha" type="matrix" values="0 0 0 0 0 0 0 0 0 0 0 0 0 0 0 0 0 0 127 0"/><feOffset dy="10"/><feGaussianBlur stdDeviation="18.384"/><feColorMatrix type="matrix" values="0 0 0 0 0.313726 0 0 0 0 0.101961 0 0 0 0 0.984314 0 0 0 0.0953772 0"/><feBlend in2="effect3_dropShadow_3_51" mode="normal" result="effect4_dropShadow_3_51"/><feColorMatrix in="SourceAlpha" result="hardAlpha" type="matrix" values="0 0 0 0 0 0 0 0 0 0 0 0 0 0 0 0 0 0 127 0"/><feOffset dy="10"/><feGaussianBlur stdDeviation="34.385"/><feColorMatrix type="matrix" values="0 0 0 0 0.313726 0 0 0 0 0.101961 0 0 0 0 0.984314 0 0 0 0.115017 0"/><feBlend in2="effect4_dropShadow_3_51" mode="normal" result="effect5_dropShadow_3_51"/><feColorMatrix in="SourceAlpha" result="hardAlpha" type="matrix" values="0 0 0 0 0 0 0 0 0 0 0 0 0 0 0 0 0 0 127 0"/><feOffset dy="20"/><feGaussianBlur stdDeviation="82.305"/><feColorMatrix type="matrix" values="0 0 0 0 0.313726 0 0 0 0 0.101961 0 0 0 0 0.984314 0 0 0 0.16 0"/><feBlend in2="effect5_dropShadow_3_51" mode="normal" result="effect6_dropShadow_3_51"/><feBlend in="SourceGraphic" in2="effect6_dropShadow_3_51" mode="normal" result="shape"/></filter><filter id="filter4_d_3_51" width="15.364" height="26.5" x="244" y="98" color-interpolation-filters="sRGB" filterUnits="userSpaceOnUse"><feFlood flood-opacity="0" result="BackgroundImageFix"/><feColorMatrix in="SourceAlpha" result="hardAlpha" type="matrix" values="0 0 0 0 0 0 0 0 0 0 0 0 0 0 0 0 0 0 127 0"/><feOffset dy="4"/><feGaussianBlur stdDeviation="2"/><feComposite in2="hardAlpha" operator="out"/><feColorMatrix type="matrix" values="0 0 0 0 0 0 0 0 0 0 0 0 0 0 0 0 0 0 0.25 0"/><feBlend in2="BackgroundImageFix" mode="normal" result="effect1_dropShadow_3_51"/><feBlend in="SourceGraphic" in2="effect1_dropShadow_3_51" mode="normal" result="shape"/></filter><filter id="filter5_d_3_51" width="15.364" height="26.5" x="120.318" y="87.5" color-interpolation-filters="sRGB" filterUnits="userSpaceOnUse"><feFlood flood-opacity="0" result="BackgroundImageFix"/><feColorMatrix in="SourceAlpha" result="hardAlpha" type="matrix" values="0 0 0 0 0 0 0 0 0 0 0 0 0 0 0 0 0 0 127 0"/><feOffset dy="4"/><feGaussianBlur stdDeviation="2"/><feComposite in2="hardAlpha" operator="out"/><feColorMatrix type="matrix" values="0 0 0 0 0 0 0 0 0 0 0 0 0 0 0 0 0 0 0.25 0"/><feBlend in2="BackgroundImageFix" mode="normal" result="effect1_dropShadow_3_51"/><feBlend in="SourceGraphic" in2="effect1_dropShadow_3_51" mode="normal" result="shape"/></filter><linearGradient id="paint0_linear_3_51" x1="nan" x2="nan" y1="nan" y2="nan" gradientUnits="userSpaceOnUse"><stop stop-color="#3A01E2"/><stop offset="1" stop-color="#6DEBAC"/></linearGradient><linearGradient id="paint1_linear_3_51" x1="286.106" x2="360.996" y1="76.606" y2="92.52" gradientUnits="userSpaceOnUse"><stop stop-color="#AD00FF"/><stop offset="1" stop-color="#3901E1"/></linearGradient><linearGradient id="paint2_linear_3_51" x1="43.106" x2="117.996" y1="75.606" y2="91.52" gradientUnits="userSpaceOnUse"><stop stop-color="#AD00FF"/><stop offset="1" stop-color="#3901E1"/></linearGradient><clipPath id="clip0_3_51"><rect width="403" height="193" fill="#fff"/></clipPath></defs></svg>