<svg xmlns="http://www.w3.org/2000/svg" width="75" height="75" fill="none" viewBox="0 0 75 75"><path stroke="#000" stroke-width="2.11" d="M42.1588 14.8157C44.3256 16.4859 45.8886 18.7895 46.6313 21.3646L31.9967 12.7043L31.5084 12.3992L31.466 12.3727L31.4213 12.3503C31.227 12.2531 30.9557 12.0926 30.5988 11.8546L30.5741 11.8381L30.5485 11.823L29.4878 11.1992L29.4868 11.1986C27.1457 9.82512 23.7744 7.8585 20.8626 6.18012C19.4071 5.34112 18.064 4.57279 17.0211 3.9862C16.0646 3.44825 15.3017 3.02918 14.9581 2.86981C13.9438 2.29976 12.8659 2.01811 11.8044 1.94734L11.7108 1.9411L11.6177 1.95145C9.13893 2.22687 6.85637 3.32867 5.12367 5.12367C3.32867 6.85637 2.22687 9.13893 1.95145 11.6177L1.9411 11.7108L1.94734 11.8044C2.01718 12.852 2.2941 13.9373 2.87422 14.9066C3.06844 15.3304 3.61275 16.323 4.30357 17.5535C5.06373 18.9075 6.05047 20.6348 7.0846 22.4299C9.15209 26.0187 11.4173 29.8932 12.4516 31.6169L12.4515 31.6169L12.4567 31.6254C13.538 33.3895 14.1105 35.4439 14.1105 37.5624C14.1105 39.6796 13.5386 41.7329 12.4586 43.4963C11.4172 45.1691 9.16396 49.0189 7.10813 52.5855C5.11761 56.0387 3.25895 59.3178 2.88391 60.0773C2.29718 61.0507 2.01757 62.1422 1.94734 63.1956L1.9411 63.2892L1.95145 63.3823C2.22853 65.8761 3.40093 68.1502 5.17837 69.8689C6.85684 71.6756 9.14601 72.7739 11.6177 73.0485L11.6757 73.055H11.7342C12.9915 73.055 13.7435 72.7049 14.9308 72.1424C15.5734 71.838 18.9335 69.9344 22.4769 67.8919C26.0458 65.8347 29.8983 63.5798 31.5694 62.5394L31.5833 62.5307L31.597 62.5216C31.8135 62.3773 32.0385 62.2691 32.3158 62.1357C32.4246 62.0834 32.5414 62.0273 32.6689 61.9635L34.1959 61.2001L32.8301 60.1758C32.3675 59.829 31.9691 59.487 31.5705 59.0885L31.5653 59.0833L31.56 59.0781C30.0433 57.6035 28.951 55.7126 28.3424 53.6565L42.6401 62.115L42.7099 62.1563L42.7853 62.1865C42.8656 62.2186 42.9509 62.264 43.0712 62.3347C43.0898 62.3457 43.1114 62.3586 43.1354 62.3729C43.2251 62.4265 43.3475 62.4997 43.4681 62.5627C46.8579 64.6668 59.0281 71.3726 60.1738 71.9454C61.3249 72.521 62.1341 72.8679 63.3282 72.8679H63.3734L63.4183 72.864C65.8733 72.6536 68.1541 71.4703 69.869 69.6968C71.6756 68.0183 72.7739 65.7291 73.0485 63.2575L73.055 63.1994V63.141C73.055 61.9413 72.7 61.184 72.1424 60.0068C71.8379 59.364 69.9343 56.004 67.8919 52.4607C65.836 48.8941 63.5827 45.0442 62.5413 43.3714C61.4614 41.6081 60.8895 39.5548 60.8895 37.4376C60.8895 35.3801 61.4628 33.265 62.5413 31.5038C63.582 29.8322 65.8348 25.999 67.8909 22.4475C69.9327 18.9207 71.8374 15.5747 72.1424 14.9309C72.7095 13.7337 73.055 12.9244 73.055 11.7342V11.6757L73.0485 11.6177C72.7711 9.12036 71.5956 6.84321 69.8139 5.12366C68.0836 3.33113 65.8032 2.22812 63.3856 1.95182L63.293 1.94124L63.2 1.94705C62.0936 2.01621 61.0044 2.29171 60.031 2.87421C59.607 3.0685 58.6146 3.61282 57.3854 4.30389C56.0331 5.06423 54.3095 6.05113 52.5216 7.0856C48.9508 9.15169 45.1002 11.4211 43.4306 12.4606L43.4167 12.4693L43.403 12.4784C43.1865 12.6227 42.9615 12.7309 42.6842 12.8643C42.5755 12.9166 42.4586 12.9727 42.3311 13.0365L40.8264 13.7887L42.1588 14.8157ZM41.1835 37.6274L37.6633 41.1476C37.6222 41.1767 37.5558 41.202 37.4766 41.202C37.4024 41.202 37.3715 41.1812 37.3692 41.1801C37.3692 41.1801 37.3692 41.1801 37.3692 41.1801L33.8165 37.6274C33.7585 37.5694 33.7512 37.5233 33.7512 37.5C33.7512 37.4767 33.7585 37.4306 33.8165 37.3726L37.3726 33.8165C37.4306 33.7585 37.4767 33.7512 37.5 33.7512C37.5233 33.7512 37.5694 33.7585 37.6274 33.8165L41.1835 37.3726C41.2415 37.4306 41.2488 37.4767 41.2488 37.5C41.2488 37.5233 41.2415 37.5694 41.1835 37.6274Z"/><path stroke="url(#paint0_linear_39_781)" stroke-width="2.11" d="M42.1588 14.8157C44.3256 16.4859 45.8886 18.7895 46.6313 21.3646L31.9967 12.7043L31.5084 12.3992L31.466 12.3727L31.4213 12.3503C31.227 12.2531 30.9557 12.0926 30.5988 11.8546L30.5741 11.8381L30.5485 11.823L29.4878 11.1992L29.4868 11.1986C27.1457 9.82512 23.7744 7.8585 20.8626 6.18012C19.4071 5.34112 18.064 4.57279 17.0211 3.9862C16.0646 3.44825 15.3017 3.02918 14.9581 2.86981C13.9438 2.29976 12.8659 2.01811 11.8044 1.94734L11.7108 1.9411L11.6177 1.95145C9.13893 2.22687 6.85637 3.32867 5.12367 5.12367C3.32867 6.85637 2.22687 9.13893 1.95145 11.6177L1.9411 11.7108L1.94734 11.8044C2.01718 12.852 2.2941 13.9373 2.87422 14.9066C3.06844 15.3304 3.61275 16.323 4.30357 17.5535C5.06373 18.9075 6.05047 20.6348 7.0846 22.4299C9.15209 26.0187 11.4173 29.8932 12.4516 31.6169L12.4515 31.6169L12.4567 31.6254C13.538 33.3895 14.1105 35.4439 14.1105 37.5624C14.1105 39.6796 13.5386 41.7329 12.4586 43.4963C11.4172 45.1691 9.16396 49.0189 7.10813 52.5855C5.11761 56.0387 3.25895 59.3178 2.88391 60.0773C2.29718 61.0507 2.01757 62.1422 1.94734 63.1956L1.9411 63.2892L1.95145 63.3823C2.22853 65.8761 3.40093 68.1502 5.17837 69.8689C6.85684 71.6756 9.14601 72.7739 11.6177 73.0485L11.6757 73.055H11.7342C12.9915 73.055 13.7435 72.7049 14.9308 72.1424C15.5734 71.838 18.9335 69.9344 22.4769 67.8919C26.0458 65.8347 29.8983 63.5798 31.5694 62.5394L31.5833 62.5307L31.597 62.5216C31.8135 62.3773 32.0385 62.2691 32.3158 62.1357C32.4246 62.0834 32.5414 62.0273 32.6689 61.9635L34.1959 61.2001L32.8301 60.1758C32.3675 59.829 31.9691 59.487 31.5705 59.0885L31.5653 59.0833L31.56 59.0781C30.0433 57.6035 28.951 55.7126 28.3424 53.6565L42.6401 62.115L42.7099 62.1563L42.7853 62.1865C42.8656 62.2186 42.9509 62.264 43.0712 62.3347C43.0898 62.3457 43.1114 62.3586 43.1354 62.3729C43.2251 62.4265 43.3475 62.4997 43.4681 62.5627C46.8579 64.6668 59.0281 71.3726 60.1738 71.9454C61.3249 72.521 62.1341 72.8679 63.3282 72.8679H63.3734L63.4183 72.864C65.8733 72.6536 68.1541 71.4703 69.869 69.6968C71.6756 68.0183 72.7739 65.7291 73.0485 63.2575L73.055 63.1994V63.141C73.055 61.9413 72.7 61.184 72.1424 60.0068C71.8379 59.364 69.9343 56.004 67.8919 52.4607C65.836 48.8941 63.5827 45.0442 62.5413 43.3714C61.4614 41.6081 60.8895 39.5548 60.8895 37.4376C60.8895 35.3801 61.4628 33.265 62.5413 31.5038C63.582 29.8322 65.8348 25.999 67.8909 22.4475C69.9327 18.9207 71.8374 15.5747 72.1424 14.9309C72.7095 13.7337 73.055 12.9244 73.055 11.7342V11.6757L73.0485 11.6177C72.7711 9.12036 71.5956 6.84321 69.8139 5.12366C68.0836 3.33113 65.8032 2.22812 63.3856 1.95182L63.293 1.94124L63.2 1.94705C62.0936 2.01621 61.0044 2.29171 60.031 2.87421C59.607 3.0685 58.6146 3.61282 57.3854 4.30389C56.0331 5.06423 54.3095 6.05113 52.5216 7.0856C48.9508 9.15169 45.1002 11.4211 43.4306 12.4606L43.4167 12.4693L43.403 12.4784C43.1865 12.6227 42.9615 12.7309 42.6842 12.8643C42.5755 12.9166 42.4586 12.9727 42.3311 13.0365L40.8264 13.7887L42.1588 14.8157ZM41.1835 37.6274L37.6633 41.1476C37.6222 41.1767 37.5558 41.202 37.4766 41.202C37.4024 41.202 37.3715 41.1812 37.3692 41.1801C37.3692 41.1801 37.3692 41.1801 37.3692 41.1801L33.8165 37.6274C33.7585 37.5694 33.7512 37.5233 33.7512 37.5C33.7512 37.4767 33.7585 37.4306 33.8165 37.3726L37.3726 33.8165C37.4306 33.7585 37.4767 33.7512 37.5 33.7512C37.5233 33.7512 37.5694 33.7585 37.6274 33.8165L41.1835 37.3726C41.2415 37.4306 41.2488 37.4767 41.2488 37.5C41.2488 37.5233 41.2415 37.5694 41.1835 37.6274Z"/><defs><linearGradient id="paint0_linear_39_781" x1="56.077" x2="47.539" y1="3" y2="87.585" gradientUnits="userSpaceOnUse"><stop stop-color="#5C29F1"/><stop offset=".474" stop-color="#E37AC2"/><stop offset=".807" stop-color="#FF9067"/></linearGradient></defs></svg>