<svg xmlns="http://www.w3.org/2000/svg" width="67" height="67" fill="none" viewBox="0 0 67 67"><path fill="#111" fill-rule="evenodd" d="M1.50397 0.448791C0.921314 0.448791 0.448975 0.921135 0.448975 1.50379L0.448975 65.3525C0.448975 65.9351 0.921314 66.4075 1.50397 66.4075L65.3527 66.4075C65.9353 66.4075 66.4077 65.9351 66.4077 65.3525L66.4077 1.50379C66.4077 0.921132 65.9353 0.448789 65.3527 0.448789L1.50397 0.448791ZM2.55897 20.7885L2.55897 2.55879L64.2977 2.55879L64.2977 20.7885L2.55897 20.7885ZM2.55897 22.8985L2.55897 42.89L22.0001 42.89L22.0001 22.8985L2.55897 22.8985ZM2.55897 45L2.55897 64.2975L22.0001 64.2975L22.0001 45L2.55897 45ZM24.0001 64.2975L64.2977 64.2975L64.2977 45L24.0001 45L24.0001 64.2975ZM64.2977 42.89L64.2977 22.8985L24.0001 22.8985L24.0001 42.89L64.2977 42.89ZM16.5877 9.63326C16.5877 11.0985 15.3999 12.2863 13.9347 12.2863C12.4695 12.2863 11.2817 11.0985 11.2817 9.63326C11.2817 8.16803 12.4695 6.98023 13.9347 6.98023C15.3999 6.98023 16.5877 8.16803 16.5877 9.63326Z" clip-rule="evenodd"/><path fill="url(#paint0_linear_39_761)" fill-rule="evenodd" d="M1.50397 0.448791C0.921314 0.448791 0.448975 0.921135 0.448975 1.50379L0.448975 65.3525C0.448975 65.9351 0.921314 66.4075 1.50397 66.4075L65.3527 66.4075C65.9353 66.4075 66.4077 65.9351 66.4077 65.3525L66.4077 1.50379C66.4077 0.921132 65.9353 0.448789 65.3527 0.448789L1.50397 0.448791ZM2.55897 20.7885L2.55897 2.55879L64.2977 2.55879L64.2977 20.7885L2.55897 20.7885ZM2.55897 22.8985L2.55897 42.89L22.0001 42.89L22.0001 22.8985L2.55897 22.8985ZM2.55897 45L2.55897 64.2975L22.0001 64.2975L22.0001 45L2.55897 45ZM24.0001 64.2975L64.2977 64.2975L64.2977 45L24.0001 45L24.0001 64.2975ZM64.2977 42.89L64.2977 22.8985L24.0001 22.8985L24.0001 42.89L64.2977 42.89ZM16.5877 9.63326C16.5877 11.0985 15.3999 12.2863 13.9347 12.2863C12.4695 12.2863 11.2817 11.0985 11.2817 9.63326C11.2817 8.16803 12.4695 6.98023 13.9347 6.98023C15.3999 6.98023 16.5877 8.16803 16.5877 9.63326Z" clip-rule="evenodd"/><defs><linearGradient id="paint0_linear_39_761" x1="128.366" x2="115.777" y1="24.207" y2="90.223" gradientUnits="userSpaceOnUse"><stop stop-color="#5C29F1"/><stop offset=".474" stop-color="#E37AC2"/><stop offset=".807" stop-color="#FF9067"/></linearGradient></defs></svg>