<svg xmlns="http://www.w3.org/2000/svg" width="42" height="70" fill="none" viewBox="0 0 42 70"><path fill="#111" fill-rule="evenodd" d="M4.42114 8.17922C4.42114 4.82728 7.13842 2.11 10.4904 2.11C13.8423 2.11 16.5596 4.82728 16.5596 8.17922C16.5596 11.5312 13.8423 14.2484 10.4904 14.2484C7.13842 14.2484 4.42114 11.5312 4.42114 8.17922ZM10.4904 0C5.9731 0 2.31114 3.66196 2.31114 8.17922C2.31114 12.4162 5.53276 15.9007 9.66005 16.3168L9.66005 24.0626C4.2545 24.486 0 29.0066 0 34.5209C0 40.0352 4.25451 44.5558 9.66007 44.9792V52.7253C5.53278 53.1414 2.31114 56.6259 2.31114 60.8629C2.31114 65.3801 5.9731 69.0421 10.4904 69.0421C15.0076 69.0421 18.6696 65.3801 18.6696 60.8629C18.6696 56.781 15.6795 53.3974 11.7701 52.7832L11.7701 44.9344C14.7017 44.5779 17.2603 43.0122 18.9319 40.7511L26.0196 44.8688L26.0294 44.852C25.704 45.7341 25.5262 46.6878 25.5262 47.683C25.5262 52.2002 29.1882 55.8622 33.7055 55.8622C38.2227 55.8622 41.8847 52.2002 41.8847 47.683C41.8847 43.1657 38.2227 39.5037 33.7055 39.5037C30.9308 39.5037 28.4788 40.8853 27 42.9981L20.0095 38.9369C20.6333 37.5946 20.9815 36.0984 20.9815 34.5209C20.9815 33.0532 20.6801 31.6559 20.1358 30.3875L27.0796 26.3534L26.0196 24.5289L19.1121 28.542C17.4472 26.1459 14.8091 24.4769 11.77 24.1074V16.2589C15.6794 15.6447 18.6696 12.2611 18.6696 8.17922C18.6696 3.66196 15.0076 0 10.4904 0ZM2.11 34.5209C2.11 29.8923 5.86218 26.1402 10.4907 26.1402C15.1193 26.1402 18.8715 29.8923 18.8715 34.5209C18.8715 39.1494 15.1193 42.9016 10.4907 42.9016C5.86218 42.9016 2.11 39.1494 2.11 34.5209ZM10.4904 54.7936C7.13842 54.7936 4.42114 57.5109 4.42114 60.8629C4.42114 64.2148 7.13842 66.9321 10.4904 66.9321C13.8423 66.9321 16.5596 64.2148 16.5596 60.8629C16.5596 57.5109 13.8423 54.7936 10.4904 54.7936ZM27.6362 47.683C27.6362 44.331 30.3535 41.6137 33.7055 41.6137C37.0574 41.6137 39.7747 44.331 39.7747 47.683C39.7747 51.0349 37.0574 53.7522 33.7055 53.7522C30.3535 53.7522 27.6362 51.0349 27.6362 47.683ZM33.7055 15.2539C30.3535 15.2539 27.6362 17.9712 27.6362 21.3232C27.6362 24.6751 30.3535 27.3924 33.7055 27.3924C37.0574 27.3924 39.7747 24.6751 39.7747 21.3232C39.7747 17.9712 37.0574 15.2539 33.7055 15.2539ZM25.5262 21.3232C25.5262 16.8059 29.1882 13.1439 33.7055 13.1439C38.2227 13.1439 41.8847 16.8059 41.8847 21.3232C41.8847 25.8404 38.2227 29.5024 33.7055 29.5024C29.1882 29.5024 25.5262 25.8404 25.5262 21.3232Z" clip-rule="evenodd"/><path fill="url(#paint0_linear_39_772)" fill-rule="evenodd" d="M4.42114 8.17922C4.42114 4.82728 7.13842 2.11 10.4904 2.11C13.8423 2.11 16.5596 4.82728 16.5596 8.17922C16.5596 11.5312 13.8423 14.2484 10.4904 14.2484C7.13842 14.2484 4.42114 11.5312 4.42114 8.17922ZM10.4904 0C5.9731 0 2.31114 3.66196 2.31114 8.17922C2.31114 12.4162 5.53276 15.9007 9.66005 16.3168L9.66005 24.0626C4.2545 24.486 0 29.0066 0 34.5209C0 40.0352 4.25451 44.5558 9.66007 44.9792V52.7253C5.53278 53.1414 2.31114 56.6259 2.31114 60.8629C2.31114 65.3801 5.9731 69.0421 10.4904 69.0421C15.0076 69.0421 18.6696 65.3801 18.6696 60.8629C18.6696 56.781 15.6795 53.3974 11.7701 52.7832L11.7701 44.9344C14.7017 44.5779 17.2603 43.0122 18.9319 40.7511L26.0196 44.8688L26.0294 44.852C25.704 45.7341 25.5262 46.6878 25.5262 47.683C25.5262 52.2002 29.1882 55.8622 33.7055 55.8622C38.2227 55.8622 41.8847 52.2002 41.8847 47.683C41.8847 43.1657 38.2227 39.5037 33.7055 39.5037C30.9308 39.5037 28.4788 40.8853 27 42.9981L20.0095 38.9369C20.6333 37.5946 20.9815 36.0984 20.9815 34.5209C20.9815 33.0532 20.6801 31.6559 20.1358 30.3875L27.0796 26.3534L26.0196 24.5289L19.1121 28.542C17.4472 26.1459 14.8091 24.4769 11.77 24.1074V16.2589C15.6794 15.6447 18.6696 12.2611 18.6696 8.17922C18.6696 3.66196 15.0076 0 10.4904 0ZM2.11 34.5209C2.11 29.8923 5.86218 26.1402 10.4907 26.1402C15.1193 26.1402 18.8715 29.8923 18.8715 34.5209C18.8715 39.1494 15.1193 42.9016 10.4907 42.9016C5.86218 42.9016 2.11 39.1494 2.11 34.5209ZM10.4904 54.7936C7.13842 54.7936 4.42114 57.5109 4.42114 60.8629C4.42114 64.2148 7.13842 66.9321 10.4904 66.9321C13.8423 66.9321 16.5596 64.2148 16.5596 60.8629C16.5596 57.5109 13.8423 54.7936 10.4904 54.7936ZM27.6362 47.683C27.6362 44.331 30.3535 41.6137 33.7055 41.6137C37.0574 41.6137 39.7747 44.331 39.7747 47.683C39.7747 51.0349 37.0574 53.7522 33.7055 53.7522C30.3535 53.7522 27.6362 51.0349 27.6362 47.683ZM33.7055 15.2539C30.3535 15.2539 27.6362 17.9712 27.6362 21.3232C27.6362 24.6751 30.3535 27.3924 33.7055 27.3924C37.0574 27.3924 39.7747 24.6751 39.7747 21.3232C39.7747 17.9712 37.0574 15.2539 33.7055 15.2539ZM25.5262 21.3232C25.5262 16.8059 29.1882 13.1439 33.7055 13.1439C38.2227 13.1439 41.8847 16.8059 41.8847 21.3232C41.8847 25.8404 38.2227 29.5024 33.7055 29.5024C29.1882 29.5024 25.5262 25.8404 25.5262 21.3232Z" clip-rule="evenodd"/><defs><linearGradient id="paint0_linear_39_772" x1="26.798" x2="-16.074" y1="133.897" y2="128.937" gradientUnits="userSpaceOnUse"><stop stop-color="#5C29F1"/><stop offset=".474" stop-color="#E37AC2"/><stop offset=".807" stop-color="#FF9067"/></linearGradient></defs></svg>