<svg xmlns="http://www.w3.org/2000/svg" width="67" height="56" fill="none" viewBox="0 0 67 56"><g clip-path="url(#Frame_clip0-8-2)"><path fill="#13D461" d="M67.2833 -0.387684V7.72527L67.271 55.7572H54.0947V4.33623L58.2243 0.177335C58.3987 -0.00909376 58.6117 -0.15606 58.8488 -0.253577C59.0858 -0.351093 59.3413 -0.396882 59.5979 -0.387684H67.2833Z" opacity=".7"/><path fill="#13D461" fill-rule="evenodd" d="M47.1312 37.4837C46.2015 36.3048 45.2743 35.129 44.3642 34.229C42.6808 32.5699 41.0092 30.899 39.339 29.2294C38.5054 28.3963 37.6722 27.5633 36.838 26.7325V20.9538L36.8407 20.9418C36.8332 20.688 36.8812 20.4357 36.9814 20.202C37.048 20.0466 37.1367 19.9018 37.2444 19.7719L50.0179 7.66939V8.31561V39.2472C50.0171 39.2907 50.0187 39.4414 50.0207 39.6344C50.0255 40.0827 50.0326 40.7602 50.0179 40.8603C49.064 39.9349 48.0963 38.7076 47.1312 37.4837Z" clip-rule="evenodd" opacity=".7"/><path fill="#472F85" d="M-0.3297 14.6058V32.8356L22.927 55.7572H41.4217L-0.3297 14.6058Z"/><path fill="#472F85" d="M-0.3297 55.7572H16.765L-0.3297 38.9121V55.7572Z"/><path fill="#472F85" d="M47.6566 55.7572H65.9699L10.7375 0.177813C10.5631 -0.00841816 10.3501 -0.155285 10.1131 -0.252703C9.8761 -0.35012 9.6207 -0.395812 9.3642 -0.386614H-0.311199V7.71794L47.6566 55.7572Z"/></g><defs><clipPath id="Frame_clip0-8-2"><rect width="67" height="56" fill="#fff"/></clipPath></defs></svg>