<svg width="89" height="67" viewBox="0 0 89 67" fill="none" xmlns="http://www.w3.org/2000/svg">
<path fill-rule="evenodd" clip-rule="evenodd" d="M1.055 32.6379C0.472338 32.6379 -1.46154e-06 33.1102 -1.43607e-06 33.6929C-1.4106e-06 34.2755 0.472338 34.7479 1.055 34.7479L48.6938 34.7479L48.6938 53.3375C48.6938 53.9202 49.1661 54.3925 49.7488 54.3925L82.5586 54.3925C83.1413 54.3925 83.6136 53.9202 83.6136 53.3375C83.6136 52.7549 83.1413 52.2825 82.5586 52.2825L50.8038 52.2825L50.8038 15.1031L83.3956 15.1031C83.9782 15.1031 84.4506 14.6308 84.4506 14.0481C84.4506 13.4655 83.9783 12.9931 83.3956 12.9931L49.7488 12.9931C49.1661 12.9931 48.6938 13.4655 48.6938 14.0481L48.6938 32.6379L1.055 32.6379ZM88.017 53.0652C88.4236 53.4824 88.4151 54.1501 87.9981 54.5568L76.0111 66.2467C75.594 66.6535 74.9261 66.6451 74.5193 66.228C74.1125 65.8108 74.1208 65.1429 74.538 64.7361L85.7698 53.7826L73.9706 41.6765C73.5639 41.2593 73.5725 40.5913 73.9898 40.1846C74.407 39.778 75.075 39.7865 75.4816 40.2038L88.017 53.0652ZM87.9981 14.9301C88.4151 14.5234 88.4236 13.8556 88.017 13.4384L75.4816 0.577046C75.075 0.159787 74.407 0.151211 73.9898 0.557889C73.5725 0.964574 73.5639 1.6325 73.9706 2.04976L85.7698 14.1559L74.538 25.1093C74.1208 25.5161 74.1125 26.1841 74.5193 26.6012C74.9261 27.0183 75.594 27.0267 76.0111 26.6199L87.9981 14.9301Z" fill="#111111"/>
<path fill-rule="evenodd" clip-rule="evenodd" d="M1.055 32.6379C0.472338 32.6379 -1.46154e-06 33.1102 -1.43607e-06 33.6929C-1.4106e-06 34.2755 0.472338 34.7479 1.055 34.7479L48.6938 34.7479L48.6938 53.3375C48.6938 53.9202 49.1661 54.3925 49.7488 54.3925L82.5586 54.3925C83.1413 54.3925 83.6136 53.9202 83.6136 53.3375C83.6136 52.7549 83.1413 52.2825 82.5586 52.2825L50.8038 52.2825L50.8038 15.1031L83.3956 15.1031C83.9782 15.1031 84.4506 14.6308 84.4506 14.0481C84.4506 13.4655 83.9783 12.9931 83.3956 12.9931L49.7488 12.9931C49.1661 12.9931 48.6938 13.4655 48.6938 14.0481L48.6938 32.6379L1.055 32.6379ZM88.017 53.0652C88.4236 53.4824 88.4151 54.1501 87.9981 54.5568L76.0111 66.2467C75.594 66.6535 74.9261 66.6451 74.5193 66.228C74.1125 65.8108 74.1208 65.1429 74.538 64.7361L85.7698 53.7826L73.9706 41.6765C73.5639 41.2593 73.5725 40.5913 73.9898 40.1846C74.407 39.778 75.075 39.7865 75.4816 40.2038L88.017 53.0652ZM87.9981 14.9301C88.4151 14.5234 88.4236 13.8556 88.017 13.4384L75.4816 0.577046C75.075 0.159787 74.407 0.151211 73.9898 0.557889C73.5725 0.964574 73.5639 1.6325 73.9706 2.04976L85.7698 14.1559L74.538 25.1093C74.1208 25.5161 74.1125 26.1841 74.5193 26.6012C74.9261 27.0183 75.594 27.0267 76.0111 26.6199L87.9981 14.9301Z" fill="url(#paint0_linear_39_767)"/>
<defs>
<linearGradient id="paint0_linear_39_767" x1="171.276" y1="24.1352" x2="161.633" y2="91.5127" gradientUnits="userSpaceOnUse">
<stop stop-color="#5C29F1"/>
<stop offset="0.473958" stop-color="#E37AC2"/>
<stop offset="0.807292" stop-color="#FF9067"/>
</linearGradient>
</defs>
</svg>
