<svg xmlns="http://www.w3.org/2000/svg" width="71" height="72" fill="none" viewBox="0 0 71 72"><g clip-path="url(#clip0_39_793)"><path fill="#00FF94" d="M30.9499 23.1416L31.1861 22.6572L31.0089 22.1257L30.5837 21.7831C30.2529 21.5705 29.8158 21.4523 29.3197 21.3814L28.7999 21.346C28.4692 21.346 28.1384 21.3814 27.8076 21.4996C27.5359 21.6059 27.2406 21.7949 27.1934 22.1257L27.3233 22.6927L27.7013 23.2125C28.0439 23.6023 28.5282 23.8385 29.0362 23.9212C29.5441 23.9803 30.0521 23.8622 30.4774 23.5668L30.9381 23.1534L30.9499 23.1416Z"/><path fill="#00FF94" d="M42.184 1.5121C40.4356 1.06321 38.6283 0.838762 36.8209 0.815136C33.0053 0.756071 29.9457 1.73655 27.5713 3.3313C26.3428 2.85878 20.2591 0.649754 13.8447 1.00414C10.2772 1.21678 6.60333 2.26813 3.9336 5.0678C1.27568 7.8911 -0.283631 12.3328 0.0471318 18.9126C0.11801 20.4601 0.661406 23.6732 1.55919 27.666C2.46879 31.647 3.73278 36.3249 5.28027 40.5776C6.83958 44.7712 8.63516 48.5041 10.8796 50.6658C12.0018 51.7526 13.3367 52.4732 14.7897 52.4141C16.2545 52.3433 17.6484 51.4927 18.9006 50.0161C21.8775 46.4604 24.3582 43.8734 24.8189 43.389C26.1183 44.0978 27.5713 44.4877 29.0598 44.5349V44.653C28.2565 45.6335 27.784 46.295 27.3705 46.6258C26.8862 47.0156 26.0711 47.3228 23.7794 47.7953C22.5154 48.067 21.6767 48.3387 21.0506 48.8466C20.708 49.1301 20.4481 49.4845 20.3654 49.898C20.2945 50.2996 20.3536 50.7249 20.5426 51.1029C20.8852 51.7408 21.3932 52.0716 21.9484 52.3433C22.4681 52.6268 23.047 52.8276 23.614 52.9812C24.7835 53.2647 26.7444 53.6309 28.9535 53.2647C30.8081 52.9339 32.5328 52.107 33.9149 50.843C33.8795 53.5128 33.9149 56.1707 34.0212 58.8286C34.0921 60.5769 34.1984 62.1126 34.352 63.3648C34.5055 64.6169 34.6473 65.5738 34.9544 66.3062C35.3797 67.3575 36.0885 69.0822 37.6478 70.3817C39.2071 71.6929 41.6169 72.4489 44.9482 71.7283C47.6297 71.1613 49.6261 70.2872 51.0319 68.8342C52.4376 67.3812 53.17 65.432 53.5953 62.9986C54.1387 59.9744 54.9302 53.3592 55.2845 50.0043H55.3318C56.2414 50.2996 57.3282 50.3941 58.4977 50.3705C60.8012 50.3351 63.4237 49.898 65.2547 49.0711C67.322 48.126 68.9285 46.9684 69.7318 45.7635C69.9681 45.4563 70.1098 45.0783 70.1571 44.7003C70.1925 44.1805 69.9799 43.6726 69.5782 43.3536C68.7749 42.7511 67.9953 42.8929 66.9203 43.1173C62.6913 43.9679 60.6004 43.6489 59.6672 43.2709L59.171 42.9992C63.5891 36.3131 66.7549 28.8709 68.4206 22.4683C69.2947 19.1725 69.7554 16.1602 69.8027 13.644C69.8499 11.1279 69.5192 9.0724 68.4087 7.67847C63.4591 1.44122 56.6194 -0.0472104 51.2563 4.14033e-05C49.0237 0.0354803 46.8028 0.283552 44.6056 0.803323C43.8142 0.980517 43.0345 1.21678 42.2548 1.47666L42.1958 1.52391L42.184 1.5121ZM17.2468 48.6104C16.2309 49.8271 15.3922 50.2169 14.6952 50.2524C14.0101 50.2642 13.2422 49.9216 12.3681 49.0947C10.6315 47.4055 8.80054 43.8616 7.28848 39.7979C5.77642 35.7224 4.51243 31.1036 3.62646 27.1935C2.74049 23.2834 2.23253 19.9876 2.17347 18.7945C1.87814 12.5808 3.2957 8.82432 5.48109 6.5208C7.66649 4.21727 10.726 3.29586 13.951 3.11866C14.3526 3.08322 14.7543 3.07141 15.1677 3.07141C15.5812 3.07141 15.9946 3.08322 16.3845 3.11866C20.1646 3.30767 23.6376 4.27633 25.5986 4.91423C23.6022 6.86337 22.2673 9.24959 21.3695 11.6004C20.1292 15.0261 19.4676 18.6291 19.4676 22.2793H19.4795V22.3738C19.4795 23.0826 19.5976 24.193 19.633 25.8704C19.6803 27.6069 19.633 29.8041 19.3023 32.1313C18.7352 35.8642 20.141 39.6207 23.0233 42.1132C21.027 44.216 19.1014 46.3659 17.235 48.5986L17.2468 48.6104ZM21.4522 32.4266C21.7948 29.9341 21.842 27.6542 21.7948 25.835C21.7594 24.193 21.6767 23.0708 21.6412 22.5982L21.7121 22.5392C22.0547 22.2675 22.4327 22.0312 22.8225 21.8304C23.992 21.1925 25.2206 20.72 26.5082 20.401C27.1697 20.2475 27.8312 20.1648 28.4809 20.1648C29.048 20.153 29.6032 20.2356 30.1466 20.4365C31.1034 20.7909 31.8122 21.4642 32.1548 23.0589C34.3165 32.9228 31.7649 35.4507 30.4655 38.9001C30.0166 40.0814 29.5677 41.2155 29.296 42.3259C24.6299 42.3141 20.6608 37.837 21.4404 32.4148L21.4522 32.4266ZM33.7377 47.8543C32.1666 50.0161 30.3474 50.8548 28.5991 51.1502C26.8507 51.4455 25.1615 51.1502 24.1456 50.9021C23.7676 50.7958 23.3305 50.6304 22.9761 50.4414L22.7516 50.276C23.0352 50.1461 23.4722 49.9689 24.2165 49.8153C26.6027 49.331 27.784 48.9411 28.7172 48.2087C29.6268 47.5 30.0166 46.7085 31.127 45.4799C31.6114 44.9602 31.8476 44.9011 32.0248 44.8893H32.0839C32.3083 44.9247 32.5328 44.9838 32.7572 45.1019C33.088 45.2319 33.5841 45.7516 33.8086 46.3305C34.033 46.9211 33.9976 47.4881 33.7377 47.8543V47.8543ZM67.3456 45.1846C66.4478 45.9761 65.4083 46.6376 64.3333 47.1338C62.9866 47.7598 60.4822 48.2205 58.4386 48.2442C57.4227 48.256 56.4895 48.1497 55.9461 47.9961L55.4617 47.7717C55.4145 46.673 55.5799 46.0233 55.7925 45.6689C55.9579 45.3618 56.2296 45.1019 56.5603 44.9838C56.8911 44.8302 57.2809 44.7712 57.7416 44.594C58.0724 44.842 58.4268 45.0547 58.8166 45.2319C60.3641 45.858 62.8803 46.0942 67.3338 45.1846H67.3456ZM57.0683 33.289C57.1628 35.0963 57.0092 36.821 56.1705 38.5694C55.9815 38.215 55.7807 37.837 55.6035 37.4235C55.4145 36.9628 55.0955 36.4312 54.6585 35.6634C54.2332 34.9073 53.7134 33.9859 53.17 32.9464C52.0714 30.8673 50.9019 28.3866 50.3467 26.1658C49.7797 23.9449 49.8624 22.1257 50.772 21.1098C51.4217 20.401 52.6266 19.8458 54.8002 19.7986C55.5917 19.7986 56.3831 19.8576 57.1628 19.9639C57.1274 22.043 56.5958 23.7913 56.5013 26.4965C56.4304 28.8 56.9384 31.0681 57.0565 33.289H57.0683ZM51.2799 2.10275H51.7407C56.5958 2.13819 62.3959 3.53212 66.6959 8.95427C67.2511 9.65123 67.6882 11.3169 67.6409 13.5849C67.5936 15.8648 67.1566 18.7472 66.3415 21.9249C64.8176 27.8196 61.9234 34.7301 57.907 40.991L57.5526 40.5303C59.0765 38.0378 59.36 35.498 59.2419 33.1826C59.1119 30.7256 58.6158 28.4693 58.6749 26.5556C58.7694 23.8977 59.4663 22.0312 59.36 19.2552V19.2079L59.4191 18.7472C59.4073 18.511 59.36 18.2747 59.2891 18.003C59.171 17.4596 58.9348 16.7626 58.5685 15.9121C57.6353 13.7267 56.4304 11.6949 54.9538 9.84024C52.8393 7.13507 49.827 4.46534 45.846 2.71702C47.6297 2.32719 49.4608 2.11456 51.2918 2.09094L51.2799 2.10275ZM53.2173 11.1397C54.564 12.8407 55.7098 14.7308 56.5603 16.7272C56.7612 17.1525 56.7966 17.436 56.9147 17.7785C53.1346 17.3887 50.6066 18.0739 49.1654 19.7041C47.5471 21.5233 47.6416 24.1339 48.2676 26.6619C48.8937 29.1781 50.1223 31.7769 51.2445 33.9032C51.8115 34.99 52.3549 35.9351 52.7684 36.6911C53.0637 37.1991 53.3354 37.7188 53.5953 38.2386C54.1387 39.479 54.8711 40.6603 55.7334 41.7116C56.0051 42.0424 56.2532 42.3968 56.5131 42.7393C56.2768 42.8102 55.9933 42.9047 55.6862 43.0347C55.0719 43.3182 54.3631 43.8261 53.9142 44.6412C53.4653 45.4563 53.2645 46.4959 53.3354 47.878C53.2055 49.6854 52.036 59.3247 51.4453 62.656C51.0673 64.865 50.4767 66.3062 49.4489 67.3575C48.4448 68.3971 46.9328 69.1059 44.4757 69.6374C41.6406 70.2281 40.1049 69.6374 39.0181 68.7278C37.9195 67.8182 37.3288 66.507 36.9154 65.4911C36.7973 65.184 36.5964 64.2744 36.4665 63.1049C36.3366 61.9236 36.2066 60.4233 36.1357 58.7105C35.9822 54.7767 35.9822 50.8312 36.1003 46.8857L36.0412 46.484C35.9822 46.1533 35.9231 45.858 35.8168 45.5744C35.3915 44.4877 34.6473 43.5544 33.5487 43.0937C33.2061 42.9402 32.6037 42.6921 31.824 42.7511L31.3987 42.822C31.6822 41.7352 32.0484 40.6721 32.4619 39.6207C33.5369 36.7265 36.4901 32.8991 34.2457 22.5864C33.7613 20.4483 32.4737 19.0307 30.9026 18.4283C29.3433 17.8258 27.6068 17.9439 26.0002 18.3101C24.3936 18.6645 22.8934 19.3142 21.7594 19.9403L21.7121 19.9758C21.8657 18.0621 22.2555 15.2388 23.3659 12.3328C24.2755 9.87568 25.7049 7.47765 27.8312 5.72933C29.8867 4.04007 32.5918 2.90603 36.372 2.89422H36.75C44.7828 3.02416 49.9805 7.05238 53.17 11.116L53.2173 11.1397Z"/><path fill="#00FF94" d="M54.5522 20.8853L53.9852 20.8145H53.8198L53.2764 20.8499C52.7921 20.909 52.3904 21.0271 52.0833 21.2043L51.7053 21.4878L51.5872 21.8894L51.7762 22.3029L52.2014 22.6691C52.5913 22.9408 53.052 23.0589 53.5245 22.9998C54.0088 22.929 54.4341 22.6927 54.7648 22.3265L55.1074 21.8658L55.2256 21.4405V21.4051L54.9893 21.0625L54.5522 20.8853V20.8853Z"/><path fill="#088D00" d="M51.2563 4.14443e-05C56.6194 -0.0472104 63.4709 1.44122 68.3851 7.66665C69.4955 9.06058 69.8263 11.1042 69.779 13.6322C69.7318 16.1484 69.2711 19.1607 68.3969 22.4565C66.7313 28.8709 63.5772 36.3013 59.1474 42.9874L59.6435 43.2591C60.5767 43.6489 62.6676 43.9561 66.8967 43.1055C67.9598 42.8811 68.7395 42.7393 69.5546 43.3418C69.9562 43.6726 70.1689 44.1687 70.1334 44.6885C70.0862 45.0783 69.9562 45.4445 69.7082 45.7516C68.8931 46.9566 67.2983 48.1142 65.231 49.0593C63.4 49.8862 60.7776 50.3351 58.474 50.3587C57.3046 50.3705 56.2296 50.2878 55.3082 50.0043H55.2609C54.9065 53.3474 54.1032 59.9626 53.5717 62.9867C53.1464 65.4202 52.414 67.3575 51.0082 68.8223C49.6025 70.2753 47.6061 71.1495 44.9246 71.7165C41.5933 72.4253 39.1835 71.6693 37.6242 70.3698C36.0648 69.0586 35.3443 67.3457 34.9308 66.2944C34.6355 65.562 34.4819 64.6169 34.3283 63.353C34.1748 62.089 34.0685 60.5651 33.9976 58.8168C33.8913 56.1589 33.8676 53.5009 33.8913 50.8312C32.5091 52.0952 30.7845 52.9221 28.9298 53.2529C26.7326 53.6191 24.7598 53.2529 23.5904 52.9694C23.0233 52.8158 22.4563 52.615 21.9247 52.3315C21.3695 52.0479 20.8616 51.729 20.519 51.0911C20.33 50.7249 20.2591 50.2878 20.3418 49.8862C20.4363 49.4727 20.6844 49.1183 21.0269 48.8348C21.653 48.3269 22.4918 48.0434 23.7557 47.7835C26.0475 47.3109 26.8744 46.992 27.3469 46.614C27.7721 46.2832 28.2329 45.6217 29.0598 44.6412V44.5231C27.5595 44.4758 26.1065 44.0978 24.8071 43.3772C24.3464 43.8616 21.8657 46.4486 18.8888 50.0043C17.6484 51.4927 16.2545 52.3315 14.7779 52.4023C13.3249 52.4614 11.99 51.729 10.8678 50.654C8.62333 48.4922 6.81595 44.7593 5.26845 40.5657C3.72096 36.3249 2.46878 31.6352 1.54737 27.6542C0.661397 23.6732 0.118001 20.4601 0.0471234 18.9126C-0.283639 12.3328 1.27567 7.8911 3.9454 5.07962C6.60332 2.26813 10.2771 1.21678 13.8447 1.00414C20.2591 0.649754 26.3428 2.85878 27.5713 3.3313C29.9339 1.72473 32.9935 0.744258 36.8209 0.815136C38.6283 0.850575 40.4356 1.06321 42.184 1.5121L42.243 1.46485C43.0227 1.21678 43.8023 0.980517 44.5938 0.79151C46.8028 0.283553 49.0119 0.0354803 51.2563 4.14443e-05ZM51.7525 2.10275H51.2918C49.4607 2.11456 47.6297 2.33901 45.846 2.72884C49.8269 4.47715 52.8393 7.14688 54.9538 9.85205C56.4186 11.7067 57.6353 13.7385 58.5685 15.9239C58.9229 16.7744 59.171 17.4714 59.2891 18.0148C59.36 18.2865 59.4073 18.5228 59.4191 18.759L59.3718 19.2197V19.267C59.4663 22.043 58.7575 23.9095 58.663 26.5674C58.604 28.4811 59.1001 30.7374 59.2301 33.1945C59.3482 35.5098 59.0647 38.0496 57.5408 40.5421L57.8952 41.0028C61.9116 34.742 64.8058 27.8314 66.3297 21.9367C67.1566 18.759 67.5936 15.8885 67.6291 13.5968C67.6763 11.3287 67.2393 9.66304 66.684 8.96608C62.3841 3.53212 56.584 2.13819 51.7288 2.11456L51.7525 2.10275ZM36.4192 2.91784C32.6391 2.92966 29.9339 4.0637 27.8785 5.75295C25.7521 7.50127 24.3228 9.88749 23.4132 12.3564C22.3027 15.2624 21.9129 18.0857 21.7593 19.9994L21.8066 19.9639C22.9406 19.3379 24.4409 18.6881 26.0475 18.3338C27.654 17.9676 29.3905 17.8494 30.9498 18.4519C32.521 19.0425 33.8086 20.4719 34.2929 22.61C36.5374 32.9228 33.5841 36.7502 32.5091 39.6443C32.0839 40.6957 31.7295 41.7707 31.446 42.8456L31.8712 42.7748C32.6509 42.7157 33.2534 42.9638 33.5959 43.1173C34.6945 43.5781 35.4388 44.5113 35.864 45.5981C35.9703 45.8816 36.0294 46.1769 36.0885 46.5077L36.1475 46.9093C36.0294 50.8548 36.0294 54.8004 36.183 58.7341C36.2539 60.4351 36.372 61.9354 36.5137 63.1285C36.6437 64.298 36.8445 65.2076 36.9626 65.5147C37.3643 66.5188 37.9667 67.8419 39.0653 68.7515C40.1403 69.6611 41.6878 70.2517 44.5229 69.6611C46.98 69.1295 48.4921 68.4207 49.4962 67.3812C50.5121 66.3298 51.1146 64.8886 51.4926 62.6796C52.0714 59.3602 53.2409 49.709 53.3826 47.9016C53.3236 46.5195 53.5126 45.4799 53.9615 44.6648C54.4104 43.8498 55.1192 43.3418 55.7334 43.0583C56.0288 42.9283 56.3123 42.8338 56.5603 42.763C56.3005 42.4204 56.0524 42.066 55.7807 41.7352C54.9065 40.6839 54.1741 39.5144 53.6425 38.2622C53.3826 37.7424 53.1228 37.2227 52.8156 36.7147C52.3904 35.9587 51.8588 35.0137 51.2918 33.9269C50.1695 31.8005 48.941 29.2135 48.3149 26.6855C47.6888 24.1694 47.5943 21.5587 49.2127 19.7277C50.6539 18.0975 53.1818 17.4123 56.962 17.8022C56.8438 17.4596 56.7966 17.1761 56.6076 16.7508C55.7571 14.7426 54.6112 12.8644 53.2645 11.1633C50.075 7.09963 44.8773 3.08322 36.8445 2.92966H36.4665L36.4192 2.91784ZM15.1795 3.09504C14.7779 3.09504 14.3644 3.10685 13.9628 3.14229C10.7379 3.31948 7.6783 4.24089 5.4929 6.54442C3.3075 8.84795 1.87813 12.5927 2.18527 18.8181C2.24433 19.9994 2.75229 23.2952 3.63826 27.2171C4.52424 31.139 5.77641 35.7461 7.30028 39.8215C8.81234 43.8852 10.6434 47.4291 12.3799 49.1183C13.254 49.9452 14.01 50.2878 14.707 50.276C15.3922 50.2288 16.2309 49.8507 17.2586 48.634C19.1132 46.4132 21.0506 44.2632 23.047 42.1487C20.1646 39.6562 18.7589 35.8996 19.3259 32.1667C19.6566 29.8396 19.7039 27.6424 19.6566 25.9059C19.6212 24.2284 19.5031 23.118 19.5031 22.4092V22.3502V22.3147C19.4913 18.6645 20.1528 15.0616 21.3931 11.6358C22.2909 9.27322 23.6258 6.887 25.6222 4.94967C23.6612 4.31177 20.1764 3.34311 16.4081 3.1541C16.0182 3.11866 15.6048 3.10685 15.1913 3.10685L15.1795 3.09504ZM54.812 19.8104C52.6384 19.8576 51.4217 20.401 50.7838 21.1216C49.886 22.1493 49.7915 23.9567 50.3585 26.1776C50.9137 28.3984 52.0832 30.8791 53.1818 32.9582C53.7252 33.9977 54.245 34.9192 54.6703 35.6752C55.1073 36.443 55.4145 36.9864 55.6153 37.4353C55.7925 37.8488 55.9933 38.2268 56.1823 38.5812C57.021 36.8329 57.1746 35.1082 57.0801 33.3008C56.962 31.0799 56.454 28.8119 56.5249 26.5083C56.6194 23.8032 57.151 22.0548 57.1864 19.9758C56.4068 19.8694 55.6153 19.8104 54.8238 19.8104H54.812ZM28.4927 20.1766C27.8312 20.1766 27.1697 20.2711 26.52 20.4128C25.2324 20.72 24.0038 21.2043 22.8343 21.8422C22.4445 22.0548 22.0665 22.2911 21.7239 22.551L21.653 22.61C21.6885 23.0826 21.7712 24.193 21.8066 25.8468C21.8538 27.6542 21.8066 29.9459 21.464 32.4384C20.6844 37.8488 24.6535 42.3377 29.3196 42.3495C29.5913 41.2391 30.0402 40.105 30.4891 38.9237C31.7886 35.4625 34.3402 32.9464 32.1784 23.0826C31.8358 21.476 31.127 20.8145 30.1702 20.4601C29.6268 20.2711 29.0716 20.1766 28.5045 20.1884L28.4927 20.1766ZM53.8079 20.8145H53.9733L54.5403 20.8854L54.9774 21.0626L55.2137 21.4051V21.4406L55.0955 21.8658L54.7529 22.3265C54.4222 22.6809 53.9851 22.9172 53.5126 22.9999C53.0519 23.0589 52.5794 22.9408 52.1895 22.6691L51.7643 22.3029L51.5753 21.8895L51.6934 21.4878L52.0714 21.2043C52.3904 21.0271 52.792 20.909 53.2645 20.8499L53.8079 20.8145V20.8145ZM28.7999 21.3461L29.3196 21.3815C29.8158 21.4524 30.2529 21.5705 30.5836 21.7831L31.0089 22.1257L31.1861 22.6573L30.9498 23.1416L30.4891 23.5551C30.0639 23.8504 29.5559 23.9685 29.0479 23.9095C28.54 23.815 28.0557 23.5787 27.7131 23.2007L27.3351 22.6809L27.2051 22.1139C27.2524 21.7831 27.5477 21.5941 27.8194 21.4878C28.1502 21.3697 28.4809 21.3342 28.8117 21.3342L28.7999 21.3461ZM57.7653 44.594C57.3046 44.7712 56.9147 44.8302 56.584 44.9838C56.2532 45.1019 55.9815 45.35 55.8161 45.6689C55.6035 46.0233 55.4381 46.673 55.4854 47.7717L55.9697 47.9961C56.5131 48.1615 57.4345 48.2678 58.4622 48.2442C60.5059 48.2087 62.9984 47.7598 64.3569 47.1338C65.4319 46.6494 66.4714 45.9761 67.3692 45.1846C62.9157 46.0942 60.3995 45.858 58.852 45.2319C58.4622 45.0547 58.1078 44.842 57.7771 44.594H57.7653ZM32.0957 44.8893H32.0366C31.8594 44.9011 31.6114 44.9602 31.1388 45.4799C30.0284 46.7085 29.6386 47.5 28.729 48.2087C27.7958 48.9411 26.6145 49.3191 24.2283 49.8153C23.484 49.9689 23.047 50.1461 22.7634 50.276L22.9879 50.4414C23.3423 50.6304 23.7794 50.7958 24.1574 50.9021C25.1733 51.1502 26.8507 51.4455 28.6109 51.1502C30.3592 50.8548 32.1784 50.0279 33.7495 47.8543C34.0212 47.4881 34.0448 46.9211 33.8204 46.3305C33.5959 45.7516 33.0998 45.2319 32.769 45.1019C32.5446 44.9838 32.3201 44.9247 32.0957 44.8893V44.8893Z"/><path fill="url(#paint0_linear_39_793)" d="M51.2563 4.14443e-05C56.6194 -0.0472104 63.4709 1.44122 68.3851 7.66665C69.4955 9.06058 69.8263 11.1042 69.779 13.6322C69.7318 16.1484 69.2711 19.1607 68.3969 22.4565C66.7313 28.8709 63.5772 36.3013 59.1474 42.9874L59.6435 43.2591C60.5767 43.6489 62.6676 43.9561 66.8967 43.1055C67.9598 42.8811 68.7395 42.7393 69.5546 43.3418C69.9562 43.6726 70.1689 44.1687 70.1334 44.6885C70.0862 45.0783 69.9562 45.4445 69.7082 45.7516C68.8931 46.9566 67.2983 48.1142 65.231 49.0593C63.4 49.8862 60.7776 50.3351 58.474 50.3587C57.3046 50.3705 56.2296 50.2878 55.3082 50.0043H55.2609C54.9065 53.3474 54.1032 59.9626 53.5717 62.9867C53.1464 65.4202 52.414 67.3575 51.0082 68.8223C49.6025 70.2753 47.6061 71.1495 44.9246 71.7165C41.5933 72.4253 39.1835 71.6693 37.6242 70.3698C36.0648 69.0586 35.3443 67.3457 34.9308 66.2944C34.6355 65.562 34.4819 64.6169 34.3283 63.353C34.1748 62.089 34.0685 60.5651 33.9976 58.8168C33.8913 56.1589 33.8676 53.5009 33.8913 50.8312C32.5091 52.0952 30.7845 52.9221 28.9298 53.2529C26.7326 53.6191 24.7598 53.2529 23.5904 52.9694C23.0233 52.8158 22.4563 52.615 21.9247 52.3315C21.3695 52.0479 20.8616 51.729 20.519 51.0911C20.33 50.7249 20.2591 50.2878 20.3418 49.8862C20.4363 49.4727 20.6844 49.1183 21.0269 48.8348C21.653 48.3269 22.4918 48.0434 23.7557 47.7835C26.0475 47.3109 26.8744 46.992 27.3469 46.614C27.7721 46.2832 28.2329 45.6217 29.0598 44.6412V44.5231C27.5595 44.4758 26.1065 44.0978 24.8071 43.3772C24.3464 43.8616 21.8657 46.4486 18.8888 50.0043C17.6484 51.4927 16.2545 52.3315 14.7779 52.4023C13.3249 52.4614 11.99 51.729 10.8678 50.654C8.62333 48.4922 6.81595 44.7593 5.26845 40.5657C3.72096 36.3249 2.46878 31.6352 1.54737 27.6542C0.661397 23.6732 0.118001 20.4601 0.0471234 18.9126C-0.283639 12.3328 1.27567 7.8911 3.9454 5.07962C6.60332 2.26813 10.2771 1.21678 13.8447 1.00414C20.2591 0.649754 26.3428 2.85878 27.5713 3.3313C29.9339 1.72473 32.9935 0.744258 36.8209 0.815136C38.6283 0.850575 40.4356 1.06321 42.184 1.5121L42.243 1.46485C43.0227 1.21678 43.8023 0.980517 44.5938 0.79151C46.8028 0.283553 49.0119 0.0354803 51.2563 4.14443e-05ZM51.7525 2.10275H51.2918C49.4607 2.11456 47.6297 2.33901 45.846 2.72884C49.8269 4.47715 52.8393 7.14688 54.9538 9.85205C56.4186 11.7067 57.6353 13.7385 58.5685 15.9239C58.9229 16.7744 59.171 17.4714 59.2891 18.0148C59.36 18.2865 59.4073 18.5228 59.4191 18.759L59.3718 19.2197V19.267C59.4663 22.043 58.7575 23.9095 58.663 26.5674C58.604 28.4811 59.1001 30.7374 59.2301 33.1945C59.3482 35.5098 59.0647 38.0496 57.5408 40.5421L57.8952 41.0028C61.9116 34.742 64.8058 27.8314 66.3297 21.9367C67.1566 18.759 67.5936 15.8885 67.6291 13.5968C67.6763 11.3287 67.2393 9.66304 66.684 8.96608C62.3841 3.53212 56.584 2.13819 51.7288 2.11456L51.7525 2.10275ZM36.4192 2.91784C32.6391 2.92966 29.9339 4.0637 27.8785 5.75295C25.7521 7.50127 24.3228 9.88749 23.4132 12.3564C22.3027 15.2624 21.9129 18.0857 21.7593 19.9994L21.8066 19.9639C22.9406 19.3379 24.4409 18.6881 26.0475 18.3338C27.654 17.9676 29.3905 17.8494 30.9498 18.4519C32.521 19.0425 33.8086 20.4719 34.2929 22.61C36.5374 32.9228 33.5841 36.7502 32.5091 39.6443C32.0839 40.6957 31.7295 41.7707 31.446 42.8456L31.8712 42.7748C32.6509 42.7157 33.2534 42.9638 33.5959 43.1173C34.6945 43.5781 35.4388 44.5113 35.864 45.5981C35.9703 45.8816 36.0294 46.1769 36.0885 46.5077L36.1475 46.9093C36.0294 50.8548 36.0294 54.8004 36.183 58.7341C36.2539 60.4351 36.372 61.9354 36.5137 63.1285C36.6437 64.298 36.8445 65.2076 36.9626 65.5147C37.3643 66.5188 37.9667 67.8419 39.0653 68.7515C40.1403 69.6611 41.6878 70.2517 44.5229 69.6611C46.98 69.1295 48.4921 68.4207 49.4962 67.3812C50.5121 66.3298 51.1146 64.8886 51.4926 62.6796C52.0714 59.3602 53.2409 49.709 53.3826 47.9016C53.3236 46.5195 53.5126 45.4799 53.9615 44.6648C54.4104 43.8498 55.1192 43.3418 55.7334 43.0583C56.0288 42.9283 56.3123 42.8338 56.5603 42.763C56.3005 42.4204 56.0524 42.066 55.7807 41.7352C54.9065 40.6839 54.1741 39.5144 53.6425 38.2622C53.3826 37.7424 53.1228 37.2227 52.8156 36.7147C52.3904 35.9587 51.8588 35.0137 51.2918 33.9269C50.1695 31.8005 48.941 29.2135 48.3149 26.6855C47.6888 24.1694 47.5943 21.5587 49.2127 19.7277C50.6539 18.0975 53.1818 17.4123 56.962 17.8022C56.8438 17.4596 56.7966 17.1761 56.6076 16.7508C55.7571 14.7426 54.6112 12.8644 53.2645 11.1633C50.075 7.09963 44.8773 3.08322 36.8445 2.92966H36.4665L36.4192 2.91784ZM15.1795 3.09504C14.7779 3.09504 14.3644 3.10685 13.9628 3.14229C10.7379 3.31948 7.6783 4.24089 5.4929 6.54442C3.3075 8.84795 1.87813 12.5927 2.18527 18.8181C2.24433 19.9994 2.75229 23.2952 3.63826 27.2171C4.52424 31.139 5.77641 35.7461 7.30028 39.8215C8.81234 43.8852 10.6434 47.4291 12.3799 49.1183C13.254 49.9452 14.01 50.2878 14.707 50.276C15.3922 50.2288 16.2309 49.8507 17.2586 48.634C19.1132 46.4132 21.0506 44.2632 23.047 42.1487C20.1646 39.6562 18.7589 35.8996 19.3259 32.1667C19.6566 29.8396 19.7039 27.6424 19.6566 25.9059C19.6212 24.2284 19.5031 23.118 19.5031 22.4092V22.3502V22.3147C19.4913 18.6645 20.1528 15.0616 21.3931 11.6358C22.2909 9.27322 23.6258 6.887 25.6222 4.94967C23.6612 4.31177 20.1764 3.34311 16.4081 3.1541C16.0182 3.11866 15.6048 3.10685 15.1913 3.10685L15.1795 3.09504ZM54.812 19.8104C52.6384 19.8576 51.4217 20.401 50.7838 21.1216C49.886 22.1493 49.7915 23.9567 50.3585 26.1776C50.9137 28.3984 52.0832 30.8791 53.1818 32.9582C53.7252 33.9977 54.245 34.9192 54.6703 35.6752C55.1073 36.443 55.4145 36.9864 55.6153 37.4353C55.7925 37.8488 55.9933 38.2268 56.1823 38.5812C57.021 36.8329 57.1746 35.1082 57.0801 33.3008C56.962 31.0799 56.454 28.8119 56.5249 26.5083C56.6194 23.8032 57.151 22.0548 57.1864 19.9758C56.4068 19.8694 55.6153 19.8104 54.8238 19.8104H54.812ZM28.4927 20.1766C27.8312 20.1766 27.1697 20.2711 26.52 20.4128C25.2324 20.72 24.0038 21.2043 22.8343 21.8422C22.4445 22.0548 22.0665 22.2911 21.7239 22.551L21.653 22.61C21.6885 23.0826 21.7712 24.193 21.8066 25.8468C21.8538 27.6542 21.8066 29.9459 21.464 32.4384C20.6844 37.8488 24.6535 42.3377 29.3196 42.3495C29.5913 41.2391 30.0402 40.105 30.4891 38.9237C31.7886 35.4625 34.3402 32.9464 32.1784 23.0826C31.8358 21.476 31.127 20.8145 30.1702 20.4601C29.6268 20.2711 29.0716 20.1766 28.5045 20.1884L28.4927 20.1766ZM53.8079 20.8145H53.9733L54.5403 20.8854L54.9774 21.0626L55.2137 21.4051V21.4406L55.0955 21.8658L54.7529 22.3265C54.4222 22.6809 53.9851 22.9172 53.5126 22.9999C53.0519 23.0589 52.5794 22.9408 52.1895 22.6691L51.7643 22.3029L51.5753 21.8895L51.6934 21.4878L52.0714 21.2043C52.3904 21.0271 52.792 20.909 53.2645 20.8499L53.8079 20.8145V20.8145ZM28.7999 21.3461L29.3196 21.3815C29.8158 21.4524 30.2529 21.5705 30.5836 21.7831L31.0089 22.1257L31.1861 22.6573L30.9498 23.1416L30.4891 23.5551C30.0639 23.8504 29.5559 23.9685 29.0479 23.9095C28.54 23.815 28.0557 23.5787 27.7131 23.2007L27.3351 22.6809L27.2051 22.1139C27.2524 21.7831 27.5477 21.5941 27.8194 21.4878C28.1502 21.3697 28.4809 21.3342 28.8117 21.3342L28.7999 21.3461ZM57.7653 44.594C57.3046 44.7712 56.9147 44.8302 56.584 44.9838C56.2532 45.1019 55.9815 45.35 55.8161 45.6689C55.6035 46.0233 55.4381 46.673 55.4854 47.7717L55.9697 47.9961C56.5131 48.1615 57.4345 48.2678 58.4622 48.2442C60.5059 48.2087 62.9984 47.7598 64.3569 47.1338C65.4319 46.6494 66.4714 45.9761 67.3692 45.1846C62.9157 46.0942 60.3995 45.858 58.852 45.2319C58.4622 45.0547 58.1078 44.842 57.7771 44.594H57.7653ZM32.0957 44.8893H32.0366C31.8594 44.9011 31.6114 44.9602 31.1388 45.4799C30.0284 46.7085 29.6386 47.5 28.729 48.2087C27.7958 48.9411 26.6145 49.3191 24.2283 49.8153C23.484 49.9689 23.047 50.1461 22.7634 50.276L22.9879 50.4414C23.3423 50.6304 23.7794 50.7958 24.1574 50.9021C25.1733 51.1502 26.8507 51.4455 28.6109 51.1502C30.3592 50.8548 32.1784 50.0279 33.7495 47.8543C34.0212 47.4881 34.0448 46.9211 33.8204 46.3305C33.5959 45.7516 33.0998 45.2319 32.769 45.1019C32.5446 44.9838 32.3201 44.9247 32.0957 44.8893V44.8893Z"/></g><defs><linearGradient id="paint0_linear_39_793" x1="44.995" x2="25.362" y1="10.586" y2="85.928" gradientUnits="userSpaceOnUse"><stop stop-color="#5C29F1"/><stop offset=".474" stop-color="#E37AC2"/><stop offset=".807" stop-color="#FF9067"/></linearGradient><clipPath id="clip0_39_793"><rect width="70.134" height="72" fill="#fff"/></clipPath></defs></svg>