<svg width="966" height="464" viewBox="100 0 966 464" fill="none" xmlns="http://www.w3.org/2000/svg">
<g filter="url(#filter0_d_0_1)">
<path d="M360 214C310.971 214 311.714 214 256 214" stroke="url(#paint0_linear_0_1)" stroke-width="12"/>
</g>
<g filter="url(#filter1_d_0_1)">
<path d="M579 214C549.3 214 549.75 214 516 214" stroke="url(#paint1_linear_0_1)" stroke-width="12"/>
</g>
<g filter="url(#filter2_dddddd_0_1)">
<rect x="360" y="167" width="156" height="91" rx="16" fill="black"/>
<rect x="361.5" y="168.5" width="153" height="88" rx="14.5" stroke="url(#paint2_linear_0_1)" stroke-width="3"/>
</g>
<path d="M438.417 207.908V212.696H443.133V214.388H438.417V219.14H436.533V214.388H431.877V212.696H436.533V207.908H438.417Z" fill="white"/>
<path d="M378.444 274.894H375.174L374.514 277H373.488L376.176 268.738H377.508L380.196 277H379.104L378.444 274.894ZM375.444 274.03H378.174L376.818 269.614L375.444 274.03ZM387.584 268.738L386.324 277H384.956L384.008 270.766L383.054 277H381.656L380.492 268.738H381.536L382.418 275.854L383.408 269.698H384.686L385.628 275.854L386.618 268.738H387.584ZM394.071 274.714C394.071 275.186 393.953 275.606 393.717 275.974C393.481 276.338 393.139 276.624 392.691 276.832C392.243 277.036 391.697 277.138 391.053 277.138C390.449 277.138 389.901 277.046 389.409 276.862C388.921 276.678 388.503 276.418 388.155 276.082L388.773 275.386C389.061 275.654 389.391 275.868 389.763 276.028C390.135 276.184 390.571 276.262 391.071 276.262C391.407 276.262 391.721 276.208 392.013 276.1C392.305 275.988 392.541 275.82 392.721 275.596C392.901 275.368 392.991 275.08 392.991 274.732C392.991 274.464 392.939 274.236 392.835 274.048C392.731 273.86 392.547 273.694 392.283 273.55C392.019 273.402 391.651 273.258 391.179 273.118C390.635 272.958 390.163 272.778 389.763 272.578C389.367 272.374 389.059 272.124 388.839 271.828C388.623 271.532 388.515 271.166 388.515 270.73C388.515 270.318 388.629 269.952 388.857 269.632C389.085 269.312 389.399 269.062 389.799 268.882C390.203 268.698 390.667 268.606 391.191 268.606C391.763 268.606 392.259 268.688 392.679 268.852C393.103 269.012 393.487 269.244 393.831 269.548L393.219 270.226C392.923 269.962 392.605 269.772 392.265 269.656C391.925 269.536 391.579 269.476 391.227 269.476C390.927 269.476 390.651 269.522 390.399 269.614C390.151 269.702 389.951 269.836 389.799 270.016C389.651 270.192 389.577 270.418 389.577 270.694C389.577 270.93 389.641 271.134 389.769 271.306C389.897 271.478 390.113 271.636 390.417 271.78C390.721 271.92 391.135 272.068 391.659 272.224C392.087 272.348 392.483 272.504 392.847 272.692C393.215 272.876 393.511 273.128 393.735 273.448C393.959 273.764 394.071 274.186 394.071 274.714ZM407.225 274.894H403.955L403.295 277H402.269L404.957 268.738H406.289L408.977 277H407.885L407.225 274.894ZM404.225 274.03H406.955L405.599 269.614L404.225 274.03ZM414.787 271.288C414.787 270.86 414.703 270.522 414.535 270.274C414.367 270.022 414.137 269.842 413.845 269.734C413.553 269.622 413.219 269.566 412.843 269.566H411.649V273.094H412.801C413.189 273.094 413.531 273.042 413.827 272.938C414.123 272.83 414.357 272.646 414.529 272.386C414.701 272.122 414.787 271.756 414.787 271.288ZM415.903 271.276C415.903 271.92 415.765 272.436 415.489 272.824C415.217 273.212 414.841 273.494 414.361 273.67C413.881 273.846 413.329 273.934 412.705 273.934H411.649V277H410.605V268.738H412.717C413.701 268.738 414.477 268.946 415.045 269.362C415.617 269.774 415.903 270.412 415.903 271.276ZM422.378 268.738V269.572H420.542V276.166H422.378V277H417.65V276.166H419.486V269.572H417.65V268.738H422.378ZM434.567 277.138C433.915 277.138 433.347 276.98 432.863 276.664C432.383 276.348 432.011 275.874 431.747 275.242C431.483 274.61 431.351 273.818 431.351 272.866C431.351 272.154 431.445 271.532 431.633 271C431.825 270.468 432.083 270.024 432.407 269.668C432.735 269.312 433.105 269.046 433.517 268.87C433.933 268.694 434.363 268.606 434.807 268.606C435.347 268.606 435.795 268.684 436.151 268.84C436.507 268.992 436.847 269.216 437.171 269.512L436.541 270.166C436.289 269.93 436.023 269.756 435.743 269.644C435.467 269.532 435.157 269.476 434.813 269.476C434.513 269.476 434.223 269.534 433.943 269.65C433.663 269.766 433.411 269.956 433.187 270.22C432.967 270.48 432.791 270.826 432.659 271.258C432.531 271.69 432.467 272.226 432.467 272.866C432.467 273.662 432.549 274.31 432.713 274.81C432.881 275.31 433.127 275.678 433.451 275.914C433.779 276.146 434.183 276.262 434.663 276.262C434.951 276.262 435.223 276.228 435.479 276.16C435.739 276.092 435.991 275.994 436.235 275.866V273.346H434.609L434.483 272.482H437.267V276.418C436.895 276.618 436.499 276.788 436.079 276.928C435.659 277.068 435.155 277.138 434.567 277.138ZM443.73 275.62C443.73 275.872 443.772 276.056 443.856 276.172C443.94 276.288 444.07 276.374 444.246 276.43L444 277.138C443.728 277.102 443.49 277.016 443.286 276.88C443.082 276.74 442.934 276.53 442.842 276.25C442.614 276.542 442.33 276.764 441.99 276.916C441.65 277.064 441.274 277.138 440.862 277.138C440.23 277.138 439.732 276.96 439.368 276.604C439.004 276.248 438.822 275.776 438.822 275.188C438.822 274.536 439.076 274.036 439.584 273.688C440.092 273.34 440.826 273.166 441.786 273.166H442.716V272.638C442.716 272.182 442.582 271.86 442.314 271.672C442.05 271.48 441.682 271.384 441.21 271.384C441.002 271.384 440.758 271.41 440.478 271.462C440.198 271.51 439.894 271.592 439.566 271.708L439.302 270.946C439.69 270.802 440.054 270.7 440.394 270.64C440.734 270.58 441.058 270.55 441.366 270.55C442.154 270.55 442.744 270.734 443.136 271.102C443.532 271.466 443.73 271.962 443.73 272.59V275.62ZM441.12 276.37C441.432 276.37 441.73 276.292 442.014 276.136C442.298 275.976 442.532 275.756 442.716 275.476V273.85H441.804C441.108 273.85 440.616 273.97 440.328 274.21C440.044 274.45 439.902 274.772 439.902 275.176C439.902 275.568 440.002 275.866 440.202 276.07C440.406 276.27 440.712 276.37 441.12 276.37ZM451.417 276.682C451.201 276.826 450.939 276.938 450.631 277.018C450.323 277.098 450.021 277.138 449.725 277.138C449.045 277.138 448.521 276.96 448.153 276.604C447.785 276.248 447.601 275.79 447.601 275.23V271.462H446.149V270.682H447.601V269.248L448.609 269.128V270.682H450.793L450.673 271.462H448.609V275.218C448.609 275.57 448.701 275.838 448.885 276.022C449.073 276.206 449.383 276.298 449.815 276.298C450.051 276.298 450.269 276.27 450.469 276.214C450.669 276.158 450.855 276.086 451.027 275.998L451.417 276.682ZM454.389 274.198C454.409 274.686 454.503 275.086 454.671 275.398C454.839 275.706 455.061 275.934 455.337 276.082C455.613 276.226 455.913 276.298 456.237 276.298C456.561 276.298 456.853 276.25 457.113 276.154C457.377 276.058 457.647 275.916 457.923 275.728L458.397 276.394C458.101 276.626 457.763 276.808 457.383 276.94C457.007 277.072 456.621 277.138 456.225 277.138C455.613 277.138 455.091 277 454.659 276.724C454.227 276.448 453.897 276.064 453.669 275.572C453.445 275.076 453.333 274.502 453.333 273.85C453.333 273.21 453.447 272.642 453.675 272.146C453.903 271.65 454.223 271.26 454.635 270.976C455.047 270.692 455.533 270.55 456.093 270.55C456.625 270.55 457.083 270.676 457.467 270.928C457.851 271.176 458.145 271.532 458.349 271.996C458.557 272.456 458.661 273.006 458.661 273.646C458.661 273.754 458.659 273.856 458.655 273.952C458.651 274.044 458.645 274.126 458.637 274.198H454.389ZM456.105 271.378C455.637 271.378 455.245 271.544 454.929 271.876C454.617 272.208 454.439 272.722 454.395 273.418H457.689C457.677 272.742 457.529 272.234 457.245 271.894C456.961 271.55 456.581 271.378 456.105 271.378ZM465.472 277H464.044L463.228 272.362L462.34 277H460.948L459.796 270.682H460.828L461.632 276.376L462.64 271.486H463.834L464.788 276.376L465.592 270.682H466.576L465.472 277ZM472.511 275.62C472.511 275.872 472.553 276.056 472.637 276.172C472.721 276.288 472.851 276.374 473.027 276.43L472.781 277.138C472.509 277.102 472.271 277.016 472.067 276.88C471.863 276.74 471.715 276.53 471.623 276.25C471.395 276.542 471.111 276.764 470.771 276.916C470.431 277.064 470.055 277.138 469.643 277.138C469.011 277.138 468.513 276.96 468.149 276.604C467.785 276.248 467.603 275.776 467.603 275.188C467.603 274.536 467.857 274.036 468.365 273.688C468.873 273.34 469.607 273.166 470.567 273.166H471.497V272.638C471.497 272.182 471.363 271.86 471.095 271.672C470.831 271.48 470.463 271.384 469.991 271.384C469.783 271.384 469.539 271.41 469.259 271.462C468.979 271.51 468.675 271.592 468.347 271.708L468.083 270.946C468.471 270.802 468.835 270.7 469.175 270.64C469.515 270.58 469.839 270.55 470.147 270.55C470.935 270.55 471.525 270.734 471.917 271.102C472.313 271.466 472.511 271.962 472.511 272.59V275.62ZM469.901 276.37C470.213 276.37 470.511 276.292 470.795 276.136C471.079 275.976 471.313 275.756 471.497 275.476V273.85H470.585C469.889 273.85 469.397 273.97 469.109 274.21C468.825 274.45 468.683 274.772 468.683 275.176C468.683 275.568 468.783 275.866 468.983 276.07C469.187 276.27 469.493 276.37 469.901 276.37ZM480.439 270.682L478.219 277.042C478.071 277.47 477.883 277.862 477.655 278.218C477.431 278.574 477.137 278.868 476.773 279.1C476.413 279.336 475.955 279.482 475.399 279.538L475.243 278.734C475.679 278.662 476.023 278.552 476.275 278.404C476.527 278.256 476.725 278.066 476.869 277.834C477.017 277.602 477.147 277.324 477.259 277H476.923L474.715 270.682H475.795L477.607 276.232L479.395 270.682H480.439ZM492.423 270.454V272.848H494.781V273.694H492.423V276.07H491.481V273.694H489.153V272.848H491.481V270.454H492.423ZM385.661 293V284.738H386.705V292.07H390.473L390.353 293H385.661ZM396.96 291.62C396.96 291.872 397.002 292.056 397.086 292.172C397.17 292.288 397.3 292.374 397.476 292.43L397.23 293.138C396.958 293.102 396.72 293.016 396.516 292.88C396.312 292.74 396.164 292.53 396.072 292.25C395.844 292.542 395.56 292.764 395.22 292.916C394.88 293.064 394.504 293.138 394.092 293.138C393.46 293.138 392.962 292.96 392.598 292.604C392.234 292.248 392.052 291.776 392.052 291.188C392.052 290.536 392.306 290.036 392.814 289.688C393.322 289.34 394.056 289.166 395.016 289.166H395.946V288.638C395.946 288.182 395.812 287.86 395.544 287.672C395.28 287.48 394.912 287.384 394.44 287.384C394.232 287.384 393.988 287.41 393.708 287.462C393.428 287.51 393.124 287.592 392.796 287.708L392.532 286.946C392.92 286.802 393.284 286.7 393.624 286.64C393.964 286.58 394.288 286.55 394.596 286.55C395.384 286.55 395.974 286.734 396.366 287.102C396.762 287.466 396.96 287.962 396.96 288.59V291.62ZM394.35 292.37C394.662 292.37 394.96 292.292 395.244 292.136C395.528 291.976 395.762 291.756 395.946 291.476V289.85H395.034C394.338 289.85 393.846 289.97 393.558 290.21C393.274 290.45 393.132 290.772 393.132 291.176C393.132 291.568 393.232 291.866 393.432 292.07C393.636 292.27 393.942 292.37 394.35 292.37ZM403.796 286.55C404 286.55 404.194 286.594 404.378 286.682C404.566 286.77 404.72 286.94 404.84 287.192C404.96 287.444 405.02 287.812 405.02 288.296V293H404.084V288.458C404.084 288.062 404.06 287.776 404.012 287.6C403.964 287.424 403.826 287.336 403.598 287.336C403.41 287.336 403.222 287.396 403.034 287.516C402.85 287.632 402.67 287.824 402.494 288.092V293H401.552V288.458C401.552 288.062 401.528 287.776 401.48 287.6C401.432 287.424 401.294 287.336 401.066 287.336C400.87 287.336 400.68 287.396 400.496 287.516C400.316 287.632 400.138 287.824 399.962 288.092V293H399.032V286.682H399.824L399.884 287.414C400.056 287.17 400.248 286.966 400.46 286.802C400.676 286.634 400.942 286.55 401.258 286.55C401.498 286.55 401.724 286.608 401.936 286.724C402.148 286.836 402.304 287.056 402.404 287.384C402.576 287.136 402.77 286.936 402.986 286.784C403.202 286.628 403.472 286.55 403.796 286.55ZM407.835 287.504C408.067 287.2 408.333 286.966 408.633 286.802C408.937 286.634 409.271 286.55 409.635 286.55C410.199 286.55 410.655 286.686 411.003 286.958C411.351 287.23 411.605 287.614 411.765 288.11C411.925 288.602 412.005 289.178 412.005 289.838C412.005 290.474 411.909 291.042 411.717 291.542C411.525 292.038 411.243 292.428 410.871 292.712C410.503 292.996 410.047 293.138 409.503 293.138C408.771 293.138 408.197 292.874 407.781 292.346L407.709 293H406.827V284.138L407.835 284.012V287.504ZM409.263 292.322C409.791 292.322 410.197 292.118 410.481 291.71C410.765 291.302 410.907 290.676 410.907 289.832C410.907 289.28 410.851 288.822 410.739 288.458C410.627 288.09 410.459 287.816 410.235 287.636C410.015 287.452 409.743 287.36 409.419 287.36C409.067 287.36 408.757 287.466 408.489 287.678C408.225 287.886 408.007 288.118 407.835 288.374V291.506C407.999 291.754 408.205 291.952 408.453 292.1C408.705 292.248 408.975 292.322 409.263 292.322ZM417.802 284.012L418.81 284.138V293H417.928L417.832 292.166C417.596 292.502 417.324 292.748 417.016 292.904C416.712 293.06 416.386 293.138 416.038 293.138C415.49 293.138 415.038 293 414.682 292.724C414.326 292.448 414.062 292.064 413.89 291.572C413.718 291.076 413.632 290.502 413.632 289.85C413.632 289.218 413.73 288.654 413.926 288.158C414.122 287.658 414.404 287.266 414.772 286.982C415.144 286.694 415.59 286.55 416.11 286.55C416.474 286.55 416.794 286.614 417.07 286.742C417.346 286.866 417.59 287.05 417.802 287.294V284.012ZM416.374 287.36C415.846 287.36 415.44 287.566 415.156 287.978C414.872 288.39 414.73 289.014 414.73 289.85C414.73 290.394 414.788 290.85 414.904 291.218C415.02 291.586 415.19 291.862 415.414 292.046C415.642 292.23 415.92 292.322 416.248 292.322C416.608 292.322 416.914 292.22 417.166 292.016C417.422 291.812 417.634 291.582 417.802 291.326V288.17C417.63 287.914 417.422 287.716 417.178 287.576C416.934 287.432 416.666 287.36 416.374 287.36ZM425.742 291.62C425.742 291.872 425.784 292.056 425.868 292.172C425.952 292.288 426.082 292.374 426.258 292.43L426.012 293.138C425.74 293.102 425.502 293.016 425.298 292.88C425.094 292.74 424.946 292.53 424.854 292.25C424.626 292.542 424.342 292.764 424.002 292.916C423.662 293.064 423.286 293.138 422.874 293.138C422.242 293.138 421.744 292.96 421.38 292.604C421.016 292.248 420.834 291.776 420.834 291.188C420.834 290.536 421.088 290.036 421.596 289.688C422.104 289.34 422.838 289.166 423.798 289.166H424.728V288.638C424.728 288.182 424.594 287.86 424.326 287.672C424.062 287.48 423.694 287.384 423.222 287.384C423.014 287.384 422.77 287.41 422.49 287.462C422.21 287.51 421.906 287.592 421.578 287.708L421.314 286.946C421.702 286.802 422.066 286.7 422.406 286.64C422.746 286.58 423.07 286.55 423.378 286.55C424.166 286.55 424.756 286.734 425.148 287.102C425.544 287.466 425.742 287.962 425.742 288.59V291.62ZM423.132 292.37C423.444 292.37 423.742 292.292 424.026 292.136C424.31 291.976 424.544 291.756 424.728 291.476V289.85H423.816C423.12 289.85 422.628 289.97 422.34 290.21C422.056 290.45 421.914 290.772 421.914 291.176C421.914 291.568 422.014 291.866 422.214 292.07C422.418 292.27 422.724 292.37 423.132 292.37ZM437.096 285.59V288.482H440.336V289.322H437.096V293H436.064V284.738H440.93L440.804 285.59H437.096ZM443.812 286.682V291.158C443.812 291.574 443.898 291.874 444.07 292.058C444.242 292.242 444.51 292.334 444.874 292.334C445.222 292.334 445.55 292.236 445.858 292.04C446.17 291.84 446.412 291.604 446.584 291.332V286.682H447.592V293H446.734L446.65 292.148C446.402 292.468 446.096 292.714 445.732 292.886C445.368 293.054 445 293.138 444.628 293.138C444.016 293.138 443.558 292.976 443.254 292.652C442.954 292.324 442.804 291.866 442.804 291.278V286.682H443.812ZM449.999 293V286.682H450.857L450.935 287.558C451.191 287.234 451.511 286.986 451.895 286.814C452.283 286.638 452.659 286.55 453.023 286.55C453.643 286.55 454.093 286.714 454.373 287.042C454.657 287.37 454.799 287.826 454.799 288.41V293H453.791V289.154C453.791 288.722 453.767 288.374 453.719 288.11C453.671 287.842 453.571 287.648 453.419 287.528C453.267 287.404 453.031 287.342 452.711 287.342C452.463 287.342 452.229 287.396 452.009 287.504C451.793 287.612 451.599 287.748 451.427 287.912C451.259 288.072 451.119 288.234 451.007 288.398V293H449.999ZM460.05 292.268C460.366 292.268 460.66 292.216 460.932 292.112C461.208 292.008 461.462 291.876 461.694 291.716L462.186 292.376C461.91 292.612 461.578 292.798 461.19 292.934C460.802 293.07 460.422 293.138 460.05 293.138C459.422 293.138 458.886 293.004 458.442 292.736C458.002 292.464 457.666 292.084 457.434 291.596C457.202 291.104 457.086 290.528 457.086 289.868C457.086 289.236 457.202 288.67 457.434 288.17C457.67 287.666 458.008 287.27 458.448 286.982C458.892 286.694 459.43 286.55 460.062 286.55C460.466 286.55 460.844 286.612 461.196 286.736C461.552 286.856 461.878 287.038 462.174 287.282L461.682 287.954C461.414 287.766 461.144 287.626 460.872 287.534C460.604 287.438 460.33 287.39 460.05 287.39C459.506 287.39 459.058 287.594 458.706 288.002C458.354 288.41 458.178 289.032 458.178 289.868C458.178 290.428 458.258 290.886 458.418 291.242C458.582 291.594 458.804 291.854 459.084 292.022C459.368 292.186 459.69 292.268 460.05 292.268ZM469.406 292.682C469.19 292.826 468.928 292.938 468.62 293.018C468.312 293.098 468.01 293.138 467.714 293.138C467.034 293.138 466.51 292.96 466.142 292.604C465.774 292.248 465.59 291.79 465.59 291.23V287.462H464.138V286.682H465.59V285.248L466.598 285.128V286.682H468.782L468.662 287.462H466.598V291.218C466.598 291.57 466.69 291.838 466.874 292.022C467.062 292.206 467.372 292.298 467.804 292.298C468.04 292.298 468.258 292.27 468.458 292.214C468.658 292.158 468.844 292.086 469.016 291.998L469.406 292.682ZM474.783 286.682V292.202H476.565V293H471.825V292.202H473.775V287.48H471.885V286.682H474.783ZM473.979 283.724C474.203 283.724 474.381 283.792 474.513 283.928C474.649 284.064 474.717 284.23 474.717 284.426C474.717 284.63 474.649 284.802 474.513 284.942C474.381 285.078 474.203 285.146 473.979 285.146C473.767 285.146 473.593 285.078 473.457 284.942C473.321 284.802 473.253 284.63 473.253 284.426C473.253 284.23 473.321 284.064 473.457 283.928C473.593 283.792 473.767 283.724 473.979 283.724ZM481.186 286.55C481.782 286.55 482.28 286.686 482.68 286.958C483.084 287.226 483.386 287.606 483.586 288.098C483.79 288.59 483.892 289.17 483.892 289.838C483.892 290.482 483.788 291.052 483.58 291.548C483.372 292.044 483.066 292.434 482.662 292.718C482.262 292.998 481.766 293.138 481.174 293.138C480.582 293.138 480.084 293.002 479.68 292.73C479.276 292.458 478.97 292.076 478.762 291.584C478.558 291.088 478.456 290.51 478.456 289.85C478.456 289.198 478.56 288.624 478.768 288.128C478.976 287.632 479.282 287.246 479.686 286.97C480.094 286.69 480.594 286.55 481.186 286.55ZM481.186 287.372C480.642 287.372 480.23 287.574 479.95 287.978C479.674 288.378 479.536 289.002 479.536 289.85C479.536 290.682 479.672 291.3 479.944 291.704C480.22 292.108 480.63 292.31 481.174 292.31C481.718 292.31 482.126 292.108 482.398 291.704C482.674 291.3 482.812 290.678 482.812 289.838C482.812 288.998 482.676 288.378 482.404 287.978C482.132 287.574 481.726 287.372 481.186 287.372ZM485.976 293V286.682H486.834L486.912 287.558C487.168 287.234 487.488 286.986 487.872 286.814C488.26 286.638 488.636 286.55 489 286.55C489.62 286.55 490.07 286.714 490.35 287.042C490.634 287.37 490.776 287.826 490.776 288.41V293H489.768V289.154C489.768 288.722 489.744 288.374 489.696 288.11C489.648 287.842 489.548 287.648 489.396 287.528C489.244 287.404 489.008 287.342 488.688 287.342C488.44 287.342 488.206 287.396 487.986 287.504C487.77 287.612 487.576 287.748 487.404 287.912C487.236 288.072 487.096 288.234 486.984 288.398V293H485.976Z" fill="black"/>
<g clip-path="url(#clip0_0_1)">
<path d="M418.995 210.546L408.801 210.969L402.192 210.546L413.123 209.496L418.995 210.546Z" fill="#634B1E"/>
<path d="M413.099 209.955L418.995 210.546V198.634L413.099 195.676L412.646 196.167V209.448L413.099 209.955" fill="#D9A740"/>
<path d="M402.192 198.627L413.099 195.666V209.955L402.192 210.546V198.627" fill="#886A2A"/>
<path d="M377.005 210.546L387.199 210.969L393.808 210.546L382.908 209.376L377.005 210.546Z" fill="#634B1E"/>
<path d="M382.901 209.955L377.005 210.528V198.58L382.901 195.628L383.172 196.136V209.508L382.901 209.955" fill="#886A2A"/>
<path d="M393.808 198.627L382.901 195.666V209.955L393.808 210.546V198.627Z" fill="#D9A740"/>
<path d="M418.995 216.706L408.801 216.282L402.192 216.705L413.075 217.808L418.995 216.706Z" fill="#FAD791"/>
<path d="M413.099 217.297L418.995 216.706V228.618L413.099 231.575L412.79 230.898V217.904L413.099 217.297Z" fill="#D9A740"/>
<path d="M402.192 228.625L413.099 231.585V217.297L402.192 216.705V228.625" fill="#886A2A"/>
<path d="M377.005 216.706L387.199 216.282L393.808 216.705L382.829 217.904L377.005 216.706Z" fill="#FAD791"/>
<path d="M382.901 217.297L377.005 216.706V228.618L382.901 231.575L383.258 231.042V217.904L382.901 217.297" fill="#886A2A"/>
<path d="M393.808 228.625L382.901 231.585V217.297L393.808 216.705V228.625" fill="#D9A740"/>
<path d="M392.678 205.542L398.085 204.591L408.88 206.124L409.81 206.661L404.567 207.236L392.678 205.542Z" fill="#634B1E"/>
<path d="M403.322 205.542L397.915 204.591L386.655 206.344L386.19 206.661L391.433 207.236L403.322 205.542Z" fill="#634B1E"/>
<path d="M392.678 221.709L398.085 222.66L408.853 221.15L409.81 220.591L404.567 220.015L392.678 221.709Z" fill="#FAD791"/>
<path d="M403.322 221.709L397.915 222.66L386.573 221.04L386.19 220.591L391.433 220.015L403.322 221.709Z" fill="#FAD791"/>
<path d="M409.81 206.661V200.773L404.28 198.959V191.253L398 188.104V188.104L397.738 188.523L397.69 238.303L398 238.944L404.28 235.794V228.292L409.81 226.478V220.591L404.28 221.567V205.684L409.81 206.661" fill="#D9A740"/>
<path d="M391.72 191.253V198.959L386.19 200.773V206.661L391.72 205.684V221.567L386.19 220.591V226.478L391.72 228.292V235.794L398 238.944V188.104L391.72 191.253Z" fill="#886A2A"/>
</g>
<g filter="url(#filter3_d_0_1)">
<path d="M669.216 211C702.687 211 696.18 211 734.216 211" stroke="url(#paint3_linear_0_1)" stroke-width="12"/>
</g>
<g filter="url(#filter4_dddddd_0_1)">
<rect x="579" y="167" width="91.2" height="91.2" rx="16" fill="black"/>
<rect x="580.5" y="168.5" width="88.2" height="88.2" rx="14.5" stroke="url(#paint4_linear_0_1)" stroke-width="3"/>
</g>
<path d="M608.462 277.496H607.424V269.234H608.462V277.496ZM608.522 273.086L611.774 269.234H612.974L609.746 273.02L613.202 277.496H611.906L608.522 273.086ZM619.089 276.116C619.089 276.368 619.131 276.552 619.215 276.668C619.299 276.784 619.429 276.87 619.605 276.926L619.359 277.634C619.087 277.598 618.849 277.512 618.645 277.376C618.441 277.236 618.293 277.026 618.201 276.746C617.973 277.038 617.689 277.26 617.349 277.412C617.009 277.56 616.633 277.634 616.221 277.634C615.589 277.634 615.091 277.456 614.727 277.1C614.363 276.744 614.181 276.272 614.181 275.684C614.181 275.032 614.435 274.532 614.943 274.184C615.451 273.836 616.185 273.662 617.145 273.662H618.075V273.134C618.075 272.678 617.941 272.356 617.673 272.168C617.409 271.976 617.041 271.88 616.569 271.88C616.361 271.88 616.117 271.906 615.837 271.958C615.557 272.006 615.253 272.088 614.925 272.204L614.661 271.442C615.049 271.298 615.413 271.196 615.753 271.136C616.093 271.076 616.417 271.046 616.725 271.046C617.513 271.046 618.103 271.23 618.495 271.598C618.891 271.962 619.089 272.458 619.089 273.086V276.116ZM616.479 276.866C616.791 276.866 617.089 276.788 617.373 276.632C617.657 276.472 617.891 276.252 618.075 275.972V274.346H617.163C616.467 274.346 615.975 274.466 615.687 274.706C615.403 274.946 615.261 275.268 615.261 275.672C615.261 276.064 615.361 276.362 615.561 276.566C615.765 276.766 616.071 276.866 616.479 276.866ZM625.492 268.508C625.832 268.508 626.14 268.538 626.416 268.598C626.692 268.658 626.954 268.742 627.202 268.85L626.878 269.6C626.674 269.512 626.458 269.446 626.23 269.402C626.002 269.358 625.766 269.336 625.522 269.336C625.082 269.336 624.75 269.422 624.526 269.594C624.306 269.766 624.196 270.03 624.196 270.386V271.67H626.338L626.23 272.462H624.196V277.496H623.188V272.462H621.682V271.67H623.188V270.41C623.188 270.018 623.288 269.68 623.488 269.396C623.692 269.112 623.968 268.894 624.316 268.742C624.664 268.586 625.056 268.508 625.492 268.508ZM634.248 271.178L631.404 274.022L634.578 277.496H633.252L630.144 274.046L632.94 271.178H634.248ZM630.03 268.508V277.496H629.022V268.634L630.03 268.508ZM640.675 276.116C640.675 276.368 640.717 276.552 640.801 276.668C640.885 276.784 641.015 276.87 641.191 276.926L640.945 277.634C640.673 277.598 640.435 277.512 640.231 277.376C640.027 277.236 639.879 277.026 639.787 276.746C639.559 277.038 639.275 277.26 638.935 277.412C638.595 277.56 638.219 277.634 637.807 277.634C637.175 277.634 636.677 277.456 636.313 277.1C635.949 276.744 635.767 276.272 635.767 275.684C635.767 275.032 636.021 274.532 636.529 274.184C637.037 273.836 637.771 273.662 638.731 273.662H639.661V273.134C639.661 272.678 639.527 272.356 639.259 272.168C638.995 271.976 638.627 271.88 638.155 271.88C637.947 271.88 637.703 271.906 637.423 271.958C637.143 272.006 636.839 272.088 636.511 272.204L636.247 271.442C636.635 271.298 636.999 271.196 637.339 271.136C637.679 271.076 638.003 271.046 638.311 271.046C639.099 271.046 639.689 271.23 640.081 271.598C640.477 271.962 640.675 272.458 640.675 273.086V276.116ZM638.065 276.866C638.377 276.866 638.675 276.788 638.959 276.632C639.243 276.472 639.477 276.252 639.661 275.972V274.346H638.749C638.053 274.346 637.561 274.466 637.273 274.706C636.989 274.946 636.847 275.268 636.847 275.672C636.847 276.064 636.947 276.362 637.147 276.566C637.351 276.766 637.657 276.866 638.065 276.866Z" fill="black"/>
<path d="M633.316 215.478C631.526 215.478 629.922 216.272 628.823 217.521L626.007 215.526C626.306 214.703 626.478 213.818 626.478 212.893C626.478 211.983 626.312 211.114 626.023 210.302L628.833 208.328C629.931 209.572 631.532 210.361 633.316 210.361C636.62 210.361 639.308 207.671 639.308 204.364C639.308 201.057 636.62 198.368 633.316 198.368C630.013 198.368 627.325 201.057 627.325 204.364C627.325 204.956 627.414 205.527 627.574 206.067L624.763 208.042C623.589 206.584 621.898 205.566 619.972 205.255V201.864C622.686 201.294 624.73 198.88 624.73 195.997C624.73 192.69 622.042 190 618.739 190C615.435 190 612.747 192.69 612.747 195.997C612.747 198.842 614.739 201.225 617.399 201.837V205.272C613.769 205.909 611 209.08 611 212.893C611 216.724 613.797 219.906 617.453 220.522V224.15C614.766 224.741 612.747 227.139 612.747 230.003C612.747 233.31 615.435 236 618.739 236C622.042 236 624.73 233.31 624.73 230.003C624.73 227.139 622.712 224.741 620.025 224.15V220.522C621.876 220.21 623.55 219.236 624.736 217.78L627.57 219.788C627.413 220.324 627.325 220.889 627.325 221.475C627.325 224.782 630.013 227.471 633.316 227.471C636.62 227.471 639.308 224.782 639.308 221.475C639.308 218.168 636.62 215.478 633.316 215.478V215.478ZM633.316 201.457C634.918 201.457 636.221 202.761 636.221 204.364C636.221 205.967 634.918 207.272 633.316 207.272C631.714 207.272 630.411 205.967 630.411 204.364C630.411 202.761 631.714 201.457 633.316 201.457V201.457ZM615.834 195.997C615.834 194.394 617.137 193.089 618.739 193.089C620.341 193.089 621.644 194.394 621.644 195.997C621.644 197.599 620.341 198.904 618.739 198.904C617.137 198.904 615.834 197.599 615.834 195.997ZM621.644 230.003C621.644 231.606 620.341 232.911 618.739 232.911C617.137 232.911 615.834 231.606 615.834 230.003C615.834 228.401 617.137 227.096 618.739 227.096C620.341 227.096 621.644 228.401 621.644 230.003ZM618.739 216.948C616.505 216.948 614.687 215.129 614.687 212.893C614.687 210.657 616.505 208.838 618.739 208.838C620.973 208.838 622.79 210.657 622.79 212.893C622.79 215.129 620.973 216.948 618.739 216.948ZM633.316 224.382C631.714 224.382 630.411 223.078 630.411 221.475C630.411 219.872 631.714 218.568 633.316 218.568C634.918 218.568 636.221 219.872 636.221 221.475C636.221 223.078 634.918 224.382 633.316 224.382Z" fill="#EEEEEE"/>
<g filter="url(#filter5_dddddd_0_1)">
<rect x="165" y="167" width="91.2" height="91.2" rx="16" fill="black"/>
<rect x="166.5" y="168.5" width="88.2" height="88.2" rx="14.5" stroke="url(#paint5_linear_0_1)" stroke-width="3"/>
</g>
<path d="M191.718 275.218C191.718 275.69 191.6 276.11 191.364 276.478C191.128 276.842 190.786 277.128 190.338 277.336C189.89 277.54 189.344 277.642 188.7 277.642C188.096 277.642 187.548 277.55 187.056 277.366C186.568 277.182 186.15 276.922 185.802 276.586L186.42 275.89C186.708 276.158 187.038 276.372 187.41 276.532C187.782 276.688 188.218 276.766 188.718 276.766C189.054 276.766 189.368 276.712 189.66 276.604C189.952 276.492 190.188 276.324 190.368 276.1C190.548 275.872 190.638 275.584 190.638 275.236C190.638 274.968 190.586 274.74 190.482 274.552C190.378 274.364 190.194 274.198 189.93 274.054C189.666 273.906 189.298 273.762 188.826 273.622C188.282 273.462 187.81 273.282 187.41 273.082C187.014 272.878 186.706 272.628 186.486 272.332C186.27 272.036 186.162 271.67 186.162 271.234C186.162 270.822 186.276 270.456 186.504 270.136C186.732 269.816 187.046 269.566 187.446 269.386C187.85 269.202 188.314 269.11 188.838 269.11C189.41 269.11 189.906 269.192 190.326 269.356C190.75 269.516 191.134 269.748 191.478 270.052L190.866 270.73C190.57 270.466 190.252 270.276 189.912 270.16C189.572 270.04 189.226 269.98 188.874 269.98C188.574 269.98 188.298 270.026 188.046 270.118C187.798 270.206 187.598 270.34 187.446 270.52C187.298 270.696 187.224 270.922 187.224 271.198C187.224 271.434 187.288 271.638 187.416 271.81C187.544 271.982 187.76 272.14 188.064 272.284C188.368 272.424 188.782 272.572 189.306 272.728C189.734 272.852 190.13 273.008 190.494 273.196C190.862 273.38 191.158 273.632 191.382 273.952C191.606 274.268 191.718 274.69 191.718 275.218ZM194.474 274.702C194.494 275.19 194.588 275.59 194.756 275.902C194.924 276.21 195.146 276.438 195.422 276.586C195.698 276.73 195.998 276.802 196.322 276.802C196.646 276.802 196.938 276.754 197.198 276.658C197.462 276.562 197.732 276.42 198.008 276.232L198.482 276.898C198.186 277.13 197.848 277.312 197.468 277.444C197.092 277.576 196.706 277.642 196.31 277.642C195.698 277.642 195.176 277.504 194.744 277.228C194.312 276.952 193.982 276.568 193.754 276.076C193.53 275.58 193.418 275.006 193.418 274.354C193.418 273.714 193.532 273.146 193.76 272.65C193.988 272.154 194.308 271.764 194.72 271.48C195.132 271.196 195.618 271.054 196.178 271.054C196.71 271.054 197.168 271.18 197.552 271.432C197.936 271.68 198.23 272.036 198.434 272.5C198.642 272.96 198.746 273.51 198.746 274.15C198.746 274.258 198.744 274.36 198.74 274.456C198.736 274.548 198.73 274.63 198.722 274.702H194.474ZM196.19 271.882C195.722 271.882 195.33 272.048 195.014 272.38C194.702 272.712 194.524 273.226 194.48 273.922H197.774C197.762 273.246 197.614 272.738 197.33 272.398C197.046 272.054 196.666 271.882 196.19 271.882ZM206.013 270.514L206.325 271.462C206.057 271.546 205.771 271.598 205.467 271.618C205.163 271.638 204.833 271.648 204.477 271.648C204.841 271.816 205.115 272.034 205.299 272.302C205.483 272.566 205.575 272.878 205.575 273.238C205.575 273.654 205.481 274.024 205.293 274.348C205.105 274.672 204.833 274.926 204.477 275.11C204.125 275.294 203.699 275.386 203.199 275.386C202.987 275.386 202.809 275.376 202.665 275.356C202.525 275.336 202.389 275.306 202.257 275.266C202.161 275.33 202.081 275.418 202.017 275.53C201.957 275.642 201.927 275.758 201.927 275.878C201.927 276.03 201.987 276.156 202.107 276.256C202.227 276.356 202.449 276.406 202.773 276.406H203.913C204.337 276.406 204.717 276.482 205.053 276.634C205.393 276.786 205.659 276.99 205.851 277.246C206.047 277.502 206.145 277.794 206.145 278.122C206.145 278.742 205.881 279.218 205.353 279.55C204.829 279.882 204.087 280.048 203.127 280.048C202.455 280.048 201.925 279.978 201.537 279.838C201.149 279.702 200.871 279.492 200.703 279.208C200.539 278.928 200.457 278.574 200.457 278.146H201.369C201.369 278.39 201.417 278.592 201.513 278.752C201.609 278.912 201.783 279.03 202.035 279.106C202.287 279.186 202.649 279.226 203.121 279.226C203.585 279.226 203.963 279.186 204.255 279.106C204.551 279.03 204.769 278.914 204.909 278.758C205.053 278.606 205.125 278.416 205.125 278.188C205.125 277.888 204.989 277.662 204.717 277.51C204.445 277.358 204.105 277.282 203.697 277.282H202.569C202.025 277.282 201.623 277.162 201.363 276.922C201.107 276.682 200.979 276.406 200.979 276.094C200.979 275.89 201.037 275.692 201.153 275.5C201.273 275.308 201.447 275.138 201.675 274.99C201.311 274.798 201.043 274.56 200.871 274.276C200.699 273.992 200.613 273.648 200.613 273.244C200.613 272.816 200.719 272.438 200.931 272.11C201.143 271.778 201.439 271.518 201.819 271.33C202.199 271.142 202.637 271.048 203.133 271.048C203.665 271.044 204.097 271.022 204.429 270.982C204.761 270.938 205.045 270.876 205.281 270.796C205.521 270.716 205.765 270.622 206.013 270.514ZM203.133 271.786C202.625 271.786 202.249 271.924 202.005 272.2C201.765 272.472 201.645 272.82 201.645 273.244C201.645 273.672 201.769 274.024 202.017 274.3C202.265 274.576 202.645 274.714 203.157 274.714C203.605 274.714 203.945 274.584 204.177 274.324C204.413 274.064 204.531 273.702 204.531 273.238C204.531 272.762 204.413 272.402 204.177 272.158C203.945 271.91 203.597 271.786 203.133 271.786ZM212.236 271.054C212.44 271.054 212.634 271.098 212.818 271.186C213.006 271.274 213.16 271.444 213.28 271.696C213.4 271.948 213.46 272.316 213.46 272.8V277.504H212.524V272.962C212.524 272.566 212.5 272.28 212.452 272.104C212.404 271.928 212.266 271.84 212.038 271.84C211.85 271.84 211.662 271.9 211.474 272.02C211.29 272.136 211.11 272.328 210.934 272.596V277.504H209.992V272.962C209.992 272.566 209.968 272.28 209.92 272.104C209.872 271.928 209.734 271.84 209.506 271.84C209.31 271.84 209.12 271.9 208.936 272.02C208.756 272.136 208.578 272.328 208.402 272.596V277.504H207.472V271.186H208.264L208.324 271.918C208.496 271.674 208.688 271.47 208.9 271.306C209.116 271.138 209.382 271.054 209.698 271.054C209.938 271.054 210.164 271.112 210.376 271.228C210.588 271.34 210.744 271.56 210.844 271.888C211.016 271.64 211.21 271.44 211.426 271.288C211.642 271.132 211.912 271.054 212.236 271.054ZM216.06 274.702C216.08 275.19 216.174 275.59 216.342 275.902C216.51 276.21 216.732 276.438 217.008 276.586C217.284 276.73 217.584 276.802 217.908 276.802C218.232 276.802 218.524 276.754 218.784 276.658C219.048 276.562 219.318 276.42 219.594 276.232L220.068 276.898C219.772 277.13 219.434 277.312 219.054 277.444C218.678 277.576 218.292 277.642 217.896 277.642C217.284 277.642 216.762 277.504 216.33 277.228C215.898 276.952 215.568 276.568 215.34 276.076C215.116 275.58 215.004 275.006 215.004 274.354C215.004 273.714 215.118 273.146 215.346 272.65C215.574 272.154 215.894 271.764 216.306 271.48C216.718 271.196 217.204 271.054 217.764 271.054C218.296 271.054 218.754 271.18 219.138 271.432C219.522 271.68 219.816 272.036 220.02 272.5C220.228 272.96 220.332 273.51 220.332 274.15C220.332 274.258 220.33 274.36 220.326 274.456C220.322 274.548 220.316 274.63 220.308 274.702H216.06ZM217.776 271.882C217.308 271.882 216.916 272.048 216.6 272.38C216.288 272.712 216.11 273.226 216.066 273.922H219.36C219.348 273.246 219.2 272.738 218.916 272.398C218.632 272.054 218.252 271.882 217.776 271.882ZM222.463 277.504V271.186H223.321L223.399 272.062C223.655 271.738 223.975 271.49 224.359 271.318C224.747 271.142 225.123 271.054 225.487 271.054C226.107 271.054 226.557 271.218 226.837 271.546C227.121 271.874 227.263 272.33 227.263 272.914V277.504H226.255V273.658C226.255 273.226 226.231 272.878 226.183 272.614C226.135 272.346 226.035 272.152 225.883 272.032C225.731 271.908 225.495 271.846 225.175 271.846C224.927 271.846 224.693 271.9 224.473 272.008C224.257 272.116 224.063 272.252 223.891 272.416C223.723 272.576 223.583 272.738 223.471 272.902V277.504H222.463ZM234.674 277.186C234.458 277.33 234.196 277.442 233.888 277.522C233.58 277.602 233.278 277.642 232.982 277.642C232.302 277.642 231.778 277.464 231.41 277.108C231.042 276.752 230.858 276.294 230.858 275.734V271.966H229.406V271.186H230.858V269.752L231.866 269.632V271.186H234.05L233.93 271.966H231.866V275.722C231.866 276.074 231.958 276.342 232.142 276.526C232.33 276.71 232.64 276.802 233.072 276.802C233.308 276.802 233.526 276.774 233.726 276.718C233.926 276.662 234.112 276.59 234.284 276.502L234.674 277.186Z" fill="black"/>
<path d="M215.906 220.425H188.305C187.037 220.425 186 219.388 186 218.12C186 216.852 187.037 215.815 188.305 215.815H215.906C217.174 215.815 218.211 216.852 218.211 218.12C218.211 219.388 217.174 220.425 215.906 220.425Z" fill="#99CFAC"/>
<path d="M210.029 234.543C207.781 234.543 205.534 234.197 203.402 233.563C202.192 233.16 201.501 231.892 201.904 230.682C202.307 229.472 203.575 228.78 204.785 229.184C206.456 229.702 208.242 229.99 210.029 229.99C217.866 229.99 224.665 224.977 226.912 217.486C227.258 216.276 228.583 215.585 229.793 215.93C231.004 216.276 231.695 217.601 231.349 218.812C228.411 228.204 219.882 234.543 210.029 234.543Z" fill="#49B881"/>
<path d="M231.695 208.727H204.094C202.826 208.727 201.789 207.69 201.789 206.423C201.789 205.155 202.826 204.118 204.094 204.118H231.695C232.963 204.118 234 205.155 234 206.423C234 207.69 232.963 208.727 231.695 208.727Z" fill="#99CFAC"/>
<path d="M190.898 208.727C190.668 208.727 190.437 208.67 190.207 208.612C188.997 208.267 188.305 206.941 188.651 205.731C191.59 196.339 200.118 190 210.029 190C212.276 190 214.524 190.346 216.656 190.98C217.866 191.383 218.557 192.651 218.154 193.861C217.75 195.071 216.483 195.762 215.273 195.359C213.602 194.84 211.815 194.552 210.029 194.552C202.192 194.552 195.393 199.565 193.145 207.056C192.8 208.094 191.878 208.727 190.898 208.727V208.727Z" fill="#49B881"/>
<path d="M223.685 199.969C224.958 199.969 225.99 198.937 225.99 197.664C225.99 196.391 224.958 195.359 223.685 195.359C222.412 195.359 221.38 196.391 221.38 197.664C221.38 198.937 222.412 199.969 223.685 199.969Z" fill="#99CFAC"/>
<path d="M196.314 229.241C197.587 229.241 198.619 228.209 198.619 226.936C198.619 225.663 197.587 224.631 196.314 224.631C195.041 224.631 194.01 225.663 194.01 226.936C194.01 228.209 195.041 229.241 196.314 229.241Z" fill="#99CFAC"/>
<path d="M285.885 244.738L284.625 253H283.257L282.309 246.766L281.355 253H279.957L278.793 244.738H279.837L280.719 251.854L281.709 245.698H282.987L283.929 251.854L284.919 244.738H285.885ZM287.932 250.198C287.952 250.686 288.046 251.086 288.214 251.398C288.382 251.706 288.604 251.934 288.88 252.082C289.156 252.226 289.456 252.298 289.78 252.298C290.104 252.298 290.396 252.25 290.656 252.154C290.92 252.058 291.19 251.916 291.466 251.728L291.94 252.394C291.644 252.626 291.306 252.808 290.926 252.94C290.55 253.072 290.164 253.138 289.768 253.138C289.156 253.138 288.634 253 288.202 252.724C287.77 252.448 287.44 252.064 287.212 251.572C286.988 251.076 286.876 250.502 286.876 249.85C286.876 249.21 286.99 248.642 287.218 248.146C287.446 247.65 287.766 247.26 288.178 246.976C288.59 246.692 289.076 246.55 289.636 246.55C290.168 246.55 290.626 246.676 291.01 246.928C291.394 247.176 291.688 247.532 291.892 247.996C292.1 248.456 292.204 249.006 292.204 249.646C292.204 249.754 292.202 249.856 292.198 249.952C292.194 250.044 292.188 250.126 292.18 250.198H287.932ZM289.648 247.378C289.18 247.378 288.788 247.544 288.472 247.876C288.16 248.208 287.982 248.722 287.938 249.418H291.232C291.22 248.742 291.072 248.234 290.788 247.894C290.504 247.55 290.124 247.378 289.648 247.378ZM295.343 247.504C295.575 247.2 295.841 246.966 296.141 246.802C296.445 246.634 296.779 246.55 297.143 246.55C297.707 246.55 298.163 246.686 298.511 246.958C298.859 247.23 299.113 247.614 299.273 248.11C299.433 248.602 299.513 249.178 299.513 249.838C299.513 250.474 299.417 251.042 299.225 251.542C299.033 252.038 298.751 252.428 298.379 252.712C298.011 252.996 297.555 253.138 297.011 253.138C296.279 253.138 295.705 252.874 295.289 252.346L295.217 253H294.335V244.138L295.343 244.012V247.504ZM296.771 252.322C297.299 252.322 297.705 252.118 297.989 251.71C298.273 251.302 298.415 250.676 298.415 249.832C298.415 249.28 298.359 248.822 298.247 248.458C298.135 248.09 297.967 247.816 297.743 247.636C297.523 247.452 297.251 247.36 296.927 247.36C296.575 247.36 296.265 247.466 295.997 247.678C295.733 247.886 295.515 248.118 295.343 248.374V251.506C295.507 251.754 295.713 251.952 295.961 252.1C296.213 252.248 296.483 252.322 296.771 252.322ZM302.539 244.042V247.546C302.787 247.214 303.091 246.966 303.451 246.802C303.815 246.634 304.183 246.55 304.555 246.55C305.171 246.55 305.621 246.714 305.905 247.042C306.189 247.37 306.331 247.826 306.331 248.41V253H305.323V248.434C305.323 248.054 305.235 247.778 305.059 247.606C304.883 247.43 304.607 247.342 304.231 247.342C303.991 247.342 303.763 247.396 303.547 247.504C303.331 247.612 303.137 247.746 302.965 247.906C302.793 248.066 302.651 248.23 302.539 248.398V253H301.531V244.15L302.539 244.042ZM311.132 246.55C311.728 246.55 312.226 246.686 312.626 246.958C313.03 247.226 313.332 247.606 313.532 248.098C313.736 248.59 313.838 249.17 313.838 249.838C313.838 250.482 313.734 251.052 313.526 251.548C313.318 252.044 313.012 252.434 312.608 252.718C312.208 252.998 311.712 253.138 311.12 253.138C310.528 253.138 310.03 253.002 309.626 252.73C309.222 252.458 308.916 252.076 308.708 251.584C308.504 251.088 308.402 250.51 308.402 249.85C308.402 249.198 308.506 248.624 308.714 248.128C308.922 247.632 309.228 247.246 309.632 246.97C310.04 246.69 310.54 246.55 311.132 246.55ZM311.132 247.372C310.588 247.372 310.176 247.574 309.896 247.978C309.62 248.378 309.482 249.002 309.482 249.85C309.482 250.682 309.618 251.3 309.89 251.704C310.166 252.108 310.576 252.31 311.12 252.31C311.664 252.31 312.072 252.108 312.344 251.704C312.62 251.3 312.758 250.678 312.758 249.838C312.758 248.998 312.622 248.378 312.35 247.978C312.078 247.574 311.672 247.372 311.132 247.372ZM318.327 246.55C318.923 246.55 319.421 246.686 319.821 246.958C320.225 247.226 320.527 247.606 320.727 248.098C320.931 248.59 321.033 249.17 321.033 249.838C321.033 250.482 320.929 251.052 320.721 251.548C320.513 252.044 320.207 252.434 319.803 252.718C319.403 252.998 318.907 253.138 318.315 253.138C317.723 253.138 317.225 253.002 316.821 252.73C316.417 252.458 316.111 252.076 315.903 251.584C315.699 251.088 315.597 250.51 315.597 249.85C315.597 249.198 315.701 248.624 315.909 248.128C316.117 247.632 316.423 247.246 316.827 246.97C317.235 246.69 317.735 246.55 318.327 246.55ZM318.327 247.372C317.783 247.372 317.371 247.574 317.091 247.978C316.815 248.378 316.677 249.002 316.677 249.85C316.677 250.682 316.813 251.3 317.085 251.704C317.361 252.108 317.771 252.31 318.315 252.31C318.859 252.31 319.267 252.108 319.539 251.704C319.815 251.3 319.953 250.678 319.953 249.838C319.953 248.998 319.817 248.378 319.545 247.978C319.273 247.574 318.867 247.372 318.327 247.372ZM328.409 246.682L325.565 249.526L328.739 253H327.413L324.305 249.55L327.101 246.682H328.409ZM324.191 244.012V253H323.183V244.138L324.191 244.012ZM332.46 252.304C332.944 252.304 333.326 252.214 333.606 252.034C333.89 251.85 334.032 251.606 334.032 251.302C334.032 251.11 333.996 250.944 333.924 250.804C333.856 250.664 333.714 250.538 333.498 250.426C333.282 250.314 332.95 250.202 332.502 250.09C332.066 249.982 331.686 249.858 331.362 249.718C331.042 249.574 330.792 249.388 330.612 249.16C330.436 248.932 330.348 248.636 330.348 248.272C330.348 247.916 330.448 247.61 330.648 247.354C330.852 247.094 331.134 246.896 331.494 246.76C331.854 246.62 332.272 246.55 332.748 246.55C333.256 246.55 333.698 246.618 334.074 246.754C334.454 246.886 334.776 247.05 335.04 247.246L334.596 247.93C334.356 247.766 334.092 247.632 333.804 247.528C333.516 247.42 333.168 247.366 332.76 247.366C332.264 247.366 331.912 247.444 331.704 247.6C331.496 247.752 331.392 247.95 331.392 248.194C331.392 248.378 331.442 248.532 331.542 248.656C331.646 248.776 331.82 248.886 332.064 248.986C332.308 249.082 332.644 249.188 333.072 249.304C333.484 249.412 333.842 249.542 334.146 249.694C334.454 249.846 334.694 250.046 334.866 250.294C335.038 250.542 335.124 250.862 335.124 251.254C335.124 251.702 334.996 252.066 334.74 252.346C334.484 252.622 334.152 252.824 333.744 252.952C333.34 253.076 332.912 253.138 332.46 253.138C331.888 253.138 331.4 253.056 330.996 252.892C330.596 252.724 330.26 252.522 329.988 252.286L330.564 251.62C330.812 251.824 331.096 251.99 331.416 252.118C331.74 252.242 332.088 252.304 332.46 252.304Z" fill="black"/>
<g filter="url(#filter6_d_0_1)">
<path d="M307.705 207.684C305.604 211.207 303.62 214.65 301.558 218.016C301.052 218.877 300.78 219.581 301.208 220.716C302.375 223.769 300.741 226.743 297.667 227.565C294.788 228.308 291.948 226.43 291.365 223.299C290.859 220.56 292.999 217.82 295.994 217.39C296.267 217.351 296.5 217.351 296.928 217.311C298.406 214.807 299.924 212.263 301.519 209.563C298.64 206.667 296.889 203.301 297.278 199.114C297.551 196.14 298.718 193.596 300.819 191.483C304.865 187.452 311.051 186.826 315.836 189.918C320.427 192.892 322.528 198.644 320.738 203.575C319.376 203.223 318.015 202.832 316.536 202.44C317.081 199.701 316.692 197.236 314.824 195.122C313.618 193.714 312.062 193.009 310.272 192.735C306.732 192.187 303.231 194.496 302.18 198.018C301.052 202.01 302.842 205.258 307.705 207.684Z" fill="#C73A63"/>
<path d="M313.657 203.536C315.136 206.158 316.614 208.78 318.092 211.402C325.562 209.054 331.203 213.241 333.226 217.703C335.677 223.103 334.004 229.482 329.18 232.808C324.239 236.213 318.015 235.626 313.657 231.243C314.785 230.304 315.875 229.365 317.081 228.347C321.399 231.165 325.173 231.008 327.974 227.682C330.347 224.825 330.308 220.599 327.857 217.82C325.017 214.611 321.244 214.533 316.653 217.585C314.747 214.181 312.801 210.815 310.973 207.41C310.35 206.276 309.65 205.571 308.249 205.336C305.915 204.945 304.398 202.91 304.32 200.64C304.242 198.41 305.526 196.375 307.588 195.592C309.611 194.809 311.984 195.435 313.385 197.197C314.513 198.605 314.863 200.21 314.28 201.971C314.085 202.48 313.891 202.949 313.657 203.536Z" fill="#4B4B4B"/>
<path d="M317.159 224.864C314.202 224.864 311.245 224.864 308.133 224.864C307.277 228.426 305.409 231.321 302.18 233.161C299.69 234.57 297.006 235.078 294.127 234.609C288.836 233.748 284.556 228.973 284.167 223.612C283.778 217.507 287.941 212.068 293.466 210.854C293.855 212.263 294.244 213.672 294.633 215.081C289.536 217.703 287.785 220.99 289.186 225.099C290.431 228.739 294.01 230.695 297.862 229.952C301.83 229.169 303.814 225.882 303.581 220.56C307.316 220.56 311.089 220.52 314.824 220.56C316.303 220.599 317.431 220.442 318.52 219.151C320.349 216.998 323.656 217.194 325.64 219.229C327.624 221.303 327.546 224.59 325.445 226.586C323.422 228.504 320.193 228.386 318.287 226.351C317.859 225.882 317.548 225.373 317.159 224.864Z" fill="#4A4A4A"/>
</g>
<g clip-path="url(#clip1_0_1)">
<path d="M472.124 215.886C471.929 216.163 471.765 216.39 471.606 216.62C469.081 220.322 466.557 224.023 464.033 227.724C461.685 231.166 459.335 234.607 456.983 238.045C456.944 238.099 456.894 238.144 456.836 238.178C456.778 238.211 456.714 238.232 456.648 238.24C453.326 238.211 450.006 238.175 446.686 238.132C446.649 238.132 446.611 238.121 446.539 238.11C446.566 238.041 446.597 237.974 446.632 237.908C448.949 234.331 451.265 230.755 453.582 227.18C455.636 224.011 457.692 220.843 459.749 217.676C462.029 214.157 464.308 210.635 466.585 207.111C466.921 206.592 467.271 206.082 467.59 205.553C467.672 205.411 467.697 205.243 467.659 205.084C467.045 203.136 466.419 201.192 465.794 199.248C465.527 198.416 465.247 197.588 464.997 196.751C464.916 196.482 464.782 196.4 464.506 196.401C462.419 196.41 460.345 196.407 458.264 196.407C457.869 196.407 457.868 196.407 457.868 196.018C457.868 193.471 457.868 190.923 457.86 188.375C457.86 188.092 457.954 188.028 458.221 188.028C462.41 188.035 466.6 188.035 470.79 188.028C470.887 188.016 470.986 188.039 471.067 188.094C471.148 188.148 471.207 188.231 471.232 188.325C473.441 193.86 475.651 199.392 477.86 204.923C480.437 211.373 483.015 217.824 485.593 224.275C486.393 226.278 487.199 228.279 487.991 230.286C488.085 230.531 488.184 230.577 488.432 230.501C490.627 229.825 492.828 229.167 495.023 228.49C495.299 228.405 495.4 228.462 495.486 228.735C496.234 231.078 496.998 233.417 497.756 235.758C497.782 235.839 497.802 235.921 497.832 236.033C497.675 236.09 497.528 236.155 497.377 236.197C492.386 237.772 487.397 239.348 482.411 240.925C482.173 241 482.102 240.919 482.022 240.72C480.499 236.877 478.973 233.035 477.443 229.194C475.946 225.434 474.449 221.674 472.95 217.913C472.726 217.348 472.505 216.781 472.28 216.216C472.245 216.12 472.195 216.035 472.124 215.886V215.886Z" fill="#FA7E14"/>
</g>
<g filter="url(#filter7_dddddd_0_1)">
<path d="M733 212C733 175.063 762.943 145.12 799.88 145.12H986.56C994.27 145.12 1000.52 151.37 1000.52 159.08V264.92C1000.52 272.63 994.27 278.88 986.56 278.88H799.88C762.943 278.88 733 248.937 733 212V212Z" fill="black"/>
<path d="M799.88 146.62H986.56C993.442 146.62 999.02 152.198 999.02 159.08V264.92C999.02 271.802 993.442 277.38 986.56 277.38H799.88C763.772 277.38 734.5 248.108 734.5 212C734.5 175.892 763.772 146.62 799.88 146.62Z" stroke="url(#paint6_linear_0_1)" stroke-width="3"/>
</g>
<path d="M812.189 221.176C813.215 222.303 814.295 223.37 815.415 224.396C815.556 224.557 815.69 224.732 815.844 224.886C817.756 226.797 819.681 228.689 821.586 230.607C822.492 231.526 823.471 232.378 824.269 233.384H810.384C810.243 233.217 810.109 233.042 809.955 232.888C807.679 230.625 805.4 228.356 803.12 226.08C795.352 218.335 787.582 210.589 779.81 202.844C777.999 201.04 776.242 199.189 774.357 197.478V191.394C776.779 191.394 779.207 191.394 781.635 191.394C781.828 191.387 782.02 191.422 782.198 191.496C782.377 191.57 782.537 191.682 782.668 191.823C789.076 198.209 795.489 204.595 801.906 210.981C802.031 211.104 802.163 211.22 802.301 211.329C804.186 213.228 806.064 215.139 807.963 217.031C809.358 218.426 810.78 219.795 812.189 221.176Z" fill="white"/>
<path d="M824.29 233.383C823.471 232.377 822.492 231.525 821.607 230.606C819.702 228.688 817.776 226.796 815.865 224.885C815.71 224.73 815.576 224.556 815.435 224.395C815.435 224.106 815.435 223.825 815.435 223.536C815.435 213.752 815.435 203.963 815.435 194.17C815.427 193.651 815.619 193.149 815.972 192.768C816.347 192.257 816.853 191.857 817.436 191.609C818.019 191.361 818.658 191.275 819.286 191.359C821.063 191.494 822.861 191.413 824.652 191.359C825.202 191.359 825.323 191.507 825.323 192.03C825.323 201.85 825.323 211.655 825.323 221.443C825.323 225.16 825.323 228.878 825.323 232.598C825.323 232.86 825.323 233.122 825.363 233.383H824.29Z" fill="white" fill-opacity="0.5"/>
<path d="M824.29 233.383C823.471 232.377 822.492 231.525 821.607 230.606C819.702 228.688 817.776 226.796 815.865 224.885C815.71 224.73 815.576 224.556 815.435 224.395C815.435 224.106 815.435 223.825 815.435 223.536C815.435 213.752 815.435 203.963 815.435 194.17C815.427 193.651 815.619 193.149 815.972 192.768C816.347 192.257 816.853 191.857 817.436 191.609C818.019 191.361 818.658 191.275 819.286 191.359C821.063 191.494 822.861 191.413 824.652 191.359C825.202 191.359 825.323 191.507 825.323 192.03C825.323 201.85 825.323 211.655 825.323 221.443C825.323 225.16 825.323 228.878 825.323 232.598C825.323 232.86 825.323 233.122 825.363 233.383H824.29Z" fill="white" fill-opacity="0.5"/>
<path d="M774.344 215.949V202.084C774.552 202.131 774.659 202.312 774.793 202.453L779.08 206.686C786.977 214.561 794.874 222.436 802.771 230.31C803.777 231.317 804.844 232.276 805.749 233.383H791.838C791.838 233.181 791.643 233.094 791.522 232.973C786.662 228.117 781.792 223.265 776.913 218.418C776.104 217.547 775.246 216.723 774.344 215.949V215.949Z" fill="white"/>
<path d="M787.203 233.382C783.064 233.382 778.925 233.382 774.787 233.382C774.418 233.382 774.344 233.308 774.344 232.946C774.344 228.828 774.344 224.702 774.344 220.571C774.619 220.571 774.733 220.832 774.901 220.993C778.867 224.933 782.827 228.884 786.78 232.846C786.941 232.986 787.189 233.101 787.203 233.382Z" fill="white"/>
<path d="M812.19 221.175C810.781 219.793 809.359 218.425 807.964 217.029C806.066 215.138 804.187 213.226 802.303 211.328C802.303 209.852 802.303 208.383 802.303 206.907C802.288 206.757 802.307 206.605 802.358 206.462C802.409 206.319 802.491 206.19 802.598 206.082L811.834 196.893C811.908 196.819 812.002 196.759 812.069 196.698C812.277 196.772 812.217 196.926 812.217 197.04C812.217 204.978 812.217 212.913 812.217 220.846C812.215 220.956 812.206 221.066 812.19 221.175V221.175Z" fill="white" fill-opacity="0.5"/>
<path d="M812.19 221.175C810.781 219.793 809.359 218.425 807.964 217.029C806.066 215.138 804.187 213.226 802.303 211.328C802.303 209.852 802.303 208.383 802.303 206.907C802.288 206.757 802.307 206.605 802.358 206.462C802.409 206.319 802.491 206.19 802.598 206.082L811.834 196.893C811.908 196.819 812.002 196.759 812.069 196.698C812.277 196.772 812.217 196.926 812.217 197.04C812.217 204.978 812.217 212.913 812.217 220.846C812.215 220.956 812.206 221.066 812.19 221.175V221.175Z" fill="white" fill-opacity="0.5"/>
<path d="M824.914 304.536L825.538 315.552H824.202L823.858 309.8C823.842 309.411 823.826 309.016 823.81 308.616C823.794 308.216 823.784 307.832 823.778 307.464C823.773 307.096 823.77 306.768 823.77 306.48C823.77 306.192 823.77 305.968 823.77 305.808L821.914 313.576H820.522L818.53 305.808C818.536 305.963 818.541 306.192 818.546 306.496C818.552 306.795 818.554 307.133 818.554 307.512C818.56 307.891 818.557 308.28 818.546 308.68C818.541 309.075 818.53 309.443 818.514 309.784L818.218 315.552H816.914L817.538 304.536H819.474L821.258 312.08L822.962 304.536H824.914ZM833.66 313.712C833.66 314.048 833.716 314.293 833.828 314.448C833.94 314.603 834.113 314.717 834.348 314.792L834.02 315.736C833.657 315.688 833.34 315.573 833.068 315.392C832.796 315.205 832.599 314.925 832.476 314.552C832.172 314.941 831.793 315.237 831.34 315.44C830.887 315.637 830.385 315.736 829.836 315.736C828.993 315.736 828.329 315.499 827.844 315.024C827.359 314.549 827.116 313.92 827.116 313.136C827.116 312.267 827.455 311.6 828.132 311.136C828.809 310.672 829.788 310.44 831.068 310.44H832.308V309.736C832.308 309.128 832.129 308.699 831.772 308.448C831.42 308.192 830.929 308.064 830.3 308.064C830.023 308.064 829.697 308.099 829.324 308.168C828.951 308.232 828.545 308.341 828.108 308.496L827.756 307.48C828.273 307.288 828.759 307.152 829.212 307.072C829.665 306.992 830.097 306.952 830.508 306.952C831.559 306.952 832.345 307.197 832.868 307.688C833.396 308.173 833.66 308.835 833.66 309.672V313.712ZM830.18 314.712C830.596 314.712 830.993 314.608 831.372 314.4C831.751 314.187 832.063 313.893 832.308 313.52V311.352H831.092C830.164 311.352 829.508 311.512 829.124 311.832C828.745 312.152 828.556 312.581 828.556 313.12C828.556 313.643 828.689 314.04 828.956 314.312C829.228 314.579 829.636 314.712 830.18 314.712ZM843.91 315.128C843.622 315.32 843.273 315.469 842.862 315.576C842.451 315.683 842.049 315.736 841.654 315.736C840.747 315.736 840.049 315.499 839.558 315.024C839.067 314.549 838.822 313.939 838.822 313.192V308.168H836.886V307.128H838.822V305.216L840.166 305.056V307.128H843.078L842.918 308.168H840.166V313.176C840.166 313.645 840.289 314.003 840.534 314.248C840.785 314.493 841.198 314.616 841.774 314.616C842.089 314.616 842.379 314.579 842.646 314.504C842.913 314.429 843.161 314.333 843.39 314.216L843.91 315.128ZM847.872 311.816C847.898 312.467 848.024 313 848.248 313.416C848.472 313.827 848.768 314.131 849.136 314.328C849.504 314.52 849.904 314.616 850.336 314.616C850.768 314.616 851.157 314.552 851.504 314.424C851.856 314.296 852.216 314.107 852.584 313.856L853.216 314.744C852.821 315.053 852.37 315.296 851.864 315.472C851.362 315.648 850.848 315.736 850.32 315.736C849.504 315.736 848.808 315.552 848.232 315.184C847.656 314.816 847.216 314.304 846.912 313.648C846.613 312.987 846.464 312.221 846.464 311.352C846.464 310.499 846.616 309.741 846.92 309.08C847.224 308.419 847.65 307.899 848.2 307.52C848.749 307.141 849.397 306.952 850.144 306.952C850.853 306.952 851.464 307.12 851.976 307.456C852.488 307.787 852.88 308.261 853.152 308.88C853.429 309.493 853.568 310.227 853.568 311.08C853.568 311.224 853.565 311.36 853.56 311.488C853.554 311.611 853.546 311.72 853.536 311.816H847.872ZM850.16 308.056C849.536 308.056 849.013 308.277 848.592 308.72C848.176 309.163 847.938 309.848 847.88 310.776H852.272C852.256 309.875 852.058 309.197 851.68 308.744C851.301 308.285 850.794 308.056 850.16 308.056ZM856.489 315.552V314.52H857.801V308.16H856.489V307.128H858.825L859.073 309.12C859.399 308.427 859.793 307.891 860.257 307.512C860.721 307.133 861.335 306.944 862.097 306.944C862.332 306.944 862.54 306.963 862.721 307C862.908 307.032 863.097 307.075 863.289 307.128L862.897 308.328C862.721 308.28 862.561 308.245 862.417 308.224C862.273 308.197 862.108 308.184 861.921 308.184C861.276 308.184 860.721 308.413 860.257 308.872C859.793 309.331 859.423 310.024 859.145 310.952V314.52H860.857V315.552H856.489ZM861.993 309.976V308.144L862.129 307.128H863.289L863.097 309.976H861.993ZM870.267 307.128V314.488H872.643V315.552H866.323V314.488H868.923V308.192H866.403V307.128H870.267ZM869.195 303.184C869.494 303.184 869.731 303.275 869.907 303.456C870.088 303.637 870.179 303.859 870.179 304.12C870.179 304.392 870.088 304.621 869.907 304.808C869.731 304.989 869.494 305.08 869.195 305.08C868.912 305.08 868.68 304.989 868.499 304.808C868.318 304.621 868.227 304.392 868.227 304.12C868.227 303.859 868.318 303.637 868.499 303.456C868.68 303.275 868.912 303.184 869.195 303.184ZM881.629 313.712C881.629 314.048 881.685 314.293 881.797 314.448C881.909 314.603 882.082 314.717 882.317 314.792L881.989 315.736C881.626 315.688 881.309 315.573 881.037 315.392C880.765 315.205 880.568 314.925 880.445 314.552C880.141 314.941 879.762 315.237 879.309 315.44C878.856 315.637 878.354 315.736 877.805 315.736C876.962 315.736 876.298 315.499 875.813 315.024C875.328 314.549 875.085 313.92 875.085 313.136C875.085 312.267 875.424 311.6 876.101 311.136C876.778 310.672 877.757 310.44 879.037 310.44H880.277V309.736C880.277 309.128 880.098 308.699 879.741 308.448C879.389 308.192 878.898 308.064 878.269 308.064C877.992 308.064 877.666 308.099 877.293 308.168C876.92 308.232 876.514 308.341 876.077 308.496L875.725 307.48C876.242 307.288 876.728 307.152 877.181 307.072C877.634 306.992 878.066 306.952 878.477 306.952C879.528 306.952 880.314 307.197 880.837 307.688C881.365 308.173 881.629 308.835 881.629 309.672V313.712ZM878.149 314.712C878.565 314.712 878.962 314.608 879.341 314.4C879.72 314.187 880.032 313.893 880.277 313.52V311.352H879.061C878.133 311.352 877.477 311.512 877.093 311.832C876.714 312.152 876.525 312.581 876.525 313.12C876.525 313.643 876.658 314.04 876.925 314.312C877.197 314.579 877.605 314.712 878.149 314.712ZM888.471 303.736V313.472C888.471 313.888 888.599 314.184 888.855 314.36C889.116 314.531 889.452 314.616 889.863 314.616C890.119 314.616 890.361 314.589 890.591 314.536C890.82 314.483 891.049 314.411 891.279 314.32L891.639 315.304C891.409 315.416 891.124 315.515 890.783 315.6C890.447 315.691 890.065 315.736 889.639 315.736C888.892 315.736 888.287 315.531 887.823 315.12C887.359 314.704 887.127 314.131 887.127 313.4V304.8H884.543V303.736H888.471ZM899.048 307.128V314.488H901.424V315.552H895.104V314.488H897.704V308.192H895.184V307.128H899.048ZM897.976 303.184C898.275 303.184 898.512 303.275 898.688 303.456C898.87 303.637 898.96 303.859 898.96 304.12C898.96 304.392 898.87 304.621 898.688 304.808C898.512 304.989 898.275 305.08 897.976 305.08C897.694 305.08 897.462 304.989 897.28 304.808C897.099 304.621 897.008 304.392 897.008 304.12C897.008 303.859 897.099 303.637 897.28 303.456C897.462 303.275 897.694 303.184 897.976 303.184ZM906.058 314.408H910.746L910.57 315.552H904.41V314.536L909.082 308.296H904.778V307.128H910.698V308.168L906.058 314.408ZM915.028 311.816C915.055 312.467 915.18 313 915.404 313.416C915.628 313.827 915.924 314.131 916.292 314.328C916.66 314.52 917.06 314.616 917.492 314.616C917.924 314.616 918.313 314.552 918.66 314.424C919.012 314.296 919.372 314.107 919.74 313.856L920.372 314.744C919.977 315.053 919.527 315.296 919.02 315.472C918.519 315.648 918.004 315.736 917.476 315.736C916.66 315.736 915.964 315.552 915.388 315.184C914.812 314.816 914.372 314.304 914.068 313.648C913.769 312.987 913.62 312.221 913.62 311.352C913.62 310.499 913.772 309.741 914.076 309.08C914.38 308.419 914.807 307.899 915.356 307.52C915.905 307.141 916.553 306.952 917.3 306.952C918.009 306.952 918.62 307.12 919.132 307.456C919.644 307.787 920.036 308.261 920.308 308.88C920.585 309.493 920.724 310.227 920.724 311.08C920.724 311.224 920.721 311.36 920.716 311.488C920.711 311.611 920.703 311.72 920.692 311.816H915.028ZM917.316 308.056C916.692 308.056 916.169 308.277 915.748 308.72C915.332 309.163 915.095 309.848 915.036 310.776H919.428C919.412 309.875 919.215 309.197 918.836 308.744C918.457 308.285 917.951 308.056 917.316 308.056Z" fill="black"/>
<rect x="863.112" y="174.304" width="24.32" height="9.728" fill="#C4C4C4" fill-opacity="0.75"/>
<rect x="891.08" y="174.304" width="24.32" height="9.728" fill="#C4C4C4" fill-opacity="0.75"/>
<rect x="919.048" y="174.304" width="24.32" height="9.728" fill="#C4C4C4" fill-opacity="0.75"/>
<rect x="947.016" y="174.304" width="24.32" height="9.728" fill="#C4C4C4" fill-opacity="0.75"/>
<rect x="863.112" y="187.68" width="24.32" height="9.728" fill="#C4C4C4" fill-opacity="0.5"/>
<rect x="891.08" y="187.68" width="24.32" height="9.728" fill="#C4C4C4" fill-opacity="0.25"/>
<rect x="919.048" y="187.68" width="24.32" height="9.728" fill="#C4C4C4" fill-opacity="0.25"/>
<rect x="947.016" y="187.68" width="24.32" height="9.728" fill="#C4C4C4" fill-opacity="0.25"/>
<rect x="863.112" y="201.056" width="24.32" height="9.728" fill="#C4C4C4" fill-opacity="0.5"/>
<rect x="891.08" y="201.056" width="24.32" height="9.728" fill="#C4C4C4" fill-opacity="0.25"/>
<rect x="919.048" y="201.056" width="24.32" height="9.728" fill="#C4C4C4" fill-opacity="0.25"/>
<rect x="947.016" y="201.056" width="24.32" height="9.728" fill="#C4C4C4" fill-opacity="0.25"/>
<rect x="863.112" y="214.432" width="24.32" height="9.728" fill="#C4C4C4" fill-opacity="0.5"/>
<rect x="891.08" y="214.432" width="24.32" height="9.728" fill="#C4C4C4" fill-opacity="0.25"/>
<rect x="919.048" y="214.432" width="24.32" height="9.728" fill="#C4C4C4" fill-opacity="0.25"/>
<rect x="947.016" y="214.432" width="24.32" height="9.728" fill="#C4C4C4" fill-opacity="0.25"/>
<rect x="863.112" y="227.808" width="24.32" height="9.728" fill="#C4C4C4" fill-opacity="0.5"/>
<rect x="891.08" y="227.808" width="24.32" height="9.728" fill="#C4C4C4" fill-opacity="0.25"/>
<rect x="919.048" y="227.808" width="24.32" height="9.728" fill="#C4C4C4" fill-opacity="0.25"/>
<rect x="947.016" y="227.808" width="24.32" height="9.728" fill="#C4C4C4" fill-opacity="0.25"/>
<rect x="863.112" y="241.184" width="24.32" height="9.728" fill="#C4C4C4" fill-opacity="0.5"/>
<rect x="891.08" y="241.184" width="24.32" height="9.728" fill="#C4C4C4" fill-opacity="0.25"/>
<rect x="919.048" y="241.184" width="24.32" height="9.728" fill="#C4C4C4" fill-opacity="0.25"/>
<rect x="947.016" y="241.184" width="24.32" height="9.728" fill="#C4C4C4" fill-opacity="0.25"/>
<defs>
<filter id="filter0_d_0_1" x="252" y="204" width="112" height="20" filterUnits="userSpaceOnUse" color-interpolation-filters="sRGB">
<feFlood flood-opacity="0" result="BackgroundImageFix"/>
<feColorMatrix in="SourceAlpha" type="matrix" values="0 0 0 0 0 0 0 0 0 0 0 0 0 0 0 0 0 0 127 0" result="hardAlpha"/>
<feOffset/>
<feGaussianBlur stdDeviation="2"/>
<feComposite in2="hardAlpha" operator="out"/>
<feColorMatrix type="matrix" values="0 0 0 0 0.34902 0 0 0 0 0.764706 0 0 0 0 1 0 0 0 0.5 0"/>
<feBlend mode="normal" in2="BackgroundImageFix" result="effect1_dropShadow_0_1"/>
<feBlend mode="normal" in="SourceGraphic" in2="effect1_dropShadow_0_1" result="shape"/>
</filter>
<filter id="filter1_d_0_1" x="512" y="204" width="71" height="20" filterUnits="userSpaceOnUse" color-interpolation-filters="sRGB">
<feFlood flood-opacity="0" result="BackgroundImageFix"/>
<feColorMatrix in="SourceAlpha" type="matrix" values="0 0 0 0 0 0 0 0 0 0 0 0 0 0 0 0 0 0 127 0" result="hardAlpha"/>
<feOffset/>
<feGaussianBlur stdDeviation="2"/>
<feComposite in2="hardAlpha" operator="out"/>
<feColorMatrix type="matrix" values="0 0 0 0 0.34902 0 0 0 0 0.764706 0 0 0 0 1 0 0 0 0.5 0"/>
<feBlend mode="normal" in2="BackgroundImageFix" result="effect1_dropShadow_0_1"/>
<feBlend mode="normal" in="SourceGraphic" in2="effect1_dropShadow_0_1" result="shape"/>
</filter>
<filter id="filter2_dddddd_0_1" x="195.391" y="22.3906" width="485.219" height="420.219" filterUnits="userSpaceOnUse" color-interpolation-filters="sRGB">
<feFlood flood-opacity="0" result="BackgroundImageFix"/>
<feColorMatrix in="SourceAlpha" type="matrix" values="0 0 0 0 0 0 0 0 0 0 0 0 0 0 0 0 0 0 127 0" result="hardAlpha"/>
<feOffset dy="3.86104"/>
<feGaussianBlur stdDeviation="2.27758"/>
<feColorMatrix type="matrix" values="0 0 0 0 0.34902 0 0 0 0 0.764706 0 0 0 0 1 0 0 0 0.0449833 0"/>
<feBlend mode="normal" in2="BackgroundImageFix" result="effect1_dropShadow_0_1"/>
<feColorMatrix in="SourceAlpha" type="matrix" values="0 0 0 0 0 0 0 0 0 0 0 0 0 0 0 0 0 0 127 0" result="hardAlpha"/>
<feOffset dy="9.27862"/>
<feGaussianBlur stdDeviation="5.47335"/>
<feColorMatrix type="matrix" values="0 0 0 0 0.34902 0 0 0 0 0.764706 0 0 0 0 1 0 0 0 0.0646228 0"/>
<feBlend mode="normal" in2="effect1_dropShadow_0_1" result="effect2_dropShadow_0_1"/>
<feColorMatrix in="SourceAlpha" type="matrix" values="0 0 0 0 0 0 0 0 0 0 0 0 0 0 0 0 0 0 127 0" result="hardAlpha"/>
<feOffset dy="17.4708"/>
<feGaussianBlur stdDeviation="10.3058"/>
<feColorMatrix type="matrix" values="0 0 0 0 0.34902 0 0 0 0 0.764706 0 0 0 0 1 0 0 0 0.08 0"/>
<feBlend mode="normal" in2="effect2_dropShadow_0_1" result="effect3_dropShadow_0_1"/>
<feColorMatrix in="SourceAlpha" type="matrix" values="0 0 0 0 0 0 0 0 0 0 0 0 0 0 0 0 0 0 127 0" result="hardAlpha"/>
<feOffset dy="10"/>
<feGaussianBlur stdDeviation="18.3838"/>
<feColorMatrix type="matrix" values="0 0 0 0 0.34902 0 0 0 0 0.764706 0 0 0 0 1 0 0 0 0.0953772 0"/>
<feBlend mode="normal" in2="effect3_dropShadow_0_1" result="effect4_dropShadow_0_1"/>
<feColorMatrix in="SourceAlpha" type="matrix" values="0 0 0 0 0 0 0 0 0 0 0 0 0 0 0 0 0 0 127 0" result="hardAlpha"/>
<feOffset dy="10"/>
<feGaussianBlur stdDeviation="34.3849"/>
<feColorMatrix type="matrix" values="0 0 0 0 0.34902 0 0 0 0 0.764706 0 0 0 0 1 0 0 0 0.115 0"/>
<feBlend mode="normal" in2="effect4_dropShadow_0_1" result="effect5_dropShadow_0_1"/>
<feColorMatrix in="SourceAlpha" type="matrix" values="0 0 0 0 0 0 0 0 0 0 0 0 0 0 0 0 0 0 127 0" result="hardAlpha"/>
<feOffset dy="20"/>
<feGaussianBlur stdDeviation="82.3047"/>
<feColorMatrix type="matrix" values="0 0 0 0 0.34902 0 0 0 0 0.764706 0 0 0 0 1 0 0 0 0.16 0"/>
<feBlend mode="normal" in2="effect5_dropShadow_0_1" result="effect6_dropShadow_0_1"/>
<feBlend mode="normal" in="SourceGraphic" in2="effect6_dropShadow_0_1" result="shape"/>
</filter>
<filter id="filter3_d_0_1" x="665.216" y="201" width="73" height="20" filterUnits="userSpaceOnUse" color-interpolation-filters="sRGB">
<feFlood flood-opacity="0" result="BackgroundImageFix"/>
<feColorMatrix in="SourceAlpha" type="matrix" values="0 0 0 0 0 0 0 0 0 0 0 0 0 0 0 0 0 0 127 0" result="hardAlpha"/>
<feOffset/>
<feGaussianBlur stdDeviation="2"/>
<feComposite in2="hardAlpha" operator="out"/>
<feColorMatrix type="matrix" values="0 0 0 0 0.34902 0 0 0 0 0.764706 0 0 0 0 1 0 0 0 0.5 0"/>
<feBlend mode="normal" in2="BackgroundImageFix" result="effect1_dropShadow_0_1"/>
<feBlend mode="normal" in="SourceGraphic" in2="effect1_dropShadow_0_1" result="shape"/>
</filter>
<filter id="filter4_dddddd_0_1" x="414.391" y="22.3906" width="420.419" height="420.419" filterUnits="userSpaceOnUse" color-interpolation-filters="sRGB">
<feFlood flood-opacity="0" result="BackgroundImageFix"/>
<feColorMatrix in="SourceAlpha" type="matrix" values="0 0 0 0 0 0 0 0 0 0 0 0 0 0 0 0 0 0 127 0" result="hardAlpha"/>
<feOffset dy="3.86104"/>
<feGaussianBlur stdDeviation="2.27758"/>
<feColorMatrix type="matrix" values="0 0 0 0 0.34902 0 0 0 0 0.764706 0 0 0 0 1 0 0 0 0.0449833 0"/>
<feBlend mode="normal" in2="BackgroundImageFix" result="effect1_dropShadow_0_1"/>
<feColorMatrix in="SourceAlpha" type="matrix" values="0 0 0 0 0 0 0 0 0 0 0 0 0 0 0 0 0 0 127 0" result="hardAlpha"/>
<feOffset dy="9.27862"/>
<feGaussianBlur stdDeviation="5.47335"/>
<feColorMatrix type="matrix" values="0 0 0 0 0.34902 0 0 0 0 0.764706 0 0 0 0 1 0 0 0 0.0646228 0"/>
<feBlend mode="normal" in2="effect1_dropShadow_0_1" result="effect2_dropShadow_0_1"/>
<feColorMatrix in="SourceAlpha" type="matrix" values="0 0 0 0 0 0 0 0 0 0 0 0 0 0 0 0 0 0 127 0" result="hardAlpha"/>
<feOffset dy="17.4708"/>
<feGaussianBlur stdDeviation="10.3058"/>
<feColorMatrix type="matrix" values="0 0 0 0 0.34902 0 0 0 0 0.764706 0 0 0 0 1 0 0 0 0.08 0"/>
<feBlend mode="normal" in2="effect2_dropShadow_0_1" result="effect3_dropShadow_0_1"/>
<feColorMatrix in="SourceAlpha" type="matrix" values="0 0 0 0 0 0 0 0 0 0 0 0 0 0 0 0 0 0 127 0" result="hardAlpha"/>
<feOffset dy="10"/>
<feGaussianBlur stdDeviation="18.3838"/>
<feColorMatrix type="matrix" values="0 0 0 0 0.34902 0 0 0 0 0.764706 0 0 0 0 1 0 0 0 0.0953772 0"/>
<feBlend mode="normal" in2="effect3_dropShadow_0_1" result="effect4_dropShadow_0_1"/>
<feColorMatrix in="SourceAlpha" type="matrix" values="0 0 0 0 0 0 0 0 0 0 0 0 0 0 0 0 0 0 127 0" result="hardAlpha"/>
<feOffset dy="10"/>
<feGaussianBlur stdDeviation="34.3849"/>
<feColorMatrix type="matrix" values="0 0 0 0 0.34902 0 0 0 0 0.764706 0 0 0 0 1 0 0 0 0.115 0"/>
<feBlend mode="normal" in2="effect4_dropShadow_0_1" result="effect5_dropShadow_0_1"/>
<feColorMatrix in="SourceAlpha" type="matrix" values="0 0 0 0 0 0 0 0 0 0 0 0 0 0 0 0 0 0 127 0" result="hardAlpha"/>
<feOffset dy="20"/>
<feGaussianBlur stdDeviation="82.3047"/>
<feColorMatrix type="matrix" values="0 0 0 0 0.34902 0 0 0 0 0.764706 0 0 0 0 1 0 0 0 0.16 0"/>
<feBlend mode="normal" in2="effect5_dropShadow_0_1" result="effect6_dropShadow_0_1"/>
<feBlend mode="normal" in="SourceGraphic" in2="effect6_dropShadow_0_1" result="shape"/>
</filter>
<filter id="filter5_dddddd_0_1" x="0.390625" y="22.3906" width="420.419" height="420.419" filterUnits="userSpaceOnUse" color-interpolation-filters="sRGB">
<feFlood flood-opacity="0" result="BackgroundImageFix"/>
<feColorMatrix in="SourceAlpha" type="matrix" values="0 0 0 0 0 0 0 0 0 0 0 0 0 0 0 0 0 0 127 0" result="hardAlpha"/>
<feOffset dy="3.86104"/>
<feGaussianBlur stdDeviation="2.27758"/>
<feColorMatrix type="matrix" values="0 0 0 0 0.34902 0 0 0 0 0.764706 0 0 0 0 1 0 0 0 0.0449833 0"/>
<feBlend mode="normal" in2="BackgroundImageFix" result="effect1_dropShadow_0_1"/>
<feColorMatrix in="SourceAlpha" type="matrix" values="0 0 0 0 0 0 0 0 0 0 0 0 0 0 0 0 0 0 127 0" result="hardAlpha"/>
<feOffset dy="9.27862"/>
<feGaussianBlur stdDeviation="5.47335"/>
<feColorMatrix type="matrix" values="0 0 0 0 0.34902 0 0 0 0 0.764706 0 0 0 0 1 0 0 0 0.0646228 0"/>
<feBlend mode="normal" in2="effect1_dropShadow_0_1" result="effect2_dropShadow_0_1"/>
<feColorMatrix in="SourceAlpha" type="matrix" values="0 0 0 0 0 0 0 0 0 0 0 0 0 0 0 0 0 0 127 0" result="hardAlpha"/>
<feOffset dy="17.4708"/>
<feGaussianBlur stdDeviation="10.3058"/>
<feColorMatrix type="matrix" values="0 0 0 0 0.34902 0 0 0 0 0.764706 0 0 0 0 1 0 0 0 0.08 0"/>
<feBlend mode="normal" in2="effect2_dropShadow_0_1" result="effect3_dropShadow_0_1"/>
<feColorMatrix in="SourceAlpha" type="matrix" values="0 0 0 0 0 0 0 0 0 0 0 0 0 0 0 0 0 0 127 0" result="hardAlpha"/>
<feOffset dy="10"/>
<feGaussianBlur stdDeviation="18.3838"/>
<feColorMatrix type="matrix" values="0 0 0 0 0.34902 0 0 0 0 0.764706 0 0 0 0 1 0 0 0 0.0953772 0"/>
<feBlend mode="normal" in2="effect3_dropShadow_0_1" result="effect4_dropShadow_0_1"/>
<feColorMatrix in="SourceAlpha" type="matrix" values="0 0 0 0 0 0 0 0 0 0 0 0 0 0 0 0 0 0 127 0" result="hardAlpha"/>
<feOffset dy="10"/>
<feGaussianBlur stdDeviation="34.3849"/>
<feColorMatrix type="matrix" values="0 0 0 0 0.34902 0 0 0 0 0.764706 0 0 0 0 1 0 0 0 0.115 0"/>
<feBlend mode="normal" in2="effect4_dropShadow_0_1" result="effect5_dropShadow_0_1"/>
<feColorMatrix in="SourceAlpha" type="matrix" values="0 0 0 0 0 0 0 0 0 0 0 0 0 0 0 0 0 0 127 0" result="hardAlpha"/>
<feOffset dy="20"/>
<feGaussianBlur stdDeviation="82.3047"/>
<feColorMatrix type="matrix" values="0 0 0 0 0.34902 0 0 0 0 0.764706 0 0 0 0 1 0 0 0 0.16 0"/>
<feBlend mode="normal" in2="effect5_dropShadow_0_1" result="effect6_dropShadow_0_1"/>
<feBlend mode="normal" in="SourceGraphic" in2="effect6_dropShadow_0_1" result="shape"/>
</filter>
<filter id="filter6_d_0_1" x="279.142" y="182.966" width="60.2039" height="57.0356" filterUnits="userSpaceOnUse" color-interpolation-filters="sRGB">
<feFlood flood-opacity="0" result="BackgroundImageFix"/>
<feColorMatrix in="SourceAlpha" type="matrix" values="0 0 0 0 0 0 0 0 0 0 0 0 0 0 0 0 0 0 127 0" result="hardAlpha"/>
<feOffset/>
<feGaussianBlur stdDeviation="2.5"/>
<feComposite in2="hardAlpha" operator="out"/>
<feColorMatrix type="matrix" values="0 0 0 0 0 0 0 0 0 0 0 0 0 0 0 0 0 0 0.25 0"/>
<feBlend mode="normal" in2="BackgroundImageFix" result="effect1_dropShadow_0_1"/>
<feBlend mode="normal" in="SourceGraphic" in2="effect1_dropShadow_0_1" result="shape"/>
</filter>
<filter id="filter7_dddddd_0_1" x="568.391" y="0.510582" width="596.739" height="462.979" filterUnits="userSpaceOnUse" color-interpolation-filters="sRGB">
<feFlood flood-opacity="0" result="BackgroundImageFix"/>
<feColorMatrix in="SourceAlpha" type="matrix" values="0 0 0 0 0 0 0 0 0 0 0 0 0 0 0 0 0 0 127 0" result="hardAlpha"/>
<feOffset dy="3.86104"/>
<feGaussianBlur stdDeviation="2.27758"/>
<feColorMatrix type="matrix" values="0 0 0 0 0.313726 0 0 0 0 0.101961 0 0 0 0 0.984314 0 0 0 0.0449833 0"/>
<feBlend mode="normal" in2="BackgroundImageFix" result="effect1_dropShadow_0_1"/>
<feColorMatrix in="SourceAlpha" type="matrix" values="0 0 0 0 0 0 0 0 0 0 0 0 0 0 0 0 0 0 127 0" result="hardAlpha"/>
<feOffset dy="9.27862"/>
<feGaussianBlur stdDeviation="5.47335"/>
<feColorMatrix type="matrix" values="0 0 0 0 0.313726 0 0 0 0 0.101961 0 0 0 0 0.984314 0 0 0 0.0646228 0"/>
<feBlend mode="normal" in2="effect1_dropShadow_0_1" result="effect2_dropShadow_0_1"/>
<feColorMatrix in="SourceAlpha" type="matrix" values="0 0 0 0 0 0 0 0 0 0 0 0 0 0 0 0 0 0 127 0" result="hardAlpha"/>
<feOffset dy="17.4708"/>
<feGaussianBlur stdDeviation="10.3058"/>
<feColorMatrix type="matrix" values="0 0 0 0 0.313726 0 0 0 0 0.101961 0 0 0 0 0.984314 0 0 0 0.08 0"/>
<feBlend mode="normal" in2="effect2_dropShadow_0_1" result="effect3_dropShadow_0_1"/>
<feColorMatrix in="SourceAlpha" type="matrix" values="0 0 0 0 0 0 0 0 0 0 0 0 0 0 0 0 0 0 127 0" result="hardAlpha"/>
<feOffset dy="10"/>
<feGaussianBlur stdDeviation="18.3838"/>
<feColorMatrix type="matrix" values="0 0 0 0 0.313726 0 0 0 0 0.101961 0 0 0 0 0.984314 0 0 0 0.0953772 0"/>
<feBlend mode="normal" in2="effect3_dropShadow_0_1" result="effect4_dropShadow_0_1"/>
<feColorMatrix in="SourceAlpha" type="matrix" values="0 0 0 0 0 0 0 0 0 0 0 0 0 0 0 0 0 0 127 0" result="hardAlpha"/>
<feOffset dy="10"/>
<feGaussianBlur stdDeviation="34.3849"/>
<feColorMatrix type="matrix" values="0 0 0 0 0.313726 0 0 0 0 0.101961 0 0 0 0 0.984314 0 0 0 0.115017 0"/>
<feBlend mode="normal" in2="effect4_dropShadow_0_1" result="effect5_dropShadow_0_1"/>
<feColorMatrix in="SourceAlpha" type="matrix" values="0 0 0 0 0 0 0 0 0 0 0 0 0 0 0 0 0 0 127 0" result="hardAlpha"/>
<feOffset dy="20"/>
<feGaussianBlur stdDeviation="82.3047"/>
<feColorMatrix type="matrix" values="0 0 0 0 0.313726 0 0 0 0 0.101961 0 0 0 0 0.984314 0 0 0 0.16 0"/>
<feBlend mode="normal" in2="effect5_dropShadow_0_1" result="effect6_dropShadow_0_1"/>
<feBlend mode="normal" in="SourceGraphic" in2="effect6_dropShadow_0_1" result="shape"/>
</filter>
<linearGradient id="paint0_linear_0_1" x1="360" y1="212.998" x2="262.592" y2="212.998" gradientUnits="userSpaceOnUse">
<stop stop-color="#75FF86"/>
<stop offset="1" stop-color="#59C3FF"/>
</linearGradient>
<linearGradient id="paint1_linear_0_1" x1="579" y1="212.998" x2="519.993" y2="212.998" gradientUnits="userSpaceOnUse">
<stop stop-color="#75FF86"/>
<stop offset="1" stop-color="#59C3FF"/>
</linearGradient>
<linearGradient id="paint2_linear_0_1" x1="317.307" y1="201.814" x2="452.056" y2="250.901" gradientUnits="userSpaceOnUse">
<stop stop-color="#75FF86"/>
<stop offset="1" stop-color="#59C3FF"/>
</linearGradient>
<linearGradient id="paint3_linear_0_1" x1="666.216" y1="211" x2="737.216" y2="211" gradientUnits="userSpaceOnUse">
<stop stop-color="#59C3FF"/>
<stop offset="1" stop-color="#AD00FF"/>
</linearGradient>
<linearGradient id="paint4_linear_0_1" x1="554.041" y1="201.891" x2="639.416" y2="220.033" gradientUnits="userSpaceOnUse">
<stop stop-color="#75FF86"/>
<stop offset="1" stop-color="#59C3FF"/>
</linearGradient>
<linearGradient id="paint5_linear_0_1" x1="140.041" y1="201.891" x2="225.416" y2="220.033" gradientUnits="userSpaceOnUse">
<stop stop-color="#75FF86"/>
<stop offset="1" stop-color="#59C3FF"/>
</linearGradient>
<linearGradient id="paint6_linear_0_1" x1="659.786" y1="196.293" x2="881.485" y2="290.515" gradientUnits="userSpaceOnUse">
<stop stop-color="#AD00FF"/>
<stop offset="1" stop-color="#3901E1"/>
</linearGradient>
<clipPath id="clip0_0_1">
<rect width="42" height="51" fill="white" transform="translate(377 188)"/>
</clipPath>
<clipPath id="clip1_0_1">
<rect width="52" height="53" fill="white" transform="translate(446 188)"/>
</clipPath>
</defs>
</svg>
