<svg width="747" height="364" viewBox="100 50 747 364" fill="none" xmlns="http://www.w3.org/2000/svg">
<g filter="url(#filter0_d_0_1)">
<path d="M450 211C483.471 211 476.964 211 515 211" stroke="url(#paint0_linear_0_1)" stroke-width="12"/>
</g>
<g filter="url(#filter1_d_0_1)">
<path d="M360 214C310.971 214 311.714 214 256 214" stroke="url(#paint1_linear_0_1)" stroke-width="12"/>
</g>
<g filter="url(#filter2_dddddd_0_1)">
<rect x="360" y="167" width="91.2" height="91.2" rx="16" fill="black"/>
<rect x="361.5" y="168.5" width="88.2" height="88.2" rx="14.5" stroke="url(#paint2_linear_0_1)" stroke-width="3"/>
</g>
<path d="M386.082 269.234V274.82C386.082 275.376 385.968 275.866 385.74 276.29C385.516 276.714 385.198 277.044 384.786 277.28C384.378 277.516 383.896 277.634 383.34 277.634C382.772 277.634 382.284 277.516 381.876 277.28C381.472 277.04 381.162 276.708 380.946 276.284C380.73 275.86 380.622 275.372 380.622 274.82V269.234H381.654V274.856C381.654 275.484 381.8 275.954 382.092 276.266C382.388 276.578 382.804 276.734 383.34 276.734C383.88 276.734 384.296 276.578 384.588 276.266C384.884 275.954 385.032 275.484 385.032 274.856V269.234H386.082ZM390.98 271.046C391.54 271.046 391.986 271.182 392.318 271.454C392.654 271.726 392.896 272.11 393.044 272.606C393.192 273.098 393.266 273.674 393.266 274.334C393.266 274.97 393.176 275.538 392.996 276.038C392.82 276.534 392.552 276.924 392.192 277.208C391.832 277.492 391.378 277.634 390.83 277.634C390.138 277.634 389.582 277.39 389.162 276.902V279.914L388.154 280.04V271.178H389.012L389.096 272.06C389.328 271.736 389.604 271.486 389.924 271.31C390.248 271.134 390.6 271.046 390.98 271.046ZM390.74 271.856C390.392 271.856 390.084 271.962 389.816 272.174C389.552 272.382 389.334 272.614 389.162 272.87V276.002C389.326 276.246 389.532 276.44 389.78 276.584C390.032 276.724 390.308 276.794 390.608 276.794C391.132 276.794 391.526 276.594 391.79 276.194C392.054 275.794 392.186 275.172 392.186 274.328C392.186 273.776 392.134 273.318 392.03 272.954C391.926 272.586 391.768 272.312 391.556 272.132C391.344 271.948 391.072 271.856 390.74 271.856ZM397.497 276.8C397.981 276.8 398.363 276.71 398.643 276.53C398.927 276.346 399.069 276.102 399.069 275.798C399.069 275.606 399.033 275.44 398.961 275.3C398.893 275.16 398.751 275.034 398.535 274.922C398.319 274.81 397.987 274.698 397.539 274.586C397.103 274.478 396.723 274.354 396.399 274.214C396.079 274.07 395.829 273.884 395.649 273.656C395.473 273.428 395.385 273.132 395.385 272.768C395.385 272.412 395.485 272.106 395.685 271.85C395.889 271.59 396.171 271.392 396.531 271.256C396.891 271.116 397.309 271.046 397.785 271.046C398.293 271.046 398.735 271.114 399.111 271.25C399.491 271.382 399.813 271.546 400.077 271.742L399.633 272.426C399.393 272.262 399.129 272.128 398.841 272.024C398.553 271.916 398.205 271.862 397.797 271.862C397.301 271.862 396.949 271.94 396.741 272.096C396.533 272.248 396.429 272.446 396.429 272.69C396.429 272.874 396.479 273.028 396.579 273.152C396.683 273.272 396.857 273.382 397.101 273.482C397.345 273.578 397.681 273.684 398.109 273.8C398.521 273.908 398.879 274.038 399.183 274.19C399.491 274.342 399.731 274.542 399.903 274.79C400.075 275.038 400.161 275.358 400.161 275.75C400.161 276.198 400.033 276.562 399.777 276.842C399.521 277.118 399.189 277.32 398.781 277.448C398.377 277.572 397.949 277.634 397.497 277.634C396.925 277.634 396.437 277.552 396.033 277.388C395.633 277.22 395.297 277.018 395.025 276.782L395.601 276.116C395.849 276.32 396.133 276.486 396.453 276.614C396.777 276.738 397.125 276.8 397.497 276.8ZM407.56 277.178C407.344 277.322 407.082 277.434 406.774 277.514C406.466 277.594 406.164 277.634 405.868 277.634C405.188 277.634 404.664 277.456 404.296 277.1C403.928 276.744 403.744 276.286 403.744 275.726V271.958H402.292V271.178H403.744V269.744L404.752 269.624V271.178H406.936L406.816 271.958H404.752V275.714C404.752 276.066 404.844 276.334 405.028 276.518C405.216 276.702 405.526 276.794 405.958 276.794C406.194 276.794 406.412 276.766 406.612 276.71C406.812 276.654 406.998 276.582 407.17 276.494L407.56 277.178ZM414.264 276.116C414.264 276.368 414.306 276.552 414.39 276.668C414.474 276.784 414.604 276.87 414.78 276.926L414.534 277.634C414.262 277.598 414.024 277.512 413.82 277.376C413.616 277.236 413.468 277.026 413.376 276.746C413.148 277.038 412.864 277.26 412.524 277.412C412.184 277.56 411.808 277.634 411.396 277.634C410.764 277.634 410.266 277.456 409.902 277.1C409.538 276.744 409.356 276.272 409.356 275.684C409.356 275.032 409.61 274.532 410.118 274.184C410.626 273.836 411.36 273.662 412.32 273.662H413.25V273.134C413.25 272.678 413.116 272.356 412.848 272.168C412.584 271.976 412.216 271.88 411.744 271.88C411.536 271.88 411.292 271.906 411.012 271.958C410.732 272.006 410.428 272.088 410.1 272.204L409.836 271.442C410.224 271.298 410.588 271.196 410.928 271.136C411.268 271.076 411.592 271.046 411.9 271.046C412.688 271.046 413.278 271.23 413.67 271.598C414.066 271.962 414.264 272.458 414.264 273.086V276.116ZM411.654 276.866C411.966 276.866 412.264 276.788 412.548 276.632C412.832 276.472 413.066 276.252 413.25 275.972V274.346H412.338C411.642 274.346 411.15 274.466 410.862 274.706C410.578 274.946 410.436 275.268 410.436 275.672C410.436 276.064 410.536 276.362 410.736 276.566C410.94 276.766 411.246 276.866 411.654 276.866ZM419.083 276.8C419.567 276.8 419.949 276.71 420.229 276.53C420.513 276.346 420.655 276.102 420.655 275.798C420.655 275.606 420.619 275.44 420.547 275.3C420.479 275.16 420.337 275.034 420.121 274.922C419.905 274.81 419.573 274.698 419.125 274.586C418.689 274.478 418.309 274.354 417.985 274.214C417.665 274.07 417.415 273.884 417.235 273.656C417.059 273.428 416.971 273.132 416.971 272.768C416.971 272.412 417.071 272.106 417.271 271.85C417.475 271.59 417.757 271.392 418.117 271.256C418.477 271.116 418.895 271.046 419.371 271.046C419.879 271.046 420.321 271.114 420.697 271.25C421.077 271.382 421.399 271.546 421.663 271.742L421.219 272.426C420.979 272.262 420.715 272.128 420.427 272.024C420.139 271.916 419.791 271.862 419.383 271.862C418.887 271.862 418.535 271.94 418.327 272.096C418.119 272.248 418.015 272.446 418.015 272.69C418.015 272.874 418.065 273.028 418.165 273.152C418.269 273.272 418.443 273.382 418.687 273.482C418.931 273.578 419.267 273.684 419.695 273.8C420.107 273.908 420.465 274.038 420.769 274.19C421.077 274.342 421.317 274.542 421.489 274.79C421.661 275.038 421.747 275.358 421.747 275.75C421.747 276.198 421.619 276.562 421.363 276.842C421.107 277.118 420.775 277.32 420.367 277.448C419.963 277.572 419.535 277.634 419.083 277.634C418.511 277.634 418.023 277.552 417.619 277.388C417.219 277.22 416.883 277.018 416.611 276.782L417.187 276.116C417.435 276.32 417.719 276.486 418.039 276.614C418.363 276.738 418.711 276.8 419.083 276.8ZM425.138 268.538V272.042C425.386 271.71 425.69 271.462 426.05 271.298C426.414 271.13 426.782 271.046 427.154 271.046C427.77 271.046 428.22 271.21 428.504 271.538C428.788 271.866 428.93 272.322 428.93 272.906V277.496H427.922V272.93C427.922 272.55 427.834 272.274 427.658 272.102C427.482 271.926 427.206 271.838 426.83 271.838C426.59 271.838 426.362 271.892 426.146 272C425.93 272.108 425.736 272.242 425.564 272.402C425.392 272.562 425.25 272.726 425.138 272.894V277.496H424.13V268.646L425.138 268.538ZM353.521 289.296C353.521 289.92 353.575 290.48 353.683 290.976C353.791 291.468 353.951 291.92 354.163 292.332C354.375 292.74 354.641 293.128 354.961 293.496C355.285 293.868 355.661 294.244 356.089 294.624L355.561 295.176C354.913 294.644 354.357 294.1 353.893 293.544C353.433 292.988 353.079 292.368 352.831 291.684C352.587 291 352.465 290.204 352.465 289.296C352.465 288.384 352.587 287.586 352.831 286.902C353.079 286.218 353.433 285.598 353.893 285.042C354.357 284.486 354.913 283.944 355.561 283.416L356.089 283.968C355.657 284.352 355.279 284.73 354.955 285.102C354.635 285.47 354.369 285.858 354.157 286.266C353.945 286.67 353.785 287.12 353.677 287.616C353.573 288.108 353.521 288.668 353.521 289.296ZM364.532 285.234L365 293.496H363.998L363.74 289.182C363.728 288.89 363.716 288.594 363.704 288.294C363.692 287.994 363.684 287.706 363.68 287.43C363.676 287.154 363.674 286.908 363.674 286.692C363.674 286.476 363.674 286.308 363.674 286.188L362.282 292.014H361.238L359.744 286.188C359.748 286.304 359.752 286.476 359.756 286.704C359.76 286.928 359.762 287.182 359.762 287.466C359.766 287.75 359.764 288.042 359.756 288.342C359.752 288.638 359.744 288.914 359.732 289.17L359.51 293.496H358.532L359 285.234H360.452L361.79 290.892L363.068 285.234H364.532ZM371.092 292.116C371.092 292.368 371.134 292.552 371.218 292.668C371.302 292.784 371.432 292.87 371.608 292.926L371.362 293.634C371.09 293.598 370.852 293.512 370.648 293.376C370.444 293.236 370.296 293.026 370.204 292.746C369.976 293.038 369.692 293.26 369.352 293.412C369.012 293.56 368.636 293.634 368.224 293.634C367.592 293.634 367.094 293.456 366.73 293.1C366.366 292.744 366.184 292.272 366.184 291.684C366.184 291.032 366.438 290.532 366.946 290.184C367.454 289.836 368.188 289.662 369.148 289.662H370.078V289.134C370.078 288.678 369.944 288.356 369.676 288.168C369.412 287.976 369.044 287.88 368.572 287.88C368.364 287.88 368.12 287.906 367.84 287.958C367.56 288.006 367.256 288.088 366.928 288.204L366.664 287.442C367.052 287.298 367.416 287.196 367.756 287.136C368.096 287.076 368.42 287.046 368.728 287.046C369.516 287.046 370.106 287.23 370.498 287.598C370.894 287.962 371.092 288.458 371.092 289.086V292.116ZM368.482 292.866C368.794 292.866 369.092 292.788 369.376 292.632C369.66 292.472 369.894 292.252 370.078 291.972V290.346H369.166C368.47 290.346 367.978 290.466 367.69 290.706C367.406 290.946 367.264 291.268 367.264 291.672C367.264 292.064 367.364 292.362 367.564 292.566C367.768 292.766 368.074 292.866 368.482 292.866ZM373.763 293.496V287.178H374.621L374.699 288.054C374.955 287.73 375.275 287.482 375.659 287.31C376.047 287.134 376.423 287.046 376.787 287.046C377.407 287.046 377.857 287.21 378.137 287.538C378.421 287.866 378.563 288.322 378.563 288.906V293.496H377.555V289.65C377.555 289.218 377.531 288.87 377.483 288.606C377.435 288.338 377.335 288.144 377.183 288.024C377.031 287.9 376.795 287.838 376.475 287.838C376.227 287.838 375.993 287.892 375.773 288C375.557 288.108 375.363 288.244 375.191 288.408C375.023 288.568 374.883 288.73 374.771 288.894V293.496H373.763ZM385.482 292.116C385.482 292.368 385.524 292.552 385.608 292.668C385.692 292.784 385.822 292.87 385.998 292.926L385.752 293.634C385.48 293.598 385.242 293.512 385.038 293.376C384.834 293.236 384.686 293.026 384.594 292.746C384.366 293.038 384.082 293.26 383.742 293.412C383.402 293.56 383.026 293.634 382.614 293.634C381.982 293.634 381.484 293.456 381.12 293.1C380.756 292.744 380.574 292.272 380.574 291.684C380.574 291.032 380.828 290.532 381.336 290.184C381.844 289.836 382.578 289.662 383.538 289.662H384.468V289.134C384.468 288.678 384.334 288.356 384.066 288.168C383.802 287.976 383.434 287.88 382.962 287.88C382.754 287.88 382.51 287.906 382.23 287.958C381.95 288.006 381.646 288.088 381.318 288.204L381.054 287.442C381.442 287.298 381.806 287.196 382.146 287.136C382.486 287.076 382.81 287.046 383.118 287.046C383.906 287.046 384.496 287.23 384.888 287.598C385.284 287.962 385.482 288.458 385.482 289.086V292.116ZM382.872 292.866C383.184 292.866 383.482 292.788 383.766 292.632C384.05 292.472 384.284 292.252 384.468 291.972V290.346H383.556C382.86 290.346 382.368 290.466 382.08 290.706C381.796 290.946 381.654 291.268 381.654 291.672C381.654 292.064 381.754 292.362 381.954 292.566C382.158 292.766 382.464 292.866 382.872 292.866ZM393.29 286.506L393.602 287.454C393.334 287.538 393.048 287.59 392.744 287.61C392.44 287.63 392.11 287.64 391.754 287.64C392.118 287.808 392.392 288.026 392.576 288.294C392.76 288.558 392.852 288.87 392.852 289.23C392.852 289.646 392.758 290.016 392.57 290.34C392.382 290.664 392.11 290.918 391.754 291.102C391.402 291.286 390.976 291.378 390.476 291.378C390.264 291.378 390.086 291.368 389.942 291.348C389.802 291.328 389.666 291.298 389.534 291.258C389.438 291.322 389.358 291.41 389.294 291.522C389.234 291.634 389.204 291.75 389.204 291.87C389.204 292.022 389.264 292.148 389.384 292.248C389.504 292.348 389.726 292.398 390.05 292.398H391.19C391.614 292.398 391.994 292.474 392.33 292.626C392.67 292.778 392.936 292.982 393.128 293.238C393.324 293.494 393.422 293.786 393.422 294.114C393.422 294.734 393.158 295.21 392.63 295.542C392.106 295.874 391.364 296.04 390.404 296.04C389.732 296.04 389.202 295.97 388.814 295.83C388.426 295.694 388.148 295.484 387.98 295.2C387.816 294.92 387.734 294.566 387.734 294.138H388.646C388.646 294.382 388.694 294.584 388.79 294.744C388.886 294.904 389.06 295.022 389.312 295.098C389.564 295.178 389.926 295.218 390.398 295.218C390.862 295.218 391.24 295.178 391.532 295.098C391.828 295.022 392.046 294.906 392.186 294.75C392.33 294.598 392.402 294.408 392.402 294.18C392.402 293.88 392.266 293.654 391.994 293.502C391.722 293.35 391.382 293.274 390.974 293.274H389.846C389.302 293.274 388.9 293.154 388.64 292.914C388.384 292.674 388.256 292.398 388.256 292.086C388.256 291.882 388.314 291.684 388.43 291.492C388.55 291.3 388.724 291.13 388.952 290.982C388.588 290.79 388.32 290.552 388.148 290.268C387.976 289.984 387.89 289.64 387.89 289.236C387.89 288.808 387.996 288.43 388.208 288.102C388.42 287.77 388.716 287.51 389.096 287.322C389.476 287.134 389.914 287.04 390.41 287.04C390.942 287.036 391.374 287.014 391.706 286.974C392.038 286.93 392.322 286.868 392.558 286.788C392.798 286.708 393.042 286.614 393.29 286.506ZM390.41 287.778C389.902 287.778 389.526 287.916 389.282 288.192C389.042 288.464 388.922 288.812 388.922 289.236C388.922 289.664 389.046 290.016 389.294 290.292C389.542 290.568 389.922 290.706 390.434 290.706C390.882 290.706 391.222 290.576 391.454 290.316C391.69 290.056 391.808 289.694 391.808 289.23C391.808 288.754 391.69 288.394 391.454 288.15C391.222 287.902 390.874 287.778 390.41 287.778ZM396.141 290.694C396.161 291.182 396.255 291.582 396.423 291.894C396.591 292.202 396.813 292.43 397.089 292.578C397.365 292.722 397.665 292.794 397.989 292.794C398.313 292.794 398.605 292.746 398.865 292.65C399.129 292.554 399.399 292.412 399.675 292.224L400.149 292.89C399.853 293.122 399.515 293.304 399.135 293.436C398.759 293.568 398.373 293.634 397.977 293.634C397.365 293.634 396.843 293.496 396.411 293.22C395.979 292.944 395.649 292.56 395.421 292.068C395.197 291.572 395.085 290.998 395.085 290.346C395.085 289.706 395.199 289.138 395.427 288.642C395.655 288.146 395.975 287.756 396.387 287.472C396.799 287.188 397.285 287.046 397.845 287.046C398.377 287.046 398.835 287.172 399.219 287.424C399.603 287.672 399.897 288.028 400.101 288.492C400.309 288.952 400.413 289.502 400.413 290.142C400.413 290.25 400.411 290.352 400.407 290.448C400.403 290.54 400.397 290.622 400.389 290.694H396.141ZM397.857 287.874C397.389 287.874 396.997 288.04 396.681 288.372C396.369 288.704 396.191 289.218 396.147 289.914H399.441C399.429 289.238 399.281 288.73 398.997 288.39C398.713 288.046 398.333 287.874 397.857 287.874ZM406.324 284.508L407.332 284.634V293.496H406.45L406.354 292.662C406.118 292.998 405.846 293.244 405.538 293.4C405.234 293.556 404.908 293.634 404.56 293.634C404.012 293.634 403.56 293.496 403.204 293.22C402.848 292.944 402.584 292.56 402.412 292.068C402.24 291.572 402.154 290.998 402.154 290.346C402.154 289.714 402.252 289.15 402.448 288.654C402.644 288.154 402.926 287.762 403.294 287.478C403.666 287.19 404.112 287.046 404.632 287.046C404.996 287.046 405.316 287.11 405.592 287.238C405.868 287.362 406.112 287.546 406.324 287.79V284.508ZM404.896 287.856C404.368 287.856 403.962 288.062 403.678 288.474C403.394 288.886 403.252 289.51 403.252 290.346C403.252 290.89 403.31 291.346 403.426 291.714C403.542 292.082 403.712 292.358 403.936 292.542C404.164 292.726 404.442 292.818 404.77 292.818C405.13 292.818 405.436 292.716 405.688 292.512C405.944 292.308 406.156 292.078 406.324 291.822V288.666C406.152 288.41 405.944 288.212 405.7 288.072C405.456 287.928 405.188 287.856 404.896 287.856ZM418.027 293.496H416.989V285.234H418.027V293.496ZM418.087 289.086L421.339 285.234H422.539L419.311 289.02L422.767 293.496H421.471L418.087 289.086ZM428.654 292.116C428.654 292.368 428.696 292.552 428.78 292.668C428.864 292.784 428.994 292.87 429.17 292.926L428.924 293.634C428.652 293.598 428.414 293.512 428.21 293.376C428.006 293.236 427.858 293.026 427.766 292.746C427.538 293.038 427.254 293.26 426.914 293.412C426.574 293.56 426.198 293.634 425.786 293.634C425.154 293.634 424.656 293.456 424.292 293.1C423.928 292.744 423.746 292.272 423.746 291.684C423.746 291.032 424 290.532 424.508 290.184C425.016 289.836 425.75 289.662 426.71 289.662H427.64V289.134C427.64 288.678 427.506 288.356 427.238 288.168C426.974 287.976 426.606 287.88 426.134 287.88C425.926 287.88 425.682 287.906 425.402 287.958C425.122 288.006 424.818 288.088 424.49 288.204L424.226 287.442C424.614 287.298 424.978 287.196 425.318 287.136C425.658 287.076 425.982 287.046 426.29 287.046C427.078 287.046 427.668 287.23 428.06 287.598C428.456 287.962 428.654 288.458 428.654 289.086V292.116ZM426.044 292.866C426.356 292.866 426.654 292.788 426.938 292.632C427.222 292.472 427.456 292.252 427.64 291.972V290.346H426.728C426.032 290.346 425.54 290.466 425.252 290.706C424.968 290.946 424.826 291.268 424.826 291.672C424.826 292.064 424.926 292.362 425.126 292.566C425.33 292.766 425.636 292.866 426.044 292.866ZM435.058 284.508C435.398 284.508 435.706 284.538 435.982 284.598C436.258 284.658 436.52 284.742 436.768 284.85L436.444 285.6C436.24 285.512 436.024 285.446 435.796 285.402C435.568 285.358 435.332 285.336 435.088 285.336C434.648 285.336 434.316 285.422 434.092 285.594C433.872 285.766 433.762 286.03 433.762 286.386V287.67H435.904L435.796 288.462H433.762V293.496H432.754V288.462H431.248V287.67H432.754V286.41C432.754 286.018 432.854 285.68 433.054 285.396C433.258 285.112 433.534 284.894 433.882 284.742C434.23 284.586 434.622 284.508 435.058 284.508ZM443.813 287.178L440.969 290.022L444.143 293.496H442.817L439.709 290.046L442.505 287.178H443.813ZM439.595 284.508V293.496H438.587V284.634L439.595 284.508ZM450.24 292.116C450.24 292.368 450.282 292.552 450.366 292.668C450.45 292.784 450.58 292.87 450.756 292.926L450.51 293.634C450.238 293.598 450 293.512 449.796 293.376C449.592 293.236 449.444 293.026 449.352 292.746C449.124 293.038 448.84 293.26 448.5 293.412C448.16 293.56 447.784 293.634 447.372 293.634C446.74 293.634 446.242 293.456 445.878 293.1C445.514 292.744 445.332 292.272 445.332 291.684C445.332 291.032 445.586 290.532 446.094 290.184C446.602 289.836 447.336 289.662 448.296 289.662H449.226V289.134C449.226 288.678 449.092 288.356 448.824 288.168C448.56 287.976 448.192 287.88 447.72 287.88C447.512 287.88 447.268 287.906 446.988 287.958C446.708 288.006 446.404 288.088 446.076 288.204L445.812 287.442C446.2 287.298 446.564 287.196 446.904 287.136C447.244 287.076 447.568 287.046 447.876 287.046C448.664 287.046 449.254 287.23 449.646 287.598C450.042 287.962 450.24 288.458 450.24 289.086V292.116ZM447.63 292.866C447.942 292.866 448.24 292.788 448.524 292.632C448.808 292.472 449.042 292.252 449.226 291.972V290.346H448.314C447.618 290.346 447.126 290.466 446.838 290.706C446.554 290.946 446.412 291.268 446.412 291.672C446.412 292.064 446.512 292.362 446.712 292.566C446.916 292.766 447.222 292.866 447.63 292.866ZM456.355 289.296C456.355 288.668 456.301 288.108 456.193 287.616C456.089 287.12 455.931 286.67 455.719 286.266C455.507 285.858 455.239 285.47 454.915 285.102C454.595 284.73 454.219 284.352 453.787 283.968L454.315 283.416C454.967 283.944 455.523 284.486 455.983 285.042C456.443 285.598 456.795 286.218 457.039 286.902C457.287 287.586 457.411 288.384 457.411 289.296C457.411 290.204 457.287 291 457.039 291.684C456.795 292.368 456.443 292.988 455.983 293.544C455.523 294.1 454.967 294.644 454.315 295.176L453.787 294.624C454.215 294.244 454.589 293.868 454.909 293.496C455.233 293.128 455.501 292.74 455.713 292.332C455.925 291.92 456.085 291.468 456.193 290.976C456.301 290.48 456.355 289.92 456.355 289.296Z" fill="black"/>
<path d="M388 231.027C395.959 238.991 408.864 238.991 416.823 231.027C424.782 223.062 424.782 210.149 416.823 202.184L413.22 205.789C419.189 211.763 419.189 221.448 413.22 227.421C407.251 233.395 397.572 233.395 391.603 227.421L388 231.027Z" fill="#00C98D"/>
<path d="M395.206 223.816C399.185 227.798 405.638 227.798 409.617 223.816C413.597 219.834 413.597 213.377 409.617 209.395L406.014 213C408.004 214.991 408.004 218.219 406.014 220.211C404.025 222.202 400.798 222.202 398.809 220.211L395.206 223.816Z" fill="#00C98D"/>
<path d="M424.029 194.973C416.069 187.009 403.165 187.009 395.206 194.973C387.246 202.938 387.246 215.851 395.206 223.816L398.808 220.211C392.839 214.237 392.839 204.552 398.808 198.579C404.778 192.605 414.456 192.605 420.426 198.579L424.029 194.973Z" fill="#00C98D"/>
<path d="M416.823 202.184C412.843 198.202 406.391 198.202 402.411 202.184C398.432 206.166 398.432 212.623 402.411 216.605L406.014 213C404.024 211.009 404.024 207.781 406.014 205.789C408.004 203.798 411.23 203.798 413.22 205.789L416.823 202.184Z" fill="#00C98D"/>
<path d="M424.029 194.973C416.069 187.009 403.165 187.009 395.206 194.973C387.246 202.938 387.246 215.851 395.206 223.816L398.808 220.211C392.839 214.237 392.839 204.552 398.808 198.579C404.778 192.605 414.456 192.605 420.426 198.579L424.029 194.973Z" fill="white" fill-opacity="0.4"/>
<path d="M416.823 202.184C412.843 198.202 406.391 198.202 402.411 202.184C398.432 206.166 398.432 212.623 402.411 216.605L406.014 213C404.024 211.009 404.024 207.781 406.014 205.789C408.004 203.798 411.23 203.798 413.22 205.789L416.823 202.184Z" fill="white" fill-opacity="0.4"/>
<g filter="url(#filter3_dddddd_0_1)">
<path d="M514.376 212C514.376 175.063 544.319 145.12 581.256 145.12H767.936C775.646 145.12 781.896 151.37 781.896 159.08V264.92C781.896 272.63 775.646 278.88 767.936 278.88H581.256C544.319 278.88 514.376 248.937 514.376 212V212Z" fill="black"/>
<path d="M581.256 146.62H767.936C774.818 146.62 780.396 152.198 780.396 159.08V264.92C780.396 271.802 774.818 277.38 767.936 277.38H581.256C545.148 277.38 515.876 248.108 515.876 212C515.876 175.892 545.148 146.62 581.256 146.62Z" stroke="url(#paint3_linear_0_1)" stroke-width="3"/>
</g>
<path d="M593.565 221.177C594.591 222.303 595.671 223.37 596.791 224.396C596.932 224.557 597.066 224.732 597.22 224.886C599.132 226.798 601.057 228.689 602.962 230.608C603.868 231.527 604.847 232.378 605.645 233.385H591.76C591.619 233.217 591.485 233.042 591.331 232.888C589.055 230.625 586.776 228.356 584.496 226.08C576.728 218.335 568.958 210.59 561.186 202.844C559.375 201.04 557.618 199.189 555.733 197.478V191.394C558.155 191.394 560.583 191.394 563.011 191.394C563.204 191.387 563.396 191.422 563.574 191.496C563.753 191.57 563.913 191.682 564.044 191.824C570.452 198.209 576.865 204.595 583.282 210.981C583.407 211.104 583.539 211.221 583.677 211.33C585.562 213.228 587.44 215.14 589.339 217.031C590.734 218.426 592.156 219.795 593.565 221.177Z" fill="white"/>
<path d="M605.666 233.383C604.847 232.377 603.868 231.525 602.983 230.606C601.078 228.688 599.152 226.796 597.241 224.885C597.086 224.73 596.952 224.556 596.811 224.395C596.811 224.106 596.811 223.825 596.811 223.536C596.811 213.752 596.811 203.963 596.811 194.17C596.803 193.651 596.995 193.149 597.348 192.768C597.723 192.257 598.229 191.857 598.812 191.609C599.395 191.361 600.034 191.275 600.662 191.359C602.439 191.494 604.237 191.413 606.028 191.359C606.578 191.359 606.699 191.507 606.699 192.03C606.699 201.85 606.699 211.655 606.699 221.443C606.699 225.16 606.699 228.878 606.699 232.598C606.699 232.86 606.699 233.122 606.739 233.383H605.666Z" fill="white" fill-opacity="0.5"/>
<path d="M605.666 233.383C604.847 232.377 603.868 231.525 602.983 230.606C601.078 228.688 599.152 226.796 597.241 224.885C597.086 224.73 596.952 224.556 596.811 224.395C596.811 224.106 596.811 223.825 596.811 223.536C596.811 213.752 596.811 203.963 596.811 194.17C596.803 193.651 596.995 193.149 597.348 192.768C597.723 192.257 598.229 191.857 598.812 191.609C599.395 191.361 600.034 191.275 600.662 191.359C602.439 191.494 604.237 191.413 606.028 191.359C606.578 191.359 606.699 191.507 606.699 192.03C606.699 201.85 606.699 211.655 606.699 221.443C606.699 225.16 606.699 228.878 606.699 232.598C606.699 232.86 606.699 233.122 606.739 233.383H605.666Z" fill="white" fill-opacity="0.5"/>
<path d="M555.72 215.949V202.084C555.928 202.131 556.035 202.313 556.169 202.453L560.456 206.686C568.353 214.561 576.25 222.436 584.147 230.311C585.153 231.317 586.22 232.276 587.125 233.383H573.214C573.214 233.181 573.019 233.094 572.898 232.973C568.038 228.117 563.168 223.265 558.289 218.418C557.48 217.547 556.622 216.723 555.72 215.949V215.949Z" fill="white"/>
<path d="M568.579 233.382C564.44 233.382 560.301 233.382 556.163 233.382C555.794 233.382 555.72 233.309 555.72 232.946C555.72 228.828 555.72 224.703 555.72 220.571C555.995 220.571 556.109 220.832 556.277 220.993C560.243 224.933 564.203 228.884 568.156 232.846C568.317 232.987 568.565 233.101 568.579 233.382Z" fill="white"/>
<path d="M593.566 221.175C592.157 219.793 590.735 218.425 589.34 217.03C587.442 215.138 585.563 213.226 583.679 211.328C583.679 209.852 583.679 208.383 583.679 206.908C583.664 206.757 583.683 206.605 583.734 206.462C583.785 206.319 583.867 206.19 583.974 206.083L593.21 196.893C593.284 196.819 593.378 196.759 593.445 196.698C593.653 196.772 593.593 196.927 593.593 197.041C593.593 204.978 593.593 212.913 593.593 220.846C593.591 220.956 593.582 221.066 593.566 221.175V221.175Z" fill="white" fill-opacity="0.5"/>
<path d="M593.566 221.175C592.157 219.793 590.735 218.425 589.34 217.03C587.442 215.138 585.563 213.226 583.679 211.328C583.679 209.852 583.679 208.383 583.679 206.908C583.664 206.757 583.683 206.605 583.734 206.462C583.785 206.319 583.867 206.19 583.974 206.083L593.21 196.893C593.284 196.819 593.378 196.759 593.445 196.698C593.653 196.772 593.593 196.927 593.593 197.041C593.593 204.978 593.593 212.913 593.593 220.846C593.591 220.956 593.582 221.066 593.566 221.175V221.175Z" fill="white" fill-opacity="0.5"/>
<path d="M606.29 304.536L606.914 315.552H605.578L605.234 309.8C605.218 309.411 605.202 309.016 605.186 308.616C605.17 308.216 605.16 307.832 605.154 307.464C605.149 307.096 605.146 306.768 605.146 306.48C605.146 306.192 605.146 305.968 605.146 305.808L603.29 313.576H601.898L599.906 305.808C599.912 305.963 599.917 306.192 599.922 306.496C599.928 306.795 599.93 307.133 599.93 307.512C599.936 307.891 599.933 308.28 599.922 308.68C599.917 309.075 599.906 309.443 599.89 309.784L599.594 315.552H598.29L598.914 304.536H600.85L602.634 312.08L604.338 304.536H606.29ZM615.036 313.712C615.036 314.048 615.092 314.293 615.204 314.448C615.316 314.603 615.489 314.717 615.724 314.792L615.396 315.736C615.033 315.688 614.716 315.573 614.444 315.392C614.172 315.205 613.975 314.925 613.852 314.552C613.548 314.941 613.169 315.237 612.716 315.44C612.263 315.637 611.761 315.736 611.212 315.736C610.369 315.736 609.705 315.499 609.22 315.024C608.735 314.549 608.492 313.92 608.492 313.136C608.492 312.267 608.831 311.6 609.508 311.136C610.185 310.672 611.164 310.44 612.444 310.44H613.684V309.736C613.684 309.128 613.505 308.699 613.148 308.448C612.796 308.192 612.305 308.064 611.676 308.064C611.399 308.064 611.073 308.099 610.7 308.168C610.327 308.232 609.921 308.341 609.484 308.496L609.132 307.48C609.649 307.288 610.135 307.152 610.588 307.072C611.041 306.992 611.473 306.952 611.884 306.952C612.935 306.952 613.721 307.197 614.244 307.688C614.772 308.173 615.036 308.835 615.036 309.672V313.712ZM611.556 314.712C611.972 314.712 612.369 314.608 612.748 314.4C613.127 314.187 613.439 313.893 613.684 313.52V311.352H612.468C611.54 311.352 610.884 311.512 610.5 311.832C610.121 312.152 609.932 312.581 609.932 313.12C609.932 313.643 610.065 314.04 610.332 314.312C610.604 314.579 611.012 314.712 611.556 314.712ZM625.286 315.128C624.998 315.32 624.649 315.469 624.238 315.576C623.827 315.683 623.425 315.736 623.03 315.736C622.123 315.736 621.425 315.499 620.934 315.024C620.443 314.549 620.198 313.939 620.198 313.192V308.168H618.262V307.128H620.198V305.216L621.542 305.056V307.128H624.454L624.294 308.168H621.542V313.176C621.542 313.645 621.665 314.003 621.91 314.248C622.161 314.493 622.574 314.616 623.15 314.616C623.465 314.616 623.755 314.579 624.022 314.504C624.289 314.429 624.537 314.333 624.766 314.216L625.286 315.128ZM629.248 311.816C629.274 312.467 629.4 313 629.624 313.416C629.848 313.827 630.144 314.131 630.512 314.328C630.88 314.52 631.28 314.616 631.712 314.616C632.144 314.616 632.533 314.552 632.88 314.424C633.232 314.296 633.592 314.107 633.96 313.856L634.592 314.744C634.197 315.053 633.746 315.296 633.24 315.472C632.738 315.648 632.224 315.736 631.696 315.736C630.88 315.736 630.184 315.552 629.608 315.184C629.032 314.816 628.592 314.304 628.288 313.648C627.989 312.987 627.84 312.221 627.84 311.352C627.84 310.499 627.992 309.741 628.296 309.08C628.6 308.419 629.026 307.899 629.576 307.52C630.125 307.141 630.773 306.952 631.52 306.952C632.229 306.952 632.84 307.12 633.352 307.456C633.864 307.787 634.256 308.261 634.528 308.88C634.805 309.493 634.944 310.227 634.944 311.08C634.944 311.224 634.941 311.36 634.936 311.488C634.93 311.611 634.922 311.72 634.912 311.816H629.248ZM631.536 308.056C630.912 308.056 630.389 308.277 629.968 308.72C629.552 309.163 629.314 309.848 629.256 310.776H633.648C633.632 309.875 633.434 309.197 633.056 308.744C632.677 308.285 632.17 308.056 631.536 308.056ZM637.865 315.552V314.52H639.177V308.16H637.865V307.128H640.201L640.449 309.12C640.775 308.427 641.169 307.891 641.633 307.512C642.097 307.133 642.711 306.944 643.473 306.944C643.708 306.944 643.916 306.963 644.097 307C644.284 307.032 644.473 307.075 644.665 307.128L644.273 308.328C644.097 308.28 643.937 308.245 643.793 308.224C643.649 308.197 643.484 308.184 643.297 308.184C642.652 308.184 642.097 308.413 641.633 308.872C641.169 309.331 640.799 310.024 640.521 310.952V314.52H642.233V315.552H637.865ZM643.369 309.976V308.144L643.505 307.128H644.665L644.473 309.976H643.369ZM651.643 307.128V314.488H654.019V315.552H647.699V314.488H650.299V308.192H647.779V307.128H651.643ZM650.571 303.184C650.87 303.184 651.107 303.275 651.283 303.456C651.464 303.637 651.555 303.859 651.555 304.12C651.555 304.392 651.464 304.621 651.283 304.808C651.107 304.989 650.87 305.08 650.571 305.08C650.288 305.08 650.056 304.989 649.875 304.808C649.694 304.621 649.603 304.392 649.603 304.12C649.603 303.859 649.694 303.637 649.875 303.456C650.056 303.275 650.288 303.184 650.571 303.184ZM663.005 313.712C663.005 314.048 663.061 314.293 663.173 314.448C663.285 314.603 663.458 314.717 663.693 314.792L663.365 315.736C663.002 315.688 662.685 315.573 662.413 315.392C662.141 315.205 661.944 314.925 661.821 314.552C661.517 314.941 661.138 315.237 660.685 315.44C660.232 315.637 659.73 315.736 659.181 315.736C658.338 315.736 657.674 315.499 657.189 315.024C656.704 314.549 656.461 313.92 656.461 313.136C656.461 312.267 656.8 311.6 657.477 311.136C658.154 310.672 659.133 310.44 660.413 310.44H661.653V309.736C661.653 309.128 661.474 308.699 661.117 308.448C660.765 308.192 660.274 308.064 659.645 308.064C659.368 308.064 659.042 308.099 658.669 308.168C658.296 308.232 657.89 308.341 657.453 308.496L657.101 307.48C657.618 307.288 658.104 307.152 658.557 307.072C659.01 306.992 659.442 306.952 659.853 306.952C660.904 306.952 661.69 307.197 662.213 307.688C662.741 308.173 663.005 308.835 663.005 309.672V313.712ZM659.525 314.712C659.941 314.712 660.338 314.608 660.717 314.4C661.096 314.187 661.408 313.893 661.653 313.52V311.352H660.437C659.509 311.352 658.853 311.512 658.469 311.832C658.09 312.152 657.901 312.581 657.901 313.12C657.901 313.643 658.034 314.04 658.301 314.312C658.573 314.579 658.981 314.712 659.525 314.712ZM669.847 303.736V313.472C669.847 313.888 669.975 314.184 670.231 314.36C670.492 314.531 670.828 314.616 671.239 314.616C671.495 314.616 671.737 314.589 671.967 314.536C672.196 314.483 672.425 314.411 672.655 314.32L673.015 315.304C672.785 315.416 672.5 315.515 672.159 315.6C671.823 315.691 671.441 315.736 671.015 315.736C670.268 315.736 669.663 315.531 669.199 315.12C668.735 314.704 668.503 314.131 668.503 313.4V304.8H665.919V303.736H669.847ZM680.424 307.128V314.488H682.8V315.552H676.48V314.488H679.08V308.192H676.56V307.128H680.424ZM679.352 303.184C679.651 303.184 679.888 303.275 680.064 303.456C680.246 303.637 680.336 303.859 680.336 304.12C680.336 304.392 680.246 304.621 680.064 304.808C679.888 304.989 679.651 305.08 679.352 305.08C679.07 305.08 678.838 304.989 678.656 304.808C678.475 304.621 678.384 304.392 678.384 304.12C678.384 303.859 678.475 303.637 678.656 303.456C678.838 303.275 679.07 303.184 679.352 303.184ZM687.434 314.408H692.122L691.946 315.552H685.786V314.536L690.458 308.296H686.154V307.128H692.074V308.168L687.434 314.408ZM696.404 311.816C696.431 312.467 696.556 313 696.78 313.416C697.004 313.827 697.3 314.131 697.668 314.328C698.036 314.52 698.436 314.616 698.868 314.616C699.3 314.616 699.689 314.552 700.036 314.424C700.388 314.296 700.748 314.107 701.116 313.856L701.748 314.744C701.353 315.053 700.903 315.296 700.396 315.472C699.895 315.648 699.38 315.736 698.852 315.736C698.036 315.736 697.34 315.552 696.764 315.184C696.188 314.816 695.748 314.304 695.444 313.648C695.145 312.987 694.996 312.221 694.996 311.352C694.996 310.499 695.148 309.741 695.452 309.08C695.756 308.419 696.183 307.899 696.732 307.52C697.281 307.141 697.929 306.952 698.676 306.952C699.385 306.952 699.996 307.12 700.508 307.456C701.02 307.787 701.412 308.261 701.684 308.88C701.961 309.493 702.1 310.227 702.1 311.08C702.1 311.224 702.097 311.36 702.092 311.488C702.087 311.611 702.079 311.72 702.068 311.816H696.404ZM698.692 308.056C698.068 308.056 697.545 308.277 697.124 308.72C696.708 309.163 696.471 309.848 696.412 310.776H700.804C700.788 309.875 700.591 309.197 700.212 308.744C699.833 308.285 699.327 308.056 698.692 308.056Z" fill="black"/>
<rect x="644.488" y="174.304" width="24.32" height="9.728" fill="#C4C4C4" fill-opacity="0.75"/>
<rect x="672.456" y="174.304" width="24.32" height="9.728" fill="#C4C4C4" fill-opacity="0.75"/>
<rect x="700.424" y="174.304" width="24.32" height="9.728" fill="#C4C4C4" fill-opacity="0.75"/>
<rect x="728.392" y="174.304" width="24.32" height="9.728" fill="#C4C4C4" fill-opacity="0.75"/>
<rect x="644.488" y="187.68" width="24.32" height="9.728" fill="#C4C4C4" fill-opacity="0.5"/>
<rect x="672.456" y="187.68" width="24.32" height="9.728" fill="#C4C4C4" fill-opacity="0.25"/>
<rect x="700.424" y="187.68" width="24.32" height="9.728" fill="#C4C4C4" fill-opacity="0.25"/>
<rect x="728.392" y="187.68" width="24.32" height="9.728" fill="#C4C4C4" fill-opacity="0.25"/>
<rect x="644.488" y="201.056" width="24.32" height="9.728" fill="#C4C4C4" fill-opacity="0.5"/>
<rect x="672.456" y="201.056" width="24.32" height="9.728" fill="#C4C4C4" fill-opacity="0.25"/>
<rect x="700.424" y="201.056" width="24.32" height="9.728" fill="#C4C4C4" fill-opacity="0.25"/>
<rect x="728.392" y="201.056" width="24.32" height="9.728" fill="#C4C4C4" fill-opacity="0.25"/>
<rect x="644.488" y="214.432" width="24.32" height="9.728" fill="#C4C4C4" fill-opacity="0.5"/>
<rect x="672.456" y="214.432" width="24.32" height="9.728" fill="#C4C4C4" fill-opacity="0.25"/>
<rect x="700.424" y="214.432" width="24.32" height="9.728" fill="#C4C4C4" fill-opacity="0.25"/>
<rect x="728.392" y="214.432" width="24.32" height="9.728" fill="#C4C4C4" fill-opacity="0.25"/>
<rect x="644.488" y="227.808" width="24.32" height="9.728" fill="#C4C4C4" fill-opacity="0.5"/>
<rect x="672.456" y="227.808" width="24.32" height="9.728" fill="#C4C4C4" fill-opacity="0.25"/>
<rect x="700.424" y="227.808" width="24.32" height="9.728" fill="#C4C4C4" fill-opacity="0.25"/>
<rect x="728.392" y="227.808" width="24.32" height="9.728" fill="#C4C4C4" fill-opacity="0.25"/>
<rect x="644.488" y="241.184" width="24.32" height="9.728" fill="#C4C4C4" fill-opacity="0.5"/>
<rect x="672.456" y="241.184" width="24.32" height="9.728" fill="#C4C4C4" fill-opacity="0.25"/>
<rect x="700.424" y="241.184" width="24.32" height="9.728" fill="#C4C4C4" fill-opacity="0.25"/>
<rect x="728.392" y="241.184" width="24.32" height="9.728" fill="#C4C4C4" fill-opacity="0.25"/>
<g filter="url(#filter4_dddddd_0_1)">
<rect x="165" y="167" width="91.2" height="91.2" rx="16" fill="black"/>
<rect x="166.5" y="168.5" width="88.2" height="88.2" rx="14.5" stroke="url(#paint4_linear_0_1)" stroke-width="3"/>
</g>
<path d="M191.718 275.218C191.718 275.69 191.6 276.11 191.364 276.478C191.128 276.842 190.786 277.128 190.338 277.336C189.89 277.54 189.344 277.642 188.7 277.642C188.096 277.642 187.548 277.55 187.056 277.366C186.568 277.182 186.15 276.922 185.802 276.586L186.42 275.89C186.708 276.158 187.038 276.372 187.41 276.532C187.782 276.688 188.218 276.766 188.718 276.766C189.054 276.766 189.368 276.712 189.66 276.604C189.952 276.492 190.188 276.324 190.368 276.1C190.548 275.872 190.638 275.584 190.638 275.236C190.638 274.968 190.586 274.74 190.482 274.552C190.378 274.364 190.194 274.198 189.93 274.054C189.666 273.906 189.298 273.762 188.826 273.622C188.282 273.462 187.81 273.282 187.41 273.082C187.014 272.878 186.706 272.628 186.486 272.332C186.27 272.036 186.162 271.67 186.162 271.234C186.162 270.822 186.276 270.456 186.504 270.136C186.732 269.816 187.046 269.566 187.446 269.386C187.85 269.202 188.314 269.11 188.838 269.11C189.41 269.11 189.906 269.192 190.326 269.356C190.75 269.516 191.134 269.748 191.478 270.052L190.866 270.73C190.57 270.466 190.252 270.276 189.912 270.16C189.572 270.04 189.226 269.98 188.874 269.98C188.574 269.98 188.298 270.026 188.046 270.118C187.798 270.206 187.598 270.34 187.446 270.52C187.298 270.696 187.224 270.922 187.224 271.198C187.224 271.434 187.288 271.638 187.416 271.81C187.544 271.982 187.76 272.14 188.064 272.284C188.368 272.424 188.782 272.572 189.306 272.728C189.734 272.852 190.13 273.008 190.494 273.196C190.862 273.38 191.158 273.632 191.382 273.952C191.606 274.268 191.718 274.69 191.718 275.218ZM194.474 274.702C194.494 275.19 194.588 275.59 194.756 275.902C194.924 276.21 195.146 276.438 195.422 276.586C195.698 276.73 195.998 276.802 196.322 276.802C196.646 276.802 196.938 276.754 197.198 276.658C197.462 276.562 197.732 276.42 198.008 276.232L198.482 276.898C198.186 277.13 197.848 277.312 197.468 277.444C197.092 277.576 196.706 277.642 196.31 277.642C195.698 277.642 195.176 277.504 194.744 277.228C194.312 276.952 193.982 276.568 193.754 276.076C193.53 275.58 193.418 275.006 193.418 274.354C193.418 273.714 193.532 273.146 193.76 272.65C193.988 272.154 194.308 271.764 194.72 271.48C195.132 271.196 195.618 271.054 196.178 271.054C196.71 271.054 197.168 271.18 197.552 271.432C197.936 271.68 198.23 272.036 198.434 272.5C198.642 272.96 198.746 273.51 198.746 274.15C198.746 274.258 198.744 274.36 198.74 274.456C198.736 274.548 198.73 274.63 198.722 274.702H194.474ZM196.19 271.882C195.722 271.882 195.33 272.048 195.014 272.38C194.702 272.712 194.524 273.226 194.48 273.922H197.774C197.762 273.246 197.614 272.738 197.33 272.398C197.046 272.054 196.666 271.882 196.19 271.882ZM206.013 270.514L206.325 271.462C206.057 271.546 205.771 271.598 205.467 271.618C205.163 271.638 204.833 271.648 204.477 271.648C204.841 271.816 205.115 272.034 205.299 272.302C205.483 272.566 205.575 272.878 205.575 273.238C205.575 273.654 205.481 274.024 205.293 274.348C205.105 274.672 204.833 274.926 204.477 275.11C204.125 275.294 203.699 275.386 203.199 275.386C202.987 275.386 202.809 275.376 202.665 275.356C202.525 275.336 202.389 275.306 202.257 275.266C202.161 275.33 202.081 275.418 202.017 275.53C201.957 275.642 201.927 275.758 201.927 275.878C201.927 276.03 201.987 276.156 202.107 276.256C202.227 276.356 202.449 276.406 202.773 276.406H203.913C204.337 276.406 204.717 276.482 205.053 276.634C205.393 276.786 205.659 276.99 205.851 277.246C206.047 277.502 206.145 277.794 206.145 278.122C206.145 278.742 205.881 279.218 205.353 279.55C204.829 279.882 204.087 280.048 203.127 280.048C202.455 280.048 201.925 279.978 201.537 279.838C201.149 279.702 200.871 279.492 200.703 279.208C200.539 278.928 200.457 278.574 200.457 278.146H201.369C201.369 278.39 201.417 278.592 201.513 278.752C201.609 278.912 201.783 279.03 202.035 279.106C202.287 279.186 202.649 279.226 203.121 279.226C203.585 279.226 203.963 279.186 204.255 279.106C204.551 279.03 204.769 278.914 204.909 278.758C205.053 278.606 205.125 278.416 205.125 278.188C205.125 277.888 204.989 277.662 204.717 277.51C204.445 277.358 204.105 277.282 203.697 277.282H202.569C202.025 277.282 201.623 277.162 201.363 276.922C201.107 276.682 200.979 276.406 200.979 276.094C200.979 275.89 201.037 275.692 201.153 275.5C201.273 275.308 201.447 275.138 201.675 274.99C201.311 274.798 201.043 274.56 200.871 274.276C200.699 273.992 200.613 273.648 200.613 273.244C200.613 272.816 200.719 272.438 200.931 272.11C201.143 271.778 201.439 271.518 201.819 271.33C202.199 271.142 202.637 271.048 203.133 271.048C203.665 271.044 204.097 271.022 204.429 270.982C204.761 270.938 205.045 270.876 205.281 270.796C205.521 270.716 205.765 270.622 206.013 270.514ZM203.133 271.786C202.625 271.786 202.249 271.924 202.005 272.2C201.765 272.472 201.645 272.82 201.645 273.244C201.645 273.672 201.769 274.024 202.017 274.3C202.265 274.576 202.645 274.714 203.157 274.714C203.605 274.714 203.945 274.584 204.177 274.324C204.413 274.064 204.531 273.702 204.531 273.238C204.531 272.762 204.413 272.402 204.177 272.158C203.945 271.91 203.597 271.786 203.133 271.786ZM212.236 271.054C212.44 271.054 212.634 271.098 212.818 271.186C213.006 271.274 213.16 271.444 213.28 271.696C213.4 271.948 213.46 272.316 213.46 272.8V277.504H212.524V272.962C212.524 272.566 212.5 272.28 212.452 272.104C212.404 271.928 212.266 271.84 212.038 271.84C211.85 271.84 211.662 271.9 211.474 272.02C211.29 272.136 211.11 272.328 210.934 272.596V277.504H209.992V272.962C209.992 272.566 209.968 272.28 209.92 272.104C209.872 271.928 209.734 271.84 209.506 271.84C209.31 271.84 209.12 271.9 208.936 272.02C208.756 272.136 208.578 272.328 208.402 272.596V277.504H207.472V271.186H208.264L208.324 271.918C208.496 271.674 208.688 271.47 208.9 271.306C209.116 271.138 209.382 271.054 209.698 271.054C209.938 271.054 210.164 271.112 210.376 271.228C210.588 271.34 210.744 271.56 210.844 271.888C211.016 271.64 211.21 271.44 211.426 271.288C211.642 271.132 211.912 271.054 212.236 271.054ZM216.06 274.702C216.08 275.19 216.174 275.59 216.342 275.902C216.51 276.21 216.732 276.438 217.008 276.586C217.284 276.73 217.584 276.802 217.908 276.802C218.232 276.802 218.524 276.754 218.784 276.658C219.048 276.562 219.318 276.42 219.594 276.232L220.068 276.898C219.772 277.13 219.434 277.312 219.054 277.444C218.678 277.576 218.292 277.642 217.896 277.642C217.284 277.642 216.762 277.504 216.33 277.228C215.898 276.952 215.568 276.568 215.34 276.076C215.116 275.58 215.004 275.006 215.004 274.354C215.004 273.714 215.118 273.146 215.346 272.65C215.574 272.154 215.894 271.764 216.306 271.48C216.718 271.196 217.204 271.054 217.764 271.054C218.296 271.054 218.754 271.18 219.138 271.432C219.522 271.68 219.816 272.036 220.02 272.5C220.228 272.96 220.332 273.51 220.332 274.15C220.332 274.258 220.33 274.36 220.326 274.456C220.322 274.548 220.316 274.63 220.308 274.702H216.06ZM217.776 271.882C217.308 271.882 216.916 272.048 216.6 272.38C216.288 272.712 216.11 273.226 216.066 273.922H219.36C219.348 273.246 219.2 272.738 218.916 272.398C218.632 272.054 218.252 271.882 217.776 271.882ZM222.463 277.504V271.186H223.321L223.399 272.062C223.655 271.738 223.975 271.49 224.359 271.318C224.747 271.142 225.123 271.054 225.487 271.054C226.107 271.054 226.557 271.218 226.837 271.546C227.121 271.874 227.263 272.33 227.263 272.914V277.504H226.255V273.658C226.255 273.226 226.231 272.878 226.183 272.614C226.135 272.346 226.035 272.152 225.883 272.032C225.731 271.908 225.495 271.846 225.175 271.846C224.927 271.846 224.693 271.9 224.473 272.008C224.257 272.116 224.063 272.252 223.891 272.416C223.723 272.576 223.583 272.738 223.471 272.902V277.504H222.463ZM234.674 277.186C234.458 277.33 234.196 277.442 233.888 277.522C233.58 277.602 233.278 277.642 232.982 277.642C232.302 277.642 231.778 277.464 231.41 277.108C231.042 276.752 230.858 276.294 230.858 275.734V271.966H229.406V271.186H230.858V269.752L231.866 269.632V271.186H234.05L233.93 271.966H231.866V275.722C231.866 276.074 231.958 276.342 232.142 276.526C232.33 276.71 232.64 276.802 233.072 276.802C233.308 276.802 233.526 276.774 233.726 276.718C233.926 276.662 234.112 276.59 234.284 276.502L234.674 277.186Z" fill="black"/>
<path d="M215.906 220.425H188.305C187.037 220.425 186 219.388 186 218.12C186 216.852 187.037 215.815 188.305 215.815H215.906C217.174 215.815 218.211 216.852 218.211 218.12C218.211 219.388 217.174 220.425 215.906 220.425Z" fill="#99CFAC"/>
<path d="M210.029 234.543C207.782 234.543 205.534 234.197 203.402 233.563C202.192 233.16 201.501 231.892 201.904 230.682C202.307 229.472 203.575 228.78 204.785 229.184C206.456 229.702 208.243 229.99 210.029 229.99C217.866 229.99 224.665 224.977 226.912 217.486C227.258 216.276 228.584 215.585 229.794 215.93C231.004 216.276 231.695 217.601 231.349 218.812C228.411 228.204 219.882 234.543 210.029 234.543Z" fill="#49B881"/>
<path d="M231.695 208.728H204.094C202.826 208.728 201.789 207.69 201.789 206.423C201.789 205.155 202.826 204.118 204.094 204.118H231.695C232.963 204.118 234 205.155 234 206.423C234 207.69 232.963 208.728 231.695 208.728Z" fill="#99CFAC"/>
<path d="M190.898 208.727C190.667 208.727 190.437 208.67 190.206 208.612C188.996 208.267 188.305 206.941 188.651 205.731C191.589 196.339 200.118 190 210.029 190C212.276 190 214.523 190.346 216.655 190.98C217.866 191.383 218.557 192.651 218.154 193.861C217.75 195.071 216.483 195.762 215.272 195.359C213.601 194.84 211.815 194.552 210.029 194.552C202.192 194.552 195.393 199.565 193.145 207.056C192.8 208.094 191.878 208.727 190.898 208.727V208.727Z" fill="#49B881"/>
<path d="M223.686 199.969C224.959 199.969 225.99 198.937 225.99 197.664C225.99 196.391 224.959 195.359 223.686 195.359C222.413 195.359 221.381 196.391 221.381 197.664C221.381 198.937 222.413 199.969 223.686 199.969Z" fill="#99CFAC"/>
<path d="M196.315 229.241C197.588 229.241 198.619 228.209 198.619 226.936C198.619 225.663 197.588 224.631 196.315 224.631C195.042 224.631 194.01 225.663 194.01 226.936C194.01 228.209 195.042 229.241 196.315 229.241Z" fill="#99CFAC"/>
<path d="M285.885 244.738L284.625 253H283.257L282.309 246.766L281.355 253H279.957L278.793 244.738H279.837L280.719 251.854L281.709 245.698H282.987L283.929 251.854L284.919 244.738H285.885ZM287.932 250.198C287.952 250.686 288.046 251.086 288.214 251.398C288.382 251.706 288.604 251.934 288.88 252.082C289.156 252.226 289.456 252.298 289.78 252.298C290.104 252.298 290.396 252.25 290.656 252.154C290.92 252.058 291.19 251.916 291.466 251.728L291.94 252.394C291.644 252.626 291.306 252.808 290.926 252.94C290.55 253.072 290.164 253.138 289.768 253.138C289.156 253.138 288.634 253 288.202 252.724C287.77 252.448 287.44 252.064 287.212 251.572C286.988 251.076 286.876 250.502 286.876 249.85C286.876 249.21 286.99 248.642 287.218 248.146C287.446 247.65 287.766 247.26 288.178 246.976C288.59 246.692 289.076 246.55 289.636 246.55C290.168 246.55 290.626 246.676 291.01 246.928C291.394 247.176 291.688 247.532 291.892 247.996C292.1 248.456 292.204 249.006 292.204 249.646C292.204 249.754 292.202 249.856 292.198 249.952C292.194 250.044 292.188 250.126 292.18 250.198H287.932ZM289.648 247.378C289.18 247.378 288.788 247.544 288.472 247.876C288.16 248.208 287.982 248.722 287.938 249.418H291.232C291.22 248.742 291.072 248.234 290.788 247.894C290.504 247.55 290.124 247.378 289.648 247.378ZM295.343 247.504C295.575 247.2 295.841 246.966 296.141 246.802C296.445 246.634 296.779 246.55 297.143 246.55C297.707 246.55 298.163 246.686 298.511 246.958C298.859 247.23 299.113 247.614 299.273 248.11C299.433 248.602 299.513 249.178 299.513 249.838C299.513 250.474 299.417 251.042 299.225 251.542C299.033 252.038 298.751 252.428 298.379 252.712C298.011 252.996 297.555 253.138 297.011 253.138C296.279 253.138 295.705 252.874 295.289 252.346L295.217 253H294.335V244.138L295.343 244.012V247.504ZM296.771 252.322C297.299 252.322 297.705 252.118 297.989 251.71C298.273 251.302 298.415 250.676 298.415 249.832C298.415 249.28 298.359 248.822 298.247 248.458C298.135 248.09 297.967 247.816 297.743 247.636C297.523 247.452 297.251 247.36 296.927 247.36C296.575 247.36 296.265 247.466 295.997 247.678C295.733 247.886 295.515 248.118 295.343 248.374V251.506C295.507 251.754 295.713 251.952 295.961 252.1C296.213 252.248 296.483 252.322 296.771 252.322ZM302.539 244.042V247.546C302.787 247.214 303.091 246.966 303.451 246.802C303.815 246.634 304.183 246.55 304.555 246.55C305.171 246.55 305.621 246.714 305.905 247.042C306.189 247.37 306.331 247.826 306.331 248.41V253H305.323V248.434C305.323 248.054 305.235 247.778 305.059 247.606C304.883 247.43 304.607 247.342 304.231 247.342C303.991 247.342 303.763 247.396 303.547 247.504C303.331 247.612 303.137 247.746 302.965 247.906C302.793 248.066 302.651 248.23 302.539 248.398V253H301.531V244.15L302.539 244.042ZM311.132 246.55C311.728 246.55 312.226 246.686 312.626 246.958C313.03 247.226 313.332 247.606 313.532 248.098C313.736 248.59 313.838 249.17 313.838 249.838C313.838 250.482 313.734 251.052 313.526 251.548C313.318 252.044 313.012 252.434 312.608 252.718C312.208 252.998 311.712 253.138 311.12 253.138C310.528 253.138 310.03 253.002 309.626 252.73C309.222 252.458 308.916 252.076 308.708 251.584C308.504 251.088 308.402 250.51 308.402 249.85C308.402 249.198 308.506 248.624 308.714 248.128C308.922 247.632 309.228 247.246 309.632 246.97C310.04 246.69 310.54 246.55 311.132 246.55ZM311.132 247.372C310.588 247.372 310.176 247.574 309.896 247.978C309.62 248.378 309.482 249.002 309.482 249.85C309.482 250.682 309.618 251.3 309.89 251.704C310.166 252.108 310.576 252.31 311.12 252.31C311.664 252.31 312.072 252.108 312.344 251.704C312.62 251.3 312.758 250.678 312.758 249.838C312.758 248.998 312.622 248.378 312.35 247.978C312.078 247.574 311.672 247.372 311.132 247.372ZM318.327 246.55C318.923 246.55 319.421 246.686 319.821 246.958C320.225 247.226 320.527 247.606 320.727 248.098C320.931 248.59 321.033 249.17 321.033 249.838C321.033 250.482 320.929 251.052 320.721 251.548C320.513 252.044 320.207 252.434 319.803 252.718C319.403 252.998 318.907 253.138 318.315 253.138C317.723 253.138 317.225 253.002 316.821 252.73C316.417 252.458 316.111 252.076 315.903 251.584C315.699 251.088 315.597 250.51 315.597 249.85C315.597 249.198 315.701 248.624 315.909 248.128C316.117 247.632 316.423 247.246 316.827 246.97C317.235 246.69 317.735 246.55 318.327 246.55ZM318.327 247.372C317.783 247.372 317.371 247.574 317.091 247.978C316.815 248.378 316.677 249.002 316.677 249.85C316.677 250.682 316.813 251.3 317.085 251.704C317.361 252.108 317.771 252.31 318.315 252.31C318.859 252.31 319.267 252.108 319.539 251.704C319.815 251.3 319.953 250.678 319.953 249.838C319.953 248.998 319.817 248.378 319.545 247.978C319.273 247.574 318.867 247.372 318.327 247.372ZM328.409 246.682L325.565 249.526L328.739 253H327.413L324.305 249.55L327.101 246.682H328.409ZM324.191 244.012V253H323.183V244.138L324.191 244.012ZM332.46 252.304C332.944 252.304 333.326 252.214 333.606 252.034C333.89 251.85 334.032 251.606 334.032 251.302C334.032 251.11 333.996 250.944 333.924 250.804C333.856 250.664 333.714 250.538 333.498 250.426C333.282 250.314 332.95 250.202 332.502 250.09C332.066 249.982 331.686 249.858 331.362 249.718C331.042 249.574 330.792 249.388 330.612 249.16C330.436 248.932 330.348 248.636 330.348 248.272C330.348 247.916 330.448 247.61 330.648 247.354C330.852 247.094 331.134 246.896 331.494 246.76C331.854 246.62 332.272 246.55 332.748 246.55C333.256 246.55 333.698 246.618 334.074 246.754C334.454 246.886 334.776 247.05 335.04 247.246L334.596 247.93C334.356 247.766 334.092 247.632 333.804 247.528C333.516 247.42 333.168 247.366 332.76 247.366C332.264 247.366 331.912 247.444 331.704 247.6C331.496 247.752 331.392 247.95 331.392 248.194C331.392 248.378 331.442 248.532 331.542 248.656C331.646 248.776 331.82 248.886 332.064 248.986C332.308 249.082 332.644 249.188 333.072 249.304C333.484 249.412 333.842 249.542 334.146 249.694C334.454 249.846 334.694 250.046 334.866 250.294C335.038 250.542 335.124 250.862 335.124 251.254C335.124 251.702 334.996 252.066 334.74 252.346C334.484 252.622 334.152 252.824 333.744 252.952C333.34 253.076 332.912 253.138 332.46 253.138C331.888 253.138 331.4 253.056 330.996 252.892C330.596 252.724 330.26 252.522 329.988 252.286L330.564 251.62C330.812 251.824 331.096 251.99 331.416 252.118C331.74 252.242 332.088 252.304 332.46 252.304Z" fill="black"/>
<g filter="url(#filter5_d_0_1)">
<path d="M307.705 207.684C305.604 211.207 303.62 214.65 301.558 218.016C301.052 218.877 300.78 219.581 301.208 220.716C302.375 223.769 300.741 226.743 297.667 227.565C294.788 228.308 291.948 226.43 291.365 223.299C290.859 220.56 292.999 217.82 295.994 217.39C296.267 217.351 296.5 217.351 296.928 217.311C298.406 214.807 299.924 212.263 301.519 209.563C298.64 206.667 296.889 203.301 297.278 199.114C297.55 196.14 298.718 193.596 300.818 191.483C304.865 187.452 311.05 186.826 315.836 189.918C320.427 192.892 322.527 198.644 320.738 203.575C319.376 203.223 318.014 202.832 316.536 202.44C317.081 199.701 316.692 197.236 314.824 195.122C313.618 193.714 312.062 193.009 310.272 192.735C306.732 192.187 303.231 194.496 302.18 198.018C301.052 202.01 302.842 205.258 307.705 207.684Z" fill="#C73A63"/>
<path d="M313.657 203.536C315.135 206.158 316.614 208.78 318.092 211.402C325.562 209.054 331.203 213.241 333.226 217.703C335.677 223.103 334.004 229.482 329.18 232.808C324.239 236.213 318.014 235.626 313.657 231.243C314.785 230.304 315.875 229.365 317.081 228.347C321.399 231.165 325.173 231.008 327.974 227.682C330.347 224.825 330.308 220.599 327.857 217.82C325.017 214.611 321.244 214.533 316.653 217.585C314.746 214.181 312.801 210.815 310.973 207.41C310.35 206.276 309.65 205.571 308.249 205.336C305.915 204.945 304.398 202.91 304.32 200.64C304.242 198.41 305.526 196.375 307.588 195.592C309.611 194.809 311.984 195.435 313.385 197.197C314.513 198.605 314.863 200.21 314.28 201.971C314.085 202.48 313.89 202.949 313.657 203.536Z" fill="#4B4B4B"/>
<path d="M317.159 224.864C314.202 224.864 311.245 224.864 308.133 224.864C307.277 228.426 305.409 231.321 302.18 233.161C299.69 234.57 297.006 235.078 294.127 234.609C288.836 233.748 284.556 228.973 284.167 223.612C283.778 217.507 287.941 212.068 293.465 210.854C293.854 212.263 294.244 213.672 294.633 215.081C289.536 217.703 287.785 220.99 289.186 225.099C290.431 228.739 294.01 230.695 297.862 229.952C301.83 229.169 303.814 225.882 303.581 220.56C307.316 220.56 311.089 220.52 314.824 220.56C316.303 220.599 317.431 220.442 318.52 219.151C320.349 216.998 323.656 217.194 325.64 219.229C327.624 221.303 327.546 224.59 325.445 226.586C323.422 228.504 320.193 228.386 318.287 226.351C317.859 225.882 317.548 225.373 317.159 224.864Z" fill="#4A4A4A"/>
</g>
<defs>
<filter id="filter0_d_0_1" x="446" y="201" width="73" height="20" filterUnits="userSpaceOnUse" color-interpolation-filters="sRGB">
<feFlood flood-opacity="0" result="BackgroundImageFix"/>
<feColorMatrix in="SourceAlpha" type="matrix" values="0 0 0 0 0 0 0 0 0 0 0 0 0 0 0 0 0 0 127 0" result="hardAlpha"/>
<feOffset/>
<feGaussianBlur stdDeviation="2"/>
<feComposite in2="hardAlpha" operator="out"/>
<feColorMatrix type="matrix" values="0 0 0 0 0.34902 0 0 0 0 0.764706 0 0 0 0 1 0 0 0 0.5 0"/>
<feBlend mode="normal" in2="BackgroundImageFix" result="effect1_dropShadow_0_1"/>
<feBlend mode="normal" in="SourceGraphic" in2="effect1_dropShadow_0_1" result="shape"/>
</filter>
<filter id="filter1_d_0_1" x="252" y="204" width="112" height="20" filterUnits="userSpaceOnUse" color-interpolation-filters="sRGB">
<feFlood flood-opacity="0" result="BackgroundImageFix"/>
<feColorMatrix in="SourceAlpha" type="matrix" values="0 0 0 0 0 0 0 0 0 0 0 0 0 0 0 0 0 0 127 0" result="hardAlpha"/>
<feOffset/>
<feGaussianBlur stdDeviation="2"/>
<feComposite in2="hardAlpha" operator="out"/>
<feColorMatrix type="matrix" values="0 0 0 0 0.34902 0 0 0 0 0.764706 0 0 0 0 1 0 0 0 0.5 0"/>
<feBlend mode="normal" in2="BackgroundImageFix" result="effect1_dropShadow_0_1"/>
<feBlend mode="normal" in="SourceGraphic" in2="effect1_dropShadow_0_1" result="shape"/>
</filter>
<filter id="filter2_dddddd_0_1" x="195.391" y="22.3906" width="420.419" height="420.419" filterUnits="userSpaceOnUse" color-interpolation-filters="sRGB">
<feFlood flood-opacity="0" result="BackgroundImageFix"/>
<feColorMatrix in="SourceAlpha" type="matrix" values="0 0 0 0 0 0 0 0 0 0 0 0 0 0 0 0 0 0 127 0" result="hardAlpha"/>
<feOffset dy="3.86104"/>
<feGaussianBlur stdDeviation="2.27758"/>
<feColorMatrix type="matrix" values="0 0 0 0 0.34902 0 0 0 0 0.764706 0 0 0 0 1 0 0 0 0.0449833 0"/>
<feBlend mode="normal" in2="BackgroundImageFix" result="effect1_dropShadow_0_1"/>
<feColorMatrix in="SourceAlpha" type="matrix" values="0 0 0 0 0 0 0 0 0 0 0 0 0 0 0 0 0 0 127 0" result="hardAlpha"/>
<feOffset dy="9.27862"/>
<feGaussianBlur stdDeviation="5.47335"/>
<feColorMatrix type="matrix" values="0 0 0 0 0.34902 0 0 0 0 0.764706 0 0 0 0 1 0 0 0 0.0646228 0"/>
<feBlend mode="normal" in2="effect1_dropShadow_0_1" result="effect2_dropShadow_0_1"/>
<feColorMatrix in="SourceAlpha" type="matrix" values="0 0 0 0 0 0 0 0 0 0 0 0 0 0 0 0 0 0 127 0" result="hardAlpha"/>
<feOffset dy="17.4708"/>
<feGaussianBlur stdDeviation="10.3058"/>
<feColorMatrix type="matrix" values="0 0 0 0 0.34902 0 0 0 0 0.764706 0 0 0 0 1 0 0 0 0.08 0"/>
<feBlend mode="normal" in2="effect2_dropShadow_0_1" result="effect3_dropShadow_0_1"/>
<feColorMatrix in="SourceAlpha" type="matrix" values="0 0 0 0 0 0 0 0 0 0 0 0 0 0 0 0 0 0 127 0" result="hardAlpha"/>
<feOffset dy="10"/>
<feGaussianBlur stdDeviation="18.3838"/>
<feColorMatrix type="matrix" values="0 0 0 0 0.34902 0 0 0 0 0.764706 0 0 0 0 1 0 0 0 0.0953772 0"/>
<feBlend mode="normal" in2="effect3_dropShadow_0_1" result="effect4_dropShadow_0_1"/>
<feColorMatrix in="SourceAlpha" type="matrix" values="0 0 0 0 0 0 0 0 0 0 0 0 0 0 0 0 0 0 127 0" result="hardAlpha"/>
<feOffset dy="10"/>
<feGaussianBlur stdDeviation="34.3849"/>
<feColorMatrix type="matrix" values="0 0 0 0 0.34902 0 0 0 0 0.764706 0 0 0 0 1 0 0 0 0.115 0"/>
<feBlend mode="normal" in2="effect4_dropShadow_0_1" result="effect5_dropShadow_0_1"/>
<feColorMatrix in="SourceAlpha" type="matrix" values="0 0 0 0 0 0 0 0 0 0 0 0 0 0 0 0 0 0 127 0" result="hardAlpha"/>
<feOffset dy="20"/>
<feGaussianBlur stdDeviation="82.3047"/>
<feColorMatrix type="matrix" values="0 0 0 0 0.34902 0 0 0 0 0.764706 0 0 0 0 1 0 0 0 0.16 0"/>
<feBlend mode="normal" in2="effect5_dropShadow_0_1" result="effect6_dropShadow_0_1"/>
<feBlend mode="normal" in="SourceGraphic" in2="effect6_dropShadow_0_1" result="shape"/>
</filter>
<filter id="filter3_dddddd_0_1" x="349.767" y="0.51062" width="596.739" height="462.979" filterUnits="userSpaceOnUse" color-interpolation-filters="sRGB">
<feFlood flood-opacity="0" result="BackgroundImageFix"/>
<feColorMatrix in="SourceAlpha" type="matrix" values="0 0 0 0 0 0 0 0 0 0 0 0 0 0 0 0 0 0 127 0" result="hardAlpha"/>
<feOffset dy="3.86104"/>
<feGaussianBlur stdDeviation="2.27758"/>
<feColorMatrix type="matrix" values="0 0 0 0 0.313726 0 0 0 0 0.101961 0 0 0 0 0.984314 0 0 0 0.0449833 0"/>
<feBlend mode="normal" in2="BackgroundImageFix" result="effect1_dropShadow_0_1"/>
<feColorMatrix in="SourceAlpha" type="matrix" values="0 0 0 0 0 0 0 0 0 0 0 0 0 0 0 0 0 0 127 0" result="hardAlpha"/>
<feOffset dy="9.27862"/>
<feGaussianBlur stdDeviation="5.47335"/>
<feColorMatrix type="matrix" values="0 0 0 0 0.313726 0 0 0 0 0.101961 0 0 0 0 0.984314 0 0 0 0.0646228 0"/>
<feBlend mode="normal" in2="effect1_dropShadow_0_1" result="effect2_dropShadow_0_1"/>
<feColorMatrix in="SourceAlpha" type="matrix" values="0 0 0 0 0 0 0 0 0 0 0 0 0 0 0 0 0 0 127 0" result="hardAlpha"/>
<feOffset dy="17.4708"/>
<feGaussianBlur stdDeviation="10.3058"/>
<feColorMatrix type="matrix" values="0 0 0 0 0.313726 0 0 0 0 0.101961 0 0 0 0 0.984314 0 0 0 0.08 0"/>
<feBlend mode="normal" in2="effect2_dropShadow_0_1" result="effect3_dropShadow_0_1"/>
<feColorMatrix in="SourceAlpha" type="matrix" values="0 0 0 0 0 0 0 0 0 0 0 0 0 0 0 0 0 0 127 0" result="hardAlpha"/>
<feOffset dy="10"/>
<feGaussianBlur stdDeviation="18.3838"/>
<feColorMatrix type="matrix" values="0 0 0 0 0.313726 0 0 0 0 0.101961 0 0 0 0 0.984314 0 0 0 0.0953772 0"/>
<feBlend mode="normal" in2="effect3_dropShadow_0_1" result="effect4_dropShadow_0_1"/>
<feColorMatrix in="SourceAlpha" type="matrix" values="0 0 0 0 0 0 0 0 0 0 0 0 0 0 0 0 0 0 127 0" result="hardAlpha"/>
<feOffset dy="10"/>
<feGaussianBlur stdDeviation="34.3849"/>
<feColorMatrix type="matrix" values="0 0 0 0 0.313726 0 0 0 0 0.101961 0 0 0 0 0.984314 0 0 0 0.115017 0"/>
<feBlend mode="normal" in2="effect4_dropShadow_0_1" result="effect5_dropShadow_0_1"/>
<feColorMatrix in="SourceAlpha" type="matrix" values="0 0 0 0 0 0 0 0 0 0 0 0 0 0 0 0 0 0 127 0" result="hardAlpha"/>
<feOffset dy="20"/>
<feGaussianBlur stdDeviation="82.3047"/>
<feColorMatrix type="matrix" values="0 0 0 0 0.313726 0 0 0 0 0.101961 0 0 0 0 0.984314 0 0 0 0.16 0"/>
<feBlend mode="normal" in2="effect5_dropShadow_0_1" result="effect6_dropShadow_0_1"/>
<feBlend mode="normal" in="SourceGraphic" in2="effect6_dropShadow_0_1" result="shape"/>
</filter>
<filter id="filter4_dddddd_0_1" x="0.390625" y="22.3906" width="420.419" height="420.419" filterUnits="userSpaceOnUse" color-interpolation-filters="sRGB">
<feFlood flood-opacity="0" result="BackgroundImageFix"/>
<feColorMatrix in="SourceAlpha" type="matrix" values="0 0 0 0 0 0 0 0 0 0 0 0 0 0 0 0 0 0 127 0" result="hardAlpha"/>
<feOffset dy="3.86104"/>
<feGaussianBlur stdDeviation="2.27758"/>
<feColorMatrix type="matrix" values="0 0 0 0 0.34902 0 0 0 0 0.764706 0 0 0 0 1 0 0 0 0.0449833 0"/>
<feBlend mode="normal" in2="BackgroundImageFix" result="effect1_dropShadow_0_1"/>
<feColorMatrix in="SourceAlpha" type="matrix" values="0 0 0 0 0 0 0 0 0 0 0 0 0 0 0 0 0 0 127 0" result="hardAlpha"/>
<feOffset dy="9.27862"/>
<feGaussianBlur stdDeviation="5.47335"/>
<feColorMatrix type="matrix" values="0 0 0 0 0.34902 0 0 0 0 0.764706 0 0 0 0 1 0 0 0 0.0646228 0"/>
<feBlend mode="normal" in2="effect1_dropShadow_0_1" result="effect2_dropShadow_0_1"/>
<feColorMatrix in="SourceAlpha" type="matrix" values="0 0 0 0 0 0 0 0 0 0 0 0 0 0 0 0 0 0 127 0" result="hardAlpha"/>
<feOffset dy="17.4708"/>
<feGaussianBlur stdDeviation="10.3058"/>
<feColorMatrix type="matrix" values="0 0 0 0 0.34902 0 0 0 0 0.764706 0 0 0 0 1 0 0 0 0.08 0"/>
<feBlend mode="normal" in2="effect2_dropShadow_0_1" result="effect3_dropShadow_0_1"/>
<feColorMatrix in="SourceAlpha" type="matrix" values="0 0 0 0 0 0 0 0 0 0 0 0 0 0 0 0 0 0 127 0" result="hardAlpha"/>
<feOffset dy="10"/>
<feGaussianBlur stdDeviation="18.3838"/>
<feColorMatrix type="matrix" values="0 0 0 0 0.34902 0 0 0 0 0.764706 0 0 0 0 1 0 0 0 0.0953772 0"/>
<feBlend mode="normal" in2="effect3_dropShadow_0_1" result="effect4_dropShadow_0_1"/>
<feColorMatrix in="SourceAlpha" type="matrix" values="0 0 0 0 0 0 0 0 0 0 0 0 0 0 0 0 0 0 127 0" result="hardAlpha"/>
<feOffset dy="10"/>
<feGaussianBlur stdDeviation="34.3849"/>
<feColorMatrix type="matrix" values="0 0 0 0 0.34902 0 0 0 0 0.764706 0 0 0 0 1 0 0 0 0.115 0"/>
<feBlend mode="normal" in2="effect4_dropShadow_0_1" result="effect5_dropShadow_0_1"/>
<feColorMatrix in="SourceAlpha" type="matrix" values="0 0 0 0 0 0 0 0 0 0 0 0 0 0 0 0 0 0 127 0" result="hardAlpha"/>
<feOffset dy="20"/>
<feGaussianBlur stdDeviation="82.3047"/>
<feColorMatrix type="matrix" values="0 0 0 0 0.34902 0 0 0 0 0.764706 0 0 0 0 1 0 0 0 0.16 0"/>
<feBlend mode="normal" in2="effect5_dropShadow_0_1" result="effect6_dropShadow_0_1"/>
<feBlend mode="normal" in="SourceGraphic" in2="effect6_dropShadow_0_1" result="shape"/>
</filter>
<filter id="filter5_d_0_1" x="279.142" y="182.966" width="60.2037" height="57.0356" filterUnits="userSpaceOnUse" color-interpolation-filters="sRGB">
<feFlood flood-opacity="0" result="BackgroundImageFix"/>
<feColorMatrix in="SourceAlpha" type="matrix" values="0 0 0 0 0 0 0 0 0 0 0 0 0 0 0 0 0 0 127 0" result="hardAlpha"/>
<feOffset/>
<feGaussianBlur stdDeviation="2.5"/>
<feComposite in2="hardAlpha" operator="out"/>
<feColorMatrix type="matrix" values="0 0 0 0 0 0 0 0 0 0 0 0 0 0 0 0 0 0 0.25 0"/>
<feBlend mode="normal" in2="BackgroundImageFix" result="effect1_dropShadow_0_1"/>
<feBlend mode="normal" in="SourceGraphic" in2="effect1_dropShadow_0_1" result="shape"/>
</filter>
<linearGradient id="paint0_linear_0_1" x1="447" y1="211" x2="518" y2="211" gradientUnits="userSpaceOnUse">
<stop stop-color="#59C3FF"/>
<stop offset="1" stop-color="#AD00FF"/>
</linearGradient>
<linearGradient id="paint1_linear_0_1" x1="360" y1="212.998" x2="262.592" y2="212.998" gradientUnits="userSpaceOnUse">
<stop stop-color="#75FF86"/>
<stop offset="1" stop-color="#59C3FF"/>
</linearGradient>
<linearGradient id="paint2_linear_0_1" x1="335.041" y1="201.891" x2="420.416" y2="220.033" gradientUnits="userSpaceOnUse">
<stop stop-color="#75FF86"/>
<stop offset="1" stop-color="#59C3FF"/>
</linearGradient>
<linearGradient id="paint3_linear_0_1" x1="441.162" y1="196.293" x2="662.861" y2="290.515" gradientUnits="userSpaceOnUse">
<stop stop-color="#AD00FF"/>
<stop offset="1" stop-color="#3901E1"/>
</linearGradient>
<linearGradient id="paint4_linear_0_1" x1="140.041" y1="201.891" x2="225.416" y2="220.033" gradientUnits="userSpaceOnUse">
<stop stop-color="#75FF86"/>
<stop offset="1" stop-color="#59C3FF"/>
</linearGradient>
</defs>
</svg>
