<svg width="84" height="68" viewBox="0 0 84 68" fill="none" xmlns="http://www.w3.org/2000/svg">
<path fill-rule="evenodd" clip-rule="evenodd" d="M30.25 1.73001C30.25 0.77456 31.0245 1.33365e-06 31.98 1.29268e-06L61.4961 0C61.7756 -1.11759e-08 62.0437 0.110931 62.2415 0.308426L83.6726 21.7063C83.8708 21.9041 83.9821 22.1727 83.9821 22.4528L83.9821 64.8941C83.9821 65.8495 83.2076 66.6241 82.2521 66.6241L55.6117 66.624C55.029 66.624 54.5567 66.1517 54.5567 65.569C54.5567 64.9864 55.029 64.514 55.6117 64.514L81.8721 64.5141L81.8721 23.5078H62.1711C61.2156 23.5078 60.4411 22.7333 60.4411 21.7778V2.11L32.36 2.11V40.8588C32.36 41.4414 31.8876 41.9138 31.305 41.9138C30.7223 41.9138 30.25 41.4414 30.25 40.8588V1.73001ZM62.5511 3.59921L80.3773 21.3978H62.5511L62.5511 3.59921ZM10.1325 49.6342C10.8675 50.1285 11.2857 50.8255 11.3871 51.7253H14.2197C14.1943 50.6797 13.8902 49.7546 13.3072 48.9498C12.7242 48.1387 11.9258 47.5019 10.9119 47.0393C9.90434 46.5767 8.74154 46.3454 7.4235 46.3454C6.11813 46.3454 4.94583 46.5799 3.90661 47.0488C2.86738 47.5114 2.0436 48.1609 1.43527 48.9973C0.826946 49.8338 0.522782 50.8128 0.522782 51.9344C0.522782 53.2905 0.975859 54.3804 1.88201 55.2042C2.79451 56.028 4.03017 56.6521 5.58901 57.0767L7.88925 57.704C8.58629 57.8878 9.21046 58.1001 9.76176 58.3409C10.3194 58.5817 10.7598 58.8858 11.083 59.2534C11.4125 59.6209 11.5772 60.093 11.5772 60.6696C11.5772 61.3033 11.3903 61.8578 11.0164 62.333C10.6426 62.8019 10.1293 63.1695 9.47661 63.4356C8.83026 63.6954 8.09203 63.8253 7.26191 63.8253C6.50784 63.8253 5.81397 63.7144 5.18029 63.4927C4.55295 63.2645 4.03651 62.9192 3.63096 62.4566C3.23174 61.9877 3.00362 61.4015 2.94659 60.6981H0C0.0633675 61.8704 0.396047 62.8843 0.998038 63.7398C1.60003 64.5889 2.43331 65.2448 3.49789 65.7073C4.56246 66.1699 5.82347 66.4012 7.28092 66.4012C8.80174 66.4012 10.0976 66.1541 11.1685 65.6598C12.2458 65.1656 13.0664 64.4907 13.6303 63.6352C14.2007 62.7798 14.4858 61.8007 14.4858 60.6981C14.4858 59.8237 14.3115 59.0728 13.963 58.4454C13.6208 57.8181 13.1709 57.2921 12.6133 56.8676C12.0557 56.443 11.4505 56.1008 10.7978 55.841C10.1451 55.5812 9.50829 55.3753 8.88729 55.2232L6.98627 54.7289C6.60606 54.6339 6.21001 54.5135 5.79813 54.3677C5.38624 54.2157 4.99969 54.0287 4.6385 53.8069C4.28364 53.5788 3.99532 53.2968 3.77353 52.961C3.55808 52.6251 3.45036 52.2259 3.45036 51.7633C3.45036 51.212 3.60878 50.7209 3.92562 50.29C4.24879 49.8528 4.70187 49.5106 5.28485 49.2635C5.86783 49.01 6.55854 48.8833 7.35697 48.8833C8.47223 48.8833 9.3974 49.1336 10.1325 49.6342ZM27.641 59.7666H24.7514L27.5205 63.3959C26.9645 63.5745 26.371 63.6637 25.74 63.6637C24.6184 63.6637 23.6172 63.3849 22.7363 62.8273C21.8555 62.2633 21.1585 61.4395 20.6452 60.356C20.1383 59.266 19.8848 57.929 19.8848 56.3448C19.8848 54.7606 20.1383 53.4267 20.6452 52.3431C21.1585 51.2532 21.8555 50.4294 22.7363 49.8718C23.6172 49.3078 24.6184 49.0259 25.74 49.0259C26.8552 49.0259 27.8533 49.3078 28.7341 49.8718C29.6212 50.4294 30.3183 51.2532 30.8252 52.3431C31.3385 53.4267 31.5951 54.7606 31.5951 56.3448C31.5951 57.929 31.3385 59.266 30.8252 60.356C30.4785 61.097 30.043 61.7165 29.5185 62.2145L27.641 59.7666ZM31.2582 64.4103C32.1088 63.6895 32.8104 62.788 33.3631 61.7057C34.1235 60.2102 34.5037 58.4233 34.5037 56.3448C34.5037 54.2663 34.1235 52.4826 33.3631 50.9934C32.6027 49.4979 31.5603 48.351 30.2359 47.5526C28.9178 46.7478 27.4192 46.3454 25.74 46.3454C24.0544 46.3454 22.5494 46.7478 21.225 47.5526C19.907 48.351 18.8678 49.4979 18.1074 50.9934C17.3469 52.4826 16.9667 54.2663 16.9667 56.3448C16.9667 58.4169 17.3469 60.2007 18.1074 61.6962C18.8678 63.1917 19.907 64.3418 21.225 65.1465C22.5494 65.945 24.0544 66.3442 25.74 66.3442C27.0005 66.3442 28.1593 66.1192 29.2163 65.6693L30.8727 67.827H33.8764L31.2582 64.4103ZM37.764 46.6116V66.078H49.5219V63.5497H40.7011V46.6116H37.764Z" fill="#111111"/>
<path fill-rule="evenodd" clip-rule="evenodd" d="M30.25 1.73001C30.25 0.77456 31.0245 1.33365e-06 31.98 1.29268e-06L61.4961 0C61.7756 -1.11759e-08 62.0437 0.110931 62.2415 0.308426L83.6726 21.7063C83.8708 21.9041 83.9821 22.1727 83.9821 22.4528L83.9821 64.8941C83.9821 65.8495 83.2076 66.6241 82.2521 66.6241L55.6117 66.624C55.029 66.624 54.5567 66.1517 54.5567 65.569C54.5567 64.9864 55.029 64.514 55.6117 64.514L81.8721 64.5141L81.8721 23.5078H62.1711C61.2156 23.5078 60.4411 22.7333 60.4411 21.7778V2.11L32.36 2.11V40.8588C32.36 41.4414 31.8876 41.9138 31.305 41.9138C30.7223 41.9138 30.25 41.4414 30.25 40.8588V1.73001ZM62.5511 3.59921L80.3773 21.3978H62.5511L62.5511 3.59921ZM10.1325 49.6342C10.8675 50.1285 11.2857 50.8255 11.3871 51.7253H14.2197C14.1943 50.6797 13.8902 49.7546 13.3072 48.9498C12.7242 48.1387 11.9258 47.5019 10.9119 47.0393C9.90434 46.5767 8.74154 46.3454 7.4235 46.3454C6.11813 46.3454 4.94583 46.5799 3.90661 47.0488C2.86738 47.5114 2.0436 48.1609 1.43527 48.9973C0.826946 49.8338 0.522782 50.8128 0.522782 51.9344C0.522782 53.2905 0.975859 54.3804 1.88201 55.2042C2.79451 56.028 4.03017 56.6521 5.58901 57.0767L7.88925 57.704C8.58629 57.8878 9.21046 58.1001 9.76176 58.3409C10.3194 58.5817 10.7598 58.8858 11.083 59.2534C11.4125 59.6209 11.5772 60.093 11.5772 60.6696C11.5772 61.3033 11.3903 61.8578 11.0164 62.333C10.6426 62.8019 10.1293 63.1695 9.47661 63.4356C8.83026 63.6954 8.09203 63.8253 7.26191 63.8253C6.50784 63.8253 5.81397 63.7144 5.18029 63.4927C4.55295 63.2645 4.03651 62.9192 3.63096 62.4566C3.23174 61.9877 3.00362 61.4015 2.94659 60.6981H0C0.0633675 61.8704 0.396047 62.8843 0.998038 63.7398C1.60003 64.5889 2.43331 65.2448 3.49789 65.7073C4.56246 66.1699 5.82347 66.4012 7.28092 66.4012C8.80174 66.4012 10.0976 66.1541 11.1685 65.6598C12.2458 65.1656 13.0664 64.4907 13.6303 63.6352C14.2007 62.7798 14.4858 61.8007 14.4858 60.6981C14.4858 59.8237 14.3115 59.0728 13.963 58.4454C13.6208 57.8181 13.1709 57.2921 12.6133 56.8676C12.0557 56.443 11.4505 56.1008 10.7978 55.841C10.1451 55.5812 9.50829 55.3753 8.88729 55.2232L6.98627 54.7289C6.60606 54.6339 6.21001 54.5135 5.79813 54.3677C5.38624 54.2157 4.99969 54.0287 4.6385 53.8069C4.28364 53.5788 3.99532 53.2968 3.77353 52.961C3.55808 52.6251 3.45036 52.2259 3.45036 51.7633C3.45036 51.212 3.60878 50.7209 3.92562 50.29C4.24879 49.8528 4.70187 49.5106 5.28485 49.2635C5.86783 49.01 6.55854 48.8833 7.35697 48.8833C8.47223 48.8833 9.3974 49.1336 10.1325 49.6342ZM27.641 59.7666H24.7514L27.5205 63.3959C26.9645 63.5745 26.371 63.6637 25.74 63.6637C24.6184 63.6637 23.6172 63.3849 22.7363 62.8273C21.8555 62.2633 21.1585 61.4395 20.6452 60.356C20.1383 59.266 19.8848 57.929 19.8848 56.3448C19.8848 54.7606 20.1383 53.4267 20.6452 52.3431C21.1585 51.2532 21.8555 50.4294 22.7363 49.8718C23.6172 49.3078 24.6184 49.0259 25.74 49.0259C26.8552 49.0259 27.8533 49.3078 28.7341 49.8718C29.6212 50.4294 30.3183 51.2532 30.8252 52.3431C31.3385 53.4267 31.5951 54.7606 31.5951 56.3448C31.5951 57.929 31.3385 59.266 30.8252 60.356C30.4785 61.097 30.043 61.7165 29.5185 62.2145L27.641 59.7666ZM31.2582 64.4103C32.1088 63.6895 32.8104 62.788 33.3631 61.7057C34.1235 60.2102 34.5037 58.4233 34.5037 56.3448C34.5037 54.2663 34.1235 52.4826 33.3631 50.9934C32.6027 49.4979 31.5603 48.351 30.2359 47.5526C28.9178 46.7478 27.4192 46.3454 25.74 46.3454C24.0544 46.3454 22.5494 46.7478 21.225 47.5526C19.907 48.351 18.8678 49.4979 18.1074 50.9934C17.3469 52.4826 16.9667 54.2663 16.9667 56.3448C16.9667 58.4169 17.3469 60.2007 18.1074 61.6962C18.8678 63.1917 19.907 64.3418 21.225 65.1465C22.5494 65.945 24.0544 66.3442 25.74 66.3442C27.0005 66.3442 28.1593 66.1192 29.2163 65.6693L30.8727 67.827H33.8764L31.2582 64.4103ZM37.764 46.6116V66.078H49.5219V63.5497H40.7011V46.6116H37.764Z" fill="url(#paint0_linear_39_786)"/>
<defs>
<linearGradient id="paint0_linear_39_786" x1="83.6657" y1="-12.4932" x2="107.564" y2="74.0712" gradientUnits="userSpaceOnUse">
<stop stop-color="#5C29F1"/>
<stop offset="0.473958" stop-color="#E37AC2"/>
<stop offset="0.807292" stop-color="#FF9067"/>
</linearGradient>
</defs>
</svg>
