<svg xmlns="http://www.w3.org/2000/svg" width="89" height="10" fill="none" viewBox="0 0 89 10"><path fill="url(#paint0_linear_39_743)" d="M6.438 6.714C6.438 7.186 6.32 7.606 6.084 7.974C5.848 8.338 5.506 8.624 5.058 8.832C4.61 9.036 4.064 9.138 3.42 9.138C2.816 9.138 2.268 9.046 1.776 8.862C1.288 8.678 0.87 8.418 0.522 8.082L1.14 7.386C1.428 7.654 1.758 7.868 2.13 8.028C2.502 8.184 2.938 8.262 3.438 8.262C3.774 8.262 4.088 8.208 4.38 8.1C4.672 7.988 4.908 7.82 5.088 7.596C5.268 7.368 5.358 7.08 5.358 6.732C5.358 6.464 5.306 6.236 5.202 6.048C5.098 5.86 4.914 5.694 4.65 5.55C4.386 5.402 4.018 5.258 3.546 5.118C3.002 4.958 2.53 4.778 2.13 4.578C1.734 4.374 1.426 4.124 1.206 3.828C0.99 3.532 0.882 3.166 0.882 2.73C0.882 2.318 0.996 1.952 1.224 1.632C1.452 1.312 1.766 1.062 2.166 0.882C2.57 0.698 3.034 0.606 3.558 0.606C4.13 0.606 4.626 0.688 5.046 0.852C5.47 1.012 5.854 1.244 6.198 1.548L5.586 2.226C5.29 1.962 4.972 1.772 4.632 1.656C4.292 1.536 3.946 1.476 3.594 1.476C3.294 1.476 3.018 1.522 2.766 1.614C2.518 1.702 2.318 1.836 2.166 2.016C2.018 2.192 1.944 2.418 1.944 2.694C1.944 2.93 2.008 3.134 2.136 3.306C2.264 3.478 2.48 3.636 2.784 3.78C3.088 3.92 3.502 4.068 4.026 4.224C4.454 4.348 4.85 4.504 5.214 4.692C5.582 4.876 5.878 5.128 6.102 5.448C6.326 5.764 6.438 6.186 6.438 6.714ZM13.5253 0.737999V6.324C13.5253 6.88 13.4113 7.37 13.1833 7.794C12.9593 8.218 12.6413 8.548 12.2293 8.784C11.8213 9.02 11.3393 9.138 10.7833 9.138C10.2153 9.138 9.72731 9.02 9.31931 8.784C8.91531 8.544 8.60531 8.212 8.38931 7.788C8.17331 7.364 8.06531 6.876 8.06531 6.324V0.737999H9.09731V6.36C9.09731 6.988 9.24331 7.458 9.53531 7.77C9.83131 8.082 10.2473 8.238 10.7833 8.238C11.3233 8.238 11.7393 8.082 12.0313 7.77C12.3273 7.458 12.4753 6.988 12.4753 6.36V0.737999H13.5253ZM19.7666 6.678C19.7666 6.262 19.6846 5.942 19.5206 5.718C19.3606 5.49 19.1466 5.332 18.8786 5.244C18.6106 5.156 18.3166 5.112 17.9966 5.112H16.5866V8.142H17.9486C18.1526 8.142 18.3606 8.122 18.5726 8.082C18.7846 8.042 18.9806 7.97 19.1606 7.866C19.3446 7.762 19.4906 7.616 19.5986 7.428C19.7106 7.236 19.7666 6.986 19.7666 6.678ZM19.4366 2.874C19.4366 2.406 19.2906 2.074 18.9986 1.878C18.7106 1.678 18.3166 1.578 17.8166 1.578H16.5866V4.254H17.9186C18.4066 4.254 18.7806 4.146 19.0406 3.93C19.3046 3.71 19.4366 3.358 19.4366 2.874ZM20.8646 6.642C20.8646 7.09 20.7746 7.466 20.5946 7.77C20.4186 8.074 20.1806 8.316 19.8806 8.496C19.5846 8.676 19.2526 8.806 18.8846 8.886C18.5206 8.962 18.1486 9 17.7686 9H15.5486V0.737999H17.5826C17.9466 0.737999 18.3006 0.772 18.6446 0.84C18.9926 0.904 19.3046 1.016 19.5806 1.176C19.8606 1.332 20.0846 1.544 20.2526 1.812C20.4206 2.08 20.5046 2.416 20.5046 2.82C20.5046 3.176 20.4306 3.478 20.2826 3.726C20.1386 3.97 19.9486 4.166 19.7126 4.314C19.4806 4.462 19.2326 4.566 18.9686 4.626C19.2766 4.674 19.5746 4.768 19.8626 4.908C20.1546 5.044 20.3946 5.252 20.5826 5.532C20.7706 5.808 20.8646 6.178 20.8646 6.642ZM28.0239 6.714C28.0239 7.186 27.9059 7.606 27.6699 7.974C27.4339 8.338 27.0919 8.624 26.6439 8.832C26.1959 9.036 25.6499 9.138 25.0059 9.138C24.4019 9.138 23.8539 9.046 23.3619 8.862C22.8739 8.678 22.4559 8.418 22.1079 8.082L22.7259 7.386C23.0139 7.654 23.3439 7.868 23.7159 8.028C24.0879 8.184 24.5239 8.262 25.0239 8.262C25.3599 8.262 25.6739 8.208 25.9659 8.1C26.2579 7.988 26.4939 7.82 26.6739 7.596C26.8539 7.368 26.9439 7.08 26.9439 6.732C26.9439 6.464 26.8919 6.236 26.7879 6.048C26.6839 5.86 26.4999 5.694 26.2359 5.55C25.9719 5.402 25.6039 5.258 25.1319 5.118C24.5879 4.958 24.1159 4.778 23.7159 4.578C23.3199 4.374 23.0119 4.124 22.7919 3.828C22.5759 3.532 22.4679 3.166 22.4679 2.73C22.4679 2.318 22.5819 1.952 22.8099 1.632C23.0379 1.312 23.3519 1.062 23.7519 0.882C24.1559 0.698 24.6199 0.606 25.1439 0.606C25.7159 0.606 26.2119 0.688 26.6319 0.852C27.0559 1.012 27.4399 1.244 27.7839 1.548L27.1719 2.226C26.8759 1.962 26.5579 1.772 26.2179 1.656C25.8779 1.536 25.5319 1.476 25.1799 1.476C24.8799 1.476 24.6039 1.522 24.3519 1.614C24.1039 1.702 23.9039 1.836 23.7519 2.016C23.6039 2.192 23.5299 2.418 23.5299 2.694C23.5299 2.93 23.5939 3.134 23.7219 3.306C23.8499 3.478 24.0659 3.636 24.3699 3.78C24.6739 3.92 25.0879 4.068 25.6119 4.224C26.0399 4.348 26.4359 4.504 26.7999 4.692C27.1679 4.876 27.4639 5.128 27.6879 5.448C27.9119 5.764 28.0239 6.186 28.0239 6.714ZM33.0773 0.606C33.6173 0.606 34.0693 0.674 34.4333 0.81C34.7973 0.946 35.1432 1.146 35.4713 1.41L34.8893 2.088C34.6293 1.868 34.3533 1.712 34.0613 1.62C33.7733 1.524 33.4713 1.476 33.1553 1.476C32.7033 1.476 32.2853 1.584 31.9013 1.8C31.5173 2.012 31.2073 2.366 30.9713 2.862C30.7393 3.354 30.6233 4.022 30.6233 4.866C30.6233 5.686 30.7333 6.344 30.9533 6.84C31.1773 7.336 31.4793 7.694 31.8593 7.914C32.2393 8.134 32.6633 8.244 33.1313 8.244C33.5953 8.244 33.9753 8.174 34.2713 8.034C34.5713 7.894 34.8313 7.734 35.0513 7.554L35.5913 8.238C35.3393 8.482 35.0113 8.694 34.6073 8.874C34.2033 9.05 33.7073 9.138 33.1193 9.138C32.4513 9.138 31.8453 8.974 31.3013 8.646C30.7613 8.318 30.3333 7.838 30.0173 7.206C29.7013 6.57 29.5433 5.79 29.5433 4.866C29.5433 3.938 29.7033 3.158 30.0233 2.526C30.3473 1.894 30.7773 1.416 31.3133 1.092C31.8533 0.768 32.4413 0.606 33.0773 0.606ZM42.4266 3.054C42.4266 3.466 42.3366 3.826 42.1566 4.134C41.9806 4.442 41.7406 4.696 41.4366 4.896C41.1326 5.096 40.7906 5.242 40.4106 5.334L42.8586 9H41.6106L39.3546 5.454H38.2386V9H37.1946V0.737999H39.3186C40.3386 0.737999 41.1106 0.934 41.6346 1.326C42.1626 1.714 42.4266 2.29 42.4266 3.054ZM41.3106 3.054C41.3106 2.522 41.1586 2.142 40.8546 1.914C40.5506 1.682 40.0786 1.566 39.4386 1.566H38.2386V4.638H39.4386C40.0306 4.638 40.4906 4.518 40.8186 4.278C41.1466 4.034 41.3106 3.626 41.3106 3.054ZM49.1359 0.737999V1.572H47.2999V8.166H49.1359V9H44.4079V8.166H46.2439V1.572H44.4079V0.737999H49.1359ZM55.7432 6.678C55.7432 6.262 55.6612 5.942 55.4972 5.718C55.3372 5.49 55.1232 5.332 54.8552 5.244C54.5872 5.156 54.2932 5.112 53.9732 5.112H52.5632V8.142H53.9252C54.1292 8.142 54.3372 8.122 54.5492 8.082C54.7612 8.042 54.9572 7.97 55.1372 7.866C55.3212 7.762 55.4672 7.616 55.5752 7.428C55.6872 7.236 55.7432 6.986 55.7432 6.678ZM55.4132 2.874C55.4132 2.406 55.2672 2.074 54.9752 1.878C54.6872 1.678 54.2932 1.578 53.7932 1.578H52.5632V4.254H53.8952C54.3832 4.254 54.7572 4.146 55.0172 3.93C55.2812 3.71 55.4132 3.358 55.4132 2.874ZM56.8412 6.642C56.8412 7.09 56.7512 7.466 56.5712 7.77C56.3952 8.074 56.1572 8.316 55.8572 8.496C55.5612 8.676 55.2292 8.806 54.8612 8.886C54.4972 8.962 54.1252 9 53.7452 9H51.5252V0.737999H53.5592C53.9232 0.737999 54.2772 0.772 54.6212 0.84C54.9692 0.904 55.2812 1.016 55.5572 1.176C55.8372 1.332 56.0612 1.544 56.2292 1.812C56.3972 2.08 56.4812 2.416 56.4812 2.82C56.4812 3.176 56.4072 3.478 56.2592 3.726C56.1152 3.97 55.9252 4.166 55.6892 4.314C55.4572 4.462 55.2092 4.566 54.9452 4.626C55.2532 4.674 55.5512 4.768 55.8392 4.908C56.1312 5.044 56.3712 5.252 56.5592 5.532C56.7472 5.808 56.8412 6.178 56.8412 6.642ZM60.1125 1.59V4.374H63.1725V5.232H60.1125V8.166H63.8685V9H59.0685V0.737999H63.7605L63.6405 1.59H60.1125ZM81.6937 8.076C81.6937 7.88 81.7397 7.704 81.8317 7.548C81.9237 7.388 82.0497 7.262 82.2097 7.17C82.3657 7.074 82.5437 7.026 82.7437 7.026C82.9477 7.026 83.1297 7.074 83.2897 7.17C83.4497 7.262 83.5757 7.388 83.6677 7.548C83.7597 7.704 83.8057 7.88 83.8057 8.076C83.8057 8.272 83.7597 8.452 83.6677 8.616C83.5757 8.776 83.4497 8.904 83.2897 9C83.1297 9.092 82.9477 9.138 82.7437 9.138C82.5437 9.138 82.3657 9.092 82.2097 9C82.0497 8.904 81.9237 8.776 81.8317 8.616C81.7397 8.452 81.6937 8.272 81.6937 8.076ZM86.4938 8.076C86.4938 7.88 86.5398 7.704 86.6318 7.548C86.7238 7.388 86.8478 7.262 87.0038 7.17C87.1638 7.074 87.3438 7.026 87.5438 7.026C87.7478 7.026 87.9298 7.074 88.0898 7.17C88.2498 7.262 88.3758 7.388 88.4678 7.548C88.5598 7.704 88.6058 7.88 88.6058 8.076C88.6058 8.272 88.5598 8.452 88.4678 8.616C88.3758 8.776 88.2498 8.904 88.0898 9C87.9298 9.092 87.7478 9.138 87.5438 9.138C87.3438 9.138 87.1638 9.092 87.0038 9C86.8478 8.904 86.7238 8.776 86.6318 8.616C86.5398 8.452 86.4938 8.272 86.4938 8.076ZM76.8937 8.076C76.8937 7.88 76.9397 7.704 77.0317 7.548C77.1237 7.388 77.2497 7.262 77.4097 7.17C77.5657 7.074 77.7437 7.026 77.9437 7.026C78.1477 7.026 78.3297 7.074 78.4897 7.17C78.6497 7.262 78.7757 7.388 78.8677 7.548C78.9597 7.704 79.0057 7.88 79.0057 8.076C79.0057 8.272 78.9597 8.452 78.8677 8.616C78.7757 8.776 78.6497 8.904 78.4897 9C78.3297 9.092 78.1477 9.138 77.9437 9.138C77.7437 9.138 77.5657 9.092 77.4097 9C77.2497 8.904 77.1237 8.776 77.0317 8.616C76.9397 8.452 76.8937 8.272 76.8937 8.076Z"/><defs><linearGradient id="paint0_linear_39_743" x1="60" x2="56.766" y1="-10" y2="45.538" gradientUnits="userSpaceOnUse"><stop stop-color="#5C29F1"/><stop offset=".474" stop-color="#E37AC2"/><stop offset=".807" stop-color="#FF9067"/></linearGradient><linearGradient id="paint1_linear_39_743" x1="50.038" x2="48.262" y1="-3.382" y2="44.039" gradientUnits="userSpaceOnUse"><stop stop-color="#5C29F1"/><stop offset=".474" stop-color="#E37AC2"/><stop offset=".807" stop-color="#FF9067"/></linearGradient><linearGradient id="paint2_linear_39_743" x1="64.755" x2="48.392" y1="-2.059" y2="52.243" gradientUnits="userSpaceOnUse"><stop stop-color="#5C29F1"/><stop offset=".474" stop-color="#E37AC2"/><stop offset=".807" stop-color="#FF9067"/></linearGradient></defs></svg>