<svg xmlns="http://www.w3.org/2000/svg" fill="none" viewBox="0 0 71100 39200"><mask id="a" width="71100" height="39200" x="0" y="0" mask-type="alpha" maskUnits="userSpaceOnUse"><path fill="#1B164C" d="M14940.4 418.2a209 209 0 10 0-418.2 209 209 0 10 0 418.2Zm841.8 0a209 209 0 10 0-418.2 209 209 0 10 0 418.2Zm841.6 0a209 209 0 10 0-418.2 209 209 0 10 0 418.2Zm839.4 0a209 209 0 00 209.1-209 209 209 0 10-418.2 0 209 209 0 00 209.1 209Zm842.2 0a209 209 0 00 209.1-209A209 209 0 00 18305.4 0a209 209 0 00-209.1 209.1 209 209 0 00 209.1 209.1Zm841.4 0a209 209 0 00 209.1-209A209 209 0 00 19146.8 0a209 209 0 00-209 209.1 209 209 0 00 209 209.1Zm839.3 0a209 209 0 10 .1-418 209 209 0 00-.1 418Zm842.5 0a209 209 0 10 .3-418.1 209 209 0 00-.3 418.1Zm-5467.7 842a209 209 0 10 .1-418.1 209 209 0 00-.1 418Zm842.2 0a209 209 0 10 0-418.2 209 209 0 10 0 418.2Zm842 0a209 209 0 10 .4-418.1 209 209 0 00-.3 418Zm839 0a209 209 0 00 209-209.1 209 209 0 00-209-209.1 209 209 0 00-209.1 209 209 209 0 00 209.1 209.2Zm842 0a209 209 0 00 209.1-209.1 209 209 0 00-209.1-209.1 209 209 0 00-209.1 209 209 209 0 00 209.1 209.2Zm842.2 0a209 209 0 00 209.1-209.1 209 209 0 00-209.1-209.1 209 209 0 00-209 209 209 209 0 00 209 209.2Zm838.7 0a209 209 0 10 .1-418.1 209 209 0 00-.1 418Zm842.3 0a209 209 0 10 .3-418.1 209 209 0 00-.3 418Zm-7148.4 839.2a209 209 0 10 0-418.2 209 209 0 00-.3 418.2Zm839.2 0a209 209 0 10 0-418.2 209 209 0 00 0 418.2Zm841.8 0a209 209 0 10 0-418.2 209 209 0 00 0 418.2Zm841.6 0a209 209 0 10 0-418.2 209 209 0 00 0 418.2Zm839.4 0a209 209 0 10 0-418.2 209 209 0 00 0 418.2Zm842.2 0a209 209 0 10 0-418.2 209 209 0 00 0 418.2Zm841.4 0a209 209 0 00 209.1-209.1 209 209 0 00-209-209.1 209 209 0 00-209 209 209 209 0 00 209 209.2Zm839.3 0a209 209 0 10 .1-418 209 209 0 00 0 418Zm2523.2 0a209 209 0 10 0-418.2 209 209 0 00 0 418.2Zm842.4 0a209 209 0 10 0-418.2 209 209 0 00 0 418.2Zm841.6 0a209 209 0 10 .1-418.2 209 209 0 00 0 418.2Zm839.4 0a209.2 209.2 0 10 0-418.3 209.2 209.2 0 00 0 418.3Zm842 0a209.2 209.2 0 10 0-418.4 209.2 209.2 0 00 0 418.4Zm841.7 0a209.2 209.2 0 10 0-418.4 209.2 209.2 0 00 0 418.4Zm842 0a209 209 0 10 0-418.2 209 209 0 00 0 418.2Zm9250.8 0a209 209 0 10 0-418.2 209 209 0 00 0 418.2Zm841.4 0a209 209 0 10 0-418.2 209 209 0 00 0 418.2Zm839.7 0a209 209 0 10 0-418 209 209 0 00 0 418Zm12618 0a209 209 0 10 0-418.2 209 209 0 00 0 418.2Zm839.4 0a209 209 0 10 0-418.2 209 209 0 00 0 418.2Zm-39110 842a209 209 0 10 0-418.3 209 209 0 00 0 418.2Zm842.4 0a209 209 0 10 0-418.3 209 209 0 00 0 418.2Zm839.3 0a209 209 0 10 0-418.3 209 209 0 00 0 418.2Zm841.6 0a209 209 0 10 0-418.3 209 209 0 00 0 418.2Zm842.2 0a209.2 209.2 0 10-.1-418.4 209.2 209.2 0 00 0 418.3Zm842 0a209.2 209.2 0 10 0-418.4 209.2 209.2 0 00 0 418.3Zm839 0a209 209 0 10 0-418.3 209 209 0 00 0 418.2Zm842 0a209 209 0 10 0-418.3 209 209 0 00 0 418.2Zm842.2 0a209 209 0 00 209-209.2 209 209 0 00-209-209 209 209 0 00-209 209.1 209 209 0 00 209 209.1Zm1681 0a209 209 0 10 .4-418.2 209 209 0 00-.3 418.1Zm842 0a209.2 209.2 0 10 0-418.4 209.2 209.2 0 00 0 418.3Zm839 0a209 209 0 10 0-418.3 209 209 0 00 0 418.2Zm842.4 0a209 209 0 10 0-418.3 209 209 0 00 0 418.2Zm841.8 0a209 209 0 10 0-418.3 209 209 0 00 0 418.2Zm839 0a209.2 209.2 0 10 0-418.4 209.2 209.2 0 00 0 418.3Zm841.8 0a209.2 209.2 0 10 0-418.4 209.2 209.2 0 00 0 418.3Zm842.3 0a209 209 0 10 0-418.3 209 209 0 00 0 418.2Zm839.3 0a209 209 0 10 0-418.3 209 209 0 00 0 418.2Zm841.8 0a209 209 0 00 209-209.2 209 209 0 00-209-209 209 209 0 00-209.1 209.1 209 209 0 00 209 209.1Zm842.2 0a209 209 0 10 0-418.2 209 209 0 00 0 418.1Zm5885.5 0a209 209 0 10 0-418.3 209 209 0 00 0 418.2Zm841.6 0a209 209 0 10 0-418.3 209 209 0 00 0 418.2Zm842 0a209 209 0 10 0-418.3 209 209 0 00 0 418.2Zm842.4 0a209 209 0 10 0-418.3 209 209 0 00 0 418.2Zm838.7 0a209 209 0 10 0-418.2 209 209 0 00 0 418.1Zm12615.8 0a209 209 0 10 0-418.3 209 209 0 00 0 418.2Zm841.8 0a209 209 0 10 0-418.3 209 209 0 00 0 418.2Zm842 0a209 209 0 10 0-418.3 209 209 0 00 0 418.2Zm839.4 0a209 209 0 10 0-418.3 209 209 0 00 0 418.2ZM13259 3783.3a209.1 209.1 0 10 0-418.2 209.1 209.1 0 00 0 418.5Zm841.8 0a209.1 209.1 0 10 0-418.2 209.1 209.1 0 00 0 418.5Zm839.4 0a209.1 209.1 0 10 0-418.2 209.1 209.1 0 00 0 418.5Zm841.8 0a209.1 209.1 0 10 0-418.2 209.1 209.1 0 00 0 418.5Zm841.6 0a209.1 209.1 0 10 0-418.2 209.1 209.1 0 00 0 418.5Zm839.4 0a209.1 209.1 0 10 0-418.2 209.1 209.1 0 00 0 418.5Zm842.2 0a209.1 209.1 0 10 0-418.2 209.1 209.1 0 00 0 418.5Zm2523.2 0a209 209 0 10 .3-418.2 209 209 0 00-.3 418.5Zm841.5 0a209 209 0 10 0-418.2 209 209 0 10 0 418.5Zm839.2 0a209.1 209.1 0 10 0-418.2 209.1 209.1 0 00 0 418.5Zm842.4 0a209.1 209.1 0 10 0-418.2 209.1 209.1 0 00 0 418.5Zm841.6 0a209.1 209.1 0 10 .1-418.2 209.1 209.1 0 00 0 418.5Zm839.5 0a209.2 209.2 0 10 0-418.4 209.2 209.2 0 00 0 418.4Zm842 0a209.2 209.2 0 10 0-418.4 209.2 209.2 0 00 0 418.4Zm841.7 0a209.2 209.2 0 10 0-418.4 209.2 209.2 0 00 0 418.4Zm842 0a209.1 209.1 0 10 0-418.2 209.1 209.1 0 00 0 418.5Zm839.5 0a209.1 209.1 0 10 0-418.2 209.1 209.1 0 00 0 418.5Zm7569 0a209.1 209.1 0 10 0-418.2 209.1 209.1 0 00 0 418.5Zm842.3 0a209.1 209.1 0 10 0-418.2 209.1 209.1 0 00 0 418.5Zm841.4 0a209.1 209.1 0 10 0-418.2 209.1 209.1 0 00 0 418.5Zm7569.6 0a209.2 209.2 0 10 0-418.4 209.2 209.2 0 00 0 418.4Zm839.4 0a209.1 209.1 0 10 0-418.2 209.1 209.1 0 00 0 418.5Zm5888 0a209.1 209.1 0 10 0-418.2 209.1 209.1 0 00 0 418.5Zm842.5 0a209.1 209.1 0 10 0-418.2 209.1 209.1 0 00 0 418.5Zm841.4 0a209.1 209.1 0 10 0-418.2 209.1 209.1 0 00 0 418.5Zm839.2 0a209.1 209.1 0 10 0-418.2 209.1 209.1 0 00 0 418.5Zm-44155.8 839.2a209 209 0 10 0-418 209 209 0 00 0 418Zm842.2 0a209 209 0 10 0-418 209 209 0 00 0 418Zm838.6 0a209 209 0 00 209-209.1 209 209 0 10-418 0c2.7 115.6 96.2 209 209 209Zm842 0a209 209 0 10 0-418.2 209 209 0 00 0 418.2Zm842.4 0a209 209 0 10 0-418.2 209 209 0 00 0 418.2Zm839.3 0a209 209 0 10 0-418.2 209 209 0 00 0 418.2Zm841.6 0a209 209 0 10 0-418.2 209 209 0 00 0 418.2Zm842.2 0a209.2 209.2 0 10 0-418.3 209.2 209.2 0 00 0 418.3Zm842 0a209.2 209.2 0 10 0-418.3 209.2 209.2 0 00 0 418.3Zm839 0a209 209 0 10 0-418.2 209 209 0 00 0 418.2Zm3365.2 0a209 209 0 10 .4-418.1 209 209 0 00-.3 418.1Zm842 0a209.2 209.2 0 10 0-418.3 209.2 209.2 0 00 0 418.3Zm839 0a209 209 0 10 0-418.2 209 209 0 00 0 418.2Zm842.4 0a209 209 0 10 0-418.2 209 209 0 00 0 418.2Zm841.8 0a209 209 0 10 0-418.2 209 209 0 00 0 418.2Zm839 0a209.2 209.2 0 10 0-418.3 209.2 209.2 0 00 0 418.3Zm841.8 0a209.2 209.2 0 10 0-418.3 209.2 209.2 0 00 0 418.3Zm842.2 0a209 209 0 10 0-418.2 209 209 0 00 0 418.2Zm839.3 0a209 209 0 10 0-418.2 209 209 0 00 0 418.2Zm15980.5 0a209 209 0 10 0-418.2 209 209 0 00 0 418.2Zm841.8 0a209.2 209.2 0 10 0-418.3 209.2 209.2 0 00 0 418.3Zm842.5 0a209 209 0 10 0-418.2 209 209 0 00 0 418.2Zm839 0a209 209 0 10 0-418.2 209 209 0 00 0 418.2Zm3365 0a209 209 0 10 .2-418.1 209 209 0 00-.3 418.1Zm842 0a209 209 0 00 209-209.1 209 209 0 10-418 0 209 209 0 00 209 209Zm839.2 0a209 209 0 10 0-418.2 209 209 0 00 0 418.2Zm841.8 0a209 209 0 10 0-418.2 209 209 0 00 0 418.2Zm842 0a209 209 0 10 0-418.2 209 209 0 00 0 418.2Zm839.4 0a209 209 0 10 0-418.2 209 209 0 00 0 418.2Zm841.8 0a209 209 0 10 0-418.2 209 209 0 00 0 418.2Zm841.8 0a209 209 0 10 0-418.2 209 209 0 00 0 418.2Zm4204 0a209 209 0 00 209.2-209.1 209 209 0 10-418.2 0 209 209 0 00 209 209Zm842.5 0a209 209 0 10 0-418.2 209 209 0 00 0 418.2Zm841.8 0a209 209 0 10 0-418.2 209 209 0 00 0 418.2Zm-53409.4 842a209.1 209.1 0 10 0-418.3 209.1 209.1 0 00 0 418.3Zm842.2 0a209.1 209.1 0 10 0-418.2 209.1 209.1 0 00 0 418.2Zm839.5 0a209 209 0 10 0-418.1 209 209 0 00 0 418Zm841.8 0a209 209 0 10-.1-418.1 209 209 0 00-.1 418Zm841.6 0a209 209 0 10 0-418.1 209 209 0 00 0 418Zm839.6 0a209 209 0 00 209-209.1 209 209 0 10-418.1 0 209 209 0 00 209 209Zm841.8 0a209 209 0 10 0-418.2 209 209 0 00 0 418.2Zm841.8 0a209 209 0 10 0-418.2 209 209 0 00-.1 418.2Zm839.4 0a209 209 0 10 0-418.2 209 209 0 00 0 418.2Zm841.8 0a209 209 0 10 0-418.2 209 209 0 00 0 418.2Zm841.6 0a209 209 0 10 0-418.2 209 209 0 00 0 418.2Zm839.4 0a209 209 0 10 0-418.2 209 209 0 00 0 418.2Zm5046 0a209 209 0 10 0-418.2 209 209 0 00 0 418.2Zm842.5 0a209 209 0 10 0-418.2 209 209 0 00 0 418.2Zm841.6 0a209 209 0 10 0-418.2 209 209 0 00 0 418.2Zm839.4 0a209.2 209.2 0 10-.1-418.3 209.2 209.2 0 00 0 418.3Zm842 0a209.2 209.2 0 10 0-418.4 209.2 209.2 0 00 0 418.4Zm841.7 0a209.2 209.2 0 10 0-418.4 209.2 209.2 0 00 0 418.4Zm842 0a209 209 0 10 0-418.2 209 209 0 00 0 418.2Zm839.5 0a209 209 0 10 0-418.2 209 209 0 00 0 418.2Zm15138.5 0a209 209 0 10 0-418.2 209 209 0 00 0 418.2Zm842 0a209.2 209.2 0 10-.1-418.3 209.2 209.2 0 00 0 418.3Zm1681.2 0a209 209 0 10 0-418.2 209 209 0 00 0 418.2Zm842 0a209 209 0 10 0-418.2 209 209 0 00 0 418.2Zm842.2 0a209 209 0 10 0-418.2 209 209 0 00 0 418.2Zm838.7 0a209 209 0 10 0-418.3 209 209 0 00-209.2 209.2c2.8 115.5 96.3 209 209.2 209Zm842.3 0a209 209 0 00 209-209.1 209 209 0 10-418.1 0 209 209 0 00 209 209Zm842 0a209 209 0 00 209-209.1 209 209 0 10-418.1 0 209 209 0 00 209 209Zm841.6 0a209 209 0 10 0-418.2 209 209 0 00 0 418.2Zm839.3 0a209 209 0 10 0-418.2 209 209 0 00 0 418.2Zm842.4 0a209 209 0 10 0-418.2 209 209 0 00 0 418.2Zm841.4 0a209 209 0 10 0-418.2 209 209 0 00 0 418.2Zm839.2 0a209 209 0 10 0-418.2 209 209 0 00 0 418.2Zm842.6 0a209 209 0 10 0-418.2 209 209 0 00 0 418.2Zm841.2 0a209 209 0 10 0-418.2 209 209 0 00 0 418.2Zm839.5 0a209 209 0 10 0-418.2 209 209 0 00 0 418.2Zm842 0a209 209 0 10 0-418.1 209 209 0 00 0 418Zm2523 0a209 209 0 00 209-209.1 209 209 0 10-418.2 0 209 209 0 00 209 209Zm841.8 0a209 209 0 10 0-418.2 209 209 0 00 0 418.2ZM1903 6306.4a209 209 0 10 0-418.2 209 209 0 10 0 418.2Zm842.6 0a209 209 0 10 0-418.2 209 209 0 10 0 418.2Zm841.8 0a209.1 209.1 0 10 0-418.3 209.1 209.1 0 00 0 418.3Zm5046.3 0a209.1 209.1 0 10 0-418.3 209.1 209.1 0 00 0 418.3Zm839 0a209 209 0 10 0-418.2 209 209 0 10 0 418.2Zm842 0a209 209 0 10 .2-418.1 209 209 0 00-.1 418Zm842.3 0a209 209 0 10 0-418.1 209 209 0 00 0 418Zm838.6 0a209 209 0 00 209-209.1 209 209 0 10-418.1 0c2.8 115.5 96.3 209 209 209Zm842 0a209 209 0 10 0-418.2 209 209 0 00 0 418.2Zm842.4 0a209 209 0 10 0-418.2 209 209 0 00 0 418.2Zm839.3 0a209 209 0 10 0-418.2 209 209 0 00 0 418.2Zm841.6 0a209 209 0 10 0-418.2 209 209 0 00 0 418.2Zm842.2 0a209.2 209.2 0 10-.1-418.3 209.2 209.2 0 00 0 418.3Zm842 0a209.2 209.2 0 10 0-418.4 209.2 209.2 0 00 0 418.4Zm839 0a209 209 0 10 0-418.2 209 209 0 00 0 418.2Zm842 0a209 209 0 10 0-418.2 209 209 0 00 0 418.2Zm842.2 0a209 209 0 00 209-209.1 209 209 0 00-209-209.1 209 209 0 00-209 209 209 209 0 00 209 209.2Zm3361.9 0a209 209 0 10 0-418.2 209 209 0 00 0 418.2Zm842.4 0a209 209 0 10 0-418.2 209 209 0 00 0 418.2Zm841.8 0a209 209 0 10 0-418.2 209 209 0 00 0 418.2Zm839 0a209.2 209.2 0 10 0-418.4 209.2 209.2 0 00 0 418.4Zm841.8 0a209.2 209.2 0 10 0-418.4 209.2 209.2 0 00 0 418.4Zm842.2 0a209 209 0 10 0-418.2 209 209 0 00 0 418.2Zm839.3 0a209 209 0 10 0-418.2 209 209 0 00 0 418.2Zm10095.5 0a209 209 0 10 0-418.2 209 209 0 00 0 418.2Zm838.7 0a209 209 0 10 0-418.1 209 209 0 00 0 418Zm4207.4 0a209 209 0 10 0-418.2 209 209 0 00 0 418.2Zm839 0a209 209 0 10 0-418.2 209 209 0 00 0 418.2Zm841.7 0a209.2 209.2 0 10-.1-418.3 209.2 209.2 0 00-.2 418.3Zm1681.4 0a209 209 0 10 0-418.2 209 209 0 00 0 418.2Zm841.8 0a209 209 0 10 0-418.2 209 209 0 00 0 418.2Zm842.4 0a209 209 0 10 0-418.1 209 209 0 00 0 418Zm838.7 0a209 209 0 10 0-418.2 209 209 0 10 0 418.2Zm842 0a209 209 0 10 .4-418.2 209 209 0 00-.3 418.2Zm842 0a209 209 0 00 209-209.1 209 209 0 10-418 0 209 209 0 00 209 209Zm839.4 0a209 209 0 10 0-418.2 209 209 0 00 0 418.2Zm841.8 0a209 209 0 10 0-418.2 209 209 0 00 0 418.2Zm842 0a209 209 0 10 0-418.2 209 209 0 00 0 418.2Zm839.4 0a209 209 0 10 0-418.2 209 209 0 00 0 418.2Zm841.8 0a209 209 0 10 0-418.2 209 209 0 00 0 418.2Zm841.8 0a209 209 0 10 0-418.2 209 209 0 00 0 418.2Zm839.7 0a209 209 0 10 0-418.2 209 209 0 00 0 418.2Zm841.6 0a209 209 0 10 0-418.2 209 209 0 00 0 418.2Zm842 0a209 209 0 10 .1-418.1 209 209 0 00 0 418Zm839.4 0a209 209 0 00 209.1-209.1 209 209 0 10-418.2 0c2.8 115.5 96.3 209 209.1 209Zm841.4 0a209 209 0 00 209.1-209.1 209 209 0 10-418.2 0 209 209 0 00 209.1 209Zm842.4 0a209 209 0 10 0-418.2 209 209 0 00 0 418.2Zm841.8 0a209 209 0 10 0-418.2 209 209 0 00 0 418.2Zm839 0a209 209 0 10 0-418.2 209 209 0 00 0 418.2Zm842.1 0a209 209 0 10 0-418.2 209 209 0 00 0 418.2Zm842.1 0a209.2 209.2 0 10 0-418.4 209.2 209.2 0 00 0 418.4Zm839 0a209 209 0 10 0-418.2 209 209 0 00 0 418.2ZM643.2 7145.6a209 209 0 10 0-418.2 209 209 0 10 0 418.2Zm839.3 0a209 209 0 10 0-418.2 209 209 0 00-209.2 209c2.8 115.7 96.3 209.2 209.1 209.2Zm842.1 0a209 209 0 10 0-418.2 209 209 0 10 0 418.2Zm841.6 0a209.1 209.1 0 10 0-418.2 209.1 209.1 0 00 0 418.2Zm842 0a209.1 209.1 0 10 0-418.2 209.1 209.1 0 00 0 418.2Zm839.3 0a209.1 209.1 0 10 0-418.2 209.1 209.1 0 00 0 418.2Zm841.6 0a209.1 209.1 0 10 0-418.2 209.1 209.1 0 00 0 418.2Zm842.4 0a209.1 209.1 0 10 0-418.2 209.1 209.1 0 00 0 418.2Zm839.2 0a209.1 209.1 0 10 0-418.2 209.1 209.1 0 00 0 418.2Zm841.6 0a209.1 209.1 0 10 0-418.2 209.1 209.1 0 00 0 418.2Zm842.2 0a209.1 209.1 0 10 0-418.2 209.1 209.1 0 00 0 418.2Zm839.5 0a209 209 0 10 .1-418.1 209 209 0 00 0 418.1Zm841.8 0a209 209 0 10 0-418 209 209 0 00-.1 418Zm841.7 0a209 209 0 10 0-418 209 209 0 00 0 418Zm839.6 0a209 209 0 00 209-209.1 209 209 0 10-418 0 209 209 0 00 209.2 209.1Zm841.8 0a209.1 209.1 0 10 0-418.2 209.1 209.1 0 00 0 418.2Zm841.8 0a209.1 209.1 0 10-.1-418.2 209.1 209.1 0 00 0 418.2Zm839.4 0a209.1 209.1 0 10 0-418.2 209.1 209.1 0 00 0 418.2Zm841.8 0a209.1 209.1 0 10 0-418.2 209.1 209.1 0 00 0 418.2Zm841.4 0a209.1 209.1 0 10 0-418.2 209.1 209.1 0 00 0 418.2Zm839.4 0a209.1 209.1 0 10 0-418.2 209.1 209.1 0 00 0 418.2Zm842.1 0a209.1 209.1 0 10 0-418.2 209.1 209.1 0 00 0 418.2Zm841.4 0a209 209 0 00 209.1-209.1 209 209 0 00-209.1-209 209 209 0 00-209 209 209 209 0 00 209 209.1Zm839.3 0a209 209 0 10 0-418 209 209 0 00 0 418Zm3365.6 0a209.1 209.1 0 10 0-418.2 209.1 209.1 0 00 0 418.2Zm841.6 0a209.1 209.1 0 10 0-418.2 209.1 209.1 0 00 0 418.2Zm839.3 0a209.2 209.2 0 10-.1-418.3 209.2 209.2 0 00 .1 418.3Zm842 0a209.2 209.2 0 10 0-418.4 209.2 209.2 0 00 0 418.4Zm841.7 0a209.2 209.2 0 10 0-418.4 209.2 209.2 0 00 0 418.4Zm842 0a209.1 209.1 0 10 0-418.2 209.1 209.1 0 00 0 418.2Zm8408.6 0a209.1 209.1 0 10-.1-418.2 209.1 209.1 0 00-.1 418.2Zm842 0a209.1 209.1 0 10 0-418.2 209.1 209.1 0 00 .1 418.2Zm841.5 0a209.1 209.1 0 10 0-418.2 209.1 209.1 0 00 0 418.2Zm839.7 0a209 209 0 10 0-418 209 209 0 00 0 418Zm842.2 0a209 209 0 10 0-418.2 209 209 0 10 0 418.2Zm841.4 0a209 209 0 10 0-418.2 209 209 0 10 0 418.2Zm839.4 0a209 209 0 00 209.1-209.1 209 209 0 10-418.2 0 209 209 0 00 209.1 209.1Zm842.2 0a209.1 209.1 0 10 0-418.2 209.1 209.1 0 00 0 418.2Zm841.6 0a209.1 209.1 0 10 0-418.2 209.1 209.1 0 00 0 418.2Zm839.3 0a209.1 209.1 0 10 0-418.2 209.1 209.1 0 00 0 418.2Zm842 0a209.2 209.2 0 10-.2-418.3 209.2 209.2 0 00 .1 418.3Zm841.7 0a209.2 209.2 0 10 0-418.3 209.2 209.2 0 00 0 418.3Zm839.4 0a209.1 209.1 0 10 0-418.2 209.1 209.1 0 00 0 418.2Zm842 0a209.1 209.1 0 10 0-418.2 209.1 209.1 0 00 0 418.2Zm842.2 0a209.1 209.1 0 10 0-418.2 209.1 209.1 0 00 0 418.2Zm838.7 0a209 209 0 10 0-418.2 209 209 0 00-209.2 209c2.8 115.7 96.3 209.2 209.2 209.2Zm842.3 0a209 209 0 00 209.1-209.1 209 209 0 10-418.2 0 209 209 0 00 209.1 209.1Zm842 0a209 209 0 00 209.1-209.1 209 209 0 10-418.2 0 209 209 0 00 209 209.1Zm841.6 0a209.1 209.1 0 10 0-418.2 209.1 209.1 0 00 0 418.2Zm839.3 0a209.1 209.1 0 10 0-418.2 209.1 209.1 0 00 0 418.2Zm842.4 0a209.1 209.1 0 10 0-418.2 209.1 209.1 0 00 0 418.2Zm841.4 0a209.1 209.1 0 10 0-418.2 209.1 209.1 0 00 0 418.2Zm839.2 0a209.1 209.1 0 10 0-418.2 209.1 209.1 0 00 0 418.2Zm842.5 0a209.1 209.1 0 10 0-418.2 209.1 209.1 0 00 0 418.2Zm841.2 0a209.1 209.1 0 10 0-418.2 209.1 209.1 0 00 0 418.2Zm839.5 0a209.1 209.1 0 10 0-418.2 209.1 209.1 0 00 0 418.2Zm842 0a209 209 0 10 0-418 209 209 0 00 0 418Zm841.8 0a209 209 0 10 0-418 209 209 0 00 0 418Zm839.4 0a209 209 0 00 209-209.1 209 209 0 10-418 0 209 209 0 00 209 209.1Zm841.8 0a209 209 0 00 209-209.1 209 209 0 10-418.2 0 209 209 0 00 209.1 209.1Zm841.8 0a209.1 209.1 0 10 0-418.2 209.1 209.1 0 00 0 418.2Zm839.5 0a209.1 209.1 0 10 0-418.2 209.1 209.1 0 00 0 418.2Zm841.8 0a209.1 209.1 0 10 0-418.2 209.1 209.1 0 00 0 418.2Zm841.8 0a209.1 209.1 0 10 0-418.2 209.1 209.1 0 00 0 418.2Zm839.6 0a209.1 209.1 0 10 0-418.2 209.1 209.1 0 00 0 418.2Zm841.8 0a209.1 209.1 0 10 0-418.2 209.1 209.1 0 00 0 418.2Zm842.4 0a209.1 209.1 0 10 0-418.2 209.1 209.1 0 00 0 418.2Zm839 0a209.2 209.2 0 10-.2-418.3 209.2 209.2 0 00 0 418.3Zm841.8 0a209 209 0 10 .3-418.1 209 209 0 00-.3 418.1Zm841.8 0a209 209 0 10 .3-418.1 209 209 0 00-.3 418.1ZM222.4 7987.6a209 209 0 10 0-418.3 209 209 0 10 0 418.3Zm841.8 0a209 209 0 10 0-418.3 209 209 0 10 0 418.3Zm839 0a209 209 0 10 0-418.3 209 209 0 10 0 418.3Zm842.4 0a209 209 0 10 0-418.3 209 209 0 10 0 418.3Zm841.8 0a209.1 209.1 0 10 0-418.3 209.1 209.1 0 00 0 418.3Zm839 0a209.1 209.1 0 10 0-418.2 209.1 209.1 0 00 0 418.2Zm842.5 0a209.1 209.1 0 10 0-418.2 209.1 209.1 0 00 0 418.2Zm841.6 0a209.1 209.1 0 10 0-418.2 209.1 209.1 0 00 0 418.2Zm838.8 0a209.1 209.1 0 10 0-418.3 209.1 209.1 0 00 0 418.3Zm842.2 0a209.1 209.1 0 10 0-418.2 209.1 209.1 0 00 0 418.2Zm842 0a209.1 209.1 0 10 0-418.3 209.1 209.1 0 00 0 418.3Zm839 0a209 209 0 10 0-418.3 209 209 0 10 0 418.3Zm842 0a209 209 0 10 .2-418.1 209 209 0 00 0 418Zm842.3 0a209 209 0 10 .1-418.1 209 209 0 00 0 418Zm838.6 0a209 209 0 00 209-209.1 209 209 0 10-418 0c2.7 115.5 96.2 209 209 209Zm842 0a209 209 0 10 0-418.2 209 209 0 00 0 418.2Zm842.4 0a209 209 0 10 0-418.2 209 209 0 00 0 418.2Zm839.3 0a209 209 0 10 0-418.2 209 209 0 00 0 418.2Zm841.6 0a209 209 0 10 0-418.2 209 209 0 00 0 418.2Zm842.2 0a209.2 209.2 0 10 0-418.3 209.2 209.2 0 00 0 418.3Zm842 0a209.2 209.2 0 10 .1-418.4 209.2 209.2 0 00 0 418.4Zm1681 0a209 209 0 10 0-418.2 209 209 0 00 0 418.2Zm842.2 0a209 209 0 00 209.1-209.1 209 209 0 00-209-209 209 209 0 00-209 209 209 209 0 00 209 209.1Zm838.7 0a209 209 0 10 .1-418.1 209 209 0 00 0 418Zm842.3 0a209 209 0 10 .3-418.2 209 209 0 00-.3 418.2Zm2523.3 0a209 209 0 10 0-418.2 209 209 0 00 0 418.2Zm841.8 0a209 209 0 10 0-418.2 209 209 0 00 0 418.2Zm839 0a209.2 209.2 0 10 0-418.4 209.2 209.2 0 00 0 418.4Zm841.8 0a209.2 209.2 0 10 .1-418.4 209.2 209.2 0 00 .1 418.4Zm2523.4 0a209 209 0 00 209.1-209.1 209 209 0 00-209-209 209 209 0 00-209.2 209 209 209 0 00 209.1 209.1Zm842.2 0a209 209 0 10 .1-418.1 209 209 0 00 0 418Zm838.8 0a209 209 0 10 .3-418.2 209 209 0 00-.3 418.2Zm5046.7 0a209 209 0 10 0-418.2 209 209 0 00 0 418.2Zm841.6 0a209 209 0 10 0-418.2 209 209 0 00 0 418.2Zm842 0a209 209 0 10 0-418.2 209 209 0 00 0 418.2Zm842.4 0a209 209 0 10 0-418.2 209 209 0 00 0 418.2Zm838.7 0a209 209 0 10 .1-418.1 209 209 0 00 0 418Zm842.2 0a209 209 0 10 0-418.3 209 209 0 10 0 418.3Zm842 0a209 209 0 10 0-418.3 209 209 0 10 0 418.3Zm838.8 0a209 209 0 10 0-418.2 209 209 0 00 0 418.2Zm842.4 0a209 209 0 10 0-418.2 209 209 0 00 0 418.2Zm842 0a209 209 0 10 0-418.2 209 209 0 00 0 418.2Zm839 0a209 209 0 10 0-418.2 209 209 0 00 0 418.2Zm841.7 0a209.2 209.2 0 10 0-418.3 209.2 209.2 0 00 0 418.3Zm842.5 0a209 209 0 10 0-418.2 209 209 0 00 0 418.2Zm839 0a209 209 0 10 0-418.2 209 209 0 00 0 418.2Zm841.7 0a209 209 0 10 .1-418.2 209 209 0 00 0 418.2Zm842.5 0a209 209 0 10 .1-418.1 209 209 0 00 0 418Zm838.7 0a209 209 0 10 0-418.3 209 209 0 10 0 418.3Zm842 0a209 209 0 10 .4-418.2 209 209 0 00-.3 418.2Zm842.1 0a209 209 0 00 209-209.1 209 209 0 10-418 0 209 209 0 00 209 209Zm839.3 0a209 209 0 10 0-418.2 209 209 0 00 0 418.2Zm841.8 0a209 209 0 10 0-418.2 209 209 0 00 0 418.2Zm842 0a209 209 0 10 0-418.2 209 209 0 00 0 418.2Zm839.4 0a209 209 0 10 0-418.2 209 209 0 00 0 418.2Zm841.8 0a209 209 0 10 0-418.2 209 209 0 00 0 418.2Zm841.8 0a209 209 0 10 0-418.2 209 209 0 00 0 418.2Zm839.7 0a209 209 0 10 0-418.2 209 209 0 00 0 418.2Zm841.6 0a209 209 0 10 0-418.2 209 209 0 00 0 418.2Zm842 0a209 209 0 10 .1-418.1 209 209 0 00 0 418Zm839.4 0a209 209 0 00 209.1-209.1 209 209 0 10-418.2 0c2.8 115.5 96.3 209 209.1 209Zm841.4 0a209 209 0 00 209.1-209.1 209 209 0 10-418.2 0 209 209 0 00 209.1 209Zm842.4 0a209 209 0 10 0-418.2 209 209 0 00 0 418.2Zm841.8 0a209 209 0 10 0-418.2 209 209 0 00 0 418.2Zm839 0a209 209 0 10 0-418.2 209 209 0 00 0 418.2Zm842.1 0a209 209 0 10 0-418.2 209 209 0 00 0 418.2Zm842.1 0a209.2 209.2 0 10 0-418.4 209.2 209.2 0 00 0 418.4Zm839 0a209 209 0 10 0-418.2 209 209 0 00 0 418.2Zm842 0a209 209 0 10 0-418.2 209 209 0 00 0 418.2Zm842 0a209 209 0 10 0-418.2 209 209 0 00 0 418.2Zm839 0a209 209 0 10 0-418.3 209 209 0 10 0 418.3Zm842 0a209 209 0 10 0-418.3 209 209 0 10 0 418.3Zm842.2 0a209 209 0 00 209.1-209.1 209 209 0 10-418.2 0 209 209 0 00 209.1 209Zm839 0a209 209 0 00 209.2-209.1 209 209 0 00-209-209 209 209 0 00-209.2 209 209 209 0 00 209.1 209.1Zm842.1 0a209 209 0 10 0-418.2 209 209 0 00 0 418.2Zm-70229 842a209 209 0 10 0-418.3 209 209 0 10 0 418.2Zm839.3 0a209 209 0 10 0-418.3 209 209 0 00-209.2 209.1c2.8 115.6 96.3 209.1 209 209.1Zm842 0a209 209 0 10 0-418.3 209 209 0 10 0 418.2Zm841.7 0a209 209 0 10 0-418.3 209 209 0 10 0 418.2Zm842 0a209 209 0 10 0-418.3 209 209 0 10 0 418.2Zm839.3 0a209 209 0 10 0-418.3 209 209 0 10 0 418.2Zm841.6 0a209 209 0 10 0-418.3 209 209 0 10 0 418.2Zm842.4 0a209 209 0 10 0-418.3 209 209 0 10 0 418.2Zm839.2 0a209 209 0 10 0-418.3 209 209 0 10 0 418.2Zm841.6 0a209 209 0 10 0-418.3 209 209 0 10 0 418.2Zm842.2 0a209 209 0 10 0-418.3 209 209 0 10 0 418.2Zm839.5 0a209 209 0 10 0-418.2 209 209 0 00 0 418.1Zm841.8 0a209 209 0 10-.2-418.2 209 209 0 00-.1 418.1Zm841.5 0a209 209 0 10 0-418.2 209 209 0 00 0 418.1Zm839.6 0a209 209 0 00 209-209.2 209 209 0 10-418.1 0 209 209 0 00 209 209.1Zm841.8 0a209 209 0 00 209-209.2 209 209 0 10-418.1 0 209 209 0 00 209 209.1Zm841.8 0a209 209 0 00 209-209.2 209 209 0 00-209.1-209 209 209 0 00-209 209 209 209 0 00 209 209.1Zm839.4 0a209 209 0 10 0-418.3 209 209 0 10 0 418.2Zm841.8 0a209 209 0 10-.1-418.3 209 209 0 10 0 418.2Zm1680.9 0a209 209 0 00 209.1-209.2 209 209 0 10-418.2 0 209 209 0 00 209 209.1Zm842.2 0a209 209 0 00 209.1-209.2 209 209 0 00-209.1-209 209 209 0 00-209.1 209 209 209 0 00 209.2 209.1Zm841.4 0a209 209 0 00 209-209.2 209 209 0 00-209-209 209 209 0 00-209 209 209 209 0 00 209 209.1Zm839.3 0a209 209 0 10 0-418.2 209 209 0 00 0 418.1Zm842.5 0a209 209 0 10 .3-418.2 209 209 0 00-.3 418.1Zm2523 0a209 209 0 00 209.2-209.2 209 209 0 00-209.1-209 209 209 0 00-209.1 209 209 209 0 00 209 209.1Zm841.7 0a209 209 0 00 209-209.2 209 209 0 00-209-209 209 209 0 00-209 209 209 209 0 00 209 209.1Zm839.3 0a209 209 0 10 0-418.3 209 209 0 00-209.2 209.1c2.8 115.6 96.3 209.1 209.2 209.1Zm3365.2 0a209 209 0 10 0-418.2 209 209 0 00 0 418.1Zm842 0a209 209 0 10 .1-418.2 209 209 0 00 0 418.1Zm841.6 0a209 209 0 10 .1-418.2 209 209 0 00 0 418.1Zm5045.9 0a209 209 0 10 .1-418.2 209 209 0 00 0 418.1Zm839.6 0a209 209 0 00 209-209.2 209 209 0 10-418.2 0 209 209 0 00 209 209.1Zm842 0a209 209 0 00 209.2-209.2 209 209 0 00-209-209 209 209 0 00-209.2 209 209 209 0 00 209.1 209.1Zm841.5 0a209 209 0 00 209.1-209.2 209 209 0 10-418.2 0 209 209 0 00 209.1 209.1Zm839.7 0a209 209 0 10 .1-418.2 209 209 0 00 0 418.1Zm842.2 0a209 209 0 10 0-418.3 209 209 0 10 0 418.2Zm841.4 0a209 209 0 10 0-418.3 209 209 0 10 0 418.2Zm839.4 0a209 209 0 00 209.1-209.2 209 209 0 10-418.2 0 209 209 0 00 209.1 209.1Zm842.2 0a209 209 0 00 209.1-209.2 209 209 0 00-209-209 209 209 0 00-209 209 209 209 0 00 209 209.1Zm841.6 0a209 209 0 00 209-209.2 209 209 0 00-209-209 209 209 0 00-209 209 209 209 0 00 209 209.1Zm839.3 0a209 209 0 10 0-418.3 209 209 0 10 0 418.2Zm842 0a209 209 0 10 0-418.3 209 209 0 10 0 418.2Zm841.7 0a209 209 0 10 0-418.3 209 209 0 10 0 418.2Zm839.4 0a209 209 0 00 209-209.2 209 209 0 00-209-209 209 209 0 00-209 209c2.6 115.6 96.2 209.1 209 209.1Zm842 0a209 209 0 00 209.1-209.2 209 209 0 00-209-209 209 209 0 00-209.2 209 209 209 0 00 209.1 209.1Zm842.2 0a209 209 0 10 .1-418.2 209 209 0 00 0 418.1Zm838.7 0a209 209 0 10 0-418.3 209 209 0 00-209.2 209.1c2.7 115.6 96.2 209.1 209.1 209.1Zm842.3 0a209 209 0 00 209.1-209.2 209 209 0 10-418.2 0 209 209 0 00 209.1 209.1Zm842 0a209 209 0 00 209.1-209.2 209 209 0 10-418.2 0 209 209 0 00 209 209.1Zm841.6 0a209 209 0 00 209-209.2 209 209 0 10-418 0 209 209 0 00 209 209.1Zm839.3 0a209 209 0 00 209.1-209.2 209 209 0 00-209-209 209 209 0 00-209.2 209 209 209 0 00 209.1 209.1Zm842.4 0a209 209 0 10 .1-418.2 209 209 0 00 0 418.1Zm841.4 0a209 209 0 10 .1-418.2 209 209 0 00 .1 418.1Zm839.2 0a209 209 0 00 209.1-209.2 209 209 0 10-418.2 0 209 209 0 00 209.1 209.1Zm842.6 0a209 209 0 00 209.1-209.2 209 209 0 10-418.2 0 209 209 0 00 209.2 209.1Zm841.2 0a209 209 0 00 209.1-209.2 209 209 0 10-418.2 0 209 209 0 00 209.1 209.1Zm839.5 0a209 209 0 10 .1-418.2 209 209 0 00 0 418.1Zm842 0a209 209 0 10 .1-418.2 209 209 0 00 0 418.1Zm841.8 0a209 209 0 10 .1-418.2 209 209 0 00 0 418.1Zm839.4 0a209 209 0 00 209-209.2 209 209 0 10-418 0 209 209 0 00 209 209.1Zm841.8 0a209 209 0 00 209-209.2 209 209 0 10-418.2 0 209 209 0 00 209.1 209.1Zm841.8 0a209 209 0 00 209.1-209.2 209 209 0 10-418.2 0 209 209 0 00 209 209.1Zm839.5 0a209 209 0 10 .1-418.2 209 209 0 00 0 418.1Zm841.8 0a209 209 0 10 .1-418.2 209 209 0 00 0 418.1Zm841.8 0a209 209 0 10 0-418.3 209 209 0 10 0 418.2Zm839.6 0a209 209 0 00 209.1-209.2 209 209 0 10-418.2 0 209 209 0 00 209.1 209.1Zm841.8 0a209 209 0 00 209.1-209.2 209 209 0 00-209-209 209 209 0 00-209.2 209 209 209 0 00 209.1 209.1Zm842.4 0a209 209 0 00 209.1-209.2 209 209 0 00-209-209 209 209 0 00-209.2 209 209 209 0 00 209.1 209.1Zm839 0a209 209 0 10 0-418.3 209 209 0 10 0 418.2Zm841.8 0a209 209 0 10 .3-418.2 209 209 0 00-.3 418.1Zm841.8 0a209 209 0 10 .3-418.2 209 209 0 00-.3 418.1Zm839 0a209 209 0 00 209-209.2 209 209 0 10-418.3 0c2.8 115.6 96.3 209.1 209.1 209.1ZM222.3 9668.6a209 209 0 10 0-418.2 209 209 0 10 0 418.2Zm841.8 0a209 209 0 10 0-418.2 209 209 0 10 0 418.2Zm839 0a209 209 0 10 0-418.2 209 209 0 10 0 418.2Zm842.6 0a209 209 0 10 0-418.2 209 209 0 10 0 418.2Zm841.8 0a209 209 0 10 0-418.2 209 209 0 10 0 418.2Zm838.9 0a209 209 0 10 0-418.2 209 209 0 10 0 418.2Zm842.6 0a209 209 0 10 0-418.2 209 209 0 10 0 418.2Zm841.8 0a209 209 0 10 0-418.2 209 209 0 10 0 418.2Zm838.8 0a209 209 0 10 0-418.2 209 209 0 10 0 418.2Zm842.2 0a209 209 0 10 0-418.2 209 209 0 10 0 418.2Zm842 0a209 209 0 10 0-418.2 209 209 0 10 0 418.2Zm839 0a209 209 0 10 0-418.2 209 209 0 10 0 418.2Zm842 0a209 209 0 10 .2-418 209 209 0 00-.1 418Zm842.3 0a209 209 0 10 0-418 209 209 0 00 0 418Zm838.6 0a209 209 0 00 209-209 209 209 0 10-418.1 0c2.8 115.5 96.3 209 209 209Zm842 0a209 209 0 00 209-209 209 209 0 10-418.1 0 209 209 0 00 209 209Zm842.4 0a209 209 0 00 209-209 209 209 0 00-209-209.2 209 209 0 00-209.1 209.1 209 209 0 00 209 209.1Zm839.3 0a209 209 0 10-209.1-209c2.7 115.5 96.3 209 209 209Zm841.6 0a209 209 0 10 0-418 209 209 0 00 0 418Zm2523.2 0a209 209 0 00 209-209 209 209 0 00-209-209.2 209 209 0 00-209.1 209.1 209 209 0 00 209 209.1Zm842 0a209 209 0 00 209-209 209 209 0 00-209-209.2 209 209 0 00-209.1 209.1 209 209 0 00 209 209.1Zm842.2 0a209 209 0 00 209-209 209 209 0 00-209-209.2 209 209 0 00-209 209.1 209 209 0 00 209 209.1Zm838.7 0a209 209 0 10 0-418 209 209 0 00 0 418Zm842.3 0a209 209 0 10 .3-418 209 209 0 00-.3 418Zm3365 0a209 209 0 10 .2-418 209 209 0 00-.1 418Zm10092.7 0a209 209 0 10 0-418 209 209 0 00 0 418Zm839.2 0a209 209 0 00 209-209 209 209 0 10-418.1 0c2.8 115.5 96.3 209 209 209Zm841.6 0a209 209 0 00 209-209 209 209 0 10-418.1 0 209 209 0 00 209 209Zm842 0a209 209 0 00 209-209 209 209 0 10-418.1 0 209 209 0 00 209 209Zm842.4 0a209 209 0 00 209-209 209 209 0 00-209-209.2 209 209 0 00-209.1 209.1 209 209 0 00 209 209.1Zm838.7 0a209 209 0 10 0-418 209 209 0 00 0 418Zm842.2 0a209 209 0 10 0-418.2 209 209 0 10 0 418.2Zm842 0a209 209 0 10 0-418.2 209 209 0 10 0 418.2Zm838.8 0a209 209 0 00 209-209 209 209 0 10-418.1 0 209 209 0 00 209 209Zm842.4 0a209 209 0 00 209-209 209 209 0 00-209-209.2 209 209 0 00-209 209.1 209 209 0 00 209 209.1Zm842 0a209 209 0 00 209-209 209 209 0 00-209-209.2 209 209 0 00-209.1 209.1 209 209 0 00 209 209.1Zm839 0a209 209 0 10 0-418.2 209 209 0 10 0 418.2Zm841.7 0a209 209 0 10 0-418.2 209 209 0 10 0 418.2Zm842.5 0a209 209 0 00 209-209 209 209 0 10-418 0 209 209 0 00 209 209Zm838.9 0a209 209 0 00 209-209 209 209 0 00-209-209.2 209 209 0 00-209 209.1 209 209 0 00 209 209.1Zm841.8 0a209 209 0 00 209-209 209 209 0 00-209-209.2 209 209 0 00-209.1 209.1 209 209 0 00 209 209.1Zm842.4 0a209 209 0 10 0-418 209 209 0 00 0 418Zm838.7 0a209 209 0 10 0-418.2 209 209 0 10 0 418.2Zm842 0a209 209 0 10 .4-418 209 209 0 00-.3 418Zm842 0a209 209 0 00 209-209 209 209 0 10-418 0 209 209 0 00 209 209Zm839.4 0a209 209 0 00 209-209 209 209 0 00-209-209.2 209 209 0 00-209.1 209.1 209 209 0 00 209 209.1Zm841.8 0a209 209 0 10 .1-418 209 209 0 00-.1 418Zm842 0a209 209 0 10 0-418 209 209 0 00 0 418Zm839.4 0a209 209 0 00 209-209 209 209 0 10-418.1 0 209 209 0 00 209 209Zm841.8 0a209 209 0 00 209-209 209 209 0 10-418.1 0 209 209 0 00 209 209Zm841.8 0a209 209 0 00 209-209 209 209 0 10-418.1 0 209 209 0 00 209 209Zm839.7 0a209 209 0 10-209.1-209c0 115.5 96.3 209 209.1 209Zm841.6 0a209 209 0 10 .1-418 209 209 0 00 0 418Zm842 0a209 209 0 10 .1-418 209 209 0 00 0 418Zm839.4 0a209 209 0 00 209.1-209 209 209 0 10-418.2 0c2.8 115.5 96.3 209 209.1 209Zm841.4 0a209 209 0 00 209.1-209 209 209 0 10-418.2 0 209 209 0 00 209.1 209Zm842.4 0a209 209 0 00 209.1-209 209 209 0 10-418.2 0 209 209 0 00 209.1 209Zm841.8 0a209 209 0 00 209.1-209 209 209 0 00-209.1-209.2 209 209 0 00-209.1 209.1 209 209 0 00 209.1 209.1Zm839 0a209 209 0 10 0-418 209 209 0 00 0 418Zm842.1 0a209 209 0 10 .1-418 209 209 0 00 0 418Zm842.1 0a209 209 0 10 .2-418 209 209 0 00-.3 418Zm839 0a209 209 0 00 209-209 209 209 0 10-418.3 0 209 209 0 00 209.1 209Zm842 0a209 209 0 00 209.1-209 209 209 0 00-209.1-209.2 209 209 0 00-209.1 209.1 209 209 0 00 209.1 209.1Zm842 0a209 209 0 00 209.1-209 209 209 0 00-209-209.2 209 209 0 00-209 209.1 209 209 0 00 209 209.1Zm839 0a209 209 0 10 0-418.2 209 209 0 10 0 418.2Zm842 0a209 209 0 10 0-418.2 209 209 0 10 0 418.2Zm-67705.8 842a209 209 0 10 0-418.3 209 209 0 10 0 418.3Zm839.3 0a209 209 0 10 0-418.3 209 209 0 00-209.2 209.2c2.8 115.5 96.3 209 209 209Zm842 0a209 209 0 10 0-418.3 209 209 0 10 0 418.3Zm841.7 0a209 209 0 10 0-418.3 209 209 0 10 0 418.3Zm842 0a209 209 0 10 0-418.3 209 209 0 10 0 418.3Zm839.3 0a209 209 0 10 0-418.3 209 209 0 10 0 418.3Zm841.6 0a209 209 0 10 0-418.3 209 209 0 10 0 418.3Zm842.4 0a209 209 0 10 0-418.3 209 209 0 10 0 418.3Zm839.2 0a209 209 0 10 0-418.3 209 209 0 10 0 418.3Zm841.6 0a209 209 0 10 0-418.3 209 209 0 10 0 418.3Zm842.2 0a209 209 0 10 0-418.3 209 209 0 10 0 418.3Zm839.5 0a209 209 0 10 0-418.2 209 209 0 00 0 418.2Zm841.8 0a209 209 0 10 0-418.2 209 209 0 00-.1 418.2Zm841.7 0a209 209 0 10 0-418.2 209 209 0 00 0 418.2Zm839.6 0a209 209 0 00 209-209 209 209 0 10-418 0 209 209 0 00 209.2 209Zm841.8 0a209 209 0 00 209-209 209 209 0 10-418.1 0 209 209 0 00 209 209Zm841.8 0a209 209 0 00 209-209 209 209 0 10-418.2 0 209 209 0 00 209 209Zm839.4 0a209 209 0 10 0-418.2 209 209 0 00 0 418.2Zm2522.8 0a209 209 0 00 208.9-209 209 209 0 10-418.2 0 209 209 0 00 209 209Zm842 0a209 209 0 00 209-209 209 209 0 10-418.1 0 209 209 0 00 209 209Zm841.4 0a209 209 0 00 209-209 209 209 0 10-418.1 0 209 209 0 00 209 209Zm839.3 0a209 209 0 10 0-418.2 209 209 0 00 0 418.2Zm842.5 0a209 209 0 10 .2-418.2 209 209 0 00-.2 418.2Zm11776 0a209 209 0 00 209-209 209 209 0 10-418.1 0 209 209 0 00 209 209Zm1681.5 0a209 209 0 10 0-418.2 209 209 0 00 0 418.2Zm841.2 0a209 209 0 10 0-418.2 209 209 0 00 0 418.2Zm839.6 0a209 209 0 00 209-209 209 209 0 10-418.2 0 209 209 0 00 209 209Zm842 0a209 209 0 00 209.2-209 209 209 0 10-418.2 0 209 209 0 00 209 209Zm841.5 0a209 209 0 00 209-209 209 209 0 10-418.1 0 209 209 0 00 209 209Zm839.7 0a209 209 0 10 0-418.2 209 209 0 00 0 418.2Zm842.2 0a209 209 0 10 0-418.2 209 209 0 00 0 418.2Zm841.4 0a209 209 0 10 0-418.2 209 209 0 00 0 418.2Zm839.4 0a209 209 0 00 209-209 209 209 0 10-418.1 0 209 209 0 00 209 209Zm842.2 0a209 209 0 00 209-209 209 209 0 10-418.2 0 209 209 0 00 209 209Zm841.5 0a209 209 0 00 209-209 209 209 0 10-418 0 209 209 0 00 209 209Zm839.3 0a209 209 0 10 0-418.2 209 209 0 00 0 418.2Zm842 0a209 209 0 10 0-418.2 209 209 0 00 0 418.2Zm841.7 0a209 209 0 10 0-418.2 209 209 0 00 0 418.2Zm839.4 0a209 209 0 00 209-209 209 209 0 10-418 0c2.6 115.4 96.2 209 209 209Zm842 0a209 209 0 00 209-209 209 209 0 10-418.1 0 209 209 0 00 209 209Zm842.2 0a209 209 0 10 0-418.2 209 209 0 00 0 418.2Zm838.7 0a209 209 0 10-209.2-209c2.8 115.4 96.3 209 209.2 209Zm842.3 0a209 209 0 00 209.1-209 209 209 0 10-418.2 0 209 209 0 00 209.1 209Zm842 0a209 209 0 00 209.1-209 209 209 0 10-418.2 0 209 209 0 00 209 209Zm841.6 0a209 209 0 00 209-209 209 209 0 10-418 0 209 209 0 00 209 209Zm839.3 0a209 209 0 00 209.1-209 209 209 0 10-418.2 0 209 209 0 00 209.1 209Zm842.4 0a209 209 0 10 0-418.2 209 209 0 00 0 418.2Zm841.4 0a209 209 0 10 0-418.2 209 209 0 00 0 418.2Zm839.2 0a209 209 0 00 209.1-209 209 209 0 10-418.2 0 209 209 0 00 209.1 209Zm842.6 0a209 209 0 00 209.1-209 209 209 0 10-418.2 0 209 209 0 00 209.2 209Zm841.2 0a209 209 0 00 209.1-209 209 209 0 10-418.2 0 209 209 0 00 209.1 209Zm839.5 0a209 209 0 10 0-418.2 209 209 0 00 0 418.2Zm842 0a209 209 0 10 0-418.2 209 209 0 00 0 418.2Zm841.8 0a209 209 0 10 0-418.2 209 209 0 00 0 418.2Zm839.4 0a209 209 0 00 209-209 209 209 0 10-418 0 209 209 0 00 209 209Zm841.8 0a209 209 0 00 209-209 209 209 0 10-418.2 0 209 209 0 00 209.1 209Zm841.8 0a209 209 0 00 209.1-209 209 209 0 10-418.2 0 209 209 0 00 209 209Zm839.5 0a209 209 0 10 0-418.2 209 209 0 00 0 418.2Zm841.8 0a209 209 0 10 0-418.2 209 209 0 00 0 418.2Zm841.8 0a209 209 0 10 0-418.2 209 209 0 00 0 418.2Zm839.6 0a209 209 0 00 209.1-209 209 209 0 10-418.2 0 209 209 0 00 209.1 209Zm841.8 0a209 209 0 00 209.1-209 209 209 0 10-418.2 0 209 209 0 00 209.1 209Zm842.4 0a209 209 0 00 209.1-209 209 209 0 10-418.2 0 209 209 0 00 209.1 209Zm839 0a209 209 0 10 0-418.2 209 209 0 00 0 418.2Zm-65183.2 842a209 209 0 10 0-418.2 209 209 0 10 0 418.2Zm842.6 0a209 209 0 10 0-418.2 209 209 0 10 0 418.2Zm841.8 0a209.1 209.1 0 10 0-418.2 209.1 209.1 0 00 0 418.2Zm3362 0a209.1 209.1 0 10 0-418.2 209.1 209.1 0 00 0 418.2Zm842.3 0a209 209 0 10 0-418.2 209 209 0 00 0 418.2Zm842 0a209.1 209.1 0 10 0-418.2 209.1 209.1 0 00 0 418.2Zm839 0a209 209 0 10 0-418.2 209 209 0 10 0 418.2Zm842 0a209 209 0 10 0-418.2 209 209 0 10 0 418.2Zm842.3 0a209 209 0 10 0-418.2 209 209 0 10 0 418.2Zm838.6 0a209 209 0 10-209-209c2.7 115.5 96.2 209 209 209Zm842 0a209 209 0 10 0-418.2 209 209 0 00 0 418.2Zm842.4 0a209 209 0 10 0-418.2 209 209 0 00 0 418.2Zm839.3 0a209 209 0 10 0-418.2 209 209 0 00 0 418.2Zm841.6 0a209 209 0 10 0-418.2 209 209 0 00 0 418.2Zm842.2 0a209.1 209.1 0 10 0-418.3 209.1 209.1 0 00 0 418.3Zm1681 0a209 209 0 10 0-418.2 209 209 0 00 0 418.2Zm842 0a209 209 0 10 0-418.2 209 209 0 00 0 418.2Zm842.2 0a209 209 0 10-208.9-209 209 209 0 00 209 209Zm838.8 0a209 209 0 10 0-418.2 209 209 0 10 0 418.2Zm842.3 0a209 209 0 10 0-418.2 209 209 0 10 0 418.2Zm10934.4 0a209 209 0 10 0-418.2 209 209 0 00 0 418.2Zm839.3 0a209 209 0 10 0-418.2 209 209 0 00 0 418.2Zm1684 0a209 209 0 10 0-418.2 209 209 0 00 0 418.2Zm839.2 0a209 209 0 10 0-418.2 209 209 0 00 0 418.2Zm841.6 0a209 209 0 10 0-418.2 209 209 0 00 0 418.2Zm842 0a209 209 0 10 0-418.2 209 209 0 00 0 418.2Zm842.4 0a209 209 0 10 0-418.2 209 209 0 00 0 418.2Zm838.7 0a209 209 0 10 0-418.2 209 209 0 10 0 418.2Zm842.2 0a209 209 0 10 0-418.2 209 209 0 10 0 418.2Zm842 0a209 209 0 10 0-418.2 209 209 0 10 0 418.2Zm838.7 0a209 209 0 10 0-418.2 209 209 0 00 0 418.2Zm842.4 0a209 209 0 10 .1-418.2 209 209 0 00 .1 418.2Zm842.1 0a209 209 0 10 0-418.2 209 209 0 00 0 418.2Zm839 0a209 209 0 10 .1-418.2 209 209 0 00 .1 418.2Zm841.8 0a209.1 209.1 0 10 0-418.3 209.1 209.1 0 00 0 418.3Zm842.5 0a209 209 0 10 0-418.2 209 209 0 00 0 418.2Zm838.9 0a209 209 0 10 0-418.2 209 209 0 00 0 418.2Zm841.8 0a209 209 0 10 0-418.2 209 209 0 00 0 418.2Zm842.4 0a209 209 0 10 0-418.2 209 209 0 10 0 418.2Zm838.7 0a209 209 0 10 0-418.2 209 209 0 10 0 418.2Zm842 0a209 209 0 10 .1-418.2 209 209 0 10 0 418.2Zm842.1 0a209 209 0 10-209.1-209 209 209 0 00 209 209Zm839.3 0a209 209 0 10 0-418.2 209 209 0 00 0 418.2Zm841.8 0a209 209 0 10 0-418.2 209 209 0 00 0 418.2Zm842 0a209 209 0 10 0-418.2 209 209 0 00 0 418.2Zm839.4 0a209 209 0 10 0-418.2 209 209 0 00 0 418.2Zm841.8 0a209 209 0 10 0-418.2 209 209 0 00 0 418.2Zm841.8 0a209 209 0 10 0-418.2 209 209 0 00 0 418.2Zm839.7 0a209 209 0 10 0-418.2 209 209 0 00 0 418.2Zm841.6 0a209 209 0 10 0-418.2 209 209 0 00 0 418.2Zm842 0a209 209 0 10 0-418.2 209 209 0 10 0 418.2Zm839.4 0a209 209 0 10-209.1-209c2.8 115.5 96.3 209 209.1 209Zm841.4 0a209 209 0 10-209.1-209 209 209 0 00 209.1 209Zm842.4 0a209 209 0 10 0-418.2 209 209 0 00 0 418.2Zm841.8 0a209 209 0 10 0-418.2 209 209 0 00 0 418.2Zm2523.2 0a209.2 209.2 0 10 0-418.3 209.2 209.2 0 00 0 418.3Zm839 0a209 209 0 10 0-418.2 209 209 0 00 0 418.2ZM1482.4 12192a209 209 0 10-209.2-209.2c2.8 115.6 96.3 209.2 209 209.2Zm842 0a209 209 0 10 .2-418 209 209 0 00 0 418Zm5046.2 0a209.2 209.2 0 10-.1-418.4 209.2 209.2 0 00 0 418.4Zm841.6 0a209.2 209.2 0 10-.1-418.4 209.2 209.2 0 00 0 418.4Zm842.2 0a209.2 209.2 0 10-.1-418.4 209.2 209.2 0 00 0 418.4Zm839.5 0a209.1 209.1 0 10 0-418.2 209.1 209.1 0 00 0 418.2Zm841.8 0a209 209 0 10-.1-418.2 209 209 0 00-.1 418.2Zm841.6 0a209 209 0 10 0-418.2 209 209 0 00 0 418.2Zm839.6 0a209 209 0 00 209-209.2 209 209 0 10-418.1 0 209 209 0 00 209 209.2Zm841.8 0a209.2 209.2 0 10-.1-418.3 209.2 209.2 0 00 0 418.3Zm841.8 0a209.2 209.2 0 10-.2-418.3 209.2 209.2 0 00 0 418.3Zm839.4 0a209.2 209.2 0 10-.1-418.3 209.2 209.2 0 00 .2 418.3Zm841.8 0a209.2 209.2 0 10-.1-418.3 209.2 209.2 0 00 0 418.3Zm841.6 0a209.2 209.2 0 10-.1-418.3 209.2 209.2 0 00 0 418.3Zm839.4 0a209.2 209.2 0 10-.1-418.3 209.2 209.2 0 00 0 418.3Zm842.2 0a209.2 209.2 0 10-.1-418.3 209.2 209.2 0 00 0 418.3Zm841.4 0a209 209 0 00 209-209.2 209 209 0 10-418.1 0 209 209 0 00 209 209.2Zm839.3 0a209 209 0 10 0-418.2 209 209 0 00 0 418.2Zm842.5 0a209.1 209.1 0 10 .2-418.2 209.1 209.1 0 00-.2 418.2Zm841.5 0a209 209 0 10 0-418.2 209 209 0 00 0 418.2Zm9250.9 0a209 209 0 00 209-209.2 209 209 0 10-418.1 0 209 209 0 00 209 209.2Zm841.8 0a209.2 209.2 0 10-.1-418.3 209.2 209.2 0 00 0 418.3Zm841.8 0a209.2 209.2 0 10-.1-418.3 209.2 209.2 0 00 0 418.3Zm839.3 0a209.2 209.2 0 10-.1-418.3 209.2 209.2 0 00 0 418.3Zm842.2 0a209.2 209.2 0 10-.2-418.3 209.2 209.2 0 00 0 418.3Zm841 0a209.2 209.2 0 10 0-418.3 209.2 209.2 0 00 0 418.3Zm839.7 0a209.2 209.2 0 10-.2-418.3 209.2 209.2 0 00 0 418.3Zm842 0a209.2 209.2 0 10 0-418.3 209.2 209.2 0 00 0 418.3Zm841.5 0a209.2 209.2 0 10 0-418.3 209.2 209.2 0 00 0 418.3Zm839.7 0a209 209 0 10 0-418.2 209 209 0 00 0 418.2Zm842.2 0a209 209 0 10 0-418.2 209 209 0 00 0 418.2Zm841.4 0a209 209 0 10 0-418.2 209 209 0 00 0 418.2Zm839.4 0a209 209 0 00 209-209.2 209 209 0 10-418 0 209 209 0 00 209 209.2Zm842.2 0a209.2 209.2 0 10 0-418.3 209.2 209.2 0 00 0 418.3Zm841.6 0a209.2 209.2 0 10 0-418.3 209.2 209.2 0 00 0 418.3Zm839.3 0a209.2 209.2 0 10 0-418.3 209.2 209.2 0 00 0 418.3Zm842 0a209.2 209.2 0 10-.3-418.5 209.2 209.2 0 00 .3 418.5Zm841.8 0a209.2 209.2 0 10-.3-418.5 209.2 209.2 0 00 .3 418.5Zm839.4 0a209.2 209.2 0 10 0-418.3 209.2 209.2 0 00 0 418.3Zm842 0a209.2 209.2 0 10 0-418.3 209.2 209.2 0 00 0 418.3Zm842.2 0a209.2 209.2 0 10 0-418.3 209.2 209.2 0 00 0 418.3Zm838.7 0a209 209 0 10-209.2-209.2c2.7 115.6 96.2 209.2 209.1 209.2Zm842.3 0a209 209 0 00 209.1-209.2 209 209 0 10-418.2 0 209 209 0 00 209.1 209.2Zm842 0a209 209 0 00 209.1-209.2 209 209 0 10-418.2 0 209 209 0 00 209 209.2Zm841.6 0a209.2 209.2 0 10 0-418.3 209.2 209.2 0 00 0 418.3Zm839.3 0a209.2 209.2 0 10 0-418.3 209.2 209.2 0 00 0 418.3Zm842.4 0a209.2 209.2 0 10 0-418.3 209.2 209.2 0 00 0 418.3Zm841.4 0a209.2 209.2 0 10 0-418.3 209.2 209.2 0 00 0 418.3Zm839.2 0a209.2 209.2 0 10 0-418.3 209.2 209.2 0 00 0 418.3Zm842.5 0a209.2 209.2 0 10 0-418.3 209.2 209.2 0 00 0 418.3Zm841.2 0a209.2 209.2 0 10 0-418.3 209.2 209.2 0 00 0 418.3Zm839.5 0a209.2 209.2 0 10 0-418.3 209.2 209.2 0 00 0 418.3Zm842 0a209 209 0 10 0-418.2 209 209 0 00 0 418.2Zm841.8 0a209 209 0 10 0-418.2 209 209 0 00 0 418.2Zm839.4 0a209 209 0 00 209-209.2 209 209 0 10-418 0 209 209 0 00 209 209.2Zm841.8 0a209 209 0 00 209-209.2 209 209 0 10-418.2 0 209 209 0 00 209.1 209.2Zm841.8 0a209.2 209.2 0 10 0-418.3 209.2 209.2 0 00 0 418.3Zm2523.1 0a209.2 209.2 0 10 0-418.3 209.2 209.2 0 00 0 418.3Zm839.6 0a209.2 209.2 0 10 0-418.3 209.2 209.2 0 00 0 418.3Zm-55929.7 842a209.1 209.1 0 10 0-418.3 209.1 209.1 0 00 0 418.2Zm839 0a209 209 0 10 0-418.3 209 209 0 10 0 418.2Zm842 0a209 209 0 10 0-418.3 209 209 0 10 0 418.2Zm842.3 0a209 209 0 10 0-418.3 209 209 0 10 0 418.2Zm838.6 0a209 209 0 10-209-209c2.7 115.4 96.2 209 209 209Zm842 0a209 209 0 10 0-418.3 209 209 0 00 0 418.2Zm842.4 0a209 209 0 10 0-418.3 209 209 0 00 0 418.2Zm839.3 0a209 209 0 10 0-418.3 209 209 0 00 0 418.2Zm841.6 0a209 209 0 10 0-418.3 209 209 0 00 0 418.2Zm842.2 0a209.1 209.1 0 10 0-418.4 209.1 209.1 0 00 0 418.3Zm842 0a209.2 209.2 0 10 .2-418.4 209.2 209.2 0 00 0 418.3Zm839 0a209 209 0 10 0-418.3 209 209 0 00 0 418.2Zm842 0a209 209 0 10 0-418.3 209 209 0 00 0 418.2Zm842.2 0a209 209 0 10-209-209 209 209 0 00 209 209Zm838.7 0a209 209 0 10 0-418.3 209 209 0 10 0 418.2Zm842.3 0a209 209 0 10 0-418.3 209 209 0 10 0 418.2Zm842 0a209.2 209.2 0 10 0-418.4 209.2 209.2 0 00 0 418.3Zm839 0a209 209 0 10 0-418.3 209 209 0 00 0 418.2Zm8411.4 0a209 209 0 10-209-209 209 209 0 00 209 209Zm842 0a209 209 0 10 0-418.3 209 209 0 00 0 418.2Zm839.3 0a209 209 0 10 0-418.3 209 209 0 00 0 418.2Zm841.8 0a209 209 0 10 0-418.3 209 209 0 00 0 418.2Zm842.2 0a209 209 0 10 0-418.3 209 209 0 00 0 418.2Zm839.2 0a209 209 0 10 0-418.3 209 209 0 00 0 418.2Zm841.6 0a209 209 0 10 0-418.3 209 209 0 00 0 418.2Zm842 0a209 209 0 10 0-418.3 209 209 0 00 0 418.2Zm842.4 0a209 209 0 10 0-418.3 209 209 0 00 0 418.2Zm838.7 0a209 209 0 10 0-418.3 209 209 0 10 0 418.2Zm842.2 0a209 209 0 10 0-418.3 209 209 0 10 0 418.2Zm842 0a209 209 0 10 0-418.3 209 209 0 10 0 418.2Zm838.8 0a209 209 0 10 0-418.3 209 209 0 00 0 418.2Zm842.4 0a209 209 0 10 0-418.3 209 209 0 00 0 418.2Zm842 0a209 209 0 10 0-418.3 209 209 0 00 0 418.2Zm839 0a209 209 0 10 0-418.3 209 209 0 00 0 418.2Zm841.7 0a209.1 209.1 0 10 0-418.4 209.1 209.1 0 00 0 418.3Zm842.5 0a209 209 0 10 0-418.3 209 209 0 00 0 418.2Zm839 0a209 209 0 10 0-418.3 209 209 0 00 0 418.2Zm841.7 0a209 209 0 10 0-418.3 209 209 0 00 0 418.2Zm842.4 0a209 209 0 10 0-418.3 209 209 0 10 0 418.2Zm838.7 0a209 209 0 10 0-418.3 209 209 0 10 0 418.2Zm842 0a209 209 0 10 .1-418.3 209 209 0 10 0 418.2Zm842.1 0a209 209 0 10-209-209 209 209 0 00 209 209Zm839.3 0a209 209 0 10 0-418.3 209 209 0 00 0 418.2Zm841.8 0a209 209 0 10 0-418.3 209 209 0 00 0 418.2Zm842 0a209 209 0 10 0-418.3 209 209 0 00 0 418.2Zm839.4 0a209 209 0 10 0-418.3 209 209 0 00 0 418.2Zm841.8 0a209 209 0 10 0-418.3 209 209 0 00 0 418.2Zm841.8 0a209 209 0 10 0-418.3 209 209 0 00 0 418.2Zm839.7 0a209 209 0 10 0-418.3 209 209 0 00 0 418.2Zm841.6 0a209 209 0 10 0-418.3 209 209 0 00 0 418.2Zm842 0a209 209 0 10 .1-418.3 209 209 0 10 .1 418.2Zm839.5 0a209 209 0 10-209.2-209c2.8 115.4 96.3 209 209.1 209Zm841.3 0a209 209 0 10-209-209 209 209 0 00 209 209Zm842.4 0a209 209 0 10 0-418.3 209 209 0 00 0 418.2Zm841.8 0a209 209 0 10 0-418.3 209 209 0 00 0 418.2Zm2523.2 0a209.2 209.2 0 10 0-418.4 209.2 209.2 0 00 0 418.3Zm839 0a209 209 0 10 0-418.3 209 209 0 00 0 418.2Zm-55929.4 842a209 209 0 10 0-418.4 209 209 0 00 0 418.2Zm839.5-.2a209 209 0 10 0-418.2 209 209 0 10 0 418.2Zm841.8 0a209 209 0 10 0-418.2 209 209 0 10 0 418.2Zm841.7 0a209 209 0 10 0-418.2 209 209 0 10 0 418.2Zm839.6 0a209 209 0 10-209-209.1 209 209 0 00 209 209Zm841.8 0a209 209 0 10 0-418.2 209 209 0 00 0 418.2Zm841.8 0a209 209 0 10 0-418.2 209 209 0 00 0 418.2Zm839.4 0a209 209 0 10 0-418.2 209 209 0 00 0 418.2Zm841.8 0a209 209 0 10 0-418.2 209 209 0 00 0 418.2Zm841.6 0a209 209 0 10 0-418.2 209 209 0 00 0 418.2Zm839.4 0a209 209 0 10 0-418.2 209 209 0 00 0 418.2Zm842.2 0a209 209 0 10 0-418.2 209 209 0 00 0 418.2Zm841.4 0a209 209 0 10-209-209.1 209 209 0 00 209 209Zm839.3 0a209 209 0 10 0-418.2 209 209 0 10 0 418.2Zm842.5 0a209 209 0 10 0-418.2 209 209 0 10 0 418.2Zm841.5 0a209 209 0 10 0-418.2 209 209 0 10 0 418.2Zm839.2 0a209 209 0 10 0-418.2 209 209 0 00 0 418.2Zm9253.5 0a209 209 0 10 0-418.2 209 209 0 00 0 418.2Zm841.8 0a209 209 0 10 0-418.2 209 209 0 00 0 418.2Zm839.3 0a209 209 0 10 0-418.2 209 209 0 00 0 418.2Zm842.2 0a209 209 0 10 0-418.2 209 209 0 00 0 418.2Zm841.2 0a209 209 0 10 0-418.2 209 209 0 00 0 418.2Zm839.6 0a209 209 0 10 0-418.2 209 209 0 00 0 418.2Zm842 0a209 209 0 10 .1-418.2 209 209 0 00 .1 418.2Zm841.5 0a209 209 0 10 0-418.2 209 209 0 00 0 418.2Zm839.7 0a209 209 0 10 0-418.2 209 209 0 10 0 418.2Zm842.2 0a209 209 0 10 0-418.2 209 209 0 10 0 418.2Zm841.4 0a209 209 0 10 0-418.2 209 209 0 10 0 418.2Zm839.4 0a209 209 0 10-209-209.1 209 209 0 00 209 209Zm842.2 0a209 209 0 10 0-418.2 209 209 0 00 0 418.2Zm841.6 0a209 209 0 10 0-418.2 209 209 0 00 0 418.2Zm839.3 0a209 209 0 10 0-418.2 209 209 0 00 0 418.2Zm842 0a209.1 209.1 0 10 0-418.3 209.1 209.1 0 00 0 418.3Zm841.8 0a209.1 209.1 0 10 0-418.3 209.1 209.1 0 00 0 418.3Zm839.4 0a209 209 0 10 0-418.2 209 209 0 00 0 418.2Zm842 0a209 209 0 10 0-418.2 209 209 0 00 0 418.2Zm842.2 0a209 209 0 10 0-418.2 209 209 0 00 0 418.2Zm838.7 0a209 209 0 10 0-418.2 209 209 0 00-209.2 209.1c2.8 115.6 96.3 209.1 209.2 209.1Zm842.3 0a209 209 0 10-209-209.1 209 209 0 00 209 209Zm842 0a209 209 0 10-209-209.1 209 209 0 00 209 209Zm841.6 0a209 209 0 10 0-418.2 209 209 0 00 0 418.2Zm839.3 0a209 209 0 10 0-418.2 209 209 0 00 0 418.2Zm842.4 0a209 209 0 10 0-418.2 209 209 0 00 0 418.2Zm841.4 0a209 209 0 10 0-418.2 209 209 0 00 0 418.2Zm839.2 0a209 209 0 10 0-418.2 209 209 0 00 0 418.2Zm842.6 0a209 209 0 10 0-418.2 209 209 0 00 0 418.2Zm841.2 0a209 209 0 10 0-418.2 209 209 0 00 0 418.2Zm839.5 0a209 209 0 10 0-418.2 209 209 0 00 0 418.2Zm842 0a209 209 0 10 0-418.2 209 209 0 10 0 418.2Zm841.8 0a209 209 0 10 0-418.2 209 209 0 10 0 418.2Zm839.4 0a209 209 0 10-209-209.1 209 209 0 00 209 209Zm841.8 0a209 209 0 10-209-209.1 209 209 0 00 209 209Zm841.8 0a209 209 0 10 0-418.2 209 209 0 00 0 418.2Zm-51728 839.3a209 209 0 10 .2-418.1 209 209 0 00 0 418Zm842 0a209 209 0 10 .1-418.2 209 209 0 00 0 418.2Zm842.3 0a209 209 0 10 0-418.2 209 209 0 00 0 418.2Zm838.6 0a209 209 0 00 209-209.2 209 209 0 10-418 0c2.7 115.6 96.2 209.2 209 209.2Zm842 0a209.2 209.2 0 10 0-418.3 209.2 209.2 0 00 0 418.3Zm842.4 0a209.2 209.2 0 10 0-418.3 209.2 209.2 0 00 0 418.3Zm839.2 0a209.2 209.2 0 10 0-418.3 209.2 209.2 0 00 0 418.3Zm841.6 0a209.2 209.2 0 10 0-418.3 209.2 209.2 0 00 0 418.3Zm842.2 0a209.2 209.2 0 10-.3-418.5 209.2 209.2 0 00 .3 418.5Zm842 0a209.2 209.2 0 00 .1-418.3 209.2 209.2 0 00 0 418.3Zm839 0a209.2 209.2 0 10 0-418.3 209.2 209.2 0 00 0 418.3Zm842 0a209.2 209.2 0 10 0-418.3 209.2 209.2 0 00 0 418.3Zm842.2 0a209 209 0 00 209.1-209.2 209 209 0 10-418.2 0 209 209 0 00 209 209.2Zm838.7 0a209 209 0 10 0-418.2 209 209 0 00 0 418.2Zm842.3 0a209.1 209.1 0 10 .2-418.2 209.1 209.1 0 00-.2 418.2Zm1681 0a209.2 209.2 0 10-.2-418.3 209.2 209.2 0 00 .1 418.3Zm10092.7 0a209.2 209.2 0 10 0-418.3 209.2 209.2 0 00 0 418.3Zm841.8 0a209.2 209.2 0 10 0-418.3 209.2 209.2 0 00 0 418.3Zm842.2 0a209.2 209.2 0 10 0-418.3 209.2 209.2 0 00 0 418.3Zm839.2 0a209.2 209.2 0 10 0-418.3 209.2 209.2 0 00 0 418.3Zm841.6 0a209.2 209.2 0 10 0-418.3 209.2 209.2 0 00 0 418.3Zm842 0a209.2 209.2 0 10 0-418.3 209.2 209.2 0 00 0 418.3Zm842.4 0a209.2 209.2 0 10 .1-418.3 209.2 209.2 0 00 .1 418.3Zm838.8 0a209 209 0 10 0-418.2 209 209 0 00 0 418.2Zm842.2 0a209 209 0 10 0-418.2 209 209 0 00 0 418.2Zm842 0a209 209 0 10 0-418.2 209 209 0 00 0 418.2Zm838.8 0a209.2 209.2 0 10 0-418.3 209.2 209.2 0 00 0 418.3Zm842.4 0a209.2 209.2 0 10 0-418.3 209.2 209.2 0 00 0 418.3Zm842 0a209.2 209.2 0 10 0-418.3 209.2 209.2 0 00 0 418.3Zm839 0a209.2 209.2 0 10-.2-418.3 209.2 209.2 0 00 .2 418.3Zm841.7 0a209.2 209.2 0 10-.3-418.5 209.2 209.2 0 00 .3 418.5Zm842.5 0a209.2 209.2 0 10 0-418.3 209.2 209.2 0 00 0 418.3Zm839 0a209.2 209.2 0 10-.2-418.3 209.2 209.2 0 00 0 418.3Zm841.7 0a209.2 209.2 0 10 .1-418.3 209.2 209.2 0 00 .1 418.3Zm842.5 0a209 209 0 10 0-418.2 209 209 0 00 0 418.2Zm838.7 0a209 209 0 10 0-418.2 209 209 0 00 0 418.2Zm842 0a209.1 209.1 0 10 .3-418.2 209.1 209.1 0 00-.2 418.2Zm842.1 0a209 209 0 00 209-209.2 209 209 0 10-418 0 209 209 0 00 209 209.2Zm839.3 0a209.2 209.2 0 10 0-418.3 209.2 209.2 0 00 0 418.3Zm841.8 0a209.2 209.2 0 10 0-418.3 209.2 209.2 0 00 0 418.3Zm842 0a209.2 209.2 0 10 0-418.3 209.2 209.2 0 00 0 418.3Zm839.4 0a209.2 209.2 0 10 0-418.3 209.2 209.2 0 00 0 418.3Zm841.8 0a209.2 209.2 0 10 0-418.3 209.2 209.2 0 00 0 418.3Zm841.8 0a209.2 209.2 0 10 0-418.3 209.2 209.2 0 00 0 418.3Zm839.7 0a209.2 209.2 0 10 0-418.3 209.2 209.2 0 00 0 418.3Zm841.6 0a209.2 209.2 0 10 0-418.3 209.2 209.2 0 00 0 418.3Zm842 0a209 209 0 10 0-418.2 209 209 0 00 0 418.2Zm839.4 0a209 209 0 00 209.1-209.2 209 209 0 10-418.2 0c2.8 115.6 96.3 209.2 209.1 209.2Zm841.4 0a209 209 0 00 209.1-209.2 209 209 0 10-418.2 0 209 209 0 00 209.1 209.2Zm842.4 0a209.2 209.2 0 10 0-418.3 209.2 209.2 0 00 0 418.3Zm841.8 0a209.2 209.2 0 10 0-418.3 209.2 209.2 0 00 0 418.3Zm-52566.6 842a209 209 0 10 .1-418.3 209 209 0 00 0 418.2Zm839.6-.1a209 209 0 10 0-418.2 209 209 0 00-209 209.1 209 209 0 00 209 209Zm841.8 0a209 209 0 10-.2-418.2 209 209 0 00-209 209.1 209 209 0 00 209 209Zm841.6 0a209 209 0 10 0-418.2 209 209 0 00-209 209.1 209 209 0 00 209 209Zm839.6 0a209 209 0 00 209-209 209 209 0 10-209 209Zm841.8 0a209 209 0 10 0-418.2 209 209 0 00 0 418.2Zm841.8 0a209 209 0 10 0-418.2 209 209 0 00 0 418.2Zm839.4 0a209 209 0 10 0-418.2 209 209 0 00 0 418.2Zm841.8 0a209 209 0 10 0-418.2 209 209 0 00 0 418.2Zm841.6 0a209 209 0 10 0-418.2 209 209 0 00 0 418.2Zm839.4 0a209 209 0 10 0-418.2 209 209 0 00 0 418.2Zm842.2 0a209 209 0 10 0-418.2 209 209 0 00 0 418.2Zm841.4 0a209 209 0 00 209.1-209 209 209 0 00-209-209.2 209 209 0 00-208.9 209 209 209 0 00 209 209Zm11774.2 0a209 209 0 00 209.1-209 209 209 0 10-209.2 209Zm841.8 0a209 209 0 10 0-418.2 209 209 0 00 0 418.2Zm841.8 0a209 209 0 10 0-418.2 209 209 0 00 0 418.2Zm839.3 0a209 209 0 10 0-418.2 209 209 0 00 0 418.2Zm842.2 0a209 209 0 10 0-418.2 209 209 0 00 0 418.2Zm841.1 0a209 209 0 10 0-418.2 209 209 0 00 0 418.2Zm839.6 0a209 209 0 10 0-418.2 209 209 0 00 0 418.2Zm842 0a209 209 0 10 .1-418.2 209 209 0 00 .2 418.2Zm841.5 0a209 209 0 10 0-418.2 209 209 0 00 0 418.2Zm839.7 0a209 209 0 10 0-418.2 209 209 0 00-209 209.1 209 209 0 00 209 209Zm842.2 0a209 209 0 10 0-418.2 209 209 0 10 0 418.2Zm1680.8 0a209 209 0 00 209.1-209 209 209 0 10-209 209Zm842.2 0a209 209 0 10 0-418.2 209 209 0 00 0 418.2Zm841.6 0a209 209 0 10 0-418.2 209 209 0 00 0 418.2Zm839.3 0a209 209 0 10 0-418.2 209 209 0 00 0 418.2Zm842 0a209.1 209.1 0 10 0-418.3 209.1 209.1 0 00 0 418.3Zm841.8 0a209.1 209.1 0 10 0-418.3 209.1 209.1 0 00 0 418.3Zm839.4 0a209 209 0 10 0-418.2 209 209 0 00 0 418.2Zm842 0a209 209 0 10 0-418.2 209 209 0 00 0 418.2Zm842.2 0a209 209 0 10 0-418.2 209 209 0 00 0 418.2Zm838.7 0a209 209 0 10 0-418.2 209 209 0 00-209.2 209.1c2.7 115.6 96.2 209 209.1 209Zm842.3 0a209 209 0 00 209.1-209 209 209 0 10-209 209Zm842 0a209 209 0 00 209.1-209 209 209 0 10-209 209Zm841.6 0a209 209 0 10 0-418.2 209 209 0 00 0 418.2Zm839.3 0a209 209 0 10 0-418.2 209 209 0 00 0 418.2Zm842.4 0a209 209 0 10 0-418.2 209 209 0 00 0 418.2Zm841.4 0a209 209 0 10 0-418.2 209 209 0 00 0 418.2Zm839.2 0a209 209 0 10 0-418.2 209 209 0 00 0 418.2Zm842.6 0a209 209 0 10 0-418.2 209 209 0 00 0 418.2Zm841.2 0a209 209 0 10 0-418.2 209 209 0 00 0 418.2Zm839.5 0a209 209 0 10 0-418.2 209 209 0 00 0 418.2Zm842 0a209 209 0 10 0-418.2 209 209 0 00-209 209.1 209 209 0 00 209 209Zm841.8 0a209 209 0 10 0-418.2 209 209 0 00-209 209.1 209 209 0 00 209 209Zm839.4 0a209 209 0 00 209-209 209 209 0 10-209 209Zm841.8 0a209 209 0 00 209-209 209 209 0 10-209 209Zm841.8 0a209 209 0 10 0-418.2 209 209 0 00 0 418.2Zm-51728 842a209 209 0 10 .2-418 209 209 0 00 0 418Zm842 0a209 209 0 10 .1-418.2 209 209 0 00 0 418.2Zm842.3 0a209 209 0 10 0-418.2 209 209 0 00 0 418.2Zm838.6 0a209 209 0 10 0-418.2 209 209 0 00-209 209.1c2.7 115.5 96.2 209.1 209 209.1Zm842 0a209 209 0 10 0-418.2 209 209 0 00 0 418.2Zm842.4 0a209 209 0 10 0-418.2 209 209 0 00 0 418.2Zm839.3 0a209 209 0 10 0-418.2 209 209 0 00 0 418.2Zm841.6 0a209 209 0 10 0-418.2 209 209 0 00 0 418.2Zm842.2 0a209.1 209.1 0 10 0-418.3 209.1 209.1 0 00 0 418.3Zm842 0a209.2 209.2 0 10 .3-418.3 209.2 209.2 0 00 0 418.3Zm839.1 0a209 209 0 10 0-418.2 209 209 0 00 0 418.2Zm842 0a209 209 0 10 .1-418.2 209 209 0 00 0 418.2Zm842.3 0a209 209 0 10 0-418.2 209 209 0 10 0 418.2Zm11773.4 0a209 209 0 10 0-418.2 209 209 0 10 0 418.2Zm842 0a209 209 0 10 0-418.2 209 209 0 00 0 418.2Zm839.3 0a209 209 0 10 0-418.2 209 209 0 00 0 418.2Zm841.8 0a209 209 0 10 0-418.2 209 209 0 00 0 418.2Zm2523 0a209 209 0 10 0-418.2 209 209 0 00 0 418.2Zm842 0a209 209 0 10 0-418.2 209 209 0 00 0 418.2Zm842.4 0a209 209 0 10 0-418.2 209 209 0 00 0 418.2Zm838.7 0a209 209 0 10 0-418.2 209 209 0 00 0 418.2Zm842.2 0a209 209 0 10 0-418.2 209 209 0 00 0 418.2Zm842 0a209 209 0 10 0-418.2 209 209 0 00 0 418.2Zm838.8 0a209 209 0 10 0-418.2 209 209 0 00 0 418.2Zm842.4 0a209 209 0 10 0-418.2 209 209 0 00 0 418.2Zm842 0a209 209 0 10 0-418.2 209 209 0 00 0 418.2Zm839 0a209 209 0 10 0-418.2 209 209 0 00 0 418.2Zm841.7 0a209.1 209.1 0 10 0-418.3 209.1 209.1 0 00 0 418.3Zm842.5 0a209 209 0 10 0-418.2 209 209 0 00 0 418.2Zm839 0a209 209 0 10 0-418.2 209 209 0 00 0 418.2Zm841.7 0a209 209 0 10 0-418.2 209 209 0 00 0 418.2Zm842.4 0a209 209 0 10 0-418.2 209 209 0 00 0 418.2Zm838.7 0a209 209 0 10 0-418.2 209 209 0 00 0 418.2Zm842 0a209 209 0 10 .3-418.2 209 209 0 00-.2 418.2Zm842.1 0a209 209 0 10 0-418.2 209 209 0 10 0 418.2Zm839.3 0a209 209 0 10 0-418.2 209 209 0 00 0 418.2Zm841.8 0a209 209 0 10 0-418.2 209 209 0 00 0 418.2Zm842 0a209 209 0 10 0-418.2 209 209 0 00 0 418.2Zm839.4 0a209 209 0 10 0-418.2 209 209 0 00 0 418.2Zm841.8 0a209 209 0 10 0-418.2 209 209 0 00 0 418.2Zm841.8 0a209 209 0 10 0-418.2 209 209 0 00 0 418.2Zm839.7 0a209 209 0 10 0-418.2 209 209 0 00 0 418.2Zm841.6 0a209 209 0 10 0-418.2 209 209 0 00 0 418.2Zm842 0a209 209 0 10 0-418.2 209 209 0 00 0 418.2Zm839.4 0a209 209 0 10 0-418.2 209 209 0 00-209.2 209.1c2.8 115.5 96.3 209.1 209.1 209.1Zm1683.7 0a209 209 0 10 0-418.2 209 209 0 00 0 418.2Zm-51725.4 841.9a209 209 0 10 0-418.2 209 209 0 00 0 418.2Zm839.5-2.8a209 209 0 10 0-418.2 209 209 0 10 0 418.2Zm841.8 0a209 209 0 10 0-418.2 209 209 0 10 0 418.2Zm841.7 0a209 209 0 10 0-418.2 209 209 0 10 0 418.2Zm839.6 0a209 209 0 10-209-209.1 209 209 0 00 209 209.1Zm841.8 2.8a209 209 0 10 0-418.2 209 209 0 00 0 418.2Zm841.8 0a209 209 0 10 0-418.2 209 209 0 00 0 418.2Zm839.4 0a209 209 0 10 0-418.2 209 209 0 00 0 418.2Zm841.8 0a209 209 0 10 0-418.2 209 209 0 00 0 418.2Zm841.6 0a209 209 0 10 0-418.2 209 209 0 00 0 418.2Zm839.4 0a209 209 0 10 0-418.2 209 209 0 00 0 418.2Zm842.2 0a209 209 0 10 0-418.2 209 209 0 00 0 418.2Zm12615.6-2.8a209 209 0 10-209-209.1 209 209 0 00 209 209.1Zm841.8 2.8a209 209 0 10 0-418.2 209 209 0 00 0 418.2Zm841.8 0a209 209 0 10 0-418.2 209 209 0 00 0 418.2Zm839.3 0a209 209 0 10 0-418.2 209 209 0 00 0 418.2Zm842.2 0a209 209 0 10 0-418.2 209 209 0 00 0 418.2Zm841.2 0a209 209 0 10 0-418.2 209 209 0 00 0 418.2Zm2523.2 0a209 209 0 10 0-418.2 209 209 0 00 0 418.2Zm839.7-2.8a209 209 0 10 0-418.2 209 209 0 10 0 418.2Zm842.2 0a209 209 0 10 0-418.2 209 209 0 10 0 418.2Zm841.4 0a209 209 0 10 0-418.2 209 209 0 10 0 418.2Zm839.4 0a209 209 0 10-209-209.1 209 209 0 00 209 209.1Zm842.2 2.8a209 209 0 10 0-418.2 209 209 0 00 0 418.2Zm841.5 0a209 209 0 10 0-418.2 209 209 0 00 0 418.2Zm839.3 0a209 209 0 10 0-418.2 209 209 0 00 0 418.2Zm842 0a209.1 209.1 0 10 0-418.3 209.1 209.1 0 00 0 418.3Zm841.7 0a209.1 209.1 0 10 0-418.3 209.1 209.1 0 00 0 418.3Zm839.4 0a209 209 0 10 0-418.2 209 209 0 00 0 418.2Zm842 0a209 209 0 10 0-418.2 209 209 0 00 0 418.2Zm842.2 0a209 209 0 10 0-418.2 209 209 0 00 0 418.2Zm838.7-2.8a209 209 0 10 0-418.2 209 209 0 00-209.2 209c2.8 115.7 96.3 209.2 209.2 209.2Zm842.3 0a209 209 0 10-209-209.1 209 209 0 00 209 209.1Zm842 0a209 209 0 10-209-209.1 209 209 0 00 209 209.1Zm841.6 2.8a209 209 0 10 0-418.2 209 209 0 00 0 418.2Zm839.3 0a209 209 0 10 0-418.2 209 209 0 00 0 418.2Zm842.4 0a209 209 0 10 0-418.2 209 209 0 00 0 418.2Zm841.4 0a209 209 0 10 0-418.2 209 209 0 00 0 418.2Zm839.2 0a209 209 0 10 0-418.2 209 209 0 00 0 418.2Zm842.6 0a209 209 0 10 0-418.2 209 209 0 00 0 418.2Zm841.2 0a209 209 0 10 0-418.2 209 209 0 00 0 418.2Zm839.5 0a209 209 0 10 0-418.2 209 209 0 00 0 418.2Zm842-2.8a209 209 0 10 0-418.2 209 209 0 10 0 418.2Zm841.8 0a209 209 0 10 0-418.2 209 209 0 10 0 418.2Zm839.4 0a209 209 0 10-209-209.1 209 209 0 00 209 209.1Zm841.8 0a209 209 0 10-209-209.1 209 209 0 00 209 209.1Zm-50044 842a209 209 0 10 0-418.2 209 209 0 00-209 209.1 209 209 0 00 209 209.1Zm842.1 0a209 209 0 10 0-418.2 209 209 0 00-209 209.1 209 209 0 00 209 209.1Zm838.6 0a209 209 0 00 209-209.1 209 209 0 10-418.2 0c3 115.6 96.4 209 209.2 209Zm842 0a209 209 0 00 209.2-209.1 209 209 0 10-209 209Zm842.5 0a209 209 0 00 209-209.1 209 209 0 00-209-209.1 209 209 0 00-209 209 209 209 0 00 209 209.2Zm839.3 0a209 209 0 10 0-418.2 209 209 0 00-209 209.1c2.6 115.6 96.2 209.1 209 209.1Zm841.6 0a209 209 0 10 0-418.2 209 209 0 00-209 209.1 209 209 0 00 209 209.1Zm842.2 0a209 209 0 10 0-418.2 209 209 0 10 0 418.2Zm842 0a209 209 0 10 .1-418.2 209 209 0 10 0 418.2Zm839 0a209 209 0 00 209-209.1 209 209 0 00-209-209.1 209 209 0 00-209 209 209 209 0 00 209 209.2Zm842 0a209 209 0 00 209.1-209.1 209 209 0 00-209-209.1 209 209 0 00-209.2 209 209 209 0 00 209.1 209.2Zm12615.6 0a209 209 0 00 209.1-209.1 209 209 0 10-209 209Zm842 0a209 209 0 00 209.1-209.1 209 209 0 10-209 209Zm839.3 0a209 209 0 10 0-418.2 209 209 0 00-209 209.1 209 209 0 00 209 209.1Zm841.8 0a209 209 0 10 0-418.2 209 209 0 00-209 209.1 209 209 0 00 209 209.1Zm842.2 0a209 209 0 10 0-418.2 209 209 0 00-209 209.1 209 209 0 00 209 209.1Zm839.2 0a209 209 0 00 209.1-209.1 209 209 0 10-418.2 0c2.8 115.6 96.3 209 209.1 209Zm3364.7 0a209 209 0 10 0-418.2 209 209 0 00-209 209.1 209 209 0 00 209 209.1Zm842.2 0a209 209 0 10 0-418.2 209 209 0 10 0 418.2Zm842 0a209 209 0 10 0-418.2 209 209 0 10 0 418.2Zm838.8 0a209 209 0 00 209.1-209.1 209 209 0 10-209 209Zm842.4 0a209 209 0 00 209.1-209.1 209 209 0 00-209-209.1 209 209 0 00-209 209 209 209 0 00 208.8 209.2Zm842 0a209 209 0 00 209.1-209.1 209 209 0 00-209-209.1 209 209 0 00-209.3 209 209 209 0 00 209.1 209.2Zm839 0a209 209 0 10 0-418.2 209 209 0 10 0 418.2Zm841.7 0a209 209 0 10 0-418.2 209 209 0 10 0 418.2Zm842.5 0a209 209 0 00 209-209.1 209 209 0 10-209 209Zm839 0a209 209 0 00 209-209.1 209 209 0 00-209-209.1 209 209 0 00-209 209 209 209 0 00 209 209.2Zm841.7 0a209 209 0 00 209.1-209.1 209 209 0 00-209-209.1 209 209 0 00-209.2 209 209 209 0 00 209.1 209.2Zm842.4 0a209 209 0 10 .1-418.2 209 209 0 00-209 209.1 209 209 0 00 209.1 209.1Zm838.8 0a209 209 0 10 .1-418.2 209 209 0 10 .1 418.2Zm842.1 0a209 209 0 10 .1-418.2 209 209 0 10 0 418.2Zm842.1 0a209 209 0 00 209-209.1 209 209 0 10-209 209Zm839.3 0a209 209 0 00 209-209.1 209 209 0 00-209-209.1 209 209 0 00-209 209 209 209 0 00 209 209.2Zm841.8 0a209 209 0 10 0-418.2 209 209 0 00-209 209.1 209 209 0 00 209 209.1Zm842 0a209 209 0 10 0-418.2 209 209 0 00-209 209.1 209 209 0 00 209 209.1Zm839.4 0a209 209 0 00 209.1-209.1 209 209 0 10-209 209Zm841.8 0a209 209 0 00 209.1-209.1 209 209 0 10-209 209Zm841.8 0a209 209 0 00 209.1-209.1 209 209 0 10-209 209Zm839.7 0a209 209 0 10 0-418.2 209 209 0 00-209 209.1c0 115.6 96.2 209.1 209 209.1Zm841.6 0a209 209 0 10 0-418.2 209 209 0 00-209 209.1 209 209 0 00 209 209.1Zm842 0a209 209 0 10 0-418.2 209 209 0 00-209 209.1 209 209 0 00 209 209.1Zm839.4 0a209 209 0 00 209.1-209.1 209 209 0 10-418.2 0c2.8 115.6 96.3 209 209.1 209Zm841.4 0a209 209 0 00 209.1-209.1 209 209 0 10-209 209Zm-49201.7 842a209 209 0 10 0-418.2 209 209 0 00 0 418.2Zm841.8 0a209 209 0 10 0-418.2 209 209 0 00 0 418.2Zm839.6 0a209 209 0 10 0-418.2 209 209 0 10 0 418.2Zm841.8 0a209 209 0 10 0-418.2 209 209 0 10 0 418.2Zm841.8 0a209 209 0 10 0-418.2 209 209 0 10 0 418.2Zm839.4 0a209 209 0 10 0-418.2 209 209 0 00 0 418.2Zm841.8 0a209 209 0 10 0-418.2 209 209 0 00 0 418.2Zm841.6 0a209 209 0 10 0-418.2 209 209 0 00 0 418.2Zm839.4 0a209 209 0 10 0-418.2 209 209 0 10 0 418.2Zm13457.8 0a209 209 0 10 0-418.2 209 209 0 10 0 418.2Zm841.8 0a209 209 0 10 0-418.2 209 209 0 10 0 418.2Zm841.8 0a209 209 0 10 0-418.2 209 209 0 10 0 418.2Zm839.3 0a209 209 0 10 0-418.2 209 209 0 00 0 418.2Zm842.2 0a209 209 0 10 0-418.2 209 209 0 00 0 418.2Zm841.2 0a209 209 0 10 0-418.2 209 209 0 00 0 418.2Zm839.6 0a209 209 0 10 0-418.2 209 209 0 10-.2 418.2Zm842 0a209 209 0 10 .1-418.2 209 209 0 10 0 418.2Zm841.5 0a209 209 0 10 0-418.2 209 209 0 10 0 418.2Zm839.7 0a209 209 0 10 0-418.2 209 209 0 00 0 418.2Zm842.2 0a209 209 0 10 0-418.2 209 209 0 00 0 418.2Zm841.4 0a209 209 0 10 0-418.2 209 209 0 00 0 418.2Zm839.4 0a209 209 0 10 0-418.2 209 209 0 10 0 418.2Zm842.2 0a209 209 0 10 0-418.2 209 209 0 10 0 418.2Zm841.6 0a209 209 0 10 0-418.2 209 209 0 10 0 418.2Zm839.3 0a209 209 0 10 0-418.2 209 209 0 00 0 418.2Zm842 0a209 209 0 10 0-418.2 209 209 0 00 0 418.2Zm841.7 0a209 209 0 10 0-418.2 209 209 0 00 0 418.2Zm839.4 0a209 209 0 10 0-418.2 209 209 0 00-209 209c2.6 115.6 96.2 209.2 209 209.2Zm842 0a209 209 0 10 0-418.2 209 209 0 10 0 418.2Zm842.2 0a209 209 0 10 0-418.2 209 209 0 00 0 418.2Zm838.7 0a209 209 0 10-209.2-209.1c2.8 115.5 96.3 209 209.2 209Zm842.3 0a209 209 0 10 0-418.2 209 209 0 10 0 418.2Zm842 0a209 209 0 10 0-418.2 209 209 0 10 0 418.2Zm841.6 0a209 209 0 10 0-418.2 209 209 0 10 0 418.2Zm839.3 0a209 209 0 10 0-418.2 209 209 0 10 0 418.2Zm842.4 0a209 209 0 10 0-418.2 209 209 0 00 0 418.2Zm841.4 0a209 209 0 10 0-418.2 209 209 0 00 0 418.2Zm839.2 0a209 209 0 10 0-418.2 209 209 0 10 0 418.2Zm842.5 0a209 209 0 10 0-418.2 209 209 0 10 0 418.2Zm841.2 0a209 209 0 10 0-418.2 209 209 0 10 0 418.2Zm839.5 0a209 209 0 10 0-418.2 209 209 0 00 0 418.2Zm-45836.9 842a209 209 0 10 0-418.2 209 209 0 00 0 418.2Zm838.6 0a209 209 0 00 209-209 209 209 0 10-418-.1c2.6 115.5 96.1 209 209 209Zm842 0a209 209 0 00 209.1-209 209 209 0 10-418.2-.1 209 209 0 00 209.1 209Zm842.4 0a209 209 0 00 209-209 209 209 0 10-418-.1 209 209 0 00 209 209Zm839.3 0a209 209 0 10-209-209c2.6 115.4 96.2 209 209 209Zm2526 0a209 209 0 10 .1-418.2 209 209 0 00-.2 418.2Zm839 0a209 209 0 00 209-209 209 209 0 10-418.3-.1 209 209 0 00 209.1 209Zm12615.2 0a209 209 0 10 .2-418.2 209 209 0 00-.2 418.2Zm842.2 0a209 209 0 00 209.1-209 209 209 0 10-418.2-.1 209 209 0 00 209 209Zm842 0a209 209 0 00 209.1-209 209 209 0 10-418.2-.1 209 209 0 00 209.1 209Zm839.3 0a209 209 0 10 0-418.2 209 209 0 00 0 418.2Zm841.8 0a209 209 0 10 0-418.2 209 209 0 00 0 418.2Zm842.2 0a209 209 0 10 0-418.2 209 209 0 00 0 418.2Zm839.2 0a209 209 0 00 209.1-209 209 209 0 10-418.2-.1c2.8 115.5 96.3 209 209.1 209Zm841.6 0a209 209 0 00 209.1-209 209 209 0 10-418.2-.1 209 209 0 00 209.1 209Zm842 0a209 209 0 00 209.1-209 209 209 0 10-418.2-.1 209 209 0 00 209.1 209Zm842.4 0a209 209 0 00 209.1-209 209 209 0 10-418.2-.1 209 209 0 00 209.1 209Zm838.7 0a209 209 0 10 0-418.2 209 209 0 00 0 418.2Zm842.2 0a209 209 0 10 0-418.2 209 209 0 00 0 418.2Zm842 0a209 209 0 10 0-418.2 209 209 0 00 0 418.2Zm838.8 0a209 209 0 00 209.1-209 209 209 0 10-418.2-.1 209 209 0 00 209.1 209Zm842.4 0a209 209 0 00 209.1-209 209 209 0 10-418.2-.1 209 209 0 00 209 209Zm842 0a209 209 0 00 209.1-209 209 209 0 10-418.2-.1 209 209 0 00 209.1 209Zm839 0a209 209 0 10 0-418.2 209 209 0 00 0 418.2Zm841.7 0a209 209 0 10 0-418.2 209 209 0 00 0 418.2Zm842.5 0a209 209 0 00 209-209 209 209 0 10-418-.1 209 209 0 00 209 209Zm839 0a209 209 0 00 209-209 209 209 0 10-418.2-.1 209 209 0 00 209 209Zm841.7 0a209 209 0 00 209.1-209 209 209 0 10-418.2-.1 209 209 0 00 209.1 209Zm842.4 0a209 209 0 10 0-418.2 209 209 0 00 0 418.2Zm838.7 0a209 209 0 10 0-418.2 209 209 0 00 0 418.2Zm842 0a209 209 0 10 .3-418.2 209 209 0 00-.2 418.2Zm842.1 0a209 209 0 00 209-209 209 209 0 10-418-.1 209 209 0 00 209 209Zm839.3 0a209 209 0 00 209-209 209 209 0 10-418-.1 209 209 0 00 209 209Zm841.8 0a209 209 0 10 0-418.2 209 209 0 00 0 418.2Zm842 0a209 209 0 10 0-418.2 209 209 0 00 0 418.2Zm839.4 0a209 209 0 00 209.1-209 209 209 0 10-418.2-.1 209 209 0 00 209.1 209Zm841.8 0a209 209 0 00 209.1-209 209 209 0 10-418.2-.1 209 209 0 00 209.1 209Zm841.8 0a209 209 0 00 209.1-209 209 209 0 10-418.2-.1 209 209 0 00 209.1 209Zm839.7 0a209 209 0 10-209-209c0 115.4 96.2 209 209 209Zm841.6 0a209 209 0 10 0-418.2 209 209 0 00 0 418.2Zm-44997.5 839.2a209 209 0 10 0-418.2 209 209 0 10 0 418.2Zm841.8 0a209 209 0 10 0-418.2 209 209 0 10 0 418.2Zm841.8 0a209 209 0 10 0-418.2 209 209 0 10 0 418.2Zm1681.2 0a209 209 0 10 0-418.2 209 209 0 00 0 418.2Zm841.6 0a209 209 0 10 0-418.2 209 209 0 00 0 418.2Zm839.4 0a209 209 0 10 0-418.2 209 209 0 10 0 418.2Zm842.2 0a209 209 0 10 0-418.2 209 209 0 10 0 418.2Zm11776 0a209 209 0 10 0-418.2 209 209 0 00 0 418.2Zm839.6 0a209 209 0 10 0-418.2 209 209 0 10 0 418.2Zm841.8 0a209 209 0 10 0-418.2 209 209 0 10 0 418.2Zm841.8 0a209 209 0 10 0-418.2 209 209 0 10 0 418.2Zm839.3 0a209 209 0 10 0-418.2 209 209 0 00 0 418.2Zm842.2 0a209 209 0 10 0-418.2 209 209 0 00 0 418.2Zm841.2 0a209 209 0 10 0-418.2 209 209 0 00 0 418.2Zm839.6 0a209 209 0 10 0-418.2 209 209 0 10-.2 418.2Zm842 0a209 209 0 10 .1-418.2 209 209 0 10 0 418.2Zm841.5 0a209 209 0 10 0-418.2 209 209 0 10 0 418.2Zm839.7 0a209 209 0 10 0-418.2 209 209 0 00 0 418.2Zm842.2 0a209 209 0 10 0-418.2 209 209 0 00 0 418.2Zm841.4 0a209 209 0 10 0-418.2 209 209 0 00 0 418.2Zm839.4 0a209 209 0 10 0-418.2 209 209 0 10 0 418.2Zm842.2 0a209 209 0 10 0-418.2 209 209 0 10 0 418.2Zm841.6 0a209 209 0 10 0-418.2 209 209 0 10 0 418.2Zm839.3 0a209 209 0 10 0-418.2 209 209 0 00 0 418.2Zm842 0a209 209 0 10 0-418.2 209 209 0 00 0 418.2Zm1681.2 0a209 209 0 10 0-418.2 209 209 0 00-209 209c2.6 115.6 96.2 209.2 209 209.2Zm842 0a209 209 0 10 0-418.2 209 209 0 10 0 418.2Zm842.2 0a209 209 0 10 0-418.2 209 209 0 00 0 418.2Zm838.7 0a209 209 0 10-209.2-209.1c2.8 115.5 96.3 209 209.2 209Zm842.3 0a209 209 0 10 0-418.2 209 209 0 10 0 418.2Zm842 0a209 209 0 10 0-418.2 209 209 0 10 0 418.2Zm841.6 0a209 209 0 10 0-418.2 209 209 0 10 0 418.2Zm839.3 0a209 209 0 10 0-418.2 209 209 0 10 0 418.2Zm842.4 0a209 209 0 10 0-418.2 209 209 0 00 0 418.2Zm841.4 0a209 209 0 10 0-418.2 209 209 0 00 0 418.2Zm839.2 0a209 209 0 10 0-418.2 209 209 0 10 0 418.2Zm842.5 0a209 209 0 10 0-418.2 209 209 0 10 0 418.2Zm841.2 0a209 209 0 10 0-418.2 209 209 0 10 0 418.2ZM12836 21445a209 209 0 10 0-418.2 209 209 0 00 0 418.2Zm842.3 0a209 209 0 10 0-418.2 209 209 0 00 0 418.2Zm839.3 0a209 209 0 10 0-418.2 209 209 0 00 0 418.2Zm841.6 0a209 209 0 10 0-418.2 209 209 0 00 0 418.2Zm842.2 0a209.1 209.1 0 10 0-418.3 209.1 209.1 0 00 0 418.3Zm1681 0a209 209 0 10 0-418.2 209 209 0 00 0 418.2Zm842 0a209 209 0 10 0-418.2 209 209 0 00 0 418.2Zm842.2 0a209 209 0 10 0-418.2 209 209 0 10 0 418.2Zm838.7 0a209 209 0 10 0-418.2 209 209 0 00 0 418.2Zm9253.7 0a209 209 0 10 0-418.2 209 209 0 00 0 418.2Zm838.8 0a209 209 0 10 .2-418.2 209 209 0 00-.2 418.2Zm842.2 0a209 209 0 10 0-418.2 209 209 0 10 0 418.2Zm842 0a209 209 0 10 0-418.2 209 209 0 00 0 418.2Zm839.3 0a209 209 0 10 0-418.2 209 209 0 00 0 418.2Zm841.8 0a209 209 0 10 0-418.2 209 209 0 00 0 418.2Zm842.2 0a209 209 0 10 0-418.2 209 209 0 00 0 418.2Zm839.2 0a209 209 0 10 0-418.2 209 209 0 00 0 418.2Zm841.6 0a209 209 0 10 0-418.2 209 209 0 00 0 418.2Zm842 0a209 209 0 10 0-418.2 209 209 0 00 0 418.2Zm842.3 0a209 209 0 10 0-418.2 209 209 0 00 0 418.2Zm838.7 0a209 209 0 10 0-418.2 209 209 0 00 0 418.2Zm842.2 0a209 209 0 10 0-418.2 209 209 0 00 0 418.2Zm842 0a209 209 0 10 0-418.2 209 209 0 00 0 418.2Zm838.8 0a209 209 0 10 .1-418.2 209 209 0 00 .1 418.2Zm842.5 0a209 209 0 10 0-418.2 209 209 0 00 0 418.2Zm842 0a209 209 0 10 0-418.2 209 209 0 00 0 418.2Zm839 0a209 209 0 10 0-418.2 209 209 0 00 0 418.2Zm841.7 0a209.1 209.1 0 10 0-418.3 209.1 209.1 0 00 0 418.3Zm2523.2 0a209 209 0 10 0-418.2 209 209 0 00 0 418.2Zm842.4 0a209 209 0 10 0-418.2 209 209 0 00 0 418.2Zm838.7 0a209 209 0 10 0-418.2 209 209 0 00 0 418.2Zm842 0a209 209 0 10 .3-418.2 209 209 0 00-.2 418.2Zm1681.4 0a209 209 0 10 0-418.2 209 209 0 00 0 418.2Zm841.8 0a209 209 0 10 0-418.2 209 209 0 00 0 418.2Zm842 0a209 209 0 10 0-418.2 209 209 0 00 0 418.2Zm839.4 0a209 209 0 10 0-418.2 209 209 0 00 0 418.2ZM14100 22287a209 209 0 10 0-418.1 209 209 0 00 0 418.2Zm839.4 0a209 209 0 10 0-418.1 209 209 0 00 0 418.2Zm841.8 0a209 209 0 10 0-418.1 209 209 0 00 0 418.2Zm841.6 0a209 209 0 10 0-418.1 209 209 0 00 0 418.2Zm12616 0a209 209 0 10 0-418.1 209 209 0 10 0 418.2Zm841.6 0a209 209 0 10 0-418.1 209 209 0 10 0 418.2Zm839.6 0a209 209 0 10-209-209 209 209 0 00 209 209Zm841.8 0a209 209 0 10 0-418.1 209 209 0 00 0 418.2Zm841.8 0a209 209 0 10 0-418.1 209 209 0 00 0 418.2Zm839.3 0a209 209 0 10 0-418.1 209 209 0 00 0 418.2Zm842.2 0a209 209 0 10 0-418.1 209 209 0 00 0 418.2Zm841.2 0a209 209 0 10 0-418.1 209 209 0 00 0 418.2Zm839.6 0a209 209 0 10 0-418.1 209 209 0 00 0 418.2Zm842 0a209 209 0 10 .1-418.1 209 209 0 00 .1 418.2Zm841.5 0a209 209 0 10 0-418.1 209 209 0 00 0 418.2Zm839.7 0a209 209 0 10 0-418.1 209 209 0 10 0 418.2Zm842.2 0a209 209 0 10 0-418.1 209 209 0 10 0 418.2Zm841.4 0a209 209 0 10 0-418.1 209 209 0 10 0 418.2Zm839.4 0a209 209 0 10-209-209 209 209 0 00 209 209Zm842.2 0a209 209 0 10 0-418.1 209 209 0 00 0 418.2Zm841.6 0a209 209 0 10 0-418.1 209 209 0 00 0 418.2Zm839.3 0a209 209 0 10 0-418.1 209 209 0 00 0 418.2Zm4207.4 0a209 209 0 10 0-418.1 209 209 0 00 0 418.2Zm838.7 0a209 209 0 10 0-418.1 209 209 0 00-209.2 209c2.8 115.7 96.3 209.2 209.2 209.2Zm842.3 0a209 209 0 10-209-209 209 209 0 00 209 209Zm1683.6 0a209 209 0 10 0-418.1 209 209 0 00 0 418.2Zm839.3 0a209 209 0 10 0-418.1 209 209 0 00 0 418.2Zm842.4 0a209 209 0 10 0-418.1 209 209 0 00 0 418.2Zm841.4 0a209 209 0 10 0-418.1 209 209 0 00 0 418.2Zm839.2 0a209 209 0 10 0-418.1 209 209 0 00 0 418.2Zm-38267.5 839.4a209.2 209.2 0 10-.2-418.4 209.2 209.2 0 00 .2 418.4Zm842 0a209.2 209.2 0 10 0-418.5 209.2 209.2 0 00 .1 418.5Zm839 0a209.1 209.1 0 10 0-418.3 209.1 209.1 0 00 0 418.3Zm842 0a209.1 209.1 0 10 0-418.3 209.1 209.1 0 00 0 418.3Zm842.2 0a209 209 0 00 209.1-209.1 209 209 0 10-418.2 0 209 209 0 00 209 209Zm838.7 0a209 209 0 10 0-418.2 209 209 0 00 0 418.2Zm842.3 0a209 209 0 10 .2-418.2 209 209 0 00-.2 418.2Zm9250.2 0a209 209 0 10 .2-418.2 209 209 0 00-.2 418.2Zm842.2 0a209 209 0 00 209.1-209.1 209 209 0 10-418.2 0 209 209 0 00 209 209Zm842 0a209.1 209.1 0 10 0-418.3 209.1 209.1 0 00 0 418.3Zm839.3 0a209.1 209.1 0 10 0-418.3 209.1 209.1 0 00 0 418.3Zm841.6 0a209.1 209.1 0 10 0-418.3 209.1 209.1 0 00 0 418.3Zm842.2 0a209.1 209.1 0 10 0-418.3 209.1 209.1 0 00 0 418.3Zm839.2 0a209.1 209.1 0 10 0-418.3 209.1 209.1 0 00 0 418.3Zm841.6 0a209.1 209.1 0 10 0-418.3 209.1 209.1 0 00 0 418.3Zm842 0a209.1 209.1 0 10 0-418.3 209.1 209.1 0 00 0 418.3Zm842.4 0a209.1 209.1 0 10 .1-418.3 209.1 209.1 0 00 .2 418.3Zm838.8 0a209 209 0 10 0-418.2 209 209 0 00 0 418.2Zm842.2 0a209 209 0 10 0-418.2 209 209 0 00 0 418.2Zm842 0a209 209 0 10 0-418.2 209 209 0 00 0 418.2Zm838.8 0a209.1 209.1 0 10 0-418.3 209.1 209.1 0 00 0 418.3Zm842.4 0a209.1 209.1 0 10 0-418.3 209.1 209.1 0 00 0 418.3Zm842 0a209.1 209.1 0 10 0-418.3 209.1 209.1 0 00 0 418.3Zm5046.3 0a209 209 0 10 0-418.2 209 209 0 00 0 418.2Zm838.7 0a209 209 0 10 0-418.2 209 209 0 00 0 418.2Zm3365.2 0a209.1 209.1 0 10 0-418.3 209.1 209.1 0 00 0 418.3Zm842 0a209.1 209.1 0 10 0-418.3 209.1 209.1 0 00 0 418.3Zm839.4 0a209.1 209.1 0 10 0-418.3 209.1 209.1 0 00 0 418.3Zm841.8 0a209.1 209.1 0 10 0-418.3 209.1 209.1 0 00 0 418.3Zm-38268 841.9a209 209 0 10 .1-418.2 209 209 0 00 0 418.2Zm839.5 0a209 209 0 10 0-418.2 209 209 0 00 0 418.2Zm842.2 0a209 209 0 10 0-418.2 209 209 0 00 0 418.2Zm841.4 0a209 209 0 10-209-209 209 209 0 00 209 209Zm839.3 0a209 209 0 10 0-418.2 209 209 0 10 0 418.2Zm842.5 0a209 209 0 10 0-418.2 209 209 0 10 0 418.2Zm841.5 0a209 209 0 10 0-418.2 209 209 0 10 0 418.2Zm839.2 0a209 209 0 10 0-418.2 209 209 0 00 0 418.2Zm7572.1 0a209 209 0 10 0-418.2 209 209 0 10 0 418.2Zm839.6 0a209 209 0 10-209-209 209 209 0 00 209 209Zm841.8 0a209 209 0 10 0-418.2 209 209 0 00 0 418.2Zm841.8 0a209 209 0 10 0-418.2 209 209 0 00 0 418.2Zm839.3 0a209 209 0 10 0-418.2 209 209 0 00 0 418.2Zm842.2 0a209 209 0 10 0-418.2 209 209 0 00 0 418.2Zm841.2 0a209 209 0 10 0-418.2 209 209 0 00 0 418.2Zm839.6 0a209 209 0 10 0-418.2 209 209 0 00 0 418.2Zm842 0a209 209 0 10 .1-418.2 209 209 0 00 .1 418.2Zm841.5 0a209 209 0 10 0-418.2 209 209 0 00 0 418.2Zm839.7 0a209 209 0 10 0-418.2 209 209 0 10 0 418.2Zm842.2 0a209 209 0 10 0-418.2 209 209 0 10 0 418.2Zm841.4 0a209 209 0 10 0-418.2 209 209 0 10 0 418.2Zm839.4 0a209 209 0 10-209-209 209 209 0 00 209 209Zm842.2 0a209 209 0 10 0-418.2 209 209 0 00 0 418.2Zm841.6 0a209 209 0 10 0-418.2 209 209 0 00 0 418.2Zm9250.6 0a209 209 0 10 0-418.2 209 209 0 00 0 418.2Zm842.4 0a209 209 0 10 0-418.2 209 209 0 00 0 418.2Zm841.4 0a209 209 0 10 0-418.2 209 209 0 00 0 418.2Zm2523 0a209 209 0 10 0-418.2 209 209 0 00 0 418.2Zm-38270.3 842a209 209 0 10 0-418.3 209 209 0 00 0 418.2Zm842-.1a209 209 0 10 0-418.2 209 209 0 00 0 418.2Zm842 0a209 209 0 10-209-209.1 209 209 0 00 209 209Zm838.7 0a209 209 0 10 0-418.2 209 209 0 10 0 418.2Zm842.3 0a209 209 0 10 0-418.2 209 209 0 10 0 418.2Zm842 0a209.2 209.2 0 10 .1-418.3 209.2 209.2 0 00 0 418.3Zm839 0a209 209 0 10 0-418.2 209 209 0 00 0 418.2Zm842.4 0a209 209 0 10 0-418.2 209 209 0 00 0 418.2Zm8411 0a209 209 0 10 .1-418.2 209 209 0 00 0 418.2Zm839.4 0a209 209 0 10 0-418.2 209 209 0 00 0 418.2Zm1684 0a209 209 0 10 0-418.2 209 209 0 00 0 418.2Zm839.2 0a209 209 0 10 0-418.2 209 209 0 00 0 418.2Zm841.6 0a209 209 0 10 0-418.2 209 209 0 00 0 418.2Zm842 0a209 209 0 10 0-418.2 209 209 0 00 0 418.2Zm842.4 0a209 209 0 10 0-418.2 209 209 0 00 0 418.2Zm838.7 0a209 209 0 10 0-418.2 209 209 0 10 0 418.2Zm842.2 0a209 209 0 10 0-418.2 209 209 0 10 0 418.2Zm842 0a209 209 0 10 0-418.2 209 209 0 10 0 418.2Zm838.8 0a209 209 0 10 0-418.2 209 209 0 00 0 418.2Zm842.4 0a209 209 0 10 0-418.2 209 209 0 00 0 418.2Zm842 0a209 209 0 10 0-418.2 209 209 0 00 0 418.2Zm8408.4 0a209 209 0 10 0-418.2 209 209 0 00 0 418.2Zm841.8 0a209 209 0 10 0-418.2 209 209 0 00 0 418.2Zm842 0a209 209 0 10 0-418.2 209 209 0 00 0 418.2Zm839.4 0a209 209 0 10 0-418.2 209 209 0 00 0 418.2Zm1683.6 0a209 209 0 10 0-418.2 209 209 0 00 0 418.2Zm839.7 0a209 209 0 10 0-418.2 209 209 0 00 0 418.2Zm-39110 839.3a209.1 209.1 0 10 0-418.3 209.1 209.1 0 00 0 418.3Zm842.2 0a209.1 209.1 0 10 0-418.3 209.1 209.1 0 00 0 418.3Zm841.4 0a209 209 0 00 209.1-209.1 209 209 0 10-418.2 0 209 209 0 00 209 209Zm839.3 0a209 209 0 10 0-418.2 209 209 0 00 0 418.2Zm842.5 0a209 209 0 10 .2-418.2 209 209 0 00-.2 418.2Zm841.5 0a209 209 0 10 0-418.2 209 209 0 00 0 418.2Zm839.2 0a209.1 209.1 0 10 0-418.3 209.1 209.1 0 00 0 418.3Zm842.4 0a209.1 209.1 0 10 0-418.3 209.1 209.1 0 00 0 418.3Zm841.6 0a209.1 209.1 0 10 0-418.3 209.1 209.1 0 00 0 418.3Zm10934 0a209.1 209.1 0 10 .2-418.3 209.1 209.1 0 00 .1 418.3Zm839.8 0a209.1 209.1 0 10-.2-418.3 209.1 209.1 0 00 0 418.3Zm842 0a209.1 209.1 0 10 0-418.3 209.1 209.1 0 00 .1 418.3Zm841.5 0a209.1 209.1 0 10 0-418.3 209.1 209.1 0 00 0 418.3Zm839.7 0a209 209 0 10 0-418.2 209 209 0 00 0 418.2Zm842.2 0a209 209 0 10 0-418.2 209 209 0 00 0 418.2Zm841.4 0a209 209 0 10 0-418.2 209 209 0 00 0 418.2Zm839.4 0a209 209 0 00 209.1-209.1 209 209 0 10-418.2 0 209 209 0 00 209.1 209Zm842.2 0a209.1 209.1 0 10 0-418.3 209.1 209.1 0 00 0 418.3Zm10092.2 0a209.1 209.1 0 10 0-418.3 209.1 209.1 0 00 0 418.3Zm842.4 0a209.1 209.1 0 10 0-418.3 209.1 209.1 0 00 0 418.3Zm841.4 0a209.1 209.1 0 10 .1-418.3 209.1 209.1 0 00 .1 418.3Zm839.3 0a209.1 209.1 0 10 0-418.3 209.1 209.1 0 00 0 418.3Zm842.6 0a209.1 209.1 0 10 0-418.3 209.1 209.1 0 00 0 418.3Zm841.2 0a209.1 209.1 0 10 0-418.3 209.1 209.1 0 00 0 418.3Zm2523.3 0a209 209 0 10 0-418.2 209 209 0 00 0 418.2Zm839.4 0a209 209 0 00 209-209.1 209 209 0 10-418 0 209 209 0 00 209 209Zm841.8 0a209 209 0 00 209-209.1 209 209 0 10-418.2 0 209 209 0 00 209.1 209Zm-42474.8 841.9a209 209 0 10 0-418.2 209 209 0 00 0 418.2Zm842 0a209 209 0 10 0-418.2 209 209 0 00 0 418.2Zm842.2 0a209 209 0 10-209-209.1 209 209 0 00 209 209Zm838.7 0a209 209 0 10 0-418.2 209 209 0 10 0 418.2Zm842.3 0a209 209 0 10 0-418.2 209 209 0 10 0 418.2Zm842 0a209.2 209.2 0 10 0-418.3 209.2 209.2 0 00 0 418.3Zm839 0a209 209 0 10 0-418.2 209 209 0 00 0 418.2Zm842.3 0a209 209 0 10 0-418.2 209 209 0 00 0 418.2Zm841.8 0a209 209 0 10 0-418.2 209 209 0 00 0 418.2Zm839 0a209.2 209.2 0 10 0-418.3 209.2 209.2 0 00 0 418.3Zm841.8 0a209.2 209.2 0 10 0-418.3 209.2 209.2 0 00 0 418.3Zm9251 0a209 209 0 10 .1-418.2 209 209 0 00 .1 418.2Zm841.7 0a209 209 0 10 0-418.2 209 209 0 00 0 418.2Zm842 0a209 209 0 10 0-418.2 209 209 0 00 0 418.2Zm842.4 0a209 209 0 10 .1-418.2 209 209 0 00 .1 418.2Zm838.8 0a209 209 0 10 0-418.2 209 209 0 10 0 418.2Zm842.2 0a209 209 0 10 0-418.2 209 209 0 10 0 418.2Zm842 0a209 209 0 10 0-418.2 209 209 0 10 0 418.2Zm838.8 0a209 209 0 10 0-418.2 209 209 0 00 0 418.2Zm10934.6 0a209 209 0 10 0-418.2 209 209 0 00 0 418.2Zm842 0a209 209 0 10 0-418.2 209 209 0 00 0 418.2Zm839.4 0a209 209 0 10 0-418.2 209 209 0 00 0 418.2Zm841.8 0a209 209 0 10 0-418.2 209 209 0 00 0 418.2Zm841.8 0a209 209 0 10 0-418.2 209 209 0 00 0 418.2Zm839.7 0a209 209 0 10 0-418.2 209 209 0 00 0 418.2Zm2523 0a209 209 0 10-209.2-209.1c2.8 115.6 96.3 209 209.1 209Zm841.3 0a209 209 0 10-209-209.1 209 209 0 00 209 209Zm842.4 0a209 209 0 10 0-418.2 209 209 0 00 0 418.2Zm841.8 0a209 209 0 10 0-418.2 209 209 0 00 0 418.2Zm839 0a209 209 0 10 0-418.2 209 209 0 00 0 418.2Zm-44997.6 842a209 209 0 10 0-418.2 209 209 0 00 0 418.2Zm842.1 0a209 209 0 10 0-418.2 209 209 0 00 0 418.2Zm841.4 0a209 209 0 00 209.1-209.1 209 209 0 00-209-209.1 209 209 0 00-209 209 209 209 0 00 209 209.2Zm839.3 0a209 209 0 10 0-418.2 209 209 0 00-209 209 209 209 0 00 209 209.2Zm842.5 0a209 209 0 10 0-418.2 209 209 0 10 0 418.2Zm841.5 0a209 209 0 10 0-418.2 209 209 0 10 0 418.2Zm839.2 0a209 209 0 10 0-418.2 209 209 0 00 0 418.2Zm842.4 0a209 209 0 10 0-418.2 209 209 0 00 0 418.2Zm841.6 0a209 209 0 10 0-418.2 209 209 0 00 0 418.2Zm839.3 0a209.1 209.1 0 10 0-418.3 209.1 209.1 0 00 0 418.3Zm842 0a209.2 209.2 0 10 0-418.3 209.2 209.2 0 00 0 418.3Zm9252.7 0a209 209 0 10 0-418.2 209 209 0 00 0 418.2Zm839.6 0a209 209 0 10 0-418.2 209 209 0 00 0 418.2Zm842 0a209 209 0 10 .1-418.2 209 209 0 00 .1 418.2Zm841.5 0a209 209 0 10 0-418.2 209 209 0 00 0 418.2Zm839.7 0a209 209 0 10 0-418.2 209 209 0 00-209 209 209 209 0 00 209 209.2Zm842.2 0a209 209 0 10 0-418.2 209 209 0 10 0 418.2Zm841.4 0a209 209 0 10 0-418.2 209 209 0 10 0 418.2Zm839.4 0a209 209 0 00 209.1-209.1 209 209 0 10-209 209Zm11776.8 0a209 209 0 10 0-418.2 209 209 0 00 0 418.2Zm841.4 0a209 209 0 10 0-418.2 209 209 0 00 0 418.2Zm6727.5 0a209 209 0 00 209-209.1 209 209 0 10-209 209Zm841.8 0a209 209 0 10 0-418.2 209 209 0 00 0 418.2Zm839.5 0a209 209 0 10 0-418.2 209 209 0 00 0 418.2Zm-44156 839.2a209 209 0 00 209-209.1 209 209 0 00-209-209.1 209 209 0 00-209.2 209 209 209 0 00 209.1 209.2Zm842 0a209 209 0 00 209-209.1 209 209 0 00-209-209.1 209 209 0 00-209.2 209 209 209 0 00 209.1 209.2Zm842.1 0a209 209 0 00 209.1-209.1 209 209 0 00-209-209.1 209 209 0 00-209 209 209 209 0 00 209 209.2Zm838.7 0a209 209 0 10 0-418.2 209 209 0 00-209 209 209 209 0 00 209 209.2Zm842.3 0a209 209 0 10 0-418.2 209 209 0 10 0 418.2Zm842 0a209 209 0 10 0-418.2 209 209 0 10 0 418.2Zm839 0a209 209 0 00 209-209.1 209 209 0 00-209-209.1 209 209 0 00-209 209 209 209 0 00 209 209.2Zm842.3 0a209 209 0 00 209.1-209.1 209 209 0 00-209-209.1 209 209 0 00-209.2 209 209 209 0 00 209.3 209.2Zm841.8 0a209 209 0 10 0-418.2 209 209 0 00-209 209 209 209 0 00 209 209.2Zm839 0a209 209 0 10 0-418.2 209 209 0 10 0 418.2Zm841.8 0a209 209 0 10 0-418.2 209 209 0 10 0 418.2Zm9251 0a209 209 0 00 209.1-209.1 209 209 0 10-418.2 0c2.8 115.6 96.3 209 209.1 209Zm841.6 0a209 209 0 00 209.1-209.1 209 209 0 10-209 209Zm842 0a209 209 0 00 209.1-209.1 209 209 0 10-209 209Zm842.4 0a209 209 0 00 209.1-209.1 209 209 0 00-209.3-209.1 209 209 0 00-209 209 209 209 0 00 209 209.2Zm838.7 0a209 209 0 10 0-418.2 209 209 0 00-209 209 209 209 0 00 209 209.2Zm842.2 0a209 209 0 10 0-418.2 209 209 0 10 0 418.2Zm842 0a209 209 0 10 0-418.2 209 209 0 10 0 418.2Zm838.8 0a209 209 0 00 209.1-209.1 209 209 0 10-209 209Zm1684.4 0a209 209 0 00 209.1-209.1 209 209 0 00-209-209.1 209 209 0 00-209.2 209 209 209 0 00 209.1 209.2Zm839 0a209 209 0 10 0-418.2 209 209 0 10 0 418.2Zm15139 0a209 209 0 00 209-209.1 209 209 0 10-418.4 0c2.8 115.6 96.3 209 209.1 209Zm2525.3 0a209 209 0 00 209.1-209.1 209 209 0 00-209-209.1 209 209 0 00-209.2 209 209 209 0 00 209.1 209.2Zm839 0a209 209 0 10 0-418.2 209 209 0 00-209.2 209 209 209 0 00 209.1 209.2Zm-44155.4 841.9a209 209 0 10-209-209.1 209 209 0 00 209 209Zm841.4 0a209 209 0 10-209-209.1 209 209 0 00 209 209Zm839.3 0a209 209 0 10 0-418.2 209 209 0 10 0 418.2Zm842.5 0a209 209 0 10 0-418.2 209 209 0 10 0 418.2Zm841.5 0a209 209 0 10 0-418.2 209 209 0 10 0 418.2Zm839.2 0a209 209 0 10-209-209.1c0 115.6 96.2 209 209 209Zm842.4 0a209 209 0 10-209-209.1 209 209 0 00 209 209Zm841.6 0a209 209 0 10-209-209.1 209 209 0 00 209 209Zm839.3 0a209 209 0 10 0-418.2 209 209 0 00-209.2 209c2.8 115.7 96.3 209.2 209.2 209.2Zm10094.7 0a209 209 0 10 0-418.2 209 209 0 10 0 418.2Zm839.6 0a209 209 0 10-209-209.1 209 209 0 00 209 209Zm842 0a209 209 0 10-209-209.1 209 209 0 00 209.1 209Zm841.5 0a209 209 0 10-209-209.1 209 209 0 00 209 209Zm839.6 0a209 209 0 10 0-418.2 209 209 0 10 0 418.2Zm842.2 0a209 209 0 10 0-418.2 209 209 0 10 0 418.2Zm841.4 0a209 209 0 10 0-418.2 209 209 0 10 0 418.2Zm839.4 0a209 209 0 10-209-209.1 209 209 0 00 209 209Zm842.2 0a209 209 0 10-209-209.1 209 209 0 00 209 209Zm841.5 0a209 209 0 10-209-209.1 209 209 0 00 209 209Zm839.3 0a209 209 0 10 0-418.2 209 209 0 10 0 418.2Zm13457.6 0a209 209 0 10 0-418.2 209 209 0 10 0 418.2Zm842 0a209 209 0 10 0-418.2 209 209 0 10 0 418.2Zm841.8 0a209 209 0 10 0-418.2 209 209 0 10 0 418.2Zm839.4 0a209 209 0 10-209-209.1 209 209 0 00 209 209Zm841.8 0a209 209 0 10-209-209.1 209 209 0 00 209 209Zm841.8 0a209 209 0 10-209-209.1 209 209 0 00 209 209Zm-41632.4 842a209 209 0 00 209.1-209.1 209 209 0 00-209.2-209.1 209 209 0 00-209 209 209 209 0 00 209 209.2Zm838.7 0a209 209 0 10 0-418.2 209 209 0 00-209 209 209 209 0 00 209 209.2Zm842.3 0a209 209 0 10 0-418.2 209 209 0 10 0 418.2Zm842 0a209 209 0 10 0-418.2 209 209 0 10 0 418.2Zm839 0a209 209 0 00 209-209.1 209 209 0 00-209-209.1 209 209 0 00-209 209 209 209 0 00 209 209.2Zm842.3 0a209 209 0 00 209.1-209.1 209 209 0 00-209-209.1 209 209 0 00-209.2 209 209 209 0 00 209.1 209.2Zm841.8 0a209 209 0 10 0-418.2 209 209 0 00-209.2 209 209 209 0 00 209.1 209.2Zm839 0a209 209 0 10 0-418.2 209 209 0 10 0 418.2Zm10092.7 0a209 209 0 00 209.1-209.1 209 209 0 10-418.2 0c2.8 115.6 96.3 209 209.1 209Zm841.6 0a209 209 0 00 209.1-209.1 209 209 0 10-209 209Zm842 0a209 209 0 00 209.1-209.1 209 209 0 10-209 209Zm842.4 0a209 209 0 00 209.1-209.1 209 209 0 00-209-209.1 209 209 0 00-209.2 209 209 209 0 00 209.1 209.2Zm838.7 0a209 209 0 10 0-418.2 209 209 0 00-209 209 209 209 0 00 209 209.2Zm842.2 0a209 209 0 10 0-418.2 209 209 0 10 0 418.2Zm842 0a209 209 0 10 0-418.2 209 209 0 10 0 418.2Zm1681.2 0a209 209 0 00 209.1-209.1 209 209 0 00-209-209.1 209 209 0 00-209 209 209 209 0 00 208.8 209.2Zm842 0a209 209 0 00 209.1-209.1 209 209 0 00-209-209.1 209 209 0 00-209.3 209 209 209 0 00 209.1 209.2Zm839 0a209 209 0 10 0-418.2 209 209 0 10 0 418.2Zm13457.5 0a209 209 0 10 0-418.2 209 209 0 00-209 209 209 209 0 00 209 209.2Zm842 0a209 209 0 10 0-418.2 209 209 0 00-209 209 209 209 0 00 209 209.2Zm839.4 0a209 209 0 00 209.1-209.1 209 209 0 10-418.2 0c2.8 115.6 96.3 209 209.1 209Zm841.4 0a209 209 0 00 209.1-209.1 209 209 0 10-209 209Zm842.4 0a209 209 0 00 209.1-209.1 209 209 0 10-209 209Zm841.8 0a209 209 0 00 209.1-209.1 209 209 0 00-209-209.1 209 209 0 00-209.2 209 209 209 0 00 209.1 209.2Zm839 0a209 209 0 10 0-418.2 209 209 0 00-209.2 209 209 209 0 00 209.1 209.2Zm-43314 839.2a209 209 0 00 209.1-209.1 209 209 0 00-209-209.1 209 209 0 00-209 209 209 209 0 00 209 209.2Zm839.3 0a209 209 0 10 0-418.2 209 209 0 00-209 209 209 209 0 00 209 209.2Zm842.5 0a209 209 0 10 0-418.2 209 209 0 10 0 418.2Zm841.5 0a209 209 0 10 0-418.2 209 209 0 10 0 418.2Zm839.2 0a209 209 0 10 0-418.2 209 209 0 00 0 418.2Zm842.4 0a209 209 0 10 0-418.2 209 209 0 00 0 418.2Zm841.6 0a209 209 0 10 0-418.2 209 209 0 00 0 418.2Zm839.3 0a209.1 209.1 0 10 0-418.3 209.1 209.1 0 00 0 418.3Zm10934.3 0a209 209 0 10 0-418.2 209 209 0 00 0 418.2Zm842.2 0a209 209 0 10 0-418.2 209 209 0 00 0 418.2Zm841.4 0a209 209 0 10 0-418.2 209 209 0 00 0 418.2Zm839.7 0a209 209 0 10 0-418.2 209 209 0 00-209 209 209 209 0 00 209 209.2Zm842.2 0a209 209 0 10 0-418.2 209 209 0 10 0 418.2Zm841.4 0a209 209 0 10 0-418.2 209 209 0 10 0 418.2Zm1681.6 0a209 209 0 10 0-418.2 209 209 0 00 0 418.2Zm841.6 0a209 209 0 10 0-418.2 209 209 0 00 0 418.2Zm12616.2 0a209 209 0 10 0-418.2 209 209 0 00 0 418.2Zm841.2 0a209 209 0 10 0-418.2 209 209 0 00 0 418.2Zm839.5 0a209 209 0 10 .1-418.2 209 209 0 00 .1 418.2Zm842.1 0a209 209 0 10 0-418.2 209 209 0 00-209 209 209 209 0 00 209 209.2Zm841.8 0a209 209 0 10 0-418.2 209 209 0 00-209 209 209 209 0 00 209 209.2Zm839.4 0a209 209 0 00 209-209.1 209 209 0 10-209 209Zm841.8 0a209 209 0 00 209-209.1 209 209 0 10-209 209Zm841.8 0a209 209 0 10 0-418.2 209 209 0 00 0 418.2Zm839.5 0a209 209 0 10 0-418.2 209 209 0 00 0 418.2Zm-42472 842a209 209 0 10 .1-418.2 209 209 0 10 0 418.2Zm838.8 0a209 209 0 10 0-418.2 209 209 0 00 0 418.2Zm842.3 0a209 209 0 10 .2-418.2 209 209 0 00-.2 418.2Zm842 0a209.2 209.2 0 10 0-418.3 209.2 209.2 0 00 0 418.3Zm839 0a209 209 0 10 0-418.2 209 209 0 00 0 418.2Zm842.3 0a209 209 0 10 0-418.2 209 209 0 00 0 418.2Zm12615.2 0a209 209 0 10 0-418.2 209 209 0 00 0 418.2Zm842 0a209 209 0 10 0-418.2 209 209 0 00 0 418.2Zm842.4 0a209 209 0 10 0-418.2 209 209 0 00 0 418.2Zm838.7 0a209 209 0 10 0-418.2 209 209 0 00 0 418.2Zm842.2 0a209 209 0 10 0-418.2 209 209 0 00 0 418.2Zm2523.2 0a209 209 0 10 0-418.2 209 209 0 00 0 418.2Zm842 0a209 209 0 10 0-418.2 209 209 0 00 0 418.2Zm12615.2 0a209 209 0 10 0-418.2 209 209 0 00 0 418.2Zm839.7 0a209 209 0 10 0-418.2 209 209 0 00 0 418.2Zm841.6 0a209 209 0 10 0-418.2 209 209 0 00 0 418.2Zm842 0a209 209 0 10 0-418.2 209 209 0 00 0 418.2Zm839.4 0a209 209 0 10 0-418.2 209 209 0 00-209 209c2.7 115.6 96.2 209 209 209Zm841.4 0a209 209 0 10 0-418.2 209 209 0 10 0 418.2Zm842.4 0a209 209 0 10 0-418.2 209 209 0 00 0 418.2Zm841.8 0a209 209 0 10 0-418.2 209 209 0 00 0 418.2Zm839 0a209 209 0 10 0-418.2 209 209 0 00 0 418.2Zm842.1 0a209 209 0 10 0-418.2 209 209 0 00 0 418.2Zm-44156 842a209 209 0 10 .1-418.3 209 209 0 10 0 418.2Zm839.3 0a209 209 0 10 0-418.3 209 209 0 00 0 418.2Zm842.5 0a209 209 0 10 .2-418.3 209 209 0 00-.2 418.2Zm841.5 0a209 209 0 10 0-418.3 209 209 0 00 0 418.2Zm839.2 0a209 209 0 10 0-418.3 209 209 0 00 0 418.2Zm842.4 0a209 209 0 10 0-418.3 209 209 0 00 0 418.2Zm12615.2 0a209 209 0 10 0-418.3 209 209 0 00 0 418.2Zm842.2 0a209 209 0 10 0-418.3 209 209 0 00 0 418.2Zm841.4 0a209 209 0 10 0-418.3 209 209 0 00 0 418.2Zm839.7 0a209 209 0 10 0-418.3 209 209 0 00 0 418.2Zm842.2 0a209 209 0 10 0-418.3 209 209 0 00 0 418.2Zm15980.8 0a209 209 0 10 0-418.3 209 209 0 00 0 418.2Zm841.2 0a209 209 0 10 0-418.3 209 209 0 00 0 418.2Zm839.5 0a209 209 0 10 .1-418.3 209 209 0 00 .1 418.2Zm842.1 0a209 209 0 10 0-418.3 209 209 0 00 0 418.2Zm841.8 0a209 209 0 10 0-418.3 209 209 0 00 0 418.2Zm839.4 0a209 209 0 10 0-418.3 209 209 0 10 0 418.2Zm841.8 0a209 209 0 10 0-418.3 209 209 0 10 0 418.2Zm841.8 0a209 209 0 10 0-418.3 209 209 0 00 0 418.2Zm839.5 0a209 209 0 10 0-418.3 209 209 0 00 0 418.2Zm841.8 0a209 209 0 10 0-418.3 209 209 0 00 0 418.2Zm-43313.7 839a209 209 0 00 209.1-209 209 209 0 00-209.2-209 209 209 0 00-209 209 209 209 0 00 209 209.1Zm838.7 0a209 209 0 10 0-418.1 209 209 0 00-209 209.1 209 209 0 00 209 209.1Zm842.3 0a209 209 0 10 0-418.1 209 209 0 10 0 418.2Zm842 0a209.2 209.2 0 10 0-418.2 209.2 209.2 0 00 0 418.3Zm839 0a209 209 0 10 0-418.1 209 209 0 00 0 418.2Zm14299.5 0a209 209 0 10 0-418.1 209 209 0 00 0 418.2Zm842.4 0a209 209 0 10 0-418.1 209 209 0 00 0 418.2Zm838.7 0a209 209 0 10 0-418.1 209 209 0 00-209 209.1 209 209 0 00 209 209.1Zm16822.6 0a209 209 0 10 0-418.1 209 209 0 00 0 418.2Zm839.7 0a209 209 0 10 0-418.1 209 209 0 00 0 418.2Zm841.6 0a209 209 0 10 0-418.1 209 209 0 00 0 418.2Zm842 0a209 209 0 10 0-418.1 209 209 0 00-209 209.1 209 209 0 00 209 209.1Zm839.4 0a209 209 0 00 209.1-209 209 209 0 10-418.2 0c2.8 115.6 96.3 209.1 209.1 209.1Zm841.4 0a209 209 0 00 209.1-209 209 209 0 10-209 209.1Zm842.4 0a209 209 0 10 0-418.1 209 209 0 00 0 418.2Zm841.8 0a209 209 0 10 0-418.1 209 209 0 00 0 418.2Zm839 0a209 209 0 10 0-418.1 209 209 0 00 0 418.2Zm842.1 0a209 209 0 10 0-418.1 209 209 0 00 0 418.2Zm4204.3 0a209 209 0 10 0-418.1 209 209 0 10 0 418.2Zm-49201.8 842a209 209 0 10 0-418.1 209 209 0 00 0 418.2Zm841.3 0a209 209 0 10 0-418.1 209 209 0 10 0 418.2Zm839.3 0a209 209 0 10 0-418.1 209 209 0 00 0 418.2Zm842.5 0a209 209 0 10 .2-418.1 209 209 0 00-.2 418.2Zm841.5 0a209 209 0 10 0-418.1 209 209 0 00 0 418.2Zm33643 0a209 209 0 10 .1-418.1 209 209 0 00 0 418.2Zm841.3 0a209 209 0 10 0-418.1 209 209 0 00 0 418.2Zm839.5 0a209 209 0 10 0-418.1 209 209 0 00 0 418.2Zm842 0a209 209 0 10 0-418.1 209 209 0 00 0 418.2Zm841.8 0a209 209 0 10 0-418.1 209 209 0 00 0 418.2Zm839.4 0a209 209 0 10 0-418.1 209 209 0 10 0 418.2Zm841.8 0a209 209 0 10 0-418.1 209 209 0 10 0 418.2Zm841.8 0a209 209 0 10 0-418.1 209 209 0 00 0 418.2Zm839.5 0a209 209 0 10 0-418.1 209 209 0 00 0 418.2Zm841.8 0a209 209 0 10 0-418.1 209 209 0 00 0 418.2Zm4204.5 0a209.1 209.1 0 10 0-418.2 209.1 209.1 0 00 0 418.3Zm842 0a209 209 0 10 .1-418.1 209 209 0 00-.2 418.2Zm-49202.4 842a209 209 0 10 .1-418.2 209 209 0 00 0 418.2Zm842.3 0a209 209 0 10-209-209 209 209 0 00 209 209Zm838.7 0a209 209 0 10 0-418.2 209 209 0 10 0 418.2Zm842.3 0a209 209 0 10 0-418.2 209 209 0 10 0 418.2Zm39530.7 0a209 209 0 10 0-418.2 209 209 0 00 0 418.2Zm841.8 0a209 209 0 10 0-418.2 209 209 0 00 0 418.2Zm839 0a209 209 0 10 0-418.2 209 209 0 00 0 418.2Zm4207.3 0a209 209 0 10 .1-418.2 209 209 0 00 .1 418.2Zm839.2 0a209 209 0 10 0-418.2 209 209 0 10 0 418.2Zm842 0a209 209 0 10 0-418.2 209 209 0 10 0 418.2ZM19145 35742a209 209 0 00 209.1-209 209 209 0 00-209-209.2 209 209 0 00-209 209 209 209 0 00 209 209.2Zm839.3 0a209 209 0 10 0-418.2 209 209 0 00-209 209 209 209 0 00 209 209.2Zm842.5 0a209 209 0 10 0-418.2 209 209 0 10 0 418.2Zm40372 0a209 209 0 10 .1-418.2 209 209 0 00 0 418.2Zm839.6 0a209 209 0 10 0-418.2 209 209 0 00 0 418.2Zm3365 0a209 209 0 10 0-418.2 209 209 0 00 0 418.2Zm842.4 0a209 209 0 10 0-418.2 209 209 0 00 0 418.2Zm839 0a209.1 209.1 0 10-.2-418.3 209.1 209.1 0 00 0 418.3Zm-48360.5 842a209 209 0 10 .1-418.2 209 209 0 00 0 418.2Zm842.3 0a209 209 0 10 0-418.2 209 209 0 10 0 418.2Zm838.7 0a209 209 0 10 0-418.2 209 209 0 00 0 418.2Zm41214.8 0a209 209 0 10 0-418.2 209 209 0 00 0 418.2Zm839 0a209 209 0 10 0-418.2 209 209 0 00 0 418.2Zm3365.3 0a209 209 0 10 0-418.2 209 209 0 00 0 418.2Zm842 0a209 209 0 10 .1-418.2 209 209 0 00 .1 418.2Zm-48362.6 842a209 209 0 00 209.1-209.2 209 209 0 10-418.3 0 209 209 0 00 209.1 209.2Zm841.4 0a209 209 0 00 209.1-209.2 209 209 0 10-418.2 0 209 209 0 00 209 209.2Zm839.3 0a209 209 0 10 0-418.2 209 209 0 00 0 418.2Zm-1260 839.2a209 209 0 10 0-418.2 209 209 0 10 0 418.2Zm842.2 0a209 209 0 10 0-418.2 209 209 0 10 0 418.2Zm838.7 0a209 209 0 10 0-418.2 209 209 0 00 0 418.2Zm-1260.2 842a209 209 0 00 209.1-209.2 209 209 0 10-418.2 0 209 209 0 00 209 209Zm839.3 0a209 209 0 10 0-418.3 209 209 0 00 0 418.2Z"/></mask><g mask="url(#a)"><path fill="#111" d="M-1912.7-3577h79242.9v43748.7H-1912.7"/><path fill="url(#b)" d="M-1912.7-3577h79242.9v43748.7H-1912.7"/></g><circle cx="9075.7" cy="16455.4" r="1550.1" fill="url(#c)" opacity=".1"/><circle cx="9075.5" cy="16455.4" r="516.7" fill="url(#d)" opacity=".9"/><circle cx="8956.4" cy="13474.3" r="1550.1" fill="url(#e)" opacity=".1"/><circle cx="8956.4" cy="13474.3" r="516.7" fill="url(#f)" opacity=".9"/><circle cx="20522.8" cy="14905.2" r="1550.1" fill="url(#g)" opacity=".1"/><circle cx="20522.8" cy="14905.2" r="516.7" fill="url(#h)" opacity=".9"/><circle cx="16550.1" cy="16350.1" r="1550.1" fill="url(#i)" opacity=".1"/><circle cx="16550.1" cy="16350.1" r="516.7" fill="url(#j)" opacity=".9"/><circle cx="16350.1" cy="10850.1" r="1550.1" fill="url(#k)" opacity=".1"/><circle cx="16350.1" cy="10850.1" r="516.7" fill="url(#l)" opacity=".9"/><circle cx="36450.1" cy="10250.1" r="1550.1" fill="url(#m)" opacity=".1"/><circle cx="36450.1" cy="10250.1" r="516.7" fill="url(#n)" opacity=".9"/><circle cx="32350.1" cy="14350.1" r="1550.1" fill="url(#o)" opacity=".1"/><circle cx="32350.1" cy="14350.1" r="516.7" fill="url(#p)" opacity=".9"/><circle cx="32950.1" cy="9650.1" r="1550.1" fill="url(#q)" opacity=".1"/><circle cx="32950.1" cy="9650.1" r="516.7" fill="url(#r)" opacity=".9"/><defs><linearGradient id="b" x1="48787.1" x2="-24647.4" y1="81266.9" y2="55902.5" gradientUnits="userSpaceOnUse"><stop stop-color="#5C29F1"/><stop offset=".474" stop-color="#E37AC2"/><stop offset=".807" stop-color="#FF9067"/></linearGradient><linearGradient id="c" x1="6677.1" x2="9579.4" y1="16091.3" y2="16708" gradientUnits="userSpaceOnUse"><stop stop-color="#AD00FF"/><stop offset="1" stop-color="#3901E1"/></linearGradient><linearGradient id="d" x1="8276" x2="9243.4" y1="16334" y2="16539.6" gradientUnits="userSpaceOnUse"><stop stop-color="#AD00FF"/><stop offset="1" stop-color="#3901E1"/></linearGradient><linearGradient id="e" x1="6557.8" x2="9460" y1="13110.3" y2="13727" gradientUnits="userSpaceOnUse"><stop stop-color="#AD00FF"/><stop offset="1" stop-color="#3901E1"/></linearGradient><linearGradient id="f" x1="8156.8" x2="9124.3" y1="13353" y2="13558.5" gradientUnits="userSpaceOnUse"><stop stop-color="#AD00FF"/><stop offset="1" stop-color="#3901E1"/></linearGradient><linearGradient id="g" x1="18124.2" x2="21026.5" y1="14541.2" y2="15157.9" gradientUnits="userSpaceOnUse"><stop stop-color="#AD00FF"/><stop offset="1" stop-color="#3901E1"/></linearGradient><linearGradient id="h" x1="19723.2" x2="20690.7" y1="14783.9" y2="14989.4" gradientUnits="userSpaceOnUse"><stop stop-color="#AD00FF"/><stop offset="1" stop-color="#3901E1"/></linearGradient><linearGradient id="i" x1="14151.5" x2="17053.8" y1="15986.1" y2="16602.8" gradientUnits="userSpaceOnUse"><stop stop-color="#AD00FF"/><stop offset="1" stop-color="#3901E1"/></linearGradient><linearGradient id="j" x1="15750.6" x2="16718" y1="16228.8" y2="16434.4" gradientUnits="userSpaceOnUse"><stop stop-color="#AD00FF"/><stop offset="1" stop-color="#3901E1"/></linearGradient><linearGradient id="k" x1="13951.5" x2="16853.8" y1="10486.1" y2="11102.8" gradientUnits="userSpaceOnUse"><stop stop-color="#AD00FF"/><stop offset="1" stop-color="#3901E1"/></linearGradient><linearGradient id="l" x1="15550.6" x2="16518" y1="10728.8" y2="10934.4" gradientUnits="userSpaceOnUse"><stop stop-color="#AD00FF"/><stop offset="1" stop-color="#3901E1"/></linearGradient><linearGradient id="m" x1="34051.5" x2="36953.8" y1="9886.1" y2="10502.8" gradientUnits="userSpaceOnUse"><stop stop-color="#AD00FF"/><stop offset="1" stop-color="#3901E1"/></linearGradient><linearGradient id="n" x1="35650.6" x2="36618" y1="10128.8" y2="10334.4" gradientUnits="userSpaceOnUse"><stop stop-color="#AD00FF"/><stop offset="1" stop-color="#3901E1"/></linearGradient><linearGradient id="o" x1="29951.5" x2="32853.8" y1="13986.1" y2="14602.8" gradientUnits="userSpaceOnUse"><stop stop-color="#AD00FF"/><stop offset="1" stop-color="#3901E1"/></linearGradient><linearGradient id="p" x1="31550.6" x2="32518" y1="14228.8" y2="14434.4" gradientUnits="userSpaceOnUse"><stop stop-color="#AD00FF"/><stop offset="1" stop-color="#3901E1"/></linearGradient><linearGradient id="q" x1="30551.5" x2="33453.8" y1="9286.1" y2="9902.8" gradientUnits="userSpaceOnUse"><stop stop-color="#AD00FF"/><stop offset="1" stop-color="#3901E1"/></linearGradient><linearGradient id="r" x1="32150.6" x2="33118" y1="9528.8" y2="9734.4" gradientUnits="userSpaceOnUse"><stop stop-color="#AD00FF"/><stop offset="1" stop-color="#3901E1"/></linearGradient></defs></svg>