<svg width="102" height="18" viewBox="0 0 102 18" fill="white" xmlns="http://www.w3.org/2000/svg">
<path d="M15.8 13.4C14.7 13.4 12.8 10.7 12.8 10.7L10.76 0H16.58C17.4 0 18.08 0.66 18.08 1.5V10.88C18.08 10.54 17.84 10.54 17.84 10.54C17.84 10.54 17.18 10.54 17.44 11.32C17.7 12.12 17.04 13.4 15.8 13.4ZM3.28 4.92C7.36 3.26 10.1 7.46 10.1 7.46L8.2 0.0199951H1.5C0.68 0.0199951 0 0.679995 0 1.52V8.72C0.42 7.12 1.4 5.68 3.28 4.92ZM3.32 13.48C4.4 15.78 5.96 17.54 7.98 17.5C9.74 17.46 10.62 15.9 10.56 13.48C10.56 13.4 10.56 13.32 10.56 13.26C10.5 11.8 10.2 9.08 10.2 9.08C10.2 9.08 7.66 5.46 4.88 5.72C2.08 5.98 1.62 8.76 2.66 11.82C2.86 12.36 3.08 12.94 3.32 13.48ZM0.48 13.96C0.4 13.8 0.34 13.64 0.28 13.46C0.18 13.18 0.0999997 12.9 0.0199997 12.58V16.5C0.0199997 17.32 0.7 18 1.52 18H3.7C2 16.88 1.12 15.32 0.48 13.96ZM13.34 13.48C12.96 13.06 12.74 12.74 12.74 12.74C12.74 13 12.74 13.26 12.72 13.48C12.56 15.24 11.66 16.32 11.1 17.02C10.84 17.36 10.38 17.7 9.82 18H16.6C17.42 18 18.1 17.32 18.1 16.5V13.88C18.1 14.08 18.08 14.28 17.9 14.48C16.4 16.1 14.28 14.52 13.34 13.48Z" />
<path d="M22.9 16.66V1.79999H30.32C35.66 1.79999 38.34 3.59999 38.34 8.99999C38.34 15.02 35.66 16.68 30.32 16.68H22.9V16.66ZM29.84 13.92C33.4 13.92 35.16 13.18 35.16 8.99999C35.16 5.43999 33.38 4.55999 29.84 4.55999H26.08V13.92H29.84ZM39.44 12.76C39.44 10.18 41.26 8.89999 44.9 8.89999C46 8.89999 46.96 8.97998 47.82 9.13998V8.31998C47.82 7.19998 46.74 6.63998 44.56 6.63998C43.18 6.63998 41.82 6.83998 40.46 7.23998V4.71998C41.82 4.31998 43.18 4.11998 44.56 4.11998C48.86 4.11998 51 5.49999 51 8.25999V16.68H49.4L48.04 15.8C46.94 16.4 45.78 16.68 44.54 16.68C41.14 16.66 39.44 15.36 39.44 12.76ZM44.9 11.28C43.38 11.28 42.62 11.76 42.62 12.72C42.62 13.68 43.26 14.16 44.54 14.16C45.84 14.16 46.92 13.84 47.84 13.18V11.52C47.02 11.36 46.04 11.28 44.9 11.28ZM53 13.28C53 15.54 54.06 16.66 56.16 16.66H58.74V14.16H57.68C56.66 14.16 56.16 13.58 56.16 12.4V6.61998H58.74V4.09999H55.82L55.34 2.05999H53V13.28ZM59.56 12.76C59.56 10.18 61.38 8.89999 65.02 8.89999C66.12 8.89999 67.08 8.97998 67.94 9.13998V8.31998C67.94 7.19998 66.86 6.63998 64.68 6.63998C63.3 6.63998 61.94 6.83998 60.58 7.23998V4.71998C61.94 4.31998 63.3 4.11998 64.68 4.11998C68.98 4.11998 71.12 5.49999 71.12 8.25999V16.68H69.52L68.16 15.8C67.06 16.4 65.9 16.68 64.66 16.68C61.24 16.66 59.56 15.36 59.56 12.76ZM65.02 11.28C63.5 11.28 62.74 11.76 62.74 12.72C62.74 13.68 63.38 14.16 64.66 14.16C65.96 14.16 67.04 13.84 67.96 13.18V11.52C67.14 11.36 66.16 11.28 65.02 11.28ZM76.28 2.03998H73.1V16.74H76.28V2.03998ZM77.52 10.38C77.52 6.11999 79.64 3.97999 83.86 3.97999C88.08 3.97999 90.2 6.11999 90.2 10.38C90.2 14.64 88.08 16.76 83.86 16.76C79.64 16.78 77.54 14.64 77.52 10.38ZM83.86 14.28C85.98 14.28 87.04 12.96 87.04 10.34C87.04 7.77998 85.98 6.49999 83.86 6.49999C81.74 6.49999 80.7 7.77998 80.7 10.34C80.68 12.96 81.74 14.28 83.86 14.28ZM91.44 13.28C91.44 15.54 92.5 16.66 94.6 16.66H97.18V14.16H96.12C95.1 14.16 94.6 13.58 94.6 12.4V6.61998H97.18V4.09999H94.26L93.78 2.05999H91.44V13.28ZM99.46 0.139984V0.319983H98.9V1.89999H98.68V0.319983H98.12V0.139984H99.46ZM99.7 1.91998V0.139984H99.98L100.64 1.61998L101.28 0.139984H101.56V1.91998H101.36V0.479987L100.72 1.91998H100.54L99.9 0.479987V1.91998H99.7Z" />
</svg>
