<svg xmlns="http://www.w3.org/2000/svg" width="95" height="20" fill="#fff" viewBox="0 0 95 20"><path fill-rule="evenodd" d="M86.328 4.77144C86.4718 4.77101 86.6017 4.85581 86.6573 4.98642L89.6464 11.9899L92.4709 4.99832C92.5246 4.8647 92.6556 4.77689 92.8015 4.77667H94.9433L88.6612 19.7584C88.6064 19.89 88.4763 19.976 88.3319 19.976H86.249L88.5073 14.6308L84.1381 4.77144H86.328ZM63.6039 4.54319C65.5677 4.54319 67.024 5.31229 67.8473 6.56018L66.241 7.43215C66.0886 7.51294 65.8994 7.47588 65.7899 7.34376C65.2933 6.75409 64.5396 6.39394 63.6039 6.39394C62.3992 6.39394 61.7888 6.9771 61.7888 7.6419C61.7888 8.39122 62.7606 8.59961 64.2799 8.93208C66.0107 9.3067 67.9731 9.86728 67.9731 12.0321C67.9731 13.466 66.7068 15.4012 63.7097 15.3801C61.5144 15.3801 59.9723 14.5068 59.0875 12.9673L60.8277 12.0743C60.9854 11.9936 61.1794 12.0404 61.2815 12.1838C61.8564 12.9983 62.809 13.4728 63.8155 13.4462C65.0818 13.4462 65.7364 12.8011 65.7364 12.0729C65.7364 11.2406 64.5115 11.0532 63.1823 10.7828C61.3885 10.4082 59.5306 9.82642 59.5306 7.68412C59.5306 6.04047 61.1142 4.51817 63.6039 4.54319ZM39.0406 4.56432C42.0712 4.53923 44.5142 7.02059 44.5142 10.0085V10.3897C44.5142 10.5843 44.3541 10.742 44.1567 10.742H35.7758C36.0702 12.3486 37.338 13.404 39.1732 13.404C40.1548 13.426 41.0962 13.02 41.7459 12.2946C41.8556 12.1691 42.0397 12.1372 42.1863 12.2181L43.7793 13.0913C42.8088 14.4896 41.2587 15.3801 39.1732 15.3801C35.8387 15.3801 33.6005 13.0293 33.6005 10.0138C33.6005 6.97178 35.9618 4.58805 39.0406 4.56432ZM79.8305 1.10548V4.77143H81.7138C81.9105 4.77215 82.0693 4.92986 82.0686 5.12362V6.76864H79.8506L79.8318 11.201C79.8289 11.5003 79.8459 11.7995 79.8827 12.0967C79.9951 12.6508 80.287 12.9845 80.6751 13.1639C80.9584 13.2861 81.2655 13.3456 81.5746 13.338C81.6791 13.338 81.7768 13.3354 81.8691 13.3288C81.9708 13.3222 82.0659 13.3116 82.157 13.3011C82.1717 13.2992 82.1865 13.2982 82.2014 13.2982C82.3981 13.2976 82.5579 13.4542 82.5586 13.6481V15.2574C82.406 15.2811 82.248 15.3049 82.0686 15.326C81.7409 15.361 81.4117 15.3787 81.0821 15.3787H81.0205C78.9484 15.3787 77.512 14.3683 77.5321 12.0228L77.5522 6.96254V6.76204H76.1145C75.9844 6.76168 75.8647 6.69136 75.8027 6.57867C75.7732 6.52756 75.7576 6.46986 75.7571 6.41115V4.76484H77.5522V2.52226C77.5518 2.48928 77.5563 2.45638 77.5656 2.42462C77.592 2.33466 77.6536 2.25882 77.7369 2.21358L79.8024 1.10548H79.8305ZM72.6689 4.77143C72.8655 4.77143 73.025 4.92849 73.025 5.12233V15.1716H71.1028C70.9059 15.1716 70.7462 15.0148 70.7454 14.8208V4.77143H72.6689ZM52.5645 4.56434C55.2256 4.56434 56.848 6.26864 56.848 9.09824V15.1663H54.9272C54.7305 15.1663 54.5711 15.0093 54.5711 14.8154V9.27502C54.5711 7.56935 53.705 6.48763 52.0171 6.48763C50.4964 6.48763 49.3398 7.61029 49.3398 9.44125V15.1611H47.4337C47.237 15.1611 47.0776 15.004 47.0776 14.8102V4.77143H48.9583C49.1549 4.77143 49.3144 4.92849 49.3144 5.12233V6.12355C50.0332 5.1672 51.1723 4.56434 52.5645 4.56434ZM23.4124 0C28.4068 0 31.4829 3.28079 31.4829 7.57857C31.4829 11.8989 28.1123 15.1584 23.4968 15.1584H18.7996V0.350896C18.7996 0.157133 18.959 0 19.1557 0H23.4124ZM7.81508 1.98668C7.98515 1.9874 8.12234 2.12381 8.12162 2.29141V5.36503C8.12082 7.49234 9.29217 9.45234 11.1803 10.4834L13.7906 11.9754C13.9379 12.0587 13.9894 12.2437 13.9057 12.3895L13.065 13.8222C13.0647 13.8227 13.0645 13.8232 13.0641 13.8237C12.9789 13.9688 12.7906 14.0182 12.6434 13.9343L10.0117 12.4357C8.13951 11.3382 5.80801 11.3382 3.9358 12.4357L1.30278 13.9343C1.1549 14.0179 0.966283 13.9677 0.881103 13.8222L0.0418154 12.3908C0.0415972 12.3905 0.0413062 12.39 0.0411607 12.3897C-0.0437283 12.2445 0.00689964 12.0589 0.154273 11.9754L2.76721 10.4834C4.6547 9.45177 5.82532 7.49199 5.82459 5.36503V2.29141C5.82459 2.1231 5.96302 1.98668 6.13382 1.98668H7.81508ZM23.1809 2.08165H21.0967V13.0662H23.2652C26.8058 13.0662 29.1658 10.6997 29.1658 7.58387C29.1658 4.40731 27.0374 2.08165 23.1809 2.08165ZM39.0902 6.5193C37.6081 6.49113 36.2911 7.44611 35.8775 8.84898H42.2145C41.8771 7.35034 40.7152 6.5193 39.0902 6.5193ZM72.6689 0.424767C72.8655 0.424767 73.025 0.5819 73.025 0.775663V2.80986H71.1028C70.9057 2.80907 70.7462 2.65186 70.7454 2.4576V0.424767H72.6689Z" clip-rule="evenodd"/></svg>