<svg width="60" height="52" viewBox="0 0 60 52" fill="none" xmlns="http://www.w3.org/2000/svg">
<g clip-path="url(#clip0_1_7)">
<path d="M42.4509 20.445L36.7228 21.7805L36.84 9.87623L38.7779 9.42441L38.6768 19.8167L42.4652 18.933L42.4509 20.445ZM34.0075 11.917L29.2662 22.0111L33.9197 20.9262L33.9051 22.4379L27.119 24.0201L27.1323 22.6854L31.8735 12.591L27.5729 13.5933L27.5877 12.0335L34.021 10.5336L34.008 11.917H34.0075ZM24.1407 24.7146L22.2023 25.1667L22.3185 13.2624L24.2568 12.8104L24.1407 24.7146ZM17.2859 26.3132L15.4979 22.107L14.2289 22.4031L14.184 27.0363L12.2982 27.4761L12.4149 15.5719L15.2701 14.9061C17.7373 14.3307 19.1369 15.0636 19.1122 17.5893C19.0989 18.9243 18.6286 20.2859 17.23 21.2381L19.2071 25.865L17.2861 26.3132H17.2859ZM53.9734 6.81119C53.2547 6.52071 52.3123 5.84337 51.9643 5.35959C51.6168 4.87581 50.1771 3.3268 49.0851 2.93993C47.9931 2.55306 46.4546 2.50422 45.8589 2.50422C45.2622 2.50422 43.7237 2.50473 43.1283 2.26258C42.5329 2.02044 41.6941 0.142853 40.8942 0.423353C40.8942 0.423353 39.5043 0.520262 38.6106 2.40756C37.717 4.29487 37.9657 4.58508 34.3917 5.35959C30.8178 6.13384 27.0932 5.84363 25.5546 6.66646C24.0166 7.48878 22.3772 10.2958 18.2574 10.4411C14.138 10.586 12.7471 10.1989 8.18017 13.0057C5.09183 14.9035 3.8663 16.5573 3.22672 17.7141L4.80204 17.3467C7.83345 16.6399 9.51268 17.5801 9.46749 22.1814C9.42281 26.7827 7.66417 28.5567 4.68536 29.2509L2.11328 29.8508L2.21311 19.6301C1.48928 20.9303 0.246126 23.4379 0.0377861 25.7819C-0.209874 28.5884 0.83285 33.0892 0.981701 34.5896C1.13081 36.0898 1.67693 37.929 1.62766 38.9933C1.57685 40.058 1.08128 42.8164 1.62766 43.3971C2.17276 43.9786 5.45055 45.623 7.68332 44.4621C9.91762 43.3002 8.82459 42.574 8.42783 42.2358C8.03081 41.8972 7.33685 40.9777 7.03889 40.5906C6.74093 40.2035 6.84 39.768 6.98962 39.4776C7.1377 39.1868 7.68332 37.2026 7.83268 36.8638C7.98179 36.5255 10.2656 33.2347 10.4635 32.6049C10.6619 31.9764 12.4499 32.1695 12.8464 32.5085C13.2442 32.8473 13.9391 35.0246 13.9882 35.9924C14.0385 36.9607 14.0877 39.6233 14.9316 40.4446C15.7754 41.2677 19.1464 41.406 19.7461 41.4137C20.7559 41.4262 21.778 40.732 21.1335 40.103C20.4881 39.4742 18.9518 37.9776 18.7037 37.6386C18.4565 37.2995 18.9523 35.7993 19.3989 35.2187C19.8465 34.6382 20.1551 34.4925 20.4477 35.1215C20.7401 35.751 22.1295 39.623 22.4277 41.9458C22.7252 44.2688 22.7755 47.5111 22.9741 48.092C23.1717 48.6724 26.0515 51.4797 27.5903 51.4797C29.1291 51.4797 33.9929 50.5595 31.6611 47.801C29.328 45.0428 29.0788 45.9618 28.9803 43.5421C28.8814 41.1227 29.328 36.38 29.4771 35.0734C29.6257 33.7668 29.675 33.5735 29.9729 34.2501C30.2717 34.9284 30.8666 40.2042 31.3141 41.8489C31.7607 43.494 31.9974 45.5181 33.7953 46.2042C35.5683 46.881 40.4556 47.7179 41.6387 46.8335C42.3654 46.2901 41.1914 45.4297 40.0006 44.5107C38.809 43.591 36.8734 42.526 36.8237 41.2196C36.7736 39.913 37.7668 34.9279 38.3625 33.5249C38.9579 32.1211 39.3054 30.5246 39.4547 28.3465C39.6033 26.169 39.851 22.6363 40.1985 22.4427C40.4752 22.2888 43.0708 21.0655 45.5706 19.6464L45.6135 15.2781L42.8497 8.47501L44.8054 8.0191L46.656 13.0768L48.648 7.12314L50.4633 6.69996L47.5353 14.8299L47.4996 18.4897C50.3367 16.6806 51.2732 16.3426 51.8658 15.9097C52.4617 15.474 54.3965 15.6189 56.0346 14.6514C57.6733 13.6836 57.6168 12.8607 57.6168 12.8607C57.6168 12.8607 58.5677 12.1345 58.8148 11.1667C59.063 10.1992 59.8575 9.71514 59.8575 8.55376C59.8575 7.39213 59.6589 7.15075 58.6164 7.05359C57.5742 6.95642 54.6922 7.10166 53.9734 6.81144V6.81119Z" fill="white"/>
<path d="M15.2196 16.4425L14.2851 16.6599L14.2432 20.9714L15.2487 20.7372C16.6404 20.4125 17.2095 19.7183 17.2264 18.0608C17.242 16.4842 16.6999 16.0971 15.2196 16.4423V16.4425ZM7.51149 22.6376C7.54239 19.4846 6.93753 18.3897 5.01702 18.8374L4.15277 19.0391L4.0657 27.9031L4.94758 27.6978C6.85047 27.2539 7.47958 25.8389 7.51149 22.6376Z" fill="white"/>
</g>
<defs>
<clipPath id="clip0_1_7">
<rect width="60" height="52" fill="white"/>
</clipPath>
</defs>
</svg>
