<svg width="104" height="26" viewBox="0 0 104 26" fill="none" xmlns="http://www.w3.org/2000/svg">
<g clip-path="url(#clip0_1_11)">
<path fill-rule="evenodd" clip-rule="evenodd" d="M64.9474 18.1133C65.5225 18.1262 66.0981 18.1226 66.6733 18.1148C66.8025 18.1131 66.8285 18.1511 66.8283 18.2754C66.8245 20.7128 66.8248 23.1503 66.8275 25.5877C66.8276 25.6972 66.8124 25.7445 66.6854 25.7424C66.1881 25.734 65.6906 25.7349 65.1933 25.742C65.0775 25.7437 65.05 25.7064 65.0576 25.5987C65.0664 25.4724 65.0597 25.3449 65.0597 25.1795C64.6756 25.4465 64.2919 25.6512 63.8797 25.7952C63.1066 26.0656 62.3394 26.0279 61.6057 25.6736C60.9609 25.3622 60.5578 24.8261 60.3509 24.1364C60.2389 23.7632 60.1752 23.3825 60.1744 22.9938C60.1711 21.4273 60.1747 19.8609 60.1701 18.2944C60.1697 18.1582 60.1959 18.1118 60.3423 18.1142C60.9295 18.1238 61.517 18.1222 62.1042 18.115C62.2297 18.1135 62.2621 18.145 62.2618 18.2731C62.2581 19.7185 62.252 21.1641 62.2692 22.6094C62.2733 22.9501 62.2759 23.3037 62.4181 23.6288C62.5527 23.9365 62.8062 24.0962 63.1211 24.1359C63.6915 24.2077 64.2054 24.0237 64.6882 23.7323C64.7684 23.684 64.7387 23.6037 64.7388 23.5358C64.7401 21.8 64.7427 20.0641 64.7353 18.3283C64.7346 18.1542 64.7731 18.1095 64.9474 18.1133ZM85.8684 18.1802C86.4946 18.4395 86.9529 18.8876 87.2774 19.476C87.5909 20.0445 87.738 20.6634 87.7946 21.3097C87.8298 21.7117 87.8384 22.1105 87.7989 22.5128C87.786 22.6446 87.7176 22.6176 87.6457 22.6177C86.8669 22.6183 86.0881 22.6181 85.3093 22.6181C84.5305 22.6181 83.7517 22.6219 82.973 22.6145C82.8352 22.6132 82.8142 22.662 82.829 22.7806C82.931 23.5983 83.6001 24.181 84.3342 24.2895C85.0611 24.397 85.7415 24.264 86.3936 23.9365C86.7053 23.7799 86.7037 23.7874 86.8692 24.0951C87.035 24.403 87.2024 24.7106 87.3854 25.0082C87.449 25.1116 87.4233 25.1449 87.3394 25.2002C86.8752 25.5066 86.3549 25.6669 85.8269 25.8137C85.2746 25.9672 84.709 25.998 84.1479 25.9502C82.7717 25.8327 81.6097 25.0574 81.0964 23.6523C80.8563 22.9952 80.7679 22.3167 80.819 21.6272C80.8978 20.5634 81.2512 19.6018 82.0243 18.8446C82.5688 18.3112 83.2339 18.018 83.994 17.9306C84.6432 17.856 85.265 17.9304 85.8684 18.1802ZM58.0264 18.5373C58.6219 18.9896 58.9663 19.608 59.166 20.3185C59.3403 20.939 59.3973 21.574 59.3806 22.2166C59.3777 22.3294 59.3581 22.4419 59.3456 22.5545C59.3328 22.6696 59.2436 22.6152 59.1918 22.6155L58.0233 22.6182L54.5715 22.6181C54.3699 22.6181 54.3501 22.6397 54.3875 22.8471C54.4895 23.413 54.8015 23.8253 55.2996 24.0961C55.7639 24.3485 56.2598 24.3425 56.7694 24.3011C57.2411 24.2627 57.6521 24.0636 58.0698 23.8771C58.2096 23.8147 58.2712 23.8121 58.349 23.9678C58.5156 24.3011 58.7108 24.6202 58.9005 24.9414C58.9798 25.0758 58.9899 25.1508 58.8256 25.2467C58.3153 25.5443 57.7675 25.7283 57.1967 25.8489C56.3359 26.0307 55.483 26.0231 54.647 25.7093C53.9086 25.4321 53.3435 24.9476 52.9367 24.2697C52.6301 23.7587 52.4705 23.2013 52.4016 22.6112C52.2919 21.6712 52.398 20.7626 52.8131 19.9093C53.341 18.8238 54.193 18.1331 55.385 17.9462C56.3291 17.7982 57.2354 17.9365 58.0264 18.5373ZM88.7996 18.1145C89.3807 18.1236 89.962 18.1231 90.5431 18.1146C90.6792 18.1126 90.7097 18.1493 90.7092 18.2838C90.704 19.6504 90.6972 21.0171 90.712 22.3835C90.7159 22.7391 90.7272 23.0998 90.809 23.452C90.9039 23.8602 91.212 24.0999 91.5959 24.1383C92.1198 24.1908 92.6018 24.0469 93.0542 23.7829C93.1542 23.7245 93.1867 23.6578 93.1864 23.5408L93.1832 20.9467L93.1834 18.3526C93.1834 18.1182 93.1834 18.1182 93.4207 18.1182C93.99 18.1182 94.5592 18.1219 95.1284 18.1152C95.2482 18.1138 95.2754 18.1498 95.2752 18.2661C95.272 20.7091 95.2718 23.1521 95.2757 25.5951C95.2759 25.7183 95.2377 25.7428 95.125 25.7415C94.6337 25.7357 94.1423 25.7349 93.651 25.7419C93.5318 25.7437 93.495 25.7092 93.5048 25.5917C93.5148 25.4716 93.507 25.35 93.507 25.1996C93.3459 25.2933 93.1994 25.3771 93.0542 25.4631C92.4325 25.8315 91.7655 26.0263 91.0422 25.9543C89.8506 25.8357 88.964 25.0643 88.7227 23.8297C88.6384 23.3982 88.614 22.964 88.6152 22.5255C88.6189 21.1165 88.6194 19.7076 88.6125 18.2986C88.6118 18.144 88.6534 18.1121 88.7996 18.1145ZM41.2767 15.2583C42.376 15.3455 43.3612 15.7341 44.179 16.5038C44.3709 16.6844 44.3749 16.6915 44.1784 16.8603C43.7581 17.2211 43.3292 17.5719 42.9106 17.9347C42.8301 18.0044 42.7969 17.9951 42.7354 17.9203C42.3362 17.4353 41.8193 17.1818 41.2019 17.0978C40.6571 17.0236 40.1385 17.0925 39.6518 17.336C38.8635 17.7306 38.4304 18.408 38.2001 19.2451C38.0266 19.8757 38.027 20.5195 38.0682 21.1577C38.1158 21.894 38.3047 22.5979 38.778 23.1939C39.0973 23.5962 39.5105 23.8452 39.9975 23.9706C40.6007 24.1258 41.2044 24.1185 41.7997 23.9242C42.2374 23.7814 42.5981 23.5209 42.8951 23.1626C43.4039 23.5974 43.9114 24.0311 44.4323 24.4763C44.1176 24.7907 43.7932 25.0725 43.4169 25.2848C42.7553 25.6579 42.049 25.8708 41.2874 25.9297C40.2422 26.0104 39.2539 25.8449 38.3258 25.3466C37.3678 24.8322 36.7142 24.0401 36.2989 23.0426C36.0202 22.373 35.8952 21.6699 35.8549 20.9422C35.7933 19.8304 35.9694 18.7678 36.4827 17.7864C37.1657 16.4804 38.244 15.6751 39.6795 15.3551C40.2094 15.237 40.745 15.2161 41.2767 15.2583ZM50.8557 6.26251C51.5231 6.89036 51.968 7.6679 52.1062 8.57259C52.2832 9.73185 52.1206 10.8625 51.5009 11.8772C51.0517 12.6128 50.3624 13.0524 49.5449 13.2927C48.8806 13.4879 48.2241 13.5168 47.577 13.2221C47.4232 13.152 47.2884 13.0495 47.1287 12.9532V18.4476C47.4308 18.2687 47.7421 18.1253 48.0752 18.0326C48.9691 17.7839 49.8122 17.8689 50.5954 18.3997C51.0471 18.7058 51.2496 19.1571 51.3647 19.6702C51.5069 20.3043 51.5496 20.946 51.5478 21.5939C51.5441 22.9182 51.5441 24.2425 51.5503 25.5667C51.551 25.713 51.5091 25.7443 51.3719 25.7423C50.8447 25.7342 50.3173 25.7338 49.7901 25.7423C49.6409 25.7447 49.5973 25.7013 49.5979 25.5492C49.6034 24.1766 49.6013 22.804 49.6009 21.4313C49.6008 21.031 49.5934 20.63 49.4554 20.2484C49.3414 19.9336 49.0952 19.7735 48.7792 19.7157C48.2128 19.6121 47.7139 19.8045 47.2319 20.0774C47.1292 20.1356 47.1185 20.2125 47.1186 20.3142C47.1205 22.0497 47.1174 23.7852 47.1238 25.5206C47.1244 25.6952 47.0786 25.7468 46.9041 25.7433C46.3711 25.7318 45.8376 25.7356 45.3044 25.7414C45.1783 25.7428 45.1377 25.7028 45.1397 25.5754C45.1464 25.1703 45.1422 24.7652 45.1422 24.36V5.83823C45.1422 5.59839 45.1423 5.59835 45.3713 5.59835C45.8386 5.59831 46.3062 5.60475 46.7733 5.5945C46.918 5.5913 46.9642 5.63535 46.9454 5.77403C46.9368 5.83714 46.944 5.90242 46.944 5.9905C47.2688 5.80718 47.5794 5.64699 47.9224 5.55422C49.0297 5.25469 50.0143 5.47101 50.8557 6.26251ZM80.9961 18.0758C81.1031 18.126 81.0975 18.1749 81.0661 18.2621C80.9077 18.702 80.7517 19.1426 80.5967 19.5837C80.565 19.6737 80.507 19.6873 80.4186 19.6809C79.8897 19.6425 79.3789 19.7054 78.9057 19.9708C78.5907 20.1474 78.315 20.3678 78.1014 20.6636C78.0489 20.7361 78.0435 20.8154 78.0436 20.9011C78.045 22.443 78.0424 23.9849 78.048 25.5268C78.0486 25.6881 78.0161 25.7472 77.8418 25.7435C77.2789 25.7315 76.7155 25.7353 76.1523 25.7419C76.0316 25.7433 75.9915 25.7195 75.9918 25.5872C75.9961 23.1624 75.9964 20.7377 75.9914 18.313C75.9911 18.1729 76.0302 18.1453 76.1605 18.1474C76.6577 18.1554 77.1551 18.1547 77.6523 18.1477C77.7721 18.146 77.8038 18.182 77.7993 18.2989C77.7905 18.5279 77.7967 18.7575 77.7967 19.0398C78.1178 18.6931 78.451 18.4398 78.8365 18.2613C79.2296 18.0793 79.6322 17.9453 80.0733 17.9271C80.3958 17.9138 80.6995 17.9368 80.9961 18.0758ZM69.6661 18.1158C69.7718 18.1141 69.8163 18.1447 69.8505 18.2512C70.3855 19.9184 70.9265 21.5838 71.4663 23.2495C71.4809 23.2947 71.4969 23.3394 71.522 23.4126C71.6393 23.0794 71.7501 22.7675 71.859 22.4548C72.3491 21.0476 72.8406 19.6408 73.324 18.2312C73.3585 18.1308 73.4038 18.1171 73.4888 18.1173C74.1118 18.119 74.7347 18.1182 75.3823 18.1182C75.1822 18.6489 74.9897 19.1632 74.7944 19.6765C74.3443 20.8592 73.892 22.0411 73.4422 23.224C73.1401 24.0184 72.8406 24.8138 72.5403 25.609C72.5049 25.7028 72.4508 25.7437 72.3405 25.7423C71.7775 25.7351 71.2143 25.737 70.6511 25.7406C70.5384 25.7414 70.4904 25.7006 70.449 25.5898C69.7517 23.7236 69.0471 21.8602 68.346 19.9955C68.1136 19.3773 67.8867 18.7571 67.65 18.1182H68.5159C68.8993 18.1182 69.2828 18.1219 69.6661 18.1158ZM98.3843 18.1155C98.5081 18.1145 98.5598 18.1825 98.6182 18.2708C99.0632 18.9438 99.5111 19.6148 99.9591 20.2859C99.9789 20.3154 100.008 20.3389 100.042 20.3754C100.32 19.9642 100.598 19.558 100.872 19.1497C101.081 18.8399 101.286 18.5279 101.491 18.2159C101.537 18.1452 101.594 18.1156 101.682 18.1161C102.323 18.12 102.964 18.118 103.606 18.1188C103.64 18.1188 103.686 18.1148 103.705 18.1344C103.74 18.1698 103.691 18.1952 103.672 18.2226C103.235 18.8718 102.797 19.5209 102.36 20.17C102.005 20.6963 101.652 21.2239 101.294 21.7479C101.225 21.8484 101.228 21.9146 101.304 22.0185C101.936 22.8809 102.558 23.7502 103.184 24.6175C103.423 24.9499 103.663 25.2823 103.902 25.6152C103.926 25.6474 103.945 25.6827 103.979 25.739H102.887L102.168 25.7375C102.048 25.738 101.928 25.7393 101.808 25.7423C101.696 25.7451 101.627 25.7013 101.57 25.6181C101.037 24.8398 100.506 24.061 99.9642 23.2683C99.7306 23.605 99.5014 23.9318 99.2759 24.2611C98.9674 24.712 98.6633 25.1658 98.353 25.6153C98.3116 25.6754 98.2683 25.7414 98.1709 25.7409C97.4708 25.7373 96.7706 25.739 96.0433 25.739C96.1428 25.5202 96.2899 25.3581 96.4146 25.1834C97.0737 24.2604 97.7378 23.3409 98.4008 22.4207C98.5086 22.2711 98.6128 22.1179 98.7325 21.9785C98.7925 21.9085 98.7878 21.8582 98.7426 21.7943C98.2591 21.1106 97.7751 20.4272 97.2919 19.7433C96.9289 19.2295 96.5666 18.7153 96.2049 18.2006C96.1924 18.1827 96.1897 18.1579 96.1763 18.1182C96.9224 18.1182 97.6534 18.121 98.3843 18.1155ZM55.1912 19.6497C54.7063 19.9352 54.5281 20.424 54.3809 20.9332C54.3332 21.0981 54.4073 21.0972 54.5286 21.0959C54.9773 21.0911 55.4261 21.0939 55.8748 21.0939C56.3296 21.0939 56.7843 21.0926 57.239 21.0948C57.3621 21.0954 57.4362 21.1205 57.4149 20.9169C57.3484 20.2819 56.893 19.5495 56.1485 19.4789C55.8077 19.4466 55.4855 19.4764 55.1912 19.6497ZM83.3731 19.8536C83.0535 20.1909 82.8767 20.6141 82.812 21.0939H85.631C85.8777 21.0939 85.8784 21.0939 85.8477 20.8474C85.7659 20.1912 85.3545 19.5691 84.5823 19.4716C84.1298 19.4145 83.6962 19.5127 83.3731 19.8536ZM42.9355 5.95509C43.5625 6.39344 43.9161 7.02063 44.135 7.73885C44.3382 8.40556 44.372 9.0904 44.3523 9.78186C44.342 10.1429 44.3943 10.097 44.0343 10.0977C43.3034 10.0993 42.5725 10.0982 41.8416 10.0982C41.0747 10.0982 40.3079 10.1009 39.5411 10.0959C39.3917 10.0949 39.338 10.1074 39.3736 10.2921C39.4374 10.6233 39.5489 10.9166 39.7775 11.1682C40.0754 11.4961 40.4377 11.6973 40.8699 11.7663C41.5958 11.8823 42.2788 11.7408 42.9315 11.4102C43.2237 11.2621 43.2327 11.268 43.3982 11.5519L43.9113 12.4649C43.9706 12.5675 43.9617 12.6234 43.8558 12.6902C43.3407 13.015 42.7711 13.189 42.1873 13.3286C41.726 13.4388 41.2563 13.463 40.7878 13.4327C40.0083 13.3823 39.2924 13.1455 38.6782 12.6343C37.9298 12.0114 37.5555 11.1927 37.4073 10.2444C37.244 9.19949 37.3778 8.20206 37.8635 7.26295C38.3608 6.30136 39.1304 5.67119 40.1905 5.45915C41.1608 5.26508 42.0959 5.3681 42.9355 5.95509ZM60.8779 5.60743C61.5452 5.85898 62.0459 6.3167 62.3868 6.94481C62.7019 7.52532 62.8586 8.15285 62.9113 8.8125C62.9421 9.19658 62.9553 9.57685 62.9153 9.96114C62.9022 10.0882 62.8576 10.1005 62.7539 10.1C61.9751 10.0967 61.1964 10.0982 60.4176 10.0982C59.6449 10.0982 58.872 10.1032 58.0994 10.0938C57.9506 10.092 57.928 10.1455 57.9449 10.2687C58.0586 11.1006 58.7138 11.6517 59.4603 11.7684C60.2127 11.8859 60.9103 11.712 61.5812 11.38C61.8179 11.2629 61.8171 11.2669 61.948 11.5045C62.1309 11.8365 62.3109 12.1705 62.506 12.4952C62.5637 12.5911 62.5403 12.6203 62.4631 12.6721C62.0722 12.9344 61.6344 13.0828 61.1909 13.2203C60.6069 13.4014 60.0088 13.4667 59.4014 13.4355C58.0347 13.3654 56.8066 12.6342 56.2476 11.2299C55.9676 10.5265 55.8772 9.79546 55.9369 9.05358C56.0213 8.00519 56.3774 7.0592 57.1469 6.31343C57.6767 5.79998 58.3123 5.50627 59.0445 5.41263C59.6734 5.33218 60.286 5.38435 60.8779 5.60743ZM55.0335 1.94451L55.0308 4.7204L55.0309 7.49627C55.0309 9.33477 55.0285 11.1733 55.0348 13.0117C55.0354 13.182 54.9885 13.226 54.8233 13.223C54.2602 13.2128 53.6967 13.2147 53.1335 13.2224C53.0046 13.2242 52.9783 13.1866 52.9784 13.0621C52.9819 9.45164 52.9816 5.84119 52.9794 2.23073C52.9794 2.12452 52.9948 2.0878 53.118 2.07057C53.7069 1.9882 54.2932 1.88635 54.8799 1.78831C55.0127 1.7661 55.0338 1.82259 55.0335 1.94451ZM31.7489 2.90934C31.8832 2.90766 31.9168 2.94154 31.9164 3.07775C31.9112 4.65616 31.9131 6.23462 31.9131 7.81307C31.9245 7.81998 31.9358 7.82692 31.9472 7.83383C32.1257 7.57148 32.305 7.30969 32.4826 7.04665C33.385 5.70935 34.2864 4.37132 35.1909 3.0354C35.2284 2.97993 35.2671 2.9121 35.3556 2.91228C36.121 2.91362 36.8863 2.91304 37.6866 2.91304C37.4997 3.17687 37.3322 3.41671 37.1612 3.65405C36.5988 4.4345 36.0352 5.214 35.472 5.99394C35.0339 6.60078 34.598 7.20936 34.1554 7.81296C34.0854 7.90849 34.0808 7.96741 34.1543 8.06774C34.913 9.10348 35.6651 10.1442 36.4188 11.1836C36.8759 11.8138 37.3331 12.444 37.7881 13.0758C37.8133 13.1108 37.849 13.1499 37.8322 13.2191H36.9597C36.4383 13.2191 35.917 13.2176 35.3956 13.2205C35.3063 13.221 35.253 13.2016 35.1959 13.1162C34.4282 11.9659 33.6527 10.821 32.8799 9.67422C32.5851 9.23681 32.2923 8.79799 31.9976 8.36051C31.9824 8.3379 31.9577 8.32176 31.9131 8.27959V8.49999C31.9131 10.012 31.9107 11.5239 31.9168 13.0358C31.9174 13.1869 31.8811 13.2254 31.7312 13.2231C31.1201 13.2136 30.5087 13.216 29.8975 13.2218C29.7815 13.2229 29.7489 13.1935 29.7491 13.0737C29.7524 9.73533 29.7524 6.39696 29.7491 3.05862C29.749 2.93925 29.7807 2.90904 29.8972 2.91013C30.5144 2.91602 31.1318 2.91733 31.7489 2.90934ZM68.0522 5.38264C68.3082 5.38224 68.5497 5.46214 68.7819 5.56701C68.8301 5.58872 68.8456 5.62165 68.823 5.68341C68.6524 6.15004 68.489 6.61933 68.32 7.08662C68.2686 7.22882 68.1429 7.15964 68.0577 7.15368C67.2142 7.09469 66.5169 7.37742 65.9486 8.01414C65.8087 8.17085 65.78 8.32712 65.7804 8.51963C65.7844 10.0256 65.7801 11.5316 65.7865 13.0376C65.7872 13.1905 65.7486 13.2255 65.6006 13.223C65.0374 13.2134 64.4739 13.2141 63.9107 13.2225C63.7642 13.2247 63.7299 13.1776 63.7301 13.036C63.7341 10.6167 63.7343 8.19746 63.7299 5.77821C63.7296 5.63157 63.7723 5.59286 63.9138 5.59519C64.4111 5.60326 64.9087 5.60202 65.406 5.59577C65.534 5.59413 65.5736 5.63772 65.5691 5.76342C65.5611 5.99035 65.5669 6.21776 65.5669 6.48967C65.8999 6.117 66.2734 5.87338 66.6838 5.6829C67.1186 5.48115 67.5759 5.38333 68.0522 5.38264ZM47.2208 7.35917C47.1412 7.39923 47.1186 7.43104 47.1187 7.51156C47.1205 8.74377 47.121 9.97598 47.1179 11.2082C47.1177 11.3009 47.1514 11.3464 47.23 11.3861C47.4885 11.5168 47.7574 11.6083 48.0416 11.6674C48.6724 11.7989 49.3948 11.4837 49.7257 10.936C50.0084 10.4682 50.1354 9.96657 50.1009 9.40684C50.1205 9.14501 50.0971 8.87165 50.0321 8.60233C49.8773 7.96023 49.5244 7.47713 48.8991 7.243C48.3286 7.02933 47.7668 7.08469 47.2208 7.35917ZM40.0189 7.23445C39.6313 7.54488 39.4693 7.99167 39.3552 8.45899C39.3305 8.56034 39.3834 8.57651 39.4721 8.57582C39.9391 8.57204 40.4061 8.57404 40.8731 8.57404C41.3342 8.57404 41.7954 8.56623 42.2561 8.57848C42.4083 8.58251 42.4276 8.51951 42.4064 8.40119C42.3603 8.14303 42.297 7.89247 42.1686 7.65859C41.7096 6.82281 40.6256 6.74873 40.0189 7.23445ZM59.3621 6.94295C59.0055 6.97407 58.6757 7.08759 58.4402 7.37578C58.1586 7.72049 57.9823 8.1173 57.9276 8.57404H60.7644C60.9862 8.57404 60.9897 8.57364 60.9636 8.34776C60.8704 7.54041 60.3049 6.86058 59.3621 6.94295Z" fill="white"/>
<path fill-rule="evenodd" clip-rule="evenodd" d="M25.0033 13.1702C24.9934 13.2326 24.9479 13.2575 24.9154 13.2905C24.6198 13.5908 24.3227 13.8897 24.0261 14.189C22.4795 15.7498 20.9315 17.3092 19.3892 18.8744C19.2763 18.989 19.2232 18.9843 19.1132 18.8728C17.2822 17.0174 15.4472 15.166 13.6094 13.3176C13.5083 13.2159 13.4909 13.1638 13.6026 13.0516C15.4456 11.1997 17.2844 9.34368 19.1198 7.48428C19.2264 7.37635 19.2787 7.38028 19.3833 7.4862C21.2189 9.34565 23.0589 11.2006 24.8978 13.0568C24.9353 13.0946 24.9704 13.1347 25.0033 13.1702Z" fill="white"/>
<path fill-rule="evenodd" clip-rule="evenodd" d="M12.4844 25.8167C11.5426 24.8681 10.6115 23.9281 9.67618 22.9923C9.60883 22.9249 9.61495 22.8556 9.61495 22.7793C9.61466 21.068 9.61473 19.3566 9.61473 17.6452C9.61473 12.9707 9.6152 8.29621 9.61236 3.6217C9.61225 3.49259 9.64355 3.40022 9.73755 3.30625C10.6145 2.42958 11.4878 1.54914 12.3559 0.663562C12.457 0.560398 12.504 0.572031 12.5981 0.667342C14.1203 2.20977 15.6453 3.74955 17.1744 5.28518C17.2807 5.39194 17.2788 5.44342 17.1735 5.54938C14.7043 8.03478 12.24 10.5252 9.77039 13.0102C9.64797 13.1334 9.64787 13.1987 9.77086 13.3199C10.3366 13.8777 10.8853 14.4532 11.4528 15.009C13.3915 16.9076 15.2756 18.8616 17.1985 20.7762C17.3121 20.8893 17.3082 20.942 17.1976 21.0531C15.6598 22.597 14.1272 24.1461 12.5936 25.6944C12.5556 25.7328 12.5214 25.7751 12.4844 25.8167Z" fill="white"/>
<path fill-rule="evenodd" clip-rule="evenodd" d="M6.48268 6.60498V19.7342C6.46941 19.7455 6.4561 19.7568 6.44283 19.7681C6.41383 19.725 6.39088 19.6757 6.35501 19.6394C4.26354 17.5269 2.17145 15.4148 0.0767735 13.3055C-0.0103188 13.2178 -0.036112 13.1724 0.0673484 13.0684C2.17616 10.9476 4.2803 8.82222 6.38552 6.69782C6.41027 6.67285 6.43631 6.64918 6.48268 6.60498Z" fill="white"/>
</g>
<defs>
<clipPath id="clip0_1_11">
<rect width="104" height="26" fill="white"/>
</clipPath>
</defs>
</svg>
