<svg width="100%" style="" viewBox="0 0 173 48" fill="none" xmlns="http://www.w3.org/2000/svg">
	<g clip-path="url(#Frame_clip0-1-2)">
		<path fill-rule="evenodd" clip-rule="evenodd"
			d="M100.867 38.898V47.874H91.89V38.898H100.867ZM130.788 38.898V47.874H121.812V38.898H130.788ZM30.039 12.052C33.451 12.052 36.132 13.03 38.008 14.96C39.897 16.886 40.865 19.848 40.883 23.764V38.934H33.489V24.847C33.489 22.573 33.102 21.049 32.339 20.317L32.336 20.314C31.566 19.562 30.5 19.172 29.164 19.155C25.818 19.155 24.189 20.982 24.189 24.741V38.934H16.796V24.847C16.796 22.573 16.408 21.049 15.645 20.317C14.873 19.562 13.806 19.172 12.471 19.155C10.897 19.155 9.687 19.567 8.878 20.38C7.97 21.293 7.513 22.76 7.522 24.74V38.934H0.127998V12.526H7.522V14.056C8 13.711 8.392 13.456 8.71 13.284C10.143 12.467 11.846 12.052 13.767 12.052C17.364 12.052 20.103 13.261 21.917 15.647C24.063 13.261 26.794 12.052 30.039 12.052ZM142.009 11.969V38.898H134.528V11.968H142.009V11.969ZM158.871 11.953C162.696 11.953 165.883 13.289 168.344 15.925C170.781 18.539 172.019 21.731 172.019 25.412C172.019 26.149 171.965 26.86 171.86 27.528L171.829 27.718H152.64C153.01 29.076 153.814 30.2757 154.929 31.134C156.096 32.052 157.596 32.517 159.39 32.517C162.041 32.517 164.07 31.603 165.422 29.8L165.563 29.613L170.382 33.452L170.262 33.626C169.154 35.246 167.593 36.548 165.624 37.498C163.712 38.427 161.598 38.898 159.339 38.898C155.569 38.898 152.323 37.608 149.691 35.064C147.074 32.501 145.749 29.298 145.749 25.542C145.749 21.774 146.985 18.538 149.423 15.925C151.883 13.289 155.062 11.953 158.871 11.953V11.953ZM91.891 11.969V20.945H82.914V29.921H91.89V38.898H87.701V38.891C87.601 38.894 87.502 38.898 87.402 38.898C79.966 38.898 73.938 32.87 73.938 25.433C73.938 17.997 79.966 11.969 87.402 11.969C87.502 11.969 87.602 11.973 87.702 11.975V11.969H91.89H91.891ZM121.812 11.969V20.945H112.835V29.921H121.812V38.898H117.623V38.891C117.523 38.894 117.424 38.898 117.324 38.898C109.887 38.898 103.859 32.87 103.859 25.433C103.859 17.997 109.887 11.969 117.324 11.969C117.424 11.969 117.523 11.973 117.623 11.975V11.969H121.812V11.969ZM70.945 11.969V38.898H64.213V37.096C62.1672 38.2798 59.8446 38.9015 57.481 38.898C50.044 38.898 44.016 32.869 44.016 25.433C44.016 17.997 50.045 11.97 57.481 11.97C59.933 11.97 62.233 12.626 64.213 13.771V11.97H70.945V11.969ZM57.481 19.149C55.8149 19.1506 54.2174 19.8132 53.0393 20.9913C51.8612 22.1694 51.1986 23.7669 51.197 25.433C51.1986 27.0991 51.8612 28.6966 53.0393 29.8747C54.2174 31.0528 55.8149 31.7154 57.481 31.717C59.147 31.7151 60.7441 31.0525 61.9221 29.8744C63.1 28.6962 63.7624 27.099 63.764 25.433C63.7621 23.7672 63.0996 22.1702 61.9217 20.9923C60.7438 19.8144 59.1468 19.1519 57.481 19.15V19.149ZM100.867 20.945V29.921H91.89V20.945H100.867V20.945ZM130.788 20.945V29.921H121.812V20.945H130.788ZM159.052 18.386C157.583 18.386 156.271 18.783 155.153 19.566C154.154 20.274 153.4 21.246 152.908 22.456H164.918C164.686 21.339 164.043 20.393 163.002 19.643C161.852 18.8151 160.469 18.3748 159.052 18.386ZM142.009 0V7.48H134.528V0H142.009Z"
			fill="white" />
	</g>
	<defs>
		<clipPath id="Frame_clip0-1-2">
			<rect width="173" height="48" fill="white" />
		</clipPath>
	</defs>
</svg>