<svg xmlns="http://www.w3.org/2000/svg" width="83" height="20" fill="#fff" viewBox="0 0 83 20"><path d="M5.95677 16.0514C5.91685 16.0486 5.87903 16.0322 5.84919 16.0054C5.81935 15.9784 5.7992 15.9422 5.79188 15.9025C5.78455 15.8627 5.79046 15.8217 5.80868 15.7857C5.8269 15.7497 5.8564 15.7208 5.89261 15.7035C8.19616 14.5926 8.12303 13.5102 8.10811 13.3024C8.07942 13.0784 7.99862 12.8644 7.8723 12.678C7.77606 12.5434 7.66408 12.421 7.53876 12.3135C7.41276 12.2042 7.27798 12.1057 7.1358 12.019C6.79179 11.8103 6.58882 11.6875 6.53435 11.6537L6.52017 11.6461C6.15752 11.4664 5.78441 11.2866 5.40085 11.1069L3.81589 10.3492C3.57511 10.2191 3.33882 10.0936 3.107 9.97257C2.8726 9.84984 2.64515 9.71406 2.42571 9.56584C2.0864 9.35544 1.76224 9.12112 1.45563 8.86463C1.14563 8.6079 0.865951 8.31601 0.622113 7.99471C0.3396 7.62217 0.147421 7.18804 0.0609618 6.72709C-0.0323838 6.22023 -0.0183968 5.69915 0.102004 5.19814C0.216831 4.69826 0.409242 4.21985 0.67211 3.78065C0.975241 3.27155 1.37096 2.82485 1.83843 2.46407C2.45504 2.00169 3.16065 1.6746 3.90993 1.50377C4.50688 1.35992 4.94119 1.25748 5.52398 1.27104C5.70381 1.27556 5.77993 1.558 5.63441 1.6642C5.00163 2.12741 4.0629 3.00939 4.25691 4.06384C4.25691 4.06384 4.32183 4.44044 4.45168 4.63928C4.59152 4.84626 4.77118 5.02274 4.97998 5.15822C5.22735 5.31174 5.48239 5.45228 5.7441 5.57925C6.01275 5.7103 6.27691 5.83182 6.5366 5.94379C6.85149 6.09442 7.16664 6.23953 7.48204 6.37912C7.79744 6.51871 8.11234 6.66358 8.42675 6.81371C8.87129 7.03717 9.30348 7.28482 9.72142 7.5556C10.1286 7.82763 10.5058 8.14274 10.8467 8.49557C11.4302 9.08455 12.1302 9.97482 12.1302 11.2326C12.1437 12.076 11.8838 12.9007 11.3899 13.5811C9.94453 15.5265 7.55292 16.1924 5.95677 16.0514Z"/><path d="M17.5462 17.2921L18.2364 18.4391C18.2565 18.4657 18.269 18.4973 18.2723 18.5306C18.2756 18.5638 18.2696 18.5973 18.2551 18.6275C18.2463 18.6564 18.2306 18.6829 18.2094 18.7043C18.1882 18.7259 18.1622 18.7419 18.1335 18.751L17.4231 18.9768L13.9719 19.9191C13.9402 19.9249 13.9078 19.9243 13.8764 19.9173C13.845 19.9103 13.8153 19.8971 13.789 19.8784C13.7633 19.8598 13.7424 19.8351 13.7282 19.8065C13.714 19.7779 13.707 19.7462 13.7077 19.7143V8.25607L13.0174 7.10898C12.9977 7.08301 12.9854 7.05207 12.9819 7.01955C12.9783 6.98703 12.9837 6.95414 12.9973 6.92446C13.0063 6.89533 13.0223 6.86893 13.044 6.84763C13.0656 6.82633 13.0921 6.8108 13.1212 6.80244L13.8316 6.57647L17.0612 5.69525L17.1829 5.63349C17.1999 5.61895 17.2217 5.61166 17.244 5.61315H17.3253C17.4746 5.61315 17.5492 5.68847 17.5492 5.83911V6.65858C17.815 6.40169 18.1075 6.17442 18.4216 5.98071C18.7372 5.78765 19.0795 5.64273 19.4371 5.55065C20.1957 5.3459 20.9954 5.35293 21.7504 5.57098C22.3147 5.73331 22.847 5.99325 23.3233 6.33923C23.7971 6.68139 24.2151 7.09611 24.562 7.56842C24.9094 8.04676 25.1825 8.5758 25.3717 9.1373C25.5651 9.69718 25.6644 10.2857 25.6657 10.8787C25.6679 11.4939 25.5755 12.1057 25.3919 12.6923C25.2089 13.2729 24.9159 13.8122 24.5293 14.28C24.1852 14.7103 23.7735 15.0808 23.3107 15.3767C22.8476 15.672 22.3404 15.89 21.8086 16.0221C21.3499 16.1286 20.8786 16.1689 20.4087 16.1419C19.8824 16.1187 19.3624 16.0172 18.8655 15.8406C18.3806 15.6638 17.933 15.3962 17.5462 15.052V17.2921ZM17.6372 10.4282C17.6419 10.8289 17.6919 11.2277 17.7865 11.6168C17.8973 12.0475 18.0505 12.4661 18.2432 12.8663C18.4304 13.2648 18.7047 13.6152 19.0454 13.8914C19.2698 14.0795 19.5283 14.222 19.8065 14.3109C20.0799 14.3998 20.3735 14.4035 20.6489 14.3215C20.8979 14.2579 21.1213 14.1182 21.2884 13.9215C21.4572 13.7241 21.591 13.4989 21.6839 13.2557C21.8353 12.8434 21.8975 12.4033 21.8667 11.9647C21.8442 11.5233 21.7844 11.0846 21.6877 10.6535C21.5918 10.2663 21.4627 9.88826 21.3019 9.52368C21.1431 9.16053 20.9235 8.82777 20.6527 8.54003C20.4597 8.33217 20.2413 8.14995 20.0027 7.99774C19.7681 7.84287 19.4908 7.76742 19.211 7.78233C19.1287 7.7868 19.0471 7.80044 18.9677 7.823C18.8842 7.84219 18.8026 7.86968 18.7245 7.90509C18.4604 8.00904 18.2363 8.19566 18.085 8.4376L18.0797 8.44512C17.8569 8.80623 17.7214 9.21518 17.6842 9.63891C17.6581 9.89801 17.6336 10.2159 17.6372 10.4282Z"/><path d="M27.4335 14.1573V8.27716L26.7433 7.12931C26.7233 7.10342 26.7109 7.07248 26.7074 7.03991C26.7038 7.00735 26.7093 6.97443 26.7232 6.94478C26.7318 6.91582 26.7475 6.88947 26.7687 6.86805C26.79 6.84664 26.8161 6.83083 26.8447 6.82202L27.5552 6.59605L31.0063 5.65383C31.0381 5.64808 31.0704 5.64872 31.1017 5.6557C31.1332 5.66269 31.1629 5.67586 31.1891 5.6945C31.2149 5.71316 31.2357 5.73788 31.2497 5.7665C31.2638 5.79512 31.2706 5.82677 31.2698 5.85869V6.59605C31.5038 6.37489 31.7627 6.18226 32.0413 6.02213C32.3093 5.86691 32.5872 5.73004 32.8733 5.6124C33.1822 5.50378 33.5024 5.43174 33.8278 5.39775C34.1488 5.36328 34.4734 5.39453 34.7822 5.48964C34.8264 5.50082 34.865 5.52769 34.891 5.56534C34.9171 5.60297 34.9287 5.64885 34.924 5.6945V8.78858C34.9266 8.83113 34.9164 8.87348 34.8947 8.91007C34.8729 8.94664 34.8408 8.9757 34.8023 8.99343C34.7661 9.01402 34.724 9.02123 34.6831 9.0138C34.6423 9.00637 34.6053 8.9848 34.5785 8.95277C34.3287 8.68415 34.0135 8.48628 33.6644 8.37885C33.3163 8.26996 32.9471 8.24877 32.5891 8.31708C32.3165 8.36913 32.0553 8.46961 31.8174 8.61383C31.6929 8.67966 31.5834 8.7711 31.496 8.88228C31.4086 8.99347 31.3452 9.12189 31.31 9.25931C31.2945 9.31948 31.2875 9.38167 31.2899 9.44385V14.1768L31.8578 15.6079C31.8717 15.6375 31.877 15.6704 31.8734 15.703C31.87 15.7356 31.8575 15.7665 31.8377 15.7924C31.8226 15.8229 31.7995 15.8486 31.7711 15.8667C31.7425 15.8848 31.7095 15.8944 31.6757 15.8949H27.0492C27.0154 15.8946 26.9822 15.8849 26.9536 15.8668C26.9248 15.8487 26.9016 15.823 26.8865 15.7924C26.8668 15.7664 26.8544 15.7355 26.851 15.703C26.8473 15.6705 26.8527 15.6376 26.8664 15.6079L27.4335 14.1573Z"/><path d="M41.5802 16.1419C40.8049 16.1476 40.0338 16.0265 39.2967 15.7834C38.614 15.5593 37.9807 15.2043 37.4313 14.738C36.893 14.2775 36.4626 13.7023 36.1709 13.0539C35.8679 12.383 35.7164 11.617 35.7164 10.7559C35.7164 9.89476 35.8719 9.13328 36.1828 8.47149C36.4802 7.82798 36.9092 7.2553 37.4416 6.79114C37.9859 6.3246 38.6172 5.97295 39.2983 5.75703C40.0365 5.52049 40.8071 5.4028 41.5817 5.4083C42.3595 5.40328 43.1336 5.52093 43.8756 5.75703C44.56 5.97153 45.1944 6.32326 45.741 6.79114C46.2752 7.25787 46.7043 7.83436 46.9998 8.48204C47.3108 9.15136 47.4662 9.91634 47.4662 10.777C47.4662 11.6376 47.3108 12.4024 46.9998 13.0712C46.7043 13.7189 46.2752 14.2953 45.741 14.7621C45.1944 15.2299 44.56 15.5817 43.8756 15.7962C43.133 16.0318 42.3584 16.1484 41.5802 16.1419ZM42.2913 7.63922C42.0859 7.39315 41.8424 7.18207 41.5704 7.01409C41.4392 6.9252 41.2915 6.86396 41.1362 6.83407C40.9809 6.80418 40.8212 6.80623 40.6669 6.84009C40.5128 6.87383 40.3679 6.94069 40.2418 7.03609C40.1157 7.13149 40.0115 7.2532 39.9362 7.39293C39.7713 7.66653 39.6481 7.9636 39.5706 8.27415C39.4481 8.75896 39.4003 9.25993 39.4289 9.75944C39.4541 10.26 39.522 10.7574 39.6319 11.2462C39.7439 11.7375 39.9073 12.2154 40.119 12.672C40.3249 13.1265 40.5912 13.5504 40.9108 13.9321C41.1161 14.1781 41.3591 14.3892 41.6309 14.5572C41.7622 14.6459 41.91 14.7071 42.0653 14.737C42.2204 14.7669 42.3801 14.7649 42.5345 14.7312C42.6886 14.6972 42.8335 14.6301 42.9596 14.5346C43.0856 14.4391 43.1899 14.3173 43.2652 14.1776C43.4299 13.9042 43.5531 13.6074 43.6308 13.2971C43.7539 12.8122 43.8028 12.311 43.7756 11.8111C43.7501 11.3111 43.6824 10.8141 43.5726 10.3258C43.4599 9.83517 43.2966 9.35779 43.0853 8.90155C42.8786 8.44725 42.6115 8.02355 42.2913 7.64223V7.63922Z"/><path d="M10.6631 4.19866C10.7004 4.40729 10.6728 4.62798 10.4639 4.63928C8.26034 4.76129 6.54329 3.65336 6.10901 1.68153C6.06348 1.47515 6.10901 1.41565 6.43808 1.36895C7.70963 1.18894 10.4945 2.01443 10.6631 4.19866Z"/><path d="M5.35905 15.464C5.42995 15.821 5.26876 15.8926 4.80014 15.9295C3.09953 16.0621 0.736272 14.5075 0.546735 12.327C0.526587 12.0913 0.478829 11.8879 1.10639 11.8472C2.87342 11.7328 4.93446 13.3205 5.35905 15.464Z"/><path d="M60.2668 15.6613L59.6281 14.0646V5.64401C59.6229 5.60638 59.6094 5.57041 59.5883 5.53884C59.5674 5.50727 59.5398 5.4809 59.5072 5.46174C59.4781 5.44082 59.4451 5.42597 59.4102 5.41808C59.3755 5.41019 59.3393 5.40943 59.3043 5.41581L56.2448 6.55763L55.4545 6.80844C55.4225 6.81795 55.3932 6.83539 55.3695 6.8592C55.3457 6.88301 55.3283 6.91243 55.3187 6.94477C55.3033 6.97782 55.2973 7.01447 55.3013 7.05074C55.3052 7.08701 55.319 7.12149 55.341 7.15039L55.3836 7.22042C55.8203 7.94331 56.0443 8.77657 56.0299 9.62309C55.997 11.2801 55.6403 13.8168 53.7598 13.8168C50.3131 13.8168 53.5419 5.64401 53.5419 5.64401C53.5429 5.6085 53.5352 5.5733 53.5193 5.54152C53.5036 5.50974 53.4803 5.48235 53.4517 5.46174C53.4224 5.44084 53.3894 5.426 53.3544 5.41811C53.3195 5.41022 53.2832 5.40944 53.248 5.41581L49.8198 6.55763L49.0296 6.80844C48.9977 6.81811 48.9686 6.83563 48.945 6.85942C48.9214 6.88322 48.9041 6.91254 48.8945 6.94477C49.5364 8.03839 49.3773 8.95576 49.1132 10.2279C48.9521 11.0082 48.7744 11.903 48.7744 12.4588C48.7744 13.2406 49.0304 16.2036 52.7144 16.2036C54.5524 16.2036 55.6246 14.9059 55.9978 13.8371V15.8195C56.0068 15.9205 56.1074 15.949 56.226 15.949L60.0617 15.9806C60.0992 15.9803 60.1362 15.9695 60.1681 15.9495C60.2001 15.9295 60.2259 15.9009 60.2429 15.867C60.2651 15.8381 60.2791 15.8038 60.2833 15.7675C60.2874 15.7313 60.2817 15.6946 60.2668 15.6613Z"/><path d="M61.2612 13.1698C61.2612 15.1714 62.3443 16.1825 64.3061 16.1825C65.7571 16.1825 66.8197 15.9349 67.9028 15.0889C67.9641 15.0476 67.9845 14.9857 67.9845 14.9238V13.3762C67.9845 13.2937 67.9437 13.2318 67.8619 13.1905C67.8006 13.1492 67.7189 13.1698 67.6576 13.2318C66.5336 14.181 65.144 14.2222 65.144 12.4476V7.43334L67.6984 8.54763C67.7597 8.56826 67.8415 8.56826 67.9028 8.52699C67.9641 8.48572 67.9845 8.42382 67.9845 8.36191V5.78255C67.9845 5.65874 67.9028 5.5762 67.7802 5.5762H65.144V1.6762C65.144 1.61429 65.1236 1.55239 65.0827 1.51112C65.0214 1.46985 64.9601 1.46985 64.8988 1.46985L61.4043 2.43969L60.689 2.66667C60.6277 2.68731 60.5664 2.72858 60.546 2.79048C60.5255 2.85239 60.5256 2.91429 60.5664 2.9762L61.2612 4.13175V13.1698Z"/><path d="M71.9903 4.09048C71.9085 3.90477 71.745 3.55397 71.8881 3.36826C72.1129 3.05873 72.9099 3.28572 73.1755 3.36826C74.1156 3.69842 75.076 4.35873 75.8117 5.01905C75.873 5.08096 75.9548 5.08096 76.0365 5.06032C76.1182 5.01905 76.1591 4.95715 76.1591 4.87461V2.35715C76.1591 2.27461 76.1387 2.23334 76.0774 2.19207C75.3621 1.61429 74.2382 1.36667 73.339 1.3254C71.3159 1.2635 69.4154 2.19207 69.4154 4.48254V14.1397L68.8432 15.6048C68.8227 15.6667 68.8227 15.7286 68.8636 15.7905C68.9045 15.8524 68.9658 15.873 69.0475 15.873H73.7068C73.7681 15.873 73.8295 15.8524 73.8703 15.7905C73.9112 15.7286 73.9112 15.6667 73.8908 15.6048L73.3186 14.1397V7.43334L75.873 8.54762C75.9343 8.56826 75.9956 8.56826 76.0569 8.52699C76.1182 8.48572 76.1591 8.42381 76.1591 8.36191V5.78254C76.1591 5.65873 76.0569 5.57619 75.9548 5.57619H73.1959C72.7668 5.1635 72.2559 4.62699 71.9903 4.09048Z"/><path d="M81.5986 14.1397V5.78255C81.5986 5.72064 81.5782 5.65874 81.5373 5.61747C81.476 5.5762 81.4147 5.55556 81.3534 5.5762L77.8589 6.5254C77.8589 6.54604 77.8589 6.54604 77.8589 6.54604L77.1437 6.77302C77.0823 6.79366 77.021 6.83493 77.0006 6.89683C76.9802 6.95874 76.9802 7.02064 77.021 7.08255L77.7159 8.2381V14.1397L77.1437 15.6048C77.1028 15.6667 77.1232 15.7286 77.1641 15.7905C77.205 15.8524 77.2663 15.873 77.3276 15.873H81.9869C82.0686 15.873 82.1299 15.8524 82.1708 15.7905C82.2117 15.7286 82.2117 15.6667 82.1912 15.6048L81.5986 14.1397ZM77.4911 2.83175C77.4911 3.98731 78.4311 4.91588 79.5755 4.91588H79.5959H79.6164C80.7607 4.93651 81.7008 3.98731 81.7008 2.83175C81.7008 1.65556 80.7607 0.72699 79.6164 0.72699H79.5959H79.5755C78.4311 0.72699 77.4911 1.65556 77.4911 2.83175Z"/></svg>