<svg width="101" height="25" viewBox="0 0 101 25" fill="white" xmlns="http://www.w3.org/2000/svg">
<path d="M34.2257 18.375H32.1031V17.305C31.8131 17.6846 31.4376 17.9905 31.0071 18.1982C30.5766 18.4058 30.1032 18.5092 29.6252 18.5C27.6879 18.5 26.2912 17.215 26.2912 14.89V9.9H28.3937V14.57C28.3937 15.93 29.1296 16.665 30.2409 16.665C31.3522 16.665 32.1031 15.93 32.1031 14.57V9.9H34.2257V18.375ZM41.3741 13.695C41.3741 12.335 40.6383 11.6 39.527 11.6C38.4156 11.6 37.6497 12.335 37.6497 13.695V18.375H35.5422V9.9H37.6447V10.955C37.9421 10.5786 38.323 10.2765 38.7574 10.0726C39.1919 9.86865 39.6678 9.76848 40.1477 9.78C42.085 9.78 43.4666 11.065 43.4666 13.405V18.375H41.3641L41.3741 13.695ZM44.5029 7.64C44.4949 7.38331 44.5638 7.13008 44.7008 6.91274C44.8378 6.69541 45.0366 6.52386 45.2718 6.42006C45.507 6.31626 45.7678 6.28494 46.0209 6.3301C46.274 6.37527 46.5079 6.49487 46.6925 6.67358C46.8772 6.85229 47.0042 7.08199 47.0574 7.33326C47.1106 7.58452 47.0874 7.84592 46.991 8.08397C46.8945 8.32203 46.7291 8.52591 46.5159 8.6695C46.3028 8.8131 46.0515 8.88988 45.7944 8.89C45.6265 8.89606 45.4592 8.86818 45.3024 8.80802C45.1456 8.74786 45.0026 8.65667 44.8819 8.53991C44.7613 8.42316 44.6655 8.28326 44.6004 8.12862C44.5353 7.97397 44.5021 7.80777 44.5029 7.64V7.64ZM44.7281 9.9H46.8306V18.4H44.7281V9.9ZM59.796 13.695C59.796 12.35 59.0602 11.645 57.9488 11.645C56.8375 11.645 56.0666 12.35 56.0666 13.695V18.375H53.9591V13.695C53.9591 12.35 53.2232 11.645 52.1119 11.645C51.0006 11.645 50.2347 12.35 50.2347 13.695V18.375H48.1322V9.9H50.2347V10.925C50.5247 10.5564 50.8973 10.2608 51.3224 10.0619C51.7475 9.86307 52.2134 9.76651 52.6826 9.78C53.274 9.75084 53.8619 9.887 54.3801 10.1732C54.8983 10.4594 55.3263 10.8842 55.6161 11.4C55.9072 10.9034 56.3243 10.4921 56.8252 10.2077C57.3262 9.92333 57.8933 9.7758 58.4695 9.78C60.4718 9.78 61.8785 11.065 61.8785 13.405V18.375H59.776L59.796 13.695ZM66.4039 9.765C66.9379 9.74736 67.4681 9.86074 67.9481 10.0952C68.4281 10.3297 68.8432 10.6781 69.1572 11.11V9.9H71.2747V18.4H69.1572V17.14C68.8432 17.5765 68.4263 17.9289 67.9434 18.1661C67.4606 18.4033 66.9267 18.518 66.3889 18.5C64.2864 18.5 62.6044 16.74 62.6044 14.095C62.6044 11.45 64.2864 9.765 66.4039 9.765V9.765ZM66.9445 11.645C65.8182 11.645 64.7519 12.5 64.7519 14.11C64.7519 15.72 65.8182 16.635 66.9445 16.635C68.0709 16.635 69.1572 15.745 69.1572 14.135C69.1572 12.525 68.1059 11.645 66.9445 11.645V11.645ZM74.6837 18.375H72.5862V9.9H74.6887V11.215C74.9463 10.7691 75.3192 10.4006 75.7684 10.1481C76.2176 9.89565 76.7265 9.7685 77.2418 9.78V12.03H76.6861C75.4396 12.03 74.6837 12.53 74.6837 14.155V18.375ZM77.8975 7.055H80.005V13.5L82.7984 9.905H85.5316L81.8673 14.16L85.5616 18.38H82.8284L80.005 14.77V18.38H77.8975V7.055ZM89.5564 18.5C87.1385 18.5 85.3814 16.785 85.3814 14.125C85.3814 11.465 87.0935 9.75 89.5564 9.75C92.0193 9.75 93.6613 11.415 93.6613 13.94C93.6637 14.2162 93.6436 14.4921 93.6012 14.765H87.514C87.5139 15.0258 87.566 15.284 87.6671 15.5244C87.7682 15.7649 87.9163 15.9827 88.1028 16.1653C88.2893 16.3478 88.5104 16.4913 88.7531 16.5874C88.9958 16.6836 89.2553 16.7303 89.5163 16.725C89.8637 16.7472 90.2095 16.6635 90.5081 16.4849C90.8067 16.3063 91.0439 16.0413 91.1883 15.725H93.456C93.2105 16.5566 92.6929 17.282 91.9859 17.7851C91.279 18.2881 90.4235 18.5399 89.5564 18.5ZM87.529 13.33H91.4837C91.479 13.0769 91.4225 12.8274 91.3179 12.5968C91.2133 12.3662 91.0626 12.1594 90.8751 11.989C90.6877 11.8186 90.4674 11.6883 90.2277 11.6059C89.988 11.5235 89.734 11.4909 89.4813 11.51C88.9821 11.5067 88.5009 11.6955 88.1374 12.0371C87.7738 12.3788 87.556 12.8472 87.529 13.345V13.33ZM94.7726 11.645H93.7714V9.9H94.7726V7.805H96.8901V9.9H98.7523V11.66H96.8901V15.76C96.8901 16.325 97.1154 16.57 97.7762 16.57H98.7773V18.375H97.4558C95.8639 18.375 94.7976 17.69 94.7976 15.745L94.7726 11.645Z" />
<path d="M10.7628 1.755L2.40786 5.93C2.34259 5.96297 2.28775 6.01337 2.24944 6.0756C2.21113 6.13783 2.19084 6.20945 2.19084 6.2825C2.19084 6.35556 2.21113 6.42718 2.24944 6.48941C2.28775 6.55164 2.34259 6.60204 2.40786 6.635L10.7628 10.805C10.9511 10.9011 11.1595 10.9512 11.371 10.9512C11.5825 10.9512 11.7909 10.9011 11.9792 10.805L20.3342 6.635C20.3994 6.60204 20.4543 6.55164 20.4926 6.48941C20.5309 6.42718 20.5512 6.35556 20.5512 6.2825C20.5512 6.20945 20.5309 6.13783 20.4926 6.0756C20.4543 6.01337 20.3994 5.96297 20.3342 5.93L11.9792 1.755C11.7902 1.66119 11.5821 1.61237 11.371 1.61237C11.16 1.61237 10.9518 1.66119 10.7628 1.755Z"/>
<path d="M11.3685 14.26L11.3785 14.265V14.26L11.3735 14.255L11.3685 14.26Z" />
<path d="M19.9687 10L19.8936 10.04L11.9542 14C11.7977 14.0754 11.6273 14.1179 11.4536 14.125L20.3942 18.775C20.4976 18.6082 20.553 18.4162 20.5544 18.22V10.295C20.5452 10.2314 20.5207 10.1709 20.4831 10.1188C20.4455 10.0666 20.3959 10.0242 20.3384 9.99529C20.281 9.96635 20.2174 9.95167 20.153 9.95249C20.0886 9.95331 20.0254 9.9696 19.9687 10V10Z"/>
<path d="M11.8541 23.185L20.0738 19.08C20.1987 19.0009 20.3061 18.8971 20.3892 18.775L11.4486 14.125H11.3685V23.285C11.5352 23.2823 11.6999 23.2484 11.8541 23.185Z" />
<path d="M2.72324 19.105L10.8579 23.17C11.0155 23.2409 11.1857 23.28 11.3585 23.285V14.12H11.2784L2.3578 18.755C2.44844 18.9003 2.57407 19.0206 2.72324 19.105V19.105Z" />
<path d="M2.86841 10.025L2.78331 10C2.7217 9.96947 2.65333 9.95509 2.58463 9.95821C2.51593 9.96134 2.44915 9.98187 2.39058 10.0179C2.332 10.0539 2.28356 10.1042 2.24981 10.164C2.21605 10.2239 2.19809 10.2913 2.19762 10.36V18.2C2.19907 18.3962 2.25448 18.5882 2.35781 18.755L11.2934 14.11C11.1199 14.1017 10.9498 14.0592 10.7928 13.985L2.86841 10.025Z" />
</svg>
